<?xml version="1.0" encoding="UTF-8" standalone="no"?>
<!DOCTYPE svg PUBLIC "-//W3C//DTD SVG 1.1//EN"
 "http://www.w3.org/Graphics/SVG/1.1/DTD/svg11.dtd">
<!-- Generated by graphviz version 2.43.0 (0)
 -->
<!-- Title: G Pages: 1 -->
<svg width="385pt" height="723pt"
 viewBox="0.00 0.00 384.98 722.58" xmlns="http://www.w3.org/2000/svg" xmlns:xlink="http://www.w3.org/1999/xlink">
<g id="graph0" class="graph" transform="scale(1 1) rotate(0) translate(4 718.58)">
<title>G</title>
<polygon fill="white" stroke="transparent" points="-4,4 -4,-718.58 380.98,-718.58 380.98,4 -4,4"/>
<text text-anchor="middle" x="188.49" y="-7.8" font-family="Times,serif" font-size="14.00">Pauli Propagation Graph</text>
<!-- 1 -->
<g id="node1" class="node">
<title>1</title>
<ellipse fill="none" stroke="black" cx="60.99" cy="-47.04" rx="27" ry="24.08"/>
<text text-anchor="middle" x="60.99" y="-50.44" font-family="Arial" font-size="12.00">Z</text>
<text text-anchor="middle" x="60.99" y="-37.44" font-family="Arial" font-size="12.00">(X)</text>
</g>
<!-- 2 -->
<g id="node2" class="node">
<title>2</title>
<ellipse fill="none" stroke="black" cx="104.99" cy="-227.21" rx="28.98" ry="24.08"/>
<text text-anchor="middle" x="104.99" y="-230.61" font-family="Arial" font-size="12.00">Y</text>
<text text-anchor="middle" x="104.99" y="-217.61" font-family="Arial" font-size="12.00">(RX)</text>
</g>
<!-- 11 -->
<g id="node11" class="node">
<title>11</title>
<ellipse fill="none" stroke="black" cx="177.99" cy="-142.12" rx="48.17" ry="24.08"/>
<text text-anchor="middle" x="177.99" y="-145.52" font-family="Arial" font-size="12.00">Y</text>
<text text-anchor="middle" x="177.99" y="-132.52" font-family="Arial" font-size="12.00">(MERGE)</text>
</g>
<!-- 2&#45;&gt;11 -->
<g id="edge7" class="edge">
<title>2&#45;&gt;11</title>
<path fill="none" stroke="black" d="M121.56,-207.36C130.65,-197.01 142.12,-183.95 152.34,-172.32"/>
<polygon fill="black" stroke="black" points="155.2,-174.36 159.18,-164.54 149.95,-169.74 155.2,-174.36"/>
</g>
<!-- 3 -->
<g id="node3" class="node">
<title>3</title>
<ellipse fill="none" stroke="black" cx="71.99" cy="-607.54" rx="27" ry="24.08"/>
<text text-anchor="middle" x="71.99" y="-610.94" font-family="Arial" font-size="12.00">Y</text>
<text text-anchor="middle" x="71.99" y="-597.94" font-family="Arial" font-size="12.00">(Z)</text>
</g>
<!-- 12 -->
<g id="node12" class="node">
<title>12</title>
<ellipse fill="none" stroke="black" cx="43.99" cy="-512.46" rx="28.98" ry="24.08"/>
<text text-anchor="middle" x="43.99" y="-515.86" font-family="Arial" font-size="12.00">X</text>
<text text-anchor="middle" x="43.99" y="-502.86" font-family="Arial" font-size="12.00">(RZ)</text>
</g>
<!-- 3&#45;&gt;12 -->
<g id="edge19" class="edge">
<title>3&#45;&gt;12</title>
<path fill="none" stroke="black" d="M65.21,-584.01C61.77,-572.55 57.51,-558.41 53.72,-545.8"/>
<polygon fill="black" stroke="black" points="57.04,-544.67 50.8,-536.11 50.33,-546.69 57.04,-544.67"/>
<text text-anchor="middle" x="65.99" y="-557.5" font-family="Arial" font-size="10.00">0.5</text>
</g>
<!-- 18 -->
<g id="node18" class="node">
<title>18</title>
<ellipse fill="none" stroke="black" cx="119.99" cy="-512.46" rx="28.98" ry="24.08"/>
<text text-anchor="middle" x="119.99" y="-515.86" font-family="Arial" font-size="12.00">Y</text>
<text text-anchor="middle" x="119.99" y="-502.86" font-family="Arial" font-size="12.00">(RZ)</text>
</g>
<!-- 3&#45;&gt;18 -->
<g id="edge13" class="edge">
<title>3&#45;&gt;18</title>
<path fill="none" stroke="black" d="M82.88,-585.42C89.22,-573.13 97.32,-557.43 104.33,-543.83"/>
<polygon fill="black" stroke="black" points="107.5,-545.31 108.98,-534.82 101.28,-542.1 107.5,-545.31"/>
<text text-anchor="middle" x="110.49" y="-557.5" font-family="Arial" font-size="10.00">0.866</text>
</g>
<!-- 4 -->
<g id="node4" class="node">
<title>4</title>
<ellipse fill="none" stroke="black" cx="347.99" cy="-607.54" rx="27" ry="24.08"/>
<text text-anchor="middle" x="347.99" y="-610.94" font-family="Arial" font-size="12.00">Z</text>
<text text-anchor="middle" x="347.99" y="-597.94" font-family="Arial" font-size="12.00">(Z)</text>
</g>
<!-- 5 -->
<g id="node5" class="node">
<title>5</title>
<ellipse fill="none" stroke="black" cx="347.99" cy="-512.46" rx="28.98" ry="24.08"/>
<text text-anchor="middle" x="347.99" y="-515.86" font-family="Arial" font-size="12.00">Z</text>
<text text-anchor="middle" x="347.99" y="-502.86" font-family="Arial" font-size="12.00">(RZ)</text>
</g>
<!-- 4&#45;&gt;5 -->
<g id="edge20" class="edge">
<title>4&#45;&gt;5</title>
<path fill="none" stroke="black" d="M347.99,-583.05C347.99,-572.06 347.99,-558.76 347.99,-546.75"/>
<polygon fill="black" stroke="black" points="351.49,-546.62 347.99,-536.62 344.49,-546.62 351.49,-546.62"/>
<text text-anchor="middle" x="350.99" y="-557.5" font-family="Arial" font-size="10.00">1</text>
</g>
<!-- 14 -->
<g id="node14" class="node">
<title>14</title>
<ellipse fill="none" stroke="black" cx="347.99" cy="-417.37" rx="27" ry="24.08"/>
<text text-anchor="middle" x="347.99" y="-420.77" font-family="Arial" font-size="12.00">X</text>
<text text-anchor="middle" x="347.99" y="-407.77" font-family="Arial" font-size="12.00">(H)</text>
</g>
<!-- 5&#45;&gt;14 -->
<g id="edge4" class="edge">
<title>5&#45;&gt;14</title>
<path fill="none" stroke="black" d="M347.99,-487.97C347.99,-476.97 347.99,-463.68 347.99,-451.67"/>
<polygon fill="black" stroke="black" points="351.49,-451.53 347.99,-441.53 344.49,-451.53 351.49,-451.53"/>
<text text-anchor="middle" x="354.99" y="-462.42" font-family="Arial" font-size="10.00">1.0</text>
</g>
<!-- 6 -->
<g id="node6" class="node">
<title>6</title>
<ellipse fill="none" stroke="black" cx="203.99" cy="-417.37" rx="48.17" ry="24.08"/>
<text text-anchor="middle" x="203.99" y="-420.77" font-family="Arial" font-size="12.00">Y</text>
<text text-anchor="middle" x="203.99" y="-407.77" font-family="Arial" font-size="12.00">(MERGE)</text>
</g>
<!-- 26 -->
<g id="node26" class="node">
<title>26</title>
<ellipse fill="none" stroke="black" cx="203.99" cy="-322.29" rx="27" ry="24.08"/>
<text text-anchor="middle" x="203.99" y="-325.69" font-family="Arial" font-size="12.00">Y</text>
<text text-anchor="middle" x="203.99" y="-312.69" font-family="Arial" font-size="12.00">(H)</text>
</g>
<!-- 6&#45;&gt;26 -->
<g id="edge6" class="edge">
<title>6&#45;&gt;26</title>
<path fill="none" stroke="black" d="M203.99,-392.89C203.99,-381.89 203.99,-368.59 203.99,-356.58"/>
<polygon fill="black" stroke="black" points="207.49,-356.45 203.99,-346.45 200.49,-356.45 207.49,-356.45"/>
<text text-anchor="middle" x="212.49" y="-367.33" font-family="Arial" font-size="10.00">&#45;1.0</text>
</g>
<!-- 7 -->
<g id="node7" class="node">
<title>7</title>
<ellipse fill="none" stroke="black" cx="256.99" cy="-227.21" rx="28.98" ry="24.08"/>
<text text-anchor="middle" x="256.99" y="-230.61" font-family="Arial" font-size="12.00">Y</text>
<text text-anchor="middle" x="256.99" y="-217.61" font-family="Arial" font-size="12.00">(RX)</text>
</g>
<!-- 7&#45;&gt;11 -->
<g id="edge11" class="edge">
<title>7&#45;&gt;11</title>
<path fill="none" stroke="black" d="M239.46,-207.77C229.39,-197.18 216.53,-183.66 205.18,-171.72"/>
<polygon fill="black" stroke="black" points="207.41,-168.98 197.98,-164.15 202.33,-173.81 207.41,-168.98"/>
</g>
<!-- 8 -->
<g id="node8" class="node">
<title>8</title>
<ellipse fill="none" stroke="black" cx="347.99" cy="-696.58" rx="27" ry="18"/>
<text text-anchor="middle" x="347.99" y="-693.48" font-family="Arial" font-size="12.00">Z</text>
</g>
<!-- 8&#45;&gt;4 -->
<g id="edge23" class="edge">
<title>8&#45;&gt;4</title>
<path fill="none" stroke="black" d="M347.99,-678.39C347.99,-667.94 347.99,-654.24 347.99,-641.75"/>
<polygon fill="black" stroke="black" points="351.49,-641.64 347.99,-631.64 344.49,-641.64 351.49,-641.64"/>
<text text-anchor="middle" x="354.99" y="-652.58" font-family="Arial" font-size="10.00">1.0</text>
</g>
<!-- 9 -->
<g id="node9" class="node">
<title>9</title>
<ellipse fill="none" stroke="black" cx="28.99" cy="-227.21" rx="28.98" ry="24.08"/>
<text text-anchor="middle" x="28.99" y="-230.61" font-family="Arial" font-size="12.00">Z</text>
<text text-anchor="middle" x="28.99" y="-217.61" font-family="Arial" font-size="12.00">(RX)</text>
</g>
<!-- 23 -->
<g id="node23" class="node">
<title>23</title>
<ellipse fill="none" stroke="black" cx="60.99" cy="-142.12" rx="48.17" ry="24.08"/>
<text text-anchor="middle" x="60.99" y="-145.52" font-family="Arial" font-size="12.00">Z</text>
<text text-anchor="middle" x="60.99" y="-132.52" font-family="Arial" font-size="12.00">(MERGE)</text>
</g>
<!-- 9&#45;&gt;23 -->
<g id="edge18" class="edge">
<title>9&#45;&gt;23</title>
<path fill="none" stroke="black" d="M37.57,-203.94C40.92,-195.24 44.83,-185.08 48.49,-175.59"/>
<polygon fill="black" stroke="black" points="51.84,-176.62 52.17,-166.03 45.31,-174.1 51.84,-176.62"/>
</g>
<!-- 10 -->
<g id="node10" class="node">
<title>10</title>
<ellipse fill="none" stroke="black" cx="347.99" cy="-322.29" rx="28.98" ry="24.08"/>
<text text-anchor="middle" x="347.99" y="-325.69" font-family="Arial" font-size="12.00">X</text>
<text text-anchor="middle" x="347.99" y="-312.69" font-family="Arial" font-size="12.00">(RX)</text>
</g>
<!-- 24 -->
<g id="node24" class="node">
<title>24</title>
<ellipse fill="none" stroke="black" cx="347.99" cy="-227.21" rx="27" ry="24.08"/>
<text text-anchor="middle" x="347.99" y="-230.61" font-family="Arial" font-size="12.00">X</text>
<text text-anchor="middle" x="347.99" y="-217.61" font-family="Arial" font-size="12.00">(X)</text>
</g>
<!-- 10&#45;&gt;24 -->
<g id="edge2" class="edge">
<title>10&#45;&gt;24</title>
<path fill="none" stroke="black" d="M347.99,-297.8C347.99,-286.81 347.99,-273.51 347.99,-261.5"/>
<polygon fill="black" stroke="black" points="351.49,-261.37 347.99,-251.37 344.49,-261.37 351.49,-261.37"/>
<text text-anchor="middle" x="354.99" y="-272.25" font-family="Arial" font-size="10.00">1.0</text>
</g>
<!-- 17 -->
<g id="node17" class="node">
<title>17</title>
<ellipse fill="none" stroke="black" cx="177.99" cy="-47.04" rx="27" ry="24.08"/>
<text text-anchor="middle" x="177.99" y="-50.44" font-family="Arial" font-size="12.00">Y</text>
<text text-anchor="middle" x="177.99" y="-37.44" font-family="Arial" font-size="12.00">(X)</text>
</g>
<!-- 11&#45;&gt;17 -->
<g id="edge27" class="edge">
<title>11&#45;&gt;17</title>
<path fill="none" stroke="black" d="M177.99,-117.64C177.99,-106.64 177.99,-93.34 177.99,-81.33"/>
<polygon fill="black" stroke="black" points="181.49,-81.2 177.99,-71.2 174.49,-81.2 181.49,-81.2"/>
<text text-anchor="middle" x="186.49" y="-92.08" font-family="Arial" font-size="10.00">&#45;1.0</text>
</g>
<!-- 22 -->
<g id="node22" class="node">
<title>22</title>
<ellipse fill="none" stroke="black" cx="55.99" cy="-417.37" rx="48.17" ry="24.08"/>
<text text-anchor="middle" x="55.99" y="-420.77" font-family="Arial" font-size="12.00">X</text>
<text text-anchor="middle" x="55.99" y="-407.77" font-family="Arial" font-size="12.00">(MERGE)</text>
</g>
<!-- 12&#45;&gt;22 -->
<g id="edge10" class="edge">
<title>12&#45;&gt;22</title>
<path fill="none" stroke="black" d="M46.96,-488.45C48.39,-477.37 50.12,-463.88 51.69,-451.71"/>
<polygon fill="black" stroke="black" points="55.21,-451.81 53.02,-441.44 48.27,-450.91 55.21,-451.81"/>
</g>
<!-- 13 -->
<g id="node13" class="node">
<title>13</title>
<ellipse fill="none" stroke="black" cx="195.99" cy="-512.46" rx="28.98" ry="24.08"/>
<text text-anchor="middle" x="195.99" y="-515.86" font-family="Arial" font-size="12.00">X</text>
<text text-anchor="middle" x="195.99" y="-502.86" font-family="Arial" font-size="12.00">(RZ)</text>
</g>
<!-- 13&#45;&gt;22 -->
<g id="edge15" class="edge">
<title>13&#45;&gt;22</title>
<path fill="none" stroke="black" d="M173.81,-496.71C151.99,-482.2 118.29,-459.8 92.52,-442.66"/>
<polygon fill="black" stroke="black" points="94.37,-439.69 84.11,-437.07 90.5,-445.52 94.37,-439.69"/>
</g>
<!-- 14&#45;&gt;10 -->
<g id="edge17" class="edge">
<title>14&#45;&gt;10</title>
<path fill="none" stroke="black" d="M347.99,-392.89C347.99,-381.89 347.99,-368.59 347.99,-356.58"/>
<polygon fill="black" stroke="black" points="351.49,-356.45 347.99,-346.45 344.49,-356.45 351.49,-356.45"/>
<text text-anchor="middle" x="350.99" y="-367.33" font-family="Arial" font-size="10.00">1</text>
</g>
<!-- 15 -->
<g id="node15" class="node">
<title>15</title>
<ellipse fill="none" stroke="black" cx="229.99" cy="-607.54" rx="27" ry="24.08"/>
<text text-anchor="middle" x="229.99" y="-610.94" font-family="Arial" font-size="12.00">X</text>
<text text-anchor="middle" x="229.99" y="-597.94" font-family="Arial" font-size="12.00">(Z)</text>
</g>
<!-- 15&#45;&gt;13 -->
<g id="edge16" class="edge">
<title>15&#45;&gt;13</title>
<path fill="none" stroke="black" d="M219.3,-585.08C216.41,-578.85 213.41,-571.97 210.99,-565.5 208.68,-559.31 206.51,-552.61 204.58,-546.13"/>
<polygon fill="black" stroke="black" points="207.87,-544.89 201.75,-536.25 201.14,-546.82 207.87,-544.89"/>
<text text-anchor="middle" x="223.49" y="-557.5" font-family="Arial" font-size="10.00">0.866</text>
</g>
<!-- 21 -->
<g id="node21" class="node">
<title>21</title>
<ellipse fill="none" stroke="black" cx="271.99" cy="-512.46" rx="28.98" ry="24.08"/>
<text text-anchor="middle" x="271.99" y="-515.86" font-family="Arial" font-size="12.00">Y</text>
<text text-anchor="middle" x="271.99" y="-502.86" font-family="Arial" font-size="12.00">(RZ)</text>
</g>
<!-- 15&#45;&gt;21 -->
<g id="edge24" class="edge">
<title>15&#45;&gt;21</title>
<path fill="none" stroke="black" d="M239.73,-584.95C245.15,-572.94 252,-557.77 257.98,-544.51"/>
<polygon fill="black" stroke="black" points="261.23,-545.81 262.16,-535.25 254.85,-542.93 261.23,-545.81"/>
<text text-anchor="middle" x="261.49" y="-557.5" font-family="Arial" font-size="10.00">&#45;0.5</text>
</g>
<!-- 16 -->
<g id="node16" class="node">
<title>16</title>
<ellipse fill="none" stroke="black" cx="55.99" cy="-322.29" rx="27" ry="24.08"/>
<text text-anchor="middle" x="55.99" y="-325.69" font-family="Arial" font-size="12.00">Z</text>
<text text-anchor="middle" x="55.99" y="-312.69" font-family="Arial" font-size="12.00">(H)</text>
</g>
<!-- 16&#45;&gt;2 -->
<g id="edge22" class="edge">
<title>16&#45;&gt;2</title>
<path fill="none" stroke="black" d="M67.11,-300.17C73.58,-287.88 81.85,-272.18 89,-258.58"/>
<polygon fill="black" stroke="black" points="92.19,-260.05 93.75,-249.57 85.99,-256.79 92.19,-260.05"/>
<text text-anchor="middle" x="94.49" y="-272.25" font-family="Arial" font-size="10.00">0.707</text>
</g>
<!-- 16&#45;&gt;9 -->
<g id="edge5" class="edge">
<title>16&#45;&gt;9</title>
<path fill="none" stroke="black" d="M49.46,-298.76C46.13,-287.3 42.03,-273.16 38.37,-260.55"/>
<polygon fill="black" stroke="black" points="41.71,-259.49 35.56,-250.86 34.99,-261.44 41.71,-259.49"/>
<text text-anchor="middle" x="56.49" y="-272.25" font-family="Arial" font-size="10.00">0.707</text>
</g>
<!-- 18&#45;&gt;6 -->
<g id="edge25" class="edge">
<title>18&#45;&gt;6</title>
<path fill="none" stroke="black" d="M136.99,-492.62C148.83,-479.5 164.83,-461.77 178.23,-446.92"/>
<polygon fill="black" stroke="black" points="180.87,-449.23 184.97,-439.46 175.67,-444.54 180.87,-449.23"/>
</g>
<!-- 19 -->
<g id="node19" class="node">
<title>19</title>
<ellipse fill="none" stroke="black" cx="180.99" cy="-227.21" rx="28.98" ry="24.08"/>
<text text-anchor="middle" x="180.99" y="-230.61" font-family="Arial" font-size="12.00">Z</text>
<text text-anchor="middle" x="180.99" y="-217.61" font-family="Arial" font-size="12.00">(RX)</text>
</g>
<!-- 19&#45;&gt;23 -->
<g id="edge12" class="edge">
<title>19&#45;&gt;23</title>
<path fill="none" stroke="black" d="M159.26,-211.16C141.89,-199.13 117.16,-182.02 96.86,-167.96"/>
<polygon fill="black" stroke="black" points="98.68,-164.96 88.47,-162.15 94.7,-170.72 98.68,-164.96"/>
</g>
<!-- 20 -->
<g id="node20" class="node">
<title>20</title>
<ellipse fill="none" stroke="black" cx="229.99" cy="-696.58" rx="27" ry="18"/>
<text text-anchor="middle" x="229.99" y="-693.48" font-family="Arial" font-size="12.00">X</text>
</g>
<!-- 20&#45;&gt;15 -->
<g id="edge21" class="edge">
<title>20&#45;&gt;15</title>
<path fill="none" stroke="black" d="M229.99,-678.39C229.99,-667.94 229.99,-654.24 229.99,-641.75"/>
<polygon fill="black" stroke="black" points="233.49,-641.64 229.99,-631.64 226.49,-641.64 233.49,-641.64"/>
<text text-anchor="middle" x="238.49" y="-652.58" font-family="Arial" font-size="10.00">&#45;1.0</text>
</g>
<!-- 21&#45;&gt;6 -->
<g id="edge14" class="edge">
<title>21&#45;&gt;6</title>
<path fill="none" stroke="black" d="M257.24,-491.26C248.11,-478.77 236.24,-462.51 226.01,-448.52"/>
<polygon fill="black" stroke="black" points="228.63,-446.17 219.9,-440.16 222.98,-450.3 228.63,-446.17"/>
</g>
<!-- 22&#45;&gt;16 -->
<g id="edge26" class="edge">
<title>22&#45;&gt;16</title>
<path fill="none" stroke="black" d="M55.99,-392.89C55.99,-381.89 55.99,-368.59 55.99,-356.58"/>
<polygon fill="black" stroke="black" points="59.49,-356.45 55.99,-346.45 52.49,-356.45 59.49,-356.45"/>
<text text-anchor="middle" x="62.99" y="-367.33" font-family="Arial" font-size="10.00">1.0</text>
</g>
<!-- 23&#45;&gt;1 -->
<g id="edge1" class="edge">
<title>23&#45;&gt;1</title>
<path fill="none" stroke="black" d="M60.99,-117.64C60.99,-106.64 60.99,-93.34 60.99,-81.33"/>
<polygon fill="black" stroke="black" points="64.49,-81.2 60.99,-71.2 57.49,-81.2 64.49,-81.2"/>
<text text-anchor="middle" x="69.49" y="-92.08" font-family="Arial" font-size="10.00">&#45;1.0</text>
</g>
<!-- 25 -->
<g id="node25" class="node">
<title>25</title>
<ellipse fill="none" stroke="black" cx="71.99" cy="-696.58" rx="27" ry="18"/>
<text text-anchor="middle" x="71.99" y="-693.48" font-family="Arial" font-size="12.00">Y</text>
</g>
<!-- 25&#45;&gt;3 -->
<g id="edge9" class="edge">
<title>25&#45;&gt;3</title>
<path fill="none" stroke="black" d="M71.99,-678.39C71.99,-667.94 71.99,-654.24 71.99,-641.75"/>
<polygon fill="black" stroke="black" points="75.49,-641.64 71.99,-631.64 68.49,-641.64 75.49,-641.64"/>
<text text-anchor="middle" x="80.49" y="-652.58" font-family="Arial" font-size="10.00">&#45;1.0</text>
</g>
<!-- 26&#45;&gt;7 -->
<g id="edge3" class="edge">
<title>26&#45;&gt;7</title>
<path fill="none" stroke="black" d="M215.75,-300.63C222.91,-288.07 232.16,-271.81 240.09,-257.88"/>
<polygon fill="black" stroke="black" points="243.17,-259.55 245.08,-249.13 237.09,-256.09 243.17,-259.55"/>
<text text-anchor="middle" x="245.49" y="-272.25" font-family="Arial" font-size="10.00">0.707</text>
</g>
<!-- 26&#45;&gt;19 -->
<g id="edge8" class="edge">
<title>26&#45;&gt;19</title>
<path fill="none" stroke="black" d="M198.42,-298.76C195.62,-287.41 192.17,-273.44 189.08,-260.93"/>
<polygon fill="black" stroke="black" points="192.38,-259.72 186.59,-250.86 185.59,-261.4 192.38,-259.72"/>
<text text-anchor="middle" x="207.99" y="-272.25" font-family="Arial" font-size="10.00">&#45;0.707</text>
</g>
</g>
</svg>
