<?xml version="1.0" encoding="UTF-8" standalone="no"?>
<!DOCTYPE svg PUBLIC "-//W3C//DTD SVG 1.1//EN"
 "http://www.w3.org/Graphics/SVG/1.1/DTD/svg11.dtd">
<!-- Generated by graphviz version 2.43.0 (0)
 -->
<!-- Title: G Pages: 1 -->
<svg width="394pt" height="723pt"
 viewBox="0.00 0.00 393.98 722.58" xmlns="http://www.w3.org/2000/svg" xmlns:xlink="http://www.w3.org/1999/xlink">
<g id="graph0" class="graph" transform="scale(1 1) rotate(0) translate(4 718.58)">
<title>G</title>
<polygon fill="white" stroke="transparent" points="-4,4 -4,-718.58 389.98,-718.58 389.98,4 -4,4"/>
<text text-anchor="middle" x="192.99" y="-7.8" font-family="Times,serif" font-size="14.00">Pauli Propagation Graph</text>
<!-- 1 -->
<g id="node1" class="node">
<title>1</title>
<ellipse fill="none" stroke="black" cx="28.99" cy="-512.46" rx="28.98" ry="24.08"/>
<text text-anchor="middle" x="28.99" y="-515.86" font-family="Arial" font-size="12.00">X</text>
<text text-anchor="middle" x="28.99" y="-502.86" font-family="Arial" font-size="12.00">(RZ)</text>
</g>
<!-- 2 -->
<g id="node2" class="node">
<title>2</title>
<ellipse fill="none" stroke="black" cx="54.99" cy="-417.37" rx="48.17" ry="24.08"/>
<text text-anchor="middle" x="54.99" y="-420.77" font-family="Arial" font-size="12.00">X</text>
<text text-anchor="middle" x="54.99" y="-407.77" font-family="Arial" font-size="12.00">(MERGE)</text>
</g>
<!-- 1&#45;&gt;2 -->
<g id="edge18" class="edge">
<title>1&#45;&gt;2</title>
<path fill="none" stroke="black" d="M35.29,-488.93C38.46,-477.55 42.38,-463.53 45.88,-451"/>
<polygon fill="black" stroke="black" points="49.26,-451.92 48.57,-441.35 42.51,-450.04 49.26,-451.92"/>
</g>
<!-- 3 -->
<g id="node3" class="node">
<title>3</title>
<ellipse fill="none" stroke="black" cx="54.99" cy="-322.29" rx="27" ry="24.08"/>
<text text-anchor="middle" x="54.99" y="-325.69" font-family="Arial" font-size="12.00">Z</text>
<text text-anchor="middle" x="54.99" y="-312.69" font-family="Arial" font-size="12.00">(H)</text>
</g>
<!-- 2&#45;&gt;3 -->
<g id="edge9" class="edge">
<title>2&#45;&gt;3</title>
<path fill="none" stroke="black" d="M54.99,-392.89C54.99,-381.89 54.99,-368.59 54.99,-356.58"/>
<polygon fill="black" stroke="black" points="58.49,-356.45 54.99,-346.45 51.49,-356.45 58.49,-356.45"/>
<text text-anchor="middle" x="61.99" y="-367.33" font-family="Arial" font-size="10.00">1.0</text>
</g>
<!-- 4 -->
<g id="node4" class="node">
<title>4</title>
<ellipse fill="none" stroke="black" cx="36.99" cy="-227.21" rx="28.98" ry="24.08"/>
<text text-anchor="middle" x="36.99" y="-230.61" font-family="Arial" font-size="12.00">Z</text>
<text text-anchor="middle" x="36.99" y="-217.61" font-family="Arial" font-size="12.00">(RX)</text>
</g>
<!-- 3&#45;&gt;4 -->
<g id="edge27" class="edge">
<title>3&#45;&gt;4</title>
<path fill="none" stroke="black" d="M50.54,-298.28C48.38,-287.09 45.74,-273.44 43.37,-261.17"/>
<polygon fill="black" stroke="black" points="46.79,-260.43 41.45,-251.28 39.91,-261.76 46.79,-260.43"/>
<text text-anchor="middle" x="59.49" y="-272.25" font-family="Arial" font-size="10.00">0.707</text>
</g>
<!-- 8 -->
<g id="node8" class="node">
<title>8</title>
<ellipse fill="none" stroke="black" cx="112.99" cy="-227.21" rx="28.98" ry="24.08"/>
<text text-anchor="middle" x="112.99" y="-230.61" font-family="Arial" font-size="12.00">Y</text>
<text text-anchor="middle" x="112.99" y="-217.61" font-family="Arial" font-size="12.00">(RX)</text>
</g>
<!-- 3&#45;&gt;8 -->
<g id="edge6" class="edge">
<title>3&#45;&gt;8</title>
<path fill="none" stroke="black" d="M67.86,-300.63C75.75,-287.98 85.96,-271.58 94.68,-257.59"/>
<polygon fill="black" stroke="black" points="97.84,-259.15 100.16,-248.81 91.9,-255.44 97.84,-259.15"/>
<text text-anchor="middle" x="98.49" y="-272.25" font-family="Arial" font-size="10.00">0.707</text>
</g>
<!-- 16 -->
<g id="node16" class="node">
<title>16</title>
<ellipse fill="none" stroke="black" cx="75.99" cy="-142.12" rx="48.17" ry="24.08"/>
<text text-anchor="middle" x="75.99" y="-145.52" font-family="Arial" font-size="12.00">Z</text>
<text text-anchor="middle" x="75.99" y="-132.52" font-family="Arial" font-size="12.00">(MERGE)</text>
</g>
<!-- 4&#45;&gt;16 -->
<g id="edge13" class="edge">
<title>4&#45;&gt;16</title>
<path fill="none" stroke="black" d="M47.24,-204.38C51.48,-195.34 56.48,-184.69 61.11,-174.82"/>
<polygon fill="black" stroke="black" points="64.32,-176.22 65.41,-165.68 57.99,-173.24 64.32,-176.22"/>
</g>
<!-- 5 -->
<g id="node5" class="node">
<title>5</title>
<ellipse fill="none" stroke="black" cx="180.99" cy="-512.46" rx="28.98" ry="24.08"/>
<text text-anchor="middle" x="180.99" y="-515.86" font-family="Arial" font-size="12.00">X</text>
<text text-anchor="middle" x="180.99" y="-502.86" font-family="Arial" font-size="12.00">(RZ)</text>
</g>
<!-- 5&#45;&gt;2 -->
<g id="edge23" class="edge">
<title>5&#45;&gt;2</title>
<path fill="none" stroke="black" d="M159.9,-495.88C140.77,-481.74 112.2,-460.64 89.7,-444.02"/>
<polygon fill="black" stroke="black" points="91.53,-441.02 81.41,-437.89 87.37,-446.65 91.53,-441.02"/>
</g>
<!-- 6 -->
<g id="node6" class="node">
<title>6</title>
<ellipse fill="none" stroke="black" cx="356.99" cy="-417.37" rx="27" ry="24.08"/>
<text text-anchor="middle" x="356.99" y="-420.77" font-family="Arial" font-size="12.00">X</text>
<text text-anchor="middle" x="356.99" y="-407.77" font-family="Arial" font-size="12.00">(H)</text>
</g>
<!-- 9 -->
<g id="node9" class="node">
<title>9</title>
<ellipse fill="none" stroke="black" cx="356.99" cy="-322.29" rx="28.98" ry="24.08"/>
<text text-anchor="middle" x="356.99" y="-325.69" font-family="Arial" font-size="12.00">X</text>
<text text-anchor="middle" x="356.99" y="-312.69" font-family="Arial" font-size="12.00">(RX)</text>
</g>
<!-- 6&#45;&gt;9 -->
<g id="edge4" class="edge">
<title>6&#45;&gt;9</title>
<path fill="none" stroke="black" d="M356.99,-392.89C356.99,-381.89 356.99,-368.59 356.99,-356.58"/>
<polygon fill="black" stroke="black" points="360.49,-356.45 356.99,-346.45 353.49,-356.45 360.49,-356.45"/>
<text text-anchor="middle" x="359.99" y="-367.33" font-family="Arial" font-size="10.00">1</text>
</g>
<!-- 7 -->
<g id="node7" class="node">
<title>7</title>
<ellipse fill="none" stroke="black" cx="188.99" cy="-227.21" rx="28.98" ry="24.08"/>
<text text-anchor="middle" x="188.99" y="-230.61" font-family="Arial" font-size="12.00">Z</text>
<text text-anchor="middle" x="188.99" y="-217.61" font-family="Arial" font-size="12.00">(RX)</text>
</g>
<!-- 7&#45;&gt;16 -->
<g id="edge3" class="edge">
<title>7&#45;&gt;16</title>
<path fill="none" stroke="black" d="M167.74,-210.58C151.66,-198.76 129.24,-182.28 110.59,-168.56"/>
<polygon fill="black" stroke="black" points="112.45,-165.59 102.32,-162.48 108.31,-171.23 112.45,-165.59"/>
</g>
<!-- 15 -->
<g id="node15" class="node">
<title>15</title>
<ellipse fill="none" stroke="black" cx="192.99" cy="-142.12" rx="48.17" ry="24.08"/>
<text text-anchor="middle" x="192.99" y="-145.52" font-family="Arial" font-size="12.00">Y</text>
<text text-anchor="middle" x="192.99" y="-132.52" font-family="Arial" font-size="12.00">(MERGE)</text>
</g>
<!-- 8&#45;&gt;15 -->
<g id="edge20" class="edge">
<title>8&#45;&gt;15</title>
<path fill="none" stroke="black" d="M130.75,-207.77C141.04,-197.08 154.21,-183.4 165.79,-171.38"/>
<polygon fill="black" stroke="black" points="168.33,-173.78 172.75,-164.15 163.29,-168.92 168.33,-173.78"/>
</g>
<!-- 24 -->
<g id="node24" class="node">
<title>24</title>
<ellipse fill="none" stroke="black" cx="356.99" cy="-227.21" rx="27" ry="24.08"/>
<text text-anchor="middle" x="356.99" y="-230.61" font-family="Arial" font-size="12.00">X</text>
<text text-anchor="middle" x="356.99" y="-217.61" font-family="Arial" font-size="12.00">(X)</text>
</g>
<!-- 9&#45;&gt;24 -->
<g id="edge26" class="edge">
<title>9&#45;&gt;24</title>
<path fill="none" stroke="black" d="M356.99,-297.8C356.99,-286.81 356.99,-273.51 356.99,-261.5"/>
<polygon fill="black" stroke="black" points="360.49,-261.37 356.99,-251.37 353.49,-261.37 360.49,-261.37"/>
<text text-anchor="middle" x="363.99" y="-272.25" font-family="Arial" font-size="10.00">1.0</text>
</g>
<!-- 10 -->
<g id="node10" class="node">
<title>10</title>
<ellipse fill="none" stroke="black" cx="63.99" cy="-607.54" rx="27" ry="24.08"/>
<text text-anchor="middle" x="63.99" y="-610.94" font-family="Arial" font-size="12.00">X</text>
<text text-anchor="middle" x="63.99" y="-597.94" font-family="Arial" font-size="12.00">(Z)</text>
</g>
<!-- 10&#45;&gt;1 -->
<g id="edge15" class="edge">
<title>10&#45;&gt;1</title>
<path fill="none" stroke="black" d="M52.9,-585.55C49.78,-579.21 46.55,-572.16 43.99,-565.5 41.62,-559.34 39.42,-552.64 37.48,-546.16"/>
<polygon fill="black" stroke="black" points="40.77,-544.93 34.65,-536.28 34.04,-546.86 40.77,-544.93"/>
<text text-anchor="middle" x="56.49" y="-557.5" font-family="Arial" font-size="10.00">0.866</text>
</g>
<!-- 19 -->
<g id="node19" class="node">
<title>19</title>
<ellipse fill="none" stroke="black" cx="104.99" cy="-512.46" rx="28.98" ry="24.08"/>
<text text-anchor="middle" x="104.99" y="-515.86" font-family="Arial" font-size="12.00">Y</text>
<text text-anchor="middle" x="104.99" y="-502.86" font-family="Arial" font-size="12.00">(RZ)</text>
</g>
<!-- 10&#45;&gt;19 -->
<g id="edge16" class="edge">
<title>10&#45;&gt;19</title>
<path fill="none" stroke="black" d="M73.5,-584.95C78.79,-572.94 85.47,-557.77 91.32,-544.51"/>
<polygon fill="black" stroke="black" points="94.56,-545.81 95.39,-535.25 88.16,-542.99 94.56,-545.81"/>
<text text-anchor="middle" x="94.49" y="-557.5" font-family="Arial" font-size="10.00">&#45;0.5</text>
</g>
<!-- 11 -->
<g id="node11" class="node">
<title>11</title>
<ellipse fill="none" stroke="black" cx="264.99" cy="-227.21" rx="28.98" ry="24.08"/>
<text text-anchor="middle" x="264.99" y="-230.61" font-family="Arial" font-size="12.00">Y</text>
<text text-anchor="middle" x="264.99" y="-217.61" font-family="Arial" font-size="12.00">(RX)</text>
</g>
<!-- 11&#45;&gt;15 -->
<g id="edge25" class="edge">
<title>11&#45;&gt;15</title>
<path fill="none" stroke="black" d="M248.29,-206.94C239.38,-196.66 228.23,-183.79 218.28,-172.31"/>
<polygon fill="black" stroke="black" points="220.82,-169.89 211.63,-164.63 215.53,-174.48 220.82,-169.89"/>
</g>
<!-- 12 -->
<g id="node12" class="node">
<title>12</title>
<ellipse fill="none" stroke="black" cx="63.99" cy="-696.58" rx="27" ry="18"/>
<text text-anchor="middle" x="63.99" y="-693.48" font-family="Arial" font-size="12.00">X</text>
</g>
<!-- 12&#45;&gt;10 -->
<g id="edge21" class="edge">
<title>12&#45;&gt;10</title>
<path fill="none" stroke="black" d="M63.99,-678.39C63.99,-667.94 63.99,-654.24 63.99,-641.75"/>
<polygon fill="black" stroke="black" points="67.49,-641.64 63.99,-631.64 60.49,-641.64 67.49,-641.64"/>
<text text-anchor="middle" x="72.49" y="-652.58" font-family="Arial" font-size="10.00">&#45;1.0</text>
</g>
<!-- 13 -->
<g id="node13" class="node">
<title>13</title>
<ellipse fill="none" stroke="black" cx="218.99" cy="-696.58" rx="27" ry="18"/>
<text text-anchor="middle" x="218.99" y="-693.48" font-family="Arial" font-size="12.00">Y</text>
</g>
<!-- 22 -->
<g id="node22" class="node">
<title>22</title>
<ellipse fill="none" stroke="black" cx="218.99" cy="-607.54" rx="27" ry="24.08"/>
<text text-anchor="middle" x="218.99" y="-610.94" font-family="Arial" font-size="12.00">Y</text>
<text text-anchor="middle" x="218.99" y="-597.94" font-family="Arial" font-size="12.00">(Z)</text>
</g>
<!-- 13&#45;&gt;22 -->
<g id="edge19" class="edge">
<title>13&#45;&gt;22</title>
<path fill="none" stroke="black" d="M218.99,-678.39C218.99,-667.94 218.99,-654.24 218.99,-641.75"/>
<polygon fill="black" stroke="black" points="222.49,-641.64 218.99,-631.64 215.49,-641.64 222.49,-641.64"/>
<text text-anchor="middle" x="227.49" y="-652.58" font-family="Arial" font-size="10.00">&#45;1.0</text>
</g>
<!-- 14 -->
<g id="node14" class="node">
<title>14</title>
<ellipse fill="none" stroke="black" cx="356.99" cy="-696.58" rx="27" ry="18"/>
<text text-anchor="middle" x="356.99" y="-693.48" font-family="Arial" font-size="12.00">Z</text>
</g>
<!-- 20 -->
<g id="node20" class="node">
<title>20</title>
<ellipse fill="none" stroke="black" cx="356.99" cy="-607.54" rx="27" ry="24.08"/>
<text text-anchor="middle" x="356.99" y="-610.94" font-family="Arial" font-size="12.00">Z</text>
<text text-anchor="middle" x="356.99" y="-597.94" font-family="Arial" font-size="12.00">(Z)</text>
</g>
<!-- 14&#45;&gt;20 -->
<g id="edge17" class="edge">
<title>14&#45;&gt;20</title>
<path fill="none" stroke="black" d="M356.99,-678.39C356.99,-667.94 356.99,-654.24 356.99,-641.75"/>
<polygon fill="black" stroke="black" points="360.49,-641.64 356.99,-631.64 353.49,-641.64 360.49,-641.64"/>
<text text-anchor="middle" x="363.99" y="-652.58" font-family="Arial" font-size="10.00">1.0</text>
</g>
<!-- 18 -->
<g id="node18" class="node">
<title>18</title>
<ellipse fill="none" stroke="black" cx="192.99" cy="-47.04" rx="27" ry="24.08"/>
<text text-anchor="middle" x="192.99" y="-50.44" font-family="Arial" font-size="12.00">Y</text>
<text text-anchor="middle" x="192.99" y="-37.44" font-family="Arial" font-size="12.00">(X)</text>
</g>
<!-- 15&#45;&gt;18 -->
<g id="edge22" class="edge">
<title>15&#45;&gt;18</title>
<path fill="none" stroke="black" d="M192.99,-117.64C192.99,-106.64 192.99,-93.34 192.99,-81.33"/>
<polygon fill="black" stroke="black" points="196.49,-81.2 192.99,-71.2 189.49,-81.2 196.49,-81.2"/>
<text text-anchor="middle" x="201.49" y="-92.08" font-family="Arial" font-size="10.00">&#45;1.0</text>
</g>
<!-- 17 -->
<g id="node17" class="node">
<title>17</title>
<ellipse fill="none" stroke="black" cx="75.99" cy="-47.04" rx="27" ry="24.08"/>
<text text-anchor="middle" x="75.99" y="-50.44" font-family="Arial" font-size="12.00">Z</text>
<text text-anchor="middle" x="75.99" y="-37.44" font-family="Arial" font-size="12.00">(X)</text>
</g>
<!-- 16&#45;&gt;17 -->
<g id="edge12" class="edge">
<title>16&#45;&gt;17</title>
<path fill="none" stroke="black" d="M75.99,-117.64C75.99,-106.64 75.99,-93.34 75.99,-81.33"/>
<polygon fill="black" stroke="black" points="79.49,-81.2 75.99,-71.2 72.49,-81.2 79.49,-81.2"/>
<text text-anchor="middle" x="84.49" y="-92.08" font-family="Arial" font-size="10.00">&#45;1.0</text>
</g>
<!-- 25 -->
<g id="node25" class="node">
<title>25</title>
<ellipse fill="none" stroke="black" cx="213.99" cy="-417.37" rx="48.17" ry="24.08"/>
<text text-anchor="middle" x="213.99" y="-420.77" font-family="Arial" font-size="12.00">Y</text>
<text text-anchor="middle" x="213.99" y="-407.77" font-family="Arial" font-size="12.00">(MERGE)</text>
</g>
<!-- 19&#45;&gt;25 -->
<g id="edge1" class="edge">
<title>19&#45;&gt;25</title>
<path fill="none" stroke="black" d="M124.73,-494.6C140.83,-480.85 163.89,-461.16 182.53,-445.24"/>
<polygon fill="black" stroke="black" points="184.89,-447.83 190.22,-438.67 180.34,-442.51 184.89,-447.83"/>
</g>
<!-- 21 -->
<g id="node21" class="node">
<title>21</title>
<ellipse fill="none" stroke="black" cx="356.99" cy="-512.46" rx="28.98" ry="24.08"/>
<text text-anchor="middle" x="356.99" y="-515.86" font-family="Arial" font-size="12.00">Z</text>
<text text-anchor="middle" x="356.99" y="-502.86" font-family="Arial" font-size="12.00">(RZ)</text>
</g>
<!-- 20&#45;&gt;21 -->
<g id="edge8" class="edge">
<title>20&#45;&gt;21</title>
<path fill="none" stroke="black" d="M356.99,-583.05C356.99,-572.06 356.99,-558.76 356.99,-546.75"/>
<polygon fill="black" stroke="black" points="360.49,-546.62 356.99,-536.62 353.49,-546.62 360.49,-546.62"/>
<text text-anchor="middle" x="359.99" y="-557.5" font-family="Arial" font-size="10.00">1</text>
</g>
<!-- 21&#45;&gt;6 -->
<g id="edge11" class="edge">
<title>21&#45;&gt;6</title>
<path fill="none" stroke="black" d="M356.99,-487.97C356.99,-476.97 356.99,-463.68 356.99,-451.67"/>
<polygon fill="black" stroke="black" points="360.49,-451.53 356.99,-441.53 353.49,-451.53 360.49,-451.53"/>
<text text-anchor="middle" x="363.99" y="-462.42" font-family="Arial" font-size="10.00">1.0</text>
</g>
<!-- 22&#45;&gt;5 -->
<g id="edge24" class="edge">
<title>22&#45;&gt;5</title>
<path fill="none" stroke="black" d="M209.99,-584.48C205.16,-572.66 199.13,-557.89 193.82,-544.88"/>
<polygon fill="black" stroke="black" points="196.95,-543.29 189.93,-535.36 190.47,-545.94 196.95,-543.29"/>
<text text-anchor="middle" x="208.99" y="-557.5" font-family="Arial" font-size="10.00">0.5</text>
</g>
<!-- 26 -->
<g id="node26" class="node">
<title>26</title>
<ellipse fill="none" stroke="black" cx="256.99" cy="-512.46" rx="28.98" ry="24.08"/>
<text text-anchor="middle" x="256.99" y="-515.86" font-family="Arial" font-size="12.00">Y</text>
<text text-anchor="middle" x="256.99" y="-502.86" font-family="Arial" font-size="12.00">(RZ)</text>
</g>
<!-- 22&#45;&gt;26 -->
<g id="edge5" class="edge">
<title>22&#45;&gt;26</title>
<path fill="none" stroke="black" d="M228,-584.48C232.82,-572.66 238.85,-557.89 244.16,-544.88"/>
<polygon fill="black" stroke="black" points="247.51,-545.94 248.05,-535.36 241.03,-543.29 247.51,-545.94"/>
<text text-anchor="middle" x="252.49" y="-557.5" font-family="Arial" font-size="10.00">0.866</text>
</g>
<!-- 23 -->
<g id="node23" class="node">
<title>23</title>
<ellipse fill="none" stroke="black" cx="213.99" cy="-322.29" rx="27" ry="24.08"/>
<text text-anchor="middle" x="213.99" y="-325.69" font-family="Arial" font-size="12.00">Y</text>
<text text-anchor="middle" x="213.99" y="-312.69" font-family="Arial" font-size="12.00">(H)</text>
</g>
<!-- 23&#45;&gt;7 -->
<g id="edge7" class="edge">
<title>23&#45;&gt;7</title>
<path fill="none" stroke="black" d="M207.94,-298.76C204.86,-287.3 201.06,-273.16 197.68,-260.55"/>
<polygon fill="black" stroke="black" points="201.05,-259.61 195.07,-250.86 194.29,-261.42 201.05,-259.61"/>
<text text-anchor="middle" x="216.99" y="-272.25" font-family="Arial" font-size="10.00">&#45;0.707</text>
</g>
<!-- 23&#45;&gt;11 -->
<g id="edge2" class="edge">
<title>23&#45;&gt;11</title>
<path fill="none" stroke="black" d="M225.56,-300.17C232.3,-287.88 240.9,-272.18 248.35,-258.58"/>
<polygon fill="black" stroke="black" points="251.55,-260.02 253.29,-249.57 245.41,-256.66 251.55,-260.02"/>
<text text-anchor="middle" x="254.49" y="-272.25" font-family="Arial" font-size="10.00">0.707</text>
</g>
<!-- 25&#45;&gt;23 -->
<g id="edge14" class="edge">
<title>25&#45;&gt;23</title>
<path fill="none" stroke="black" d="M213.99,-392.89C213.99,-381.89 213.99,-368.59 213.99,-356.58"/>
<polygon fill="black" stroke="black" points="217.49,-356.45 213.99,-346.45 210.49,-356.45 217.49,-356.45"/>
<text text-anchor="middle" x="222.49" y="-367.33" font-family="Arial" font-size="10.00">&#45;1.0</text>
</g>
<!-- 26&#45;&gt;25 -->
<g id="edge10" class="edge">
<title>26&#45;&gt;25</title>
<path fill="none" stroke="black" d="M247.02,-489.87C241.59,-478.11 234.76,-463.34 228.73,-450.28"/>
<polygon fill="black" stroke="black" points="231.88,-448.76 224.51,-441.15 225.53,-451.69 231.88,-448.76"/>
</g>
</g>
</svg>
