<?xml version="1.0" encoding="UTF-8" standalone="no"?>
<!DOCTYPE svg PUBLIC "-//W3C//DTD SVG 1.1//EN"
 "http://www.w3.org/Graphics/SVG/1.1/DTD/svg11.dtd">
<!-- Generated by graphviz version 2.43.0 (0)
 -->
<!-- Title: G Pages: 1 -->
<svg width="421pt" height="542pt"
 viewBox="0.00 0.00 420.98 542.42" xmlns="http://www.w3.org/2000/svg" xmlns:xlink="http://www.w3.org/1999/xlink">
<g id="graph0" class="graph" transform="scale(1 1) rotate(0) translate(4 538.42)">
<title>G</title>
<polygon fill="white" stroke="transparent" points="-4,4 -4,-538.42 416.98,-538.42 416.98,4 -4,4"/>
<text text-anchor="middle" x="206.49" y="-7.8" font-family="Times,serif" font-size="14.00">Pauli Propagation example</text>
<!-- 1 -->
<g id="node1" class="node">
<title>1</title>
<ellipse fill="none" stroke="black" cx="28.99" cy="-427.37" rx="27" ry="24.08"/>
<text text-anchor="middle" x="28.99" y="-430.77" font-family="Arial" font-size="12.00">Z</text>
<text text-anchor="middle" x="28.99" y="-417.77" font-family="Arial" font-size="12.00">(Z)</text>
</g>
<!-- 20 -->
<g id="node20" class="node">
<title>20</title>
<ellipse fill="none" stroke="black" cx="28.99" cy="-332.29" rx="28.98" ry="24.08"/>
<text text-anchor="middle" x="28.99" y="-335.69" font-family="Arial" font-size="12.00">Z</text>
<text text-anchor="middle" x="28.99" y="-322.69" font-family="Arial" font-size="12.00">(RZ)</text>
</g>
<!-- 1&#45;&gt;20 -->
<g id="edge18" class="edge">
<title>1&#45;&gt;20</title>
<path fill="none" stroke="black" d="M28.99,-402.89C28.99,-391.89 28.99,-378.59 28.99,-366.58"/>
<polygon fill="black" stroke="black" points="32.49,-366.45 28.99,-356.45 25.49,-366.45 32.49,-366.45"/>
<text text-anchor="middle" x="31.99" y="-377.33" font-family="Arial" font-size="10.00">1</text>
</g>
<!-- 2 -->
<g id="node2" class="node">
<title>2</title>
<ellipse fill="none" stroke="black" cx="28.99" cy="-142.12" rx="28.98" ry="24.08"/>
<text text-anchor="middle" x="28.99" y="-145.52" font-family="Arial" font-size="12.00">X</text>
<text text-anchor="middle" x="28.99" y="-132.52" font-family="Arial" font-size="12.00">(RX)</text>
</g>
<!-- 18 -->
<g id="node18" class="node">
<title>18</title>
<ellipse fill="none" stroke="black" cx="28.99" cy="-47.04" rx="27" ry="24.08"/>
<text text-anchor="middle" x="28.99" y="-50.44" font-family="Arial" font-size="12.00">X</text>
<text text-anchor="middle" x="28.99" y="-37.44" font-family="Arial" font-size="12.00">(X)</text>
</g>
<!-- 2&#45;&gt;18 -->
<g id="edge5" class="edge">
<title>2&#45;&gt;18</title>
<path fill="none" stroke="black" d="M28.99,-117.64C28.99,-106.64 28.99,-93.34 28.99,-81.33"/>
<polygon fill="black" stroke="black" points="32.49,-81.2 28.99,-71.2 25.49,-81.2 32.49,-81.2"/>
<text text-anchor="middle" x="35.99" y="-92.08" font-family="Arial" font-size="10.00">1.0</text>
</g>
<!-- 3 -->
<g id="node3" class="node">
<title>3</title>
<ellipse fill="none" stroke="black" cx="28.99" cy="-237.21" rx="27" ry="24.08"/>
<text text-anchor="middle" x="28.99" y="-240.61" font-family="Arial" font-size="12.00">X</text>
<text text-anchor="middle" x="28.99" y="-227.61" font-family="Arial" font-size="12.00">(H)</text>
</g>
<!-- 3&#45;&gt;2 -->
<g id="edge9" class="edge">
<title>3&#45;&gt;2</title>
<path fill="none" stroke="black" d="M28.99,-212.72C28.99,-201.72 28.99,-188.43 28.99,-176.42"/>
<polygon fill="black" stroke="black" points="32.49,-176.28 28.99,-166.28 25.49,-176.28 32.49,-176.28"/>
<text text-anchor="middle" x="31.99" y="-187.17" font-family="Arial" font-size="10.00">1</text>
</g>
<!-- 4 -->
<g id="node4" class="node">
<title>4</title>
<ellipse fill="none" stroke="black" cx="149.99" cy="-516.42" rx="27" ry="18"/>
<text text-anchor="middle" x="149.99" y="-513.32" font-family="Arial" font-size="12.00">Y</text>
</g>
<!-- 16 -->
<g id="node16" class="node">
<title>16</title>
<ellipse fill="none" stroke="black" cx="149.99" cy="-427.37" rx="27" ry="24.08"/>
<text text-anchor="middle" x="149.99" y="-430.77" font-family="Arial" font-size="12.00">Y</text>
<text text-anchor="middle" x="149.99" y="-417.77" font-family="Arial" font-size="12.00">(Z)</text>
</g>
<!-- 4&#45;&gt;16 -->
<g id="edge16" class="edge">
<title>4&#45;&gt;16</title>
<path fill="none" stroke="black" d="M149.99,-498.22C149.99,-487.77 149.99,-474.07 149.99,-461.58"/>
<polygon fill="black" stroke="black" points="153.49,-461.47 149.99,-451.47 146.49,-461.47 153.49,-461.47"/>
<text text-anchor="middle" x="158.49" y="-472.42" font-family="Arial" font-size="10.00">&#45;1.0</text>
</g>
<!-- 5 -->
<g id="node5" class="node">
<title>5</title>
<ellipse fill="none" stroke="black" cx="155.99" cy="-142.12" rx="28.98" ry="24.08"/>
<text text-anchor="middle" x="155.99" y="-145.52" font-family="Arial" font-size="12.00">Y</text>
<text text-anchor="middle" x="155.99" y="-132.52" font-family="Arial" font-size="12.00">(RX)</text>
</g>
<!-- 7 -->
<g id="node7" class="node">
<title>7</title>
<ellipse fill="none" stroke="black" cx="175.99" cy="-47.04" rx="27" ry="24.08"/>
<text text-anchor="middle" x="175.99" y="-50.44" font-family="Arial" font-size="12.00">Y</text>
<text text-anchor="middle" x="175.99" y="-37.44" font-family="Arial" font-size="12.00">(X)</text>
</g>
<!-- 5&#45;&gt;7 -->
<g id="edge14" class="edge">
<title>5&#45;&gt;7</title>
<path fill="none" stroke="black" d="M160.94,-118.12C163.36,-106.84 166.32,-93.07 168.97,-80.73"/>
<polygon fill="black" stroke="black" points="172.43,-81.3 171.1,-70.79 165.58,-79.83 172.43,-81.3"/>
<text text-anchor="middle" x="174.49" y="-92.08" font-family="Arial" font-size="10.00">&#45;1.0</text>
</g>
<!-- 6 -->
<g id="node6" class="node">
<title>6</title>
<ellipse fill="none" stroke="black" cx="285.99" cy="-516.42" rx="27" ry="18"/>
<text text-anchor="middle" x="285.99" y="-513.32" font-family="Arial" font-size="12.00">X</text>
</g>
<!-- 10 -->
<g id="node10" class="node">
<title>10</title>
<ellipse fill="none" stroke="black" cx="285.99" cy="-427.37" rx="27" ry="24.08"/>
<text text-anchor="middle" x="285.99" y="-430.77" font-family="Arial" font-size="12.00">X</text>
<text text-anchor="middle" x="285.99" y="-417.77" font-family="Arial" font-size="12.00">(Z)</text>
</g>
<!-- 6&#45;&gt;10 -->
<g id="edge11" class="edge">
<title>6&#45;&gt;10</title>
<path fill="none" stroke="black" d="M285.99,-498.22C285.99,-487.77 285.99,-474.07 285.99,-461.58"/>
<polygon fill="black" stroke="black" points="289.49,-461.47 285.99,-451.47 282.49,-461.47 289.49,-461.47"/>
<text text-anchor="middle" x="294.49" y="-472.42" font-family="Arial" font-size="10.00">&#45;1.0</text>
</g>
<!-- 8 -->
<g id="node8" class="node">
<title>8</title>
<ellipse fill="none" stroke="black" cx="104.99" cy="-332.29" rx="28.98" ry="24.08"/>
<text text-anchor="middle" x="104.99" y="-335.69" font-family="Arial" font-size="12.00">Y</text>
<text text-anchor="middle" x="104.99" y="-322.69" font-family="Arial" font-size="12.00">(RZ)</text>
</g>
<!-- 21 -->
<g id="node21" class="node">
<title>21</title>
<ellipse fill="none" stroke="black" cx="179.99" cy="-237.21" rx="27" ry="24.08"/>
<text text-anchor="middle" x="179.99" y="-240.61" font-family="Arial" font-size="12.00">Y</text>
<text text-anchor="middle" x="179.99" y="-227.61" font-family="Arial" font-size="12.00">(H)</text>
</g>
<!-- 8&#45;&gt;21 -->
<g id="edge22" class="edge">
<title>8&#45;&gt;21</title>
<path fill="none" stroke="black" d="M120.9,-311.55C131.78,-298.04 146.35,-279.96 158.29,-265.14"/>
<polygon fill="black" stroke="black" points="161.07,-267.27 164.62,-257.28 155.62,-262.87 161.07,-267.27"/>
<text text-anchor="middle" x="153.49" y="-282.25" font-family="Arial" font-size="10.00">&#45;1.0</text>
</g>
<!-- 9 -->
<g id="node9" class="node">
<title>9</title>
<ellipse fill="none" stroke="black" cx="332.99" cy="-332.29" rx="28.98" ry="24.08"/>
<text text-anchor="middle" x="332.99" y="-335.69" font-family="Arial" font-size="12.00">X</text>
<text text-anchor="middle" x="332.99" y="-322.69" font-family="Arial" font-size="12.00">(RZ)</text>
</g>
<!-- 12 -->
<g id="node12" class="node">
<title>12</title>
<ellipse fill="none" stroke="black" cx="314.99" cy="-237.21" rx="27" ry="24.08"/>
<text text-anchor="middle" x="314.99" y="-240.61" font-family="Arial" font-size="12.00">Z</text>
<text text-anchor="middle" x="314.99" y="-227.61" font-family="Arial" font-size="12.00">(H)</text>
</g>
<!-- 9&#45;&gt;12 -->
<g id="edge8" class="edge">
<title>9&#45;&gt;12</title>
<path fill="none" stroke="black" d="M328.54,-308.28C326.36,-297.01 323.7,-283.24 321.31,-270.9"/>
<polygon fill="black" stroke="black" points="324.72,-270.11 319.39,-260.95 317.85,-271.44 324.72,-270.11"/>
<text text-anchor="middle" x="330.99" y="-282.25" font-family="Arial" font-size="10.00">1.0</text>
</g>
<!-- 10&#45;&gt;9 -->
<g id="edge1" class="edge">
<title>10&#45;&gt;9</title>
<path fill="none" stroke="black" d="M296.66,-405.25C302.86,-392.96 310.79,-377.26 317.66,-363.66"/>
<polygon fill="black" stroke="black" points="320.82,-365.16 322.21,-354.65 314.57,-362 320.82,-365.16"/>
<text text-anchor="middle" x="322.49" y="-377.33" font-family="Arial" font-size="10.00">0.866</text>
</g>
<!-- 11 -->
<g id="node11" class="node">
<title>11</title>
<ellipse fill="none" stroke="black" cx="256.99" cy="-332.29" rx="28.98" ry="24.08"/>
<text text-anchor="middle" x="256.99" y="-335.69" font-family="Arial" font-size="12.00">Y</text>
<text text-anchor="middle" x="256.99" y="-322.69" font-family="Arial" font-size="12.00">(RZ)</text>
</g>
<!-- 10&#45;&gt;11 -->
<g id="edge4" class="edge">
<title>10&#45;&gt;11</title>
<path fill="none" stroke="black" d="M278.97,-403.84C275.4,-392.38 271,-378.24 267.07,-365.64"/>
<polygon fill="black" stroke="black" points="270.36,-364.45 264.05,-355.94 263.68,-366.53 270.36,-364.45"/>
<text text-anchor="middle" x="280.49" y="-377.33" font-family="Arial" font-size="10.00">&#45;0.5</text>
</g>
<!-- 11&#45;&gt;21 -->
<g id="edge6" class="edge">
<title>11&#45;&gt;21</title>
<path fill="none" stroke="black" d="M241.04,-312C229.81,-298.44 214.64,-280.09 202.23,-265.09"/>
<polygon fill="black" stroke="black" points="204.73,-262.63 195.66,-257.15 199.34,-267.09 204.73,-262.63"/>
<text text-anchor="middle" x="228.49" y="-282.25" font-family="Arial" font-size="10.00">&#45;1.0</text>
</g>
<!-- 15 -->
<g id="node15" class="node">
<title>15</title>
<ellipse fill="none" stroke="black" cx="307.99" cy="-142.12" rx="28.98" ry="24.08"/>
<text text-anchor="middle" x="307.99" y="-145.52" font-family="Arial" font-size="12.00">Y</text>
<text text-anchor="middle" x="307.99" y="-132.52" font-family="Arial" font-size="12.00">(RX)</text>
</g>
<!-- 12&#45;&gt;15 -->
<g id="edge12" class="edge">
<title>12&#45;&gt;15</title>
<path fill="none" stroke="black" d="M313.26,-213.2C312.43,-202.12 311.41,-188.63 310.5,-176.46"/>
<polygon fill="black" stroke="black" points="313.97,-175.9 309.73,-166.19 306.99,-176.43 313.97,-175.9"/>
<text text-anchor="middle" x="323.49" y="-187.17" font-family="Arial" font-size="10.00">0.707</text>
</g>
<!-- 22 -->
<g id="node22" class="node">
<title>22</title>
<ellipse fill="none" stroke="black" cx="383.99" cy="-142.12" rx="28.98" ry="24.08"/>
<text text-anchor="middle" x="383.99" y="-145.52" font-family="Arial" font-size="12.00">Z</text>
<text text-anchor="middle" x="383.99" y="-132.52" font-family="Arial" font-size="12.00">(RX)</text>
</g>
<!-- 12&#45;&gt;22 -->
<g id="edge19" class="edge">
<title>12&#45;&gt;22</title>
<path fill="none" stroke="black" d="M329.62,-216.47C339.35,-203.35 352.26,-185.93 363.07,-171.36"/>
<polygon fill="black" stroke="black" points="366,-173.28 369.14,-163.16 360.37,-169.11 366,-173.28"/>
<text text-anchor="middle" x="363.49" y="-187.17" font-family="Arial" font-size="10.00">0.707</text>
</g>
<!-- 13 -->
<g id="node13" class="node">
<title>13</title>
<ellipse fill="none" stroke="black" cx="231.99" cy="-142.12" rx="28.98" ry="24.08"/>
<text text-anchor="middle" x="231.99" y="-145.52" font-family="Arial" font-size="12.00">Z</text>
<text text-anchor="middle" x="231.99" y="-132.52" font-family="Arial" font-size="12.00">(RX)</text>
</g>
<!-- 19 -->
<g id="node19" class="node">
<title>19</title>
<ellipse fill="none" stroke="black" cx="280.99" cy="-47.04" rx="27" ry="24.08"/>
<text text-anchor="middle" x="280.99" y="-50.44" font-family="Arial" font-size="12.00">Z</text>
<text text-anchor="middle" x="280.99" y="-37.44" font-family="Arial" font-size="12.00">(X)</text>
</g>
<!-- 13&#45;&gt;19 -->
<g id="edge7" class="edge">
<title>13&#45;&gt;19</title>
<path fill="none" stroke="black" d="M243.36,-119.54C249.83,-107.23 258.05,-91.62 265.15,-78.13"/>
<polygon fill="black" stroke="black" points="268.3,-79.67 269.86,-69.19 262.1,-76.41 268.3,-79.67"/>
<text text-anchor="middle" x="265.49" y="-92.08" font-family="Arial" font-size="10.00">&#45;1.0</text>
</g>
<!-- 14 -->
<g id="node14" class="node">
<title>14</title>
<ellipse fill="none" stroke="black" cx="180.99" cy="-332.29" rx="28.98" ry="24.08"/>
<text text-anchor="middle" x="180.99" y="-335.69" font-family="Arial" font-size="12.00">X</text>
<text text-anchor="middle" x="180.99" y="-322.69" font-family="Arial" font-size="12.00">(RZ)</text>
</g>
<!-- 14&#45;&gt;12 -->
<g id="edge23" class="edge">
<title>14&#45;&gt;12</title>
<path fill="none" stroke="black" d="M183.89,-308.17C186.21,-298.16 190.41,-286.99 197.99,-279.25 219.16,-257.61 252.38,-247.36 278.02,-242.52"/>
<polygon fill="black" stroke="black" points="278.86,-245.93 288.13,-240.81 277.69,-239.03 278.86,-245.93"/>
<text text-anchor="middle" x="204.99" y="-282.25" font-family="Arial" font-size="10.00">1.0</text>
</g>
<!-- 15&#45;&gt;7 -->
<g id="edge17" class="edge">
<title>15&#45;&gt;7</title>
<path fill="none" stroke="black" d="M298.88,-119.11C293.73,-108.86 286.4,-97.17 276.99,-89.08 266.6,-80.15 235.66,-68.2 210.73,-59.49"/>
<polygon fill="black" stroke="black" points="211.78,-56.15 201.19,-56.21 209.51,-62.77 211.78,-56.15"/>
<text text-anchor="middle" x="295.49" y="-92.08" font-family="Arial" font-size="10.00">&#45;1.0</text>
</g>
<!-- 16&#45;&gt;8 -->
<g id="edge15" class="edge">
<title>16&#45;&gt;8</title>
<path fill="none" stroke="black" d="M139.55,-404.79C133.7,-392.68 126.31,-377.39 119.86,-364.05"/>
<polygon fill="black" stroke="black" points="122.88,-362.24 115.37,-354.76 116.57,-365.29 122.88,-362.24"/>
<text text-anchor="middle" x="141.49" y="-377.33" font-family="Arial" font-size="10.00">0.866</text>
</g>
<!-- 16&#45;&gt;14 -->
<g id="edge2" class="edge">
<title>16&#45;&gt;14</title>
<path fill="none" stroke="black" d="M157.5,-403.84C161.34,-392.29 166.09,-378.03 170.31,-365.36"/>
<polygon fill="black" stroke="black" points="173.72,-366.21 173.56,-355.62 167.08,-364 173.72,-366.21"/>
<text text-anchor="middle" x="172.99" y="-377.33" font-family="Arial" font-size="10.00">0.5</text>
</g>
<!-- 17 -->
<g id="node17" class="node">
<title>17</title>
<ellipse fill="none" stroke="black" cx="28.99" cy="-516.42" rx="27" ry="18"/>
<text text-anchor="middle" x="28.99" y="-513.32" font-family="Arial" font-size="12.00">Z</text>
</g>
<!-- 17&#45;&gt;1 -->
<g id="edge3" class="edge">
<title>17&#45;&gt;1</title>
<path fill="none" stroke="black" d="M28.99,-498.22C28.99,-487.77 28.99,-474.07 28.99,-461.58"/>
<polygon fill="black" stroke="black" points="32.49,-461.47 28.99,-451.47 25.49,-461.47 32.49,-461.47"/>
<text text-anchor="middle" x="35.99" y="-472.42" font-family="Arial" font-size="10.00">1.0</text>
</g>
<!-- 20&#45;&gt;3 -->
<g id="edge20" class="edge">
<title>20&#45;&gt;3</title>
<path fill="none" stroke="black" d="M28.99,-307.8C28.99,-296.81 28.99,-283.51 28.99,-271.5"/>
<polygon fill="black" stroke="black" points="32.49,-271.37 28.99,-261.37 25.49,-271.37 32.49,-271.37"/>
<text text-anchor="middle" x="35.99" y="-282.25" font-family="Arial" font-size="10.00">1.0</text>
</g>
<!-- 21&#45;&gt;5 -->
<g id="edge10" class="edge">
<title>21&#45;&gt;5</title>
<path fill="none" stroke="black" d="M174.18,-213.68C171.23,-202.21 167.58,-188.07 164.33,-175.47"/>
<polygon fill="black" stroke="black" points="167.72,-174.58 161.83,-165.77 160.94,-176.33 167.72,-174.58"/>
<text text-anchor="middle" x="180.49" y="-187.17" font-family="Arial" font-size="10.00">0.707</text>
</g>
<!-- 21&#45;&gt;13 -->
<g id="edge21" class="edge">
<title>21&#45;&gt;13</title>
<path fill="none" stroke="black" d="M191.79,-215.09C198.71,-202.71 207.55,-186.87 215.19,-173.21"/>
<polygon fill="black" stroke="black" points="218.42,-174.6 220.24,-164.16 212.31,-171.19 218.42,-174.6"/>
<text text-anchor="middle" x="220.99" y="-187.17" font-family="Arial" font-size="10.00">&#45;0.707</text>
</g>
<!-- 22&#45;&gt;19 -->
<g id="edge13" class="edge">
<title>22&#45;&gt;19</title>
<path fill="none" stroke="black" d="M364.62,-123.62C348.45,-109 325.24,-88.03 307.37,-71.88"/>
<polygon fill="black" stroke="black" points="309.35,-68.95 299.58,-64.84 304.66,-74.15 309.35,-68.95"/>
<text text-anchor="middle" x="343.49" y="-92.08" font-family="Arial" font-size="10.00">&#45;1.0</text>
</g>
</g>
</svg>
