<?xml version="1.0" encoding="UTF-8" standalone="no"?>
<!DOCTYPE svg PUBLIC "-//W3C//DTD SVG 1.1//EN"
 "http://www.w3.org/Graphics/SVG/1.1/DTD/svg11.dtd">
<!-- Generated by graphviz version 2.43.0 (0)
 -->
<!-- Title: G Pages: 1 -->
<svg width="376pt" height="723pt"
 viewBox="0.00 0.00 375.98 722.58" xmlns="http://www.w3.org/2000/svg" xmlns:xlink="http://www.w3.org/1999/xlink">
<g id="graph0" class="graph" transform="scale(1 1) rotate(0) translate(4 718.58)">
<title>G</title>
<polygon fill="white" stroke="transparent" points="-4,4 -4,-718.58 371.98,-718.58 371.98,4 -4,4"/>
<text text-anchor="middle" x="183.99" y="-7.8" font-family="Times,serif" font-size="14.00">Pauli Propagation Graph</text>
<!-- 1 -->
<g id="node1" class="node">
<title>1</title>
<ellipse fill="none" stroke="black" cx="28.99" cy="-607.54" rx="27" ry="24.08"/>
<text text-anchor="middle" x="28.99" y="-610.94" font-family="Arial" font-size="12.00">Z</text>
<text text-anchor="middle" x="28.99" y="-597.94" font-family="Arial" font-size="12.00">(Z)</text>
</g>
<!-- 24 -->
<g id="node24" class="node">
<title>24</title>
<ellipse fill="none" stroke="black" cx="28.99" cy="-512.46" rx="28.98" ry="24.08"/>
<text text-anchor="middle" x="28.99" y="-515.86" font-family="Arial" font-size="12.00">Z</text>
<text text-anchor="middle" x="28.99" y="-502.86" font-family="Arial" font-size="12.00">(RZ)</text>
</g>
<!-- 1&#45;&gt;24 -->
<g id="edge22" class="edge">
<title>1&#45;&gt;24</title>
<path fill="none" stroke="black" d="M28.99,-583.05C28.99,-572.06 28.99,-558.76 28.99,-546.75"/>
<polygon fill="black" stroke="black" points="32.49,-546.62 28.99,-536.62 25.49,-546.62 32.49,-546.62"/>
<text text-anchor="middle" x="31.99" y="-557.5" font-family="Arial" font-size="10.00">1</text>
</g>
<!-- 2 -->
<g id="node2" class="node">
<title>2</title>
<ellipse fill="none" stroke="black" cx="28.99" cy="-322.29" rx="28.98" ry="24.08"/>
<text text-anchor="middle" x="28.99" y="-325.69" font-family="Arial" font-size="12.00">X</text>
<text text-anchor="middle" x="28.99" y="-312.69" font-family="Arial" font-size="12.00">(RX)</text>
</g>
<!-- 22 -->
<g id="node22" class="node">
<title>22</title>
<ellipse fill="none" stroke="black" cx="28.99" cy="-227.21" rx="27" ry="24.08"/>
<text text-anchor="middle" x="28.99" y="-230.61" font-family="Arial" font-size="12.00">X</text>
<text text-anchor="middle" x="28.99" y="-217.61" font-family="Arial" font-size="12.00">(X)</text>
</g>
<!-- 2&#45;&gt;22 -->
<g id="edge6" class="edge">
<title>2&#45;&gt;22</title>
<path fill="none" stroke="black" d="M28.99,-297.8C28.99,-286.81 28.99,-273.51 28.99,-261.5"/>
<polygon fill="black" stroke="black" points="32.49,-261.37 28.99,-251.37 25.49,-261.37 32.49,-261.37"/>
<text text-anchor="middle" x="35.99" y="-272.25" font-family="Arial" font-size="10.00">1.0</text>
</g>
<!-- 3 -->
<g id="node3" class="node">
<title>3</title>
<ellipse fill="none" stroke="black" cx="28.99" cy="-417.37" rx="27" ry="24.08"/>
<text text-anchor="middle" x="28.99" y="-420.77" font-family="Arial" font-size="12.00">X</text>
<text text-anchor="middle" x="28.99" y="-407.77" font-family="Arial" font-size="12.00">(H)</text>
</g>
<!-- 3&#45;&gt;2 -->
<g id="edge9" class="edge">
<title>3&#45;&gt;2</title>
<path fill="none" stroke="black" d="M28.99,-392.89C28.99,-381.89 28.99,-368.59 28.99,-356.58"/>
<polygon fill="black" stroke="black" points="32.49,-356.45 28.99,-346.45 25.49,-356.45 32.49,-356.45"/>
<text text-anchor="middle" x="31.99" y="-367.33" font-family="Arial" font-size="10.00">1</text>
</g>
<!-- 4 -->
<g id="node4" class="node">
<title>4</title>
<ellipse fill="none" stroke="black" cx="154.99" cy="-696.58" rx="27" ry="18"/>
<text text-anchor="middle" x="154.99" y="-693.48" font-family="Arial" font-size="12.00">Y</text>
</g>
<!-- 20 -->
<g id="node20" class="node">
<title>20</title>
<ellipse fill="none" stroke="black" cx="154.99" cy="-607.54" rx="27" ry="24.08"/>
<text text-anchor="middle" x="154.99" y="-610.94" font-family="Arial" font-size="12.00">Y</text>
<text text-anchor="middle" x="154.99" y="-597.94" font-family="Arial" font-size="12.00">(Z)</text>
</g>
<!-- 4&#45;&gt;20 -->
<g id="edge21" class="edge">
<title>4&#45;&gt;20</title>
<path fill="none" stroke="black" d="M154.99,-678.39C154.99,-667.94 154.99,-654.24 154.99,-641.75"/>
<polygon fill="black" stroke="black" points="158.49,-641.64 154.99,-631.64 151.49,-641.64 158.49,-641.64"/>
<text text-anchor="middle" x="163.49" y="-652.58" font-family="Arial" font-size="10.00">&#45;1.0</text>
</g>
<!-- 5 -->
<g id="node5" class="node">
<title>5</title>
<ellipse fill="none" stroke="black" cx="110.99" cy="-227.21" rx="28.98" ry="24.08"/>
<text text-anchor="middle" x="110.99" y="-230.61" font-family="Arial" font-size="12.00">Y</text>
<text text-anchor="middle" x="110.99" y="-217.61" font-family="Arial" font-size="12.00">(RX)</text>
</g>
<!-- 16 -->
<g id="node16" class="node">
<title>16</title>
<ellipse fill="none" stroke="black" cx="147.99" cy="-142.12" rx="48.17" ry="24.08"/>
<text text-anchor="middle" x="147.99" y="-145.52" font-family="Arial" font-size="12.00">Y</text>
<text text-anchor="middle" x="147.99" y="-132.52" font-family="Arial" font-size="12.00">(MERGE)</text>
</g>
<!-- 5&#45;&gt;16 -->
<g id="edge20" class="edge">
<title>5&#45;&gt;16</title>
<path fill="none" stroke="black" d="M120.71,-204.38C124.74,-195.34 129.48,-184.69 133.88,-174.82"/>
<polygon fill="black" stroke="black" points="137.08,-176.24 137.95,-165.68 130.68,-173.39 137.08,-176.24"/>
</g>
<!-- 6 -->
<g id="node6" class="node">
<title>6</title>
<ellipse fill="none" stroke="black" cx="290.99" cy="-696.58" rx="27" ry="18"/>
<text text-anchor="middle" x="290.99" y="-693.48" font-family="Arial" font-size="12.00">X</text>
</g>
<!-- 11 -->
<g id="node11" class="node">
<title>11</title>
<ellipse fill="none" stroke="black" cx="290.99" cy="-607.54" rx="27" ry="24.08"/>
<text text-anchor="middle" x="290.99" y="-610.94" font-family="Arial" font-size="12.00">X</text>
<text text-anchor="middle" x="290.99" y="-597.94" font-family="Arial" font-size="12.00">(Z)</text>
</g>
<!-- 6&#45;&gt;11 -->
<g id="edge11" class="edge">
<title>6&#45;&gt;11</title>
<path fill="none" stroke="black" d="M290.99,-678.39C290.99,-667.94 290.99,-654.24 290.99,-641.75"/>
<polygon fill="black" stroke="black" points="294.49,-641.64 290.99,-631.64 287.49,-641.64 294.49,-641.64"/>
<text text-anchor="middle" x="299.49" y="-652.58" font-family="Arial" font-size="10.00">&#45;1.0</text>
</g>
<!-- 7 -->
<g id="node7" class="node">
<title>7</title>
<ellipse fill="none" stroke="black" cx="147.99" cy="-47.04" rx="27" ry="24.08"/>
<text text-anchor="middle" x="147.99" y="-50.44" font-family="Arial" font-size="12.00">Y</text>
<text text-anchor="middle" x="147.99" y="-37.44" font-family="Arial" font-size="12.00">(X)</text>
</g>
<!-- 8 -->
<g id="node8" class="node">
<title>8</title>
<ellipse fill="none" stroke="black" cx="164.99" cy="-417.37" rx="48.17" ry="24.08"/>
<text text-anchor="middle" x="164.99" y="-420.77" font-family="Arial" font-size="12.00">Y</text>
<text text-anchor="middle" x="164.99" y="-407.77" font-family="Arial" font-size="12.00">(MERGE)</text>
</g>
<!-- 25 -->
<g id="node25" class="node">
<title>25</title>
<ellipse fill="none" stroke="black" cx="164.99" cy="-322.29" rx="27" ry="24.08"/>
<text text-anchor="middle" x="164.99" y="-325.69" font-family="Arial" font-size="12.00">Y</text>
<text text-anchor="middle" x="164.99" y="-312.69" font-family="Arial" font-size="12.00">(H)</text>
</g>
<!-- 8&#45;&gt;25 -->
<g id="edge19" class="edge">
<title>8&#45;&gt;25</title>
<path fill="none" stroke="black" d="M164.99,-392.89C164.99,-381.89 164.99,-368.59 164.99,-356.58"/>
<polygon fill="black" stroke="black" points="168.49,-356.45 164.99,-346.45 161.49,-356.45 168.49,-356.45"/>
<text text-anchor="middle" x="173.49" y="-367.33" font-family="Arial" font-size="10.00">&#45;1.0</text>
</g>
<!-- 9 -->
<g id="node9" class="node">
<title>9</title>
<ellipse fill="none" stroke="black" cx="109.99" cy="-512.46" rx="28.98" ry="24.08"/>
<text text-anchor="middle" x="109.99" y="-515.86" font-family="Arial" font-size="12.00">Y</text>
<text text-anchor="middle" x="109.99" y="-502.86" font-family="Arial" font-size="12.00">(RZ)</text>
</g>
<!-- 9&#45;&gt;8 -->
<g id="edge2" class="edge">
<title>9&#45;&gt;8</title>
<path fill="none" stroke="black" d="M122.47,-490.34C129.58,-478.31 138.62,-463.01 146.53,-449.62"/>
<polygon fill="black" stroke="black" points="149.72,-451.1 151.79,-440.71 143.69,-447.54 149.72,-451.1"/>
</g>
<!-- 10 -->
<g id="node10" class="node">
<title>10</title>
<ellipse fill="none" stroke="black" cx="337.99" cy="-512.46" rx="28.98" ry="24.08"/>
<text text-anchor="middle" x="337.99" y="-515.86" font-family="Arial" font-size="12.00">X</text>
<text text-anchor="middle" x="337.99" y="-502.86" font-family="Arial" font-size="12.00">(RZ)</text>
</g>
<!-- 18 -->
<g id="node18" class="node">
<title>18</title>
<ellipse fill="none" stroke="black" cx="286.99" cy="-417.37" rx="48.17" ry="24.08"/>
<text text-anchor="middle" x="286.99" y="-420.77" font-family="Arial" font-size="12.00">X</text>
<text text-anchor="middle" x="286.99" y="-407.77" font-family="Arial" font-size="12.00">(MERGE)</text>
</g>
<!-- 10&#45;&gt;18 -->
<g id="edge13" class="edge">
<title>10&#45;&gt;18</title>
<path fill="none" stroke="black" d="M326.42,-490.34C319.83,-478.31 311.45,-463.01 304.11,-449.62"/>
<polygon fill="black" stroke="black" points="307.1,-447.8 299.23,-440.71 300.97,-451.16 307.1,-447.8"/>
</g>
<!-- 11&#45;&gt;10 -->
<g id="edge1" class="edge">
<title>11&#45;&gt;10</title>
<path fill="none" stroke="black" d="M301.66,-585.42C307.86,-573.13 315.79,-557.43 322.66,-543.83"/>
<polygon fill="black" stroke="black" points="325.82,-545.32 327.21,-534.82 319.57,-542.17 325.82,-545.32"/>
<text text-anchor="middle" x="327.49" y="-557.5" font-family="Arial" font-size="10.00">0.866</text>
</g>
<!-- 12 -->
<g id="node12" class="node">
<title>12</title>
<ellipse fill="none" stroke="black" cx="261.99" cy="-512.46" rx="28.98" ry="24.08"/>
<text text-anchor="middle" x="261.99" y="-515.86" font-family="Arial" font-size="12.00">Y</text>
<text text-anchor="middle" x="261.99" y="-502.86" font-family="Arial" font-size="12.00">(RZ)</text>
</g>
<!-- 11&#45;&gt;12 -->
<g id="edge5" class="edge">
<title>11&#45;&gt;12</title>
<path fill="none" stroke="black" d="M283.97,-584.01C280.4,-572.55 276,-558.41 272.07,-545.8"/>
<polygon fill="black" stroke="black" points="275.36,-544.61 269.05,-536.11 268.68,-546.69 275.36,-544.61"/>
<text text-anchor="middle" x="285.49" y="-557.5" font-family="Arial" font-size="10.00">&#45;0.5</text>
</g>
<!-- 12&#45;&gt;8 -->
<g id="edge17" class="edge">
<title>12&#45;&gt;8</title>
<path fill="none" stroke="black" d="M243.29,-493.51C229.38,-480.16 210.13,-461.69 194.2,-446.4"/>
<polygon fill="black" stroke="black" points="196.32,-443.59 186.68,-439.19 191.48,-448.64 196.32,-443.59"/>
</g>
<!-- 13 -->
<g id="node13" class="node">
<title>13</title>
<ellipse fill="none" stroke="black" cx="295.99" cy="-142.12" rx="48.17" ry="24.08"/>
<text text-anchor="middle" x="295.99" y="-145.52" font-family="Arial" font-size="12.00">Z</text>
<text text-anchor="middle" x="295.99" y="-132.52" font-family="Arial" font-size="12.00">(MERGE)</text>
</g>
<!-- 23 -->
<g id="node23" class="node">
<title>23</title>
<ellipse fill="none" stroke="black" cx="295.99" cy="-47.04" rx="27" ry="24.08"/>
<text text-anchor="middle" x="295.99" y="-50.44" font-family="Arial" font-size="12.00">Z</text>
<text text-anchor="middle" x="295.99" y="-37.44" font-family="Arial" font-size="12.00">(X)</text>
</g>
<!-- 13&#45;&gt;23 -->
<g id="edge15" class="edge">
<title>13&#45;&gt;23</title>
<path fill="none" stroke="black" d="M295.99,-117.64C295.99,-106.64 295.99,-93.34 295.99,-81.33"/>
<polygon fill="black" stroke="black" points="299.49,-81.2 295.99,-71.2 292.49,-81.2 299.49,-81.2"/>
<text text-anchor="middle" x="304.49" y="-92.08" font-family="Arial" font-size="10.00">&#45;1.0</text>
</g>
<!-- 14 -->
<g id="node14" class="node">
<title>14</title>
<ellipse fill="none" stroke="black" cx="286.99" cy="-322.29" rx="27" ry="24.08"/>
<text text-anchor="middle" x="286.99" y="-325.69" font-family="Arial" font-size="12.00">Z</text>
<text text-anchor="middle" x="286.99" y="-312.69" font-family="Arial" font-size="12.00">(H)</text>
</g>
<!-- 19 -->
<g id="node19" class="node">
<title>19</title>
<ellipse fill="none" stroke="black" cx="262.99" cy="-227.21" rx="28.98" ry="24.08"/>
<text text-anchor="middle" x="262.99" y="-230.61" font-family="Arial" font-size="12.00">Y</text>
<text text-anchor="middle" x="262.99" y="-217.61" font-family="Arial" font-size="12.00">(RX)</text>
</g>
<!-- 14&#45;&gt;19 -->
<g id="edge12" class="edge">
<title>14&#45;&gt;19</title>
<path fill="none" stroke="black" d="M281.18,-298.76C278.23,-287.3 274.58,-273.16 271.33,-260.55"/>
<polygon fill="black" stroke="black" points="274.72,-259.67 268.83,-250.86 267.94,-261.41 274.72,-259.67"/>
<text text-anchor="middle" x="287.49" y="-272.25" font-family="Arial" font-size="10.00">0.707</text>
</g>
<!-- 26 -->
<g id="node26" class="node">
<title>26</title>
<ellipse fill="none" stroke="black" cx="338.99" cy="-227.21" rx="28.98" ry="24.08"/>
<text text-anchor="middle" x="338.99" y="-230.61" font-family="Arial" font-size="12.00">Z</text>
<text text-anchor="middle" x="338.99" y="-217.61" font-family="Arial" font-size="12.00">(RX)</text>
</g>
<!-- 14&#45;&gt;26 -->
<g id="edge23" class="edge">
<title>14&#45;&gt;26</title>
<path fill="none" stroke="black" d="M298.79,-300.17C305.71,-287.79 314.55,-271.95 322.19,-258.29"/>
<polygon fill="black" stroke="black" points="325.42,-259.68 327.24,-249.25 319.31,-256.27 325.42,-259.68"/>
<text text-anchor="middle" x="326.49" y="-272.25" font-family="Arial" font-size="10.00">0.707</text>
</g>
<!-- 15 -->
<g id="node15" class="node">
<title>15</title>
<ellipse fill="none" stroke="black" cx="186.99" cy="-227.21" rx="28.98" ry="24.08"/>
<text text-anchor="middle" x="186.99" y="-230.61" font-family="Arial" font-size="12.00">Z</text>
<text text-anchor="middle" x="186.99" y="-217.61" font-family="Arial" font-size="12.00">(RX)</text>
</g>
<!-- 15&#45;&gt;13 -->
<g id="edge26" class="edge">
<title>15&#45;&gt;13</title>
<path fill="none" stroke="black" d="M207.75,-210.39C223.04,-198.73 244.16,-182.63 261.91,-169.1"/>
<polygon fill="black" stroke="black" points="264.48,-171.54 270.32,-162.7 260.24,-165.97 264.48,-171.54"/>
</g>
<!-- 16&#45;&gt;7 -->
<g id="edge14" class="edge">
<title>16&#45;&gt;7</title>
<path fill="none" stroke="black" d="M147.99,-117.64C147.99,-106.64 147.99,-93.34 147.99,-81.33"/>
<polygon fill="black" stroke="black" points="151.49,-81.2 147.99,-71.2 144.49,-81.2 151.49,-81.2"/>
<text text-anchor="middle" x="156.49" y="-92.08" font-family="Arial" font-size="10.00">&#45;1.0</text>
</g>
<!-- 17 -->
<g id="node17" class="node">
<title>17</title>
<ellipse fill="none" stroke="black" cx="185.99" cy="-512.46" rx="28.98" ry="24.08"/>
<text text-anchor="middle" x="185.99" y="-515.86" font-family="Arial" font-size="12.00">X</text>
<text text-anchor="middle" x="185.99" y="-502.86" font-family="Arial" font-size="12.00">(RZ)</text>
</g>
<!-- 17&#45;&gt;18 -->
<g id="edge7" class="edge">
<title>17&#45;&gt;18</title>
<path fill="none" stroke="black" d="M204.99,-493.95C219.66,-480.43 240.23,-461.47 257.1,-445.93"/>
<polygon fill="black" stroke="black" points="259.57,-448.41 264.55,-439.05 254.83,-443.26 259.57,-448.41"/>
</g>
<!-- 18&#45;&gt;14 -->
<g id="edge8" class="edge">
<title>18&#45;&gt;14</title>
<path fill="none" stroke="black" d="M286.99,-392.89C286.99,-381.89 286.99,-368.59 286.99,-356.58"/>
<polygon fill="black" stroke="black" points="290.49,-356.45 286.99,-346.45 283.49,-356.45 290.49,-356.45"/>
<text text-anchor="middle" x="293.99" y="-367.33" font-family="Arial" font-size="10.00">1.0</text>
</g>
<!-- 19&#45;&gt;16 -->
<g id="edge16" class="edge">
<title>19&#45;&gt;16</title>
<path fill="none" stroke="black" d="M241.63,-210.78C225.11,-198.84 201.89,-182.07 182.71,-168.21"/>
<polygon fill="black" stroke="black" points="184.65,-165.29 174.49,-162.27 180.55,-170.97 184.65,-165.29"/>
</g>
<!-- 20&#45;&gt;9 -->
<g id="edge18" class="edge">
<title>20&#45;&gt;9</title>
<path fill="none" stroke="black" d="M144.55,-584.95C138.7,-572.85 131.31,-557.56 124.86,-544.22"/>
<polygon fill="black" stroke="black" points="127.88,-542.41 120.37,-534.93 121.57,-545.46 127.88,-542.41"/>
<text text-anchor="middle" x="146.49" y="-557.5" font-family="Arial" font-size="10.00">0.866</text>
</g>
<!-- 20&#45;&gt;17 -->
<g id="edge3" class="edge">
<title>20&#45;&gt;17</title>
<path fill="none" stroke="black" d="M162.5,-584.01C166.34,-572.46 171.09,-558.2 175.31,-545.52"/>
<polygon fill="black" stroke="black" points="178.72,-546.38 178.56,-535.78 172.08,-544.17 178.72,-546.38"/>
<text text-anchor="middle" x="177.99" y="-557.5" font-family="Arial" font-size="10.00">0.5</text>
</g>
<!-- 21 -->
<g id="node21" class="node">
<title>21</title>
<ellipse fill="none" stroke="black" cx="28.99" cy="-696.58" rx="27" ry="18"/>
<text text-anchor="middle" x="28.99" y="-693.48" font-family="Arial" font-size="12.00">Z</text>
</g>
<!-- 21&#45;&gt;1 -->
<g id="edge4" class="edge">
<title>21&#45;&gt;1</title>
<path fill="none" stroke="black" d="M28.99,-678.39C28.99,-667.94 28.99,-654.24 28.99,-641.75"/>
<polygon fill="black" stroke="black" points="32.49,-641.64 28.99,-631.64 25.49,-641.64 32.49,-641.64"/>
<text text-anchor="middle" x="35.99" y="-652.58" font-family="Arial" font-size="10.00">1.0</text>
</g>
<!-- 24&#45;&gt;3 -->
<g id="edge24" class="edge">
<title>24&#45;&gt;3</title>
<path fill="none" stroke="black" d="M28.99,-487.97C28.99,-476.97 28.99,-463.68 28.99,-451.67"/>
<polygon fill="black" stroke="black" points="32.49,-451.53 28.99,-441.53 25.49,-451.53 32.49,-451.53"/>
<text text-anchor="middle" x="35.99" y="-462.42" font-family="Arial" font-size="10.00">1.0</text>
</g>
<!-- 25&#45;&gt;5 -->
<g id="edge10" class="edge">
<title>25&#45;&gt;5</title>
<path fill="none" stroke="black" d="M153.01,-300.63C145.72,-288.07 136.29,-271.81 128.21,-257.88"/>
<polygon fill="black" stroke="black" points="131.17,-256.02 123.13,-249.13 125.12,-259.54 131.17,-256.02"/>
<text text-anchor="middle" x="152.49" y="-272.25" font-family="Arial" font-size="10.00">0.707</text>
</g>
<!-- 25&#45;&gt;15 -->
<g id="edge25" class="edge">
<title>25&#45;&gt;15</title>
<path fill="none" stroke="black" d="M170.43,-298.28C173.09,-287.01 176.35,-273.24 179.27,-260.9"/>
<polygon fill="black" stroke="black" points="182.72,-261.49 181.62,-250.95 175.91,-259.88 182.72,-261.49"/>
<text text-anchor="middle" x="189.99" y="-272.25" font-family="Arial" font-size="10.00">&#45;0.707</text>
</g>
<!-- 26&#45;&gt;13 -->
<g id="edge27" class="edge">
<title>26&#45;&gt;13</title>
<path fill="none" stroke="black" d="M327.92,-204.81C323.15,-195.61 317.49,-184.67 312.27,-174.57"/>
<polygon fill="black" stroke="black" points="315.33,-172.88 307.63,-165.61 309.12,-176.1 315.33,-172.88"/>
</g>
</g>
</svg>
