<?xml version="1.0" encoding="UTF-8" standalone="no"?>
<!DOCTYPE svg PUBLIC "-//W3C//DTD SVG 1.1//EN"
 "http://www.w3.org/Graphics/SVG/1.1/DTD/svg11.dtd">
<!-- Generated by graphviz version 2.43.0 (0)
 -->
<!-- Title: G Pages: 1 -->
<svg width="408pt" height="542pt"
 viewBox="0.00 0.00 407.98 542.42" xmlns="http://www.w3.org/2000/svg" xmlns:xlink="http://www.w3.org/1999/xlink">
<g id="graph0" class="graph" transform="scale(1 1) rotate(0) translate(4 538.42)">
<title>G</title>
<polygon fill="white" stroke="transparent" points="-4,4 -4,-538.42 403.98,-538.42 403.98,4 -4,4"/>
<text text-anchor="middle" x="199.99" y="-7.8" font-family="Times,serif" font-size="14.00">Pauli Propagation example</text>
<!-- 1 -->
<g id="node1" class="node">
<title>1</title>
<ellipse fill="none" stroke="black" cx="28.99" cy="-332.29" rx="28.98" ry="24.08"/>
<text text-anchor="middle" x="28.99" y="-335.69" font-family="Arial" font-size="12.00">X</text>
<text text-anchor="middle" x="28.99" y="-322.69" font-family="Arial" font-size="12.00">(RZ)</text>
</g>
<!-- 2 -->
<g id="node2" class="node">
<title>2</title>
<ellipse fill="none" stroke="black" cx="66.99" cy="-237.21" rx="27" ry="24.08"/>
<text text-anchor="middle" x="66.99" y="-240.61" font-family="Arial" font-size="12.00">Z</text>
<text text-anchor="middle" x="66.99" y="-227.61" font-family="Arial" font-size="12.00">(H)</text>
</g>
<!-- 1&#45;&gt;2 -->
<g id="edge9" class="edge">
<title>1&#45;&gt;2</title>
<path fill="none" stroke="black" d="M38,-309.23C42.82,-297.41 48.85,-282.64 54.16,-269.63"/>
<polygon fill="black" stroke="black" points="57.51,-270.69 58.05,-260.11 51.03,-268.04 57.51,-270.69"/>
<text text-anchor="middle" x="56.99" y="-282.25" font-family="Arial" font-size="10.00">1.0</text>
</g>
<!-- 3 -->
<g id="node3" class="node">
<title>3</title>
<ellipse fill="none" stroke="black" cx="28.99" cy="-142.12" rx="28.98" ry="24.08"/>
<text text-anchor="middle" x="28.99" y="-145.52" font-family="Arial" font-size="12.00">Z</text>
<text text-anchor="middle" x="28.99" y="-132.52" font-family="Arial" font-size="12.00">(RX)</text>
</g>
<!-- 2&#45;&gt;3 -->
<g id="edge23" class="edge">
<title>2&#45;&gt;3</title>
<path fill="none" stroke="black" d="M57.99,-214.15C53.16,-202.32 47.13,-187.55 41.82,-174.55"/>
<polygon fill="black" stroke="black" points="44.95,-172.96 37.93,-165.03 38.47,-175.61 44.95,-172.96"/>
<text text-anchor="middle" x="62.49" y="-187.17" font-family="Arial" font-size="10.00">0.707</text>
</g>
<!-- 7 -->
<g id="node7" class="node">
<title>7</title>
<ellipse fill="none" stroke="black" cx="104.99" cy="-142.12" rx="28.98" ry="24.08"/>
<text text-anchor="middle" x="104.99" y="-145.52" font-family="Arial" font-size="12.00">Y</text>
<text text-anchor="middle" x="104.99" y="-132.52" font-family="Arial" font-size="12.00">(RX)</text>
</g>
<!-- 2&#45;&gt;7 -->
<g id="edge4" class="edge">
<title>2&#45;&gt;7</title>
<path fill="none" stroke="black" d="M76,-214.15C80.82,-202.32 86.85,-187.55 92.16,-174.55"/>
<polygon fill="black" stroke="black" points="95.51,-175.61 96.05,-165.03 89.03,-172.96 95.51,-175.61"/>
<text text-anchor="middle" x="100.49" y="-187.17" font-family="Arial" font-size="10.00">0.707</text>
</g>
<!-- 14 -->
<g id="node14" class="node">
<title>14</title>
<ellipse fill="none" stroke="black" cx="104.99" cy="-47.04" rx="27" ry="24.08"/>
<text text-anchor="middle" x="104.99" y="-50.44" font-family="Arial" font-size="12.00">Z</text>
<text text-anchor="middle" x="104.99" y="-37.44" font-family="Arial" font-size="12.00">(X)</text>
</g>
<!-- 3&#45;&gt;14 -->
<g id="edge19" class="edge">
<title>3&#45;&gt;14</title>
<path fill="none" stroke="black" d="M44.74,-121.84C55.82,-108.27 70.79,-89.93 83.04,-74.93"/>
<polygon fill="black" stroke="black" points="85.91,-76.94 89.52,-66.99 80.49,-72.52 85.91,-76.94"/>
<text text-anchor="middle" x="78.49" y="-92.08" font-family="Arial" font-size="10.00">&#45;1.0</text>
</g>
<!-- 4 -->
<g id="node4" class="node">
<title>4</title>
<ellipse fill="none" stroke="black" cx="180.99" cy="-332.29" rx="28.98" ry="24.08"/>
<text text-anchor="middle" x="180.99" y="-335.69" font-family="Arial" font-size="12.00">X</text>
<text text-anchor="middle" x="180.99" y="-322.69" font-family="Arial" font-size="12.00">(RZ)</text>
</g>
<!-- 4&#45;&gt;2 -->
<g id="edge20" class="edge">
<title>4&#45;&gt;2</title>
<path fill="none" stroke="black" d="M168.07,-310.64C160.95,-300.37 151.44,-288.25 140.99,-279.25 128.87,-268.81 113.68,-259.83 100.21,-252.95"/>
<polygon fill="black" stroke="black" points="101.75,-249.81 91.23,-248.53 98.66,-256.09 101.75,-249.81"/>
<text text-anchor="middle" x="158.99" y="-282.25" font-family="Arial" font-size="10.00">1.0</text>
</g>
<!-- 5 -->
<g id="node5" class="node">
<title>5</title>
<ellipse fill="none" stroke="black" cx="370.99" cy="-237.21" rx="27" ry="24.08"/>
<text text-anchor="middle" x="370.99" y="-240.61" font-family="Arial" font-size="12.00">X</text>
<text text-anchor="middle" x="370.99" y="-227.61" font-family="Arial" font-size="12.00">(H)</text>
</g>
<!-- 8 -->
<g id="node8" class="node">
<title>8</title>
<ellipse fill="none" stroke="black" cx="370.99" cy="-142.12" rx="28.98" ry="24.08"/>
<text text-anchor="middle" x="370.99" y="-145.52" font-family="Arial" font-size="12.00">X</text>
<text text-anchor="middle" x="370.99" y="-132.52" font-family="Arial" font-size="12.00">(RX)</text>
</g>
<!-- 5&#45;&gt;8 -->
<g id="edge2" class="edge">
<title>5&#45;&gt;8</title>
<path fill="none" stroke="black" d="M370.99,-212.72C370.99,-201.72 370.99,-188.43 370.99,-176.42"/>
<polygon fill="black" stroke="black" points="374.49,-176.28 370.99,-166.28 367.49,-176.28 374.49,-176.28"/>
<text text-anchor="middle" x="373.99" y="-187.17" font-family="Arial" font-size="10.00">1</text>
</g>
<!-- 6 -->
<g id="node6" class="node">
<title>6</title>
<ellipse fill="none" stroke="black" cx="180.99" cy="-142.12" rx="28.98" ry="24.08"/>
<text text-anchor="middle" x="180.99" y="-145.52" font-family="Arial" font-size="12.00">Z</text>
<text text-anchor="middle" x="180.99" y="-132.52" font-family="Arial" font-size="12.00">(RX)</text>
</g>
<!-- 6&#45;&gt;14 -->
<g id="edge17" class="edge">
<title>6&#45;&gt;14</title>
<path fill="none" stroke="black" d="M165.24,-121.84C154.17,-108.27 139.19,-89.93 126.94,-74.93"/>
<polygon fill="black" stroke="black" points="129.49,-72.52 120.46,-66.99 124.07,-76.94 129.49,-72.52"/>
<text text-anchor="middle" x="154.49" y="-92.08" font-family="Arial" font-size="10.00">&#45;1.0</text>
</g>
<!-- 15 -->
<g id="node15" class="node">
<title>15</title>
<ellipse fill="none" stroke="black" cx="244.99" cy="-47.04" rx="27" ry="24.08"/>
<text text-anchor="middle" x="244.99" y="-50.44" font-family="Arial" font-size="12.00">Y</text>
<text text-anchor="middle" x="244.99" y="-37.44" font-family="Arial" font-size="12.00">(X)</text>
</g>
<!-- 7&#45;&gt;15 -->
<g id="edge11" class="edge">
<title>7&#45;&gt;15</title>
<path fill="none" stroke="black" d="M106.85,-117.98C108.76,-107.96 112.55,-96.8 119.99,-89.08 142.97,-65.24 180.02,-55.24 207.82,-51.05"/>
<polygon fill="black" stroke="black" points="208.52,-54.49 217.98,-49.71 207.61,-47.55 208.52,-54.49"/>
<text text-anchor="middle" x="128.49" y="-92.08" font-family="Arial" font-size="10.00">&#45;1.0</text>
</g>
<!-- 21 -->
<g id="node21" class="node">
<title>21</title>
<ellipse fill="none" stroke="black" cx="370.99" cy="-47.04" rx="27" ry="24.08"/>
<text text-anchor="middle" x="370.99" y="-50.44" font-family="Arial" font-size="12.00">X</text>
<text text-anchor="middle" x="370.99" y="-37.44" font-family="Arial" font-size="12.00">(X)</text>
</g>
<!-- 8&#45;&gt;21 -->
<g id="edge22" class="edge">
<title>8&#45;&gt;21</title>
<path fill="none" stroke="black" d="M370.99,-117.64C370.99,-106.64 370.99,-93.34 370.99,-81.33"/>
<polygon fill="black" stroke="black" points="374.49,-81.2 370.99,-71.2 367.49,-81.2 374.49,-81.2"/>
<text text-anchor="middle" x="377.99" y="-92.08" font-family="Arial" font-size="10.00">1.0</text>
</g>
<!-- 9 -->
<g id="node9" class="node">
<title>9</title>
<ellipse fill="none" stroke="black" cx="63.99" cy="-427.37" rx="27" ry="24.08"/>
<text text-anchor="middle" x="63.99" y="-430.77" font-family="Arial" font-size="12.00">X</text>
<text text-anchor="middle" x="63.99" y="-417.77" font-family="Arial" font-size="12.00">(Z)</text>
</g>
<!-- 9&#45;&gt;1 -->
<g id="edge13" class="edge">
<title>9&#45;&gt;1</title>
<path fill="none" stroke="black" d="M52.9,-405.38C49.78,-399.04 46.55,-391.99 43.99,-385.33 41.62,-379.17 39.42,-372.47 37.48,-366"/>
<polygon fill="black" stroke="black" points="40.77,-364.76 34.65,-356.11 34.04,-366.69 40.77,-364.76"/>
<text text-anchor="middle" x="56.49" y="-377.33" font-family="Arial" font-size="10.00">0.866</text>
</g>
<!-- 16 -->
<g id="node16" class="node">
<title>16</title>
<ellipse fill="none" stroke="black" cx="104.99" cy="-332.29" rx="28.98" ry="24.08"/>
<text text-anchor="middle" x="104.99" y="-335.69" font-family="Arial" font-size="12.00">Y</text>
<text text-anchor="middle" x="104.99" y="-322.69" font-family="Arial" font-size="12.00">(RZ)</text>
</g>
<!-- 9&#45;&gt;16 -->
<g id="edge14" class="edge">
<title>9&#45;&gt;16</title>
<path fill="none" stroke="black" d="M73.5,-404.79C78.79,-392.77 85.47,-377.61 91.32,-364.34"/>
<polygon fill="black" stroke="black" points="94.56,-365.65 95.39,-355.09 88.16,-362.83 94.56,-365.65"/>
<text text-anchor="middle" x="94.49" y="-377.33" font-family="Arial" font-size="10.00">&#45;0.5</text>
</g>
<!-- 10 -->
<g id="node10" class="node">
<title>10</title>
<ellipse fill="none" stroke="black" cx="256.99" cy="-142.12" rx="28.98" ry="24.08"/>
<text text-anchor="middle" x="256.99" y="-145.52" font-family="Arial" font-size="12.00">Y</text>
<text text-anchor="middle" x="256.99" y="-132.52" font-family="Arial" font-size="12.00">(RX)</text>
</g>
<!-- 10&#45;&gt;15 -->
<g id="edge5" class="edge">
<title>10&#45;&gt;15</title>
<path fill="none" stroke="black" d="M254.03,-118.12C252.6,-107.04 250.86,-93.55 249.29,-81.38"/>
<polygon fill="black" stroke="black" points="252.72,-80.58 247.97,-71.11 245.77,-81.47 252.72,-80.58"/>
<text text-anchor="middle" x="260.49" y="-92.08" font-family="Arial" font-size="10.00">&#45;1.0</text>
</g>
<!-- 11 -->
<g id="node11" class="node">
<title>11</title>
<ellipse fill="none" stroke="black" cx="63.99" cy="-516.42" rx="27" ry="18"/>
<text text-anchor="middle" x="63.99" y="-513.32" font-family="Arial" font-size="12.00">X</text>
</g>
<!-- 11&#45;&gt;9 -->
<g id="edge18" class="edge">
<title>11&#45;&gt;9</title>
<path fill="none" stroke="black" d="M63.99,-498.22C63.99,-487.77 63.99,-474.07 63.99,-461.58"/>
<polygon fill="black" stroke="black" points="67.49,-461.47 63.99,-451.47 60.49,-461.47 67.49,-461.47"/>
<text text-anchor="middle" x="72.49" y="-472.42" font-family="Arial" font-size="10.00">&#45;1.0</text>
</g>
<!-- 12 -->
<g id="node12" class="node">
<title>12</title>
<ellipse fill="none" stroke="black" cx="218.99" cy="-516.42" rx="27" ry="18"/>
<text text-anchor="middle" x="218.99" y="-513.32" font-family="Arial" font-size="12.00">Y</text>
</g>
<!-- 19 -->
<g id="node19" class="node">
<title>19</title>
<ellipse fill="none" stroke="black" cx="218.99" cy="-427.37" rx="27" ry="24.08"/>
<text text-anchor="middle" x="218.99" y="-430.77" font-family="Arial" font-size="12.00">Y</text>
<text text-anchor="middle" x="218.99" y="-417.77" font-family="Arial" font-size="12.00">(Z)</text>
</g>
<!-- 12&#45;&gt;19 -->
<g id="edge16" class="edge">
<title>12&#45;&gt;19</title>
<path fill="none" stroke="black" d="M218.99,-498.22C218.99,-487.77 218.99,-474.07 218.99,-461.58"/>
<polygon fill="black" stroke="black" points="222.49,-461.47 218.99,-451.47 215.49,-461.47 222.49,-461.47"/>
<text text-anchor="middle" x="227.49" y="-472.42" font-family="Arial" font-size="10.00">&#45;1.0</text>
</g>
<!-- 13 -->
<g id="node13" class="node">
<title>13</title>
<ellipse fill="none" stroke="black" cx="370.99" cy="-516.42" rx="27" ry="18"/>
<text text-anchor="middle" x="370.99" y="-513.32" font-family="Arial" font-size="12.00">Z</text>
</g>
<!-- 17 -->
<g id="node17" class="node">
<title>17</title>
<ellipse fill="none" stroke="black" cx="370.99" cy="-427.37" rx="27" ry="24.08"/>
<text text-anchor="middle" x="370.99" y="-430.77" font-family="Arial" font-size="12.00">Z</text>
<text text-anchor="middle" x="370.99" y="-417.77" font-family="Arial" font-size="12.00">(Z)</text>
</g>
<!-- 13&#45;&gt;17 -->
<g id="edge15" class="edge">
<title>13&#45;&gt;17</title>
<path fill="none" stroke="black" d="M370.99,-498.22C370.99,-487.77 370.99,-474.07 370.99,-461.58"/>
<polygon fill="black" stroke="black" points="374.49,-461.47 370.99,-451.47 367.49,-461.47 374.49,-461.47"/>
<text text-anchor="middle" x="377.99" y="-472.42" font-family="Arial" font-size="10.00">1.0</text>
</g>
<!-- 20 -->
<g id="node20" class="node">
<title>20</title>
<ellipse fill="none" stroke="black" cx="211.99" cy="-237.21" rx="27" ry="24.08"/>
<text text-anchor="middle" x="211.99" y="-240.61" font-family="Arial" font-size="12.00">Y</text>
<text text-anchor="middle" x="211.99" y="-227.61" font-family="Arial" font-size="12.00">(H)</text>
</g>
<!-- 16&#45;&gt;20 -->
<g id="edge12" class="edge">
<title>16&#45;&gt;20</title>
<path fill="none" stroke="black" d="M109.2,-308.48C112,-298.53 116.58,-287.33 123.99,-279.25 137.93,-264.05 158.65,-254.01 176.48,-247.66"/>
<polygon fill="black" stroke="black" points="177.63,-250.97 186.02,-244.5 175.43,-244.32 177.63,-250.97"/>
<text text-anchor="middle" x="132.49" y="-282.25" font-family="Arial" font-size="10.00">&#45;1.0</text>
</g>
<!-- 18 -->
<g id="node18" class="node">
<title>18</title>
<ellipse fill="none" stroke="black" cx="370.99" cy="-332.29" rx="28.98" ry="24.08"/>
<text text-anchor="middle" x="370.99" y="-335.69" font-family="Arial" font-size="12.00">Z</text>
<text text-anchor="middle" x="370.99" y="-322.69" font-family="Arial" font-size="12.00">(RZ)</text>
</g>
<!-- 17&#45;&gt;18 -->
<g id="edge7" class="edge">
<title>17&#45;&gt;18</title>
<path fill="none" stroke="black" d="M370.99,-402.89C370.99,-391.89 370.99,-378.59 370.99,-366.58"/>
<polygon fill="black" stroke="black" points="374.49,-366.45 370.99,-356.45 367.49,-366.45 374.49,-366.45"/>
<text text-anchor="middle" x="373.99" y="-377.33" font-family="Arial" font-size="10.00">1</text>
</g>
<!-- 18&#45;&gt;5 -->
<g id="edge10" class="edge">
<title>18&#45;&gt;5</title>
<path fill="none" stroke="black" d="M370.99,-307.8C370.99,-296.81 370.99,-283.51 370.99,-271.5"/>
<polygon fill="black" stroke="black" points="374.49,-271.37 370.99,-261.37 367.49,-271.37 374.49,-271.37"/>
<text text-anchor="middle" x="377.99" y="-282.25" font-family="Arial" font-size="10.00">1.0</text>
</g>
<!-- 19&#45;&gt;4 -->
<g id="edge21" class="edge">
<title>19&#45;&gt;4</title>
<path fill="none" stroke="black" d="M209.99,-404.32C205.16,-392.49 199.13,-377.72 193.82,-364.71"/>
<polygon fill="black" stroke="black" points="196.95,-363.13 189.93,-355.19 190.47,-365.77 196.95,-363.13"/>
<text text-anchor="middle" x="208.99" y="-377.33" font-family="Arial" font-size="10.00">0.5</text>
</g>
<!-- 22 -->
<g id="node22" class="node">
<title>22</title>
<ellipse fill="none" stroke="black" cx="256.99" cy="-332.29" rx="28.98" ry="24.08"/>
<text text-anchor="middle" x="256.99" y="-335.69" font-family="Arial" font-size="12.00">Y</text>
<text text-anchor="middle" x="256.99" y="-322.69" font-family="Arial" font-size="12.00">(RZ)</text>
</g>
<!-- 19&#45;&gt;22 -->
<g id="edge3" class="edge">
<title>19&#45;&gt;22</title>
<path fill="none" stroke="black" d="M228,-404.32C232.82,-392.49 238.85,-377.72 244.16,-364.71"/>
<polygon fill="black" stroke="black" points="247.51,-365.77 248.05,-355.19 241.03,-363.13 247.51,-365.77"/>
<text text-anchor="middle" x="252.49" y="-377.33" font-family="Arial" font-size="10.00">0.866</text>
</g>
<!-- 20&#45;&gt;6 -->
<g id="edge6" class="edge">
<title>20&#45;&gt;6</title>
<path fill="none" stroke="black" d="M202.46,-214.68C199.87,-208.45 197.18,-201.59 194.99,-195.17 192.88,-188.95 190.87,-182.22 189.07,-175.74"/>
<polygon fill="black" stroke="black" points="192.39,-174.61 186.42,-165.86 185.63,-176.42 192.39,-174.61"/>
<text text-anchor="middle" x="208.99" y="-187.17" font-family="Arial" font-size="10.00">&#45;0.707</text>
</g>
<!-- 20&#45;&gt;10 -->
<g id="edge1" class="edge">
<title>20&#45;&gt;10</title>
<path fill="none" stroke="black" d="M222.43,-214.62C228.28,-202.52 235.67,-187.22 242.12,-173.89"/>
<polygon fill="black" stroke="black" points="245.41,-175.12 246.61,-164.6 239.11,-172.08 245.41,-175.12"/>
<text text-anchor="middle" x="248.49" y="-187.17" font-family="Arial" font-size="10.00">0.707</text>
</g>
<!-- 22&#45;&gt;20 -->
<g id="edge8" class="edge">
<title>22&#45;&gt;20</title>
<path fill="none" stroke="black" d="M246.55,-309.7C240.7,-297.6 233.31,-282.31 226.86,-268.97"/>
<polygon fill="black" stroke="black" points="229.88,-267.16 222.37,-259.68 223.57,-270.21 229.88,-267.16"/>
<text text-anchor="middle" x="244.49" y="-282.25" font-family="Arial" font-size="10.00">&#45;1.0</text>
</g>
</g>
</svg>
