<?xml version="1.0" encoding="UTF-8" standalone="no"?>
<!DOCTYPE svg PUBLIC "-//W3C//DTD SVG 1.1//EN"
 "http://www.w3.org/Graphics/SVG/1.1/DTD/svg11.dtd">
<!-- Generated by graphviz version 2.43.0 (0)
 -->
<!-- Title: G Pages: 1 -->
<svg width="393pt" height="723pt"
 viewBox="0.00 0.00 392.98 722.58" xmlns="http://www.w3.org/2000/svg" xmlns:xlink="http://www.w3.org/1999/xlink">
<g id="graph0" class="graph" transform="scale(1 1) rotate(0) translate(4 718.58)">
<title>G</title>
<polygon fill="white" stroke="transparent" points="-4,4 -4,-718.58 388.98,-718.58 388.98,4 -4,4"/>
<text text-anchor="middle" x="192.49" y="-7.8" font-family="Times,serif" font-size="14.00">Pauli Propagation Graph</text>
<!-- 1 -->
<g id="node1" class="node">
<title>1</title>
<ellipse fill="none" stroke="black" cx="62.99" cy="-696.58" rx="27" ry="18"/>
<text text-anchor="middle" x="62.99" y="-693.48" font-family="Arial" font-size="12.00">X</text>
</g>
<!-- 7 -->
<g id="node7" class="node">
<title>7</title>
<ellipse fill="none" stroke="black" cx="62.99" cy="-607.54" rx="27" ry="24.08"/>
<text text-anchor="middle" x="62.99" y="-610.94" font-family="Arial" font-size="12.00">X</text>
<text text-anchor="middle" x="62.99" y="-597.94" font-family="Arial" font-size="12.00">(Z)</text>
</g>
<!-- 1&#45;&gt;7 -->
<g id="edge25" class="edge">
<title>1&#45;&gt;7</title>
<path fill="none" stroke="black" d="M62.99,-678.39C62.99,-667.94 62.99,-654.24 62.99,-641.75"/>
<polygon fill="black" stroke="black" points="66.49,-641.64 62.99,-631.64 59.49,-641.64 66.49,-641.64"/>
<text text-anchor="middle" x="71.49" y="-652.58" font-family="Arial" font-size="10.00">&#45;1.0</text>
</g>
<!-- 2 -->
<g id="node2" class="node">
<title>2</title>
<ellipse fill="none" stroke="black" cx="355.99" cy="-227.21" rx="27" ry="24.08"/>
<text text-anchor="middle" x="355.99" y="-230.61" font-family="Arial" font-size="12.00">X</text>
<text text-anchor="middle" x="355.99" y="-217.61" font-family="Arial" font-size="12.00">(X)</text>
</g>
<!-- 3 -->
<g id="node3" class="node">
<title>3</title>
<ellipse fill="none" stroke="black" cx="187.99" cy="-47.04" rx="27" ry="24.08"/>
<text text-anchor="middle" x="187.99" y="-50.44" font-family="Arial" font-size="12.00">Y</text>
<text text-anchor="middle" x="187.99" y="-37.44" font-family="Arial" font-size="12.00">(X)</text>
</g>
<!-- 4 -->
<g id="node4" class="node">
<title>4</title>
<ellipse fill="none" stroke="black" cx="58.99" cy="-417.37" rx="48.17" ry="24.08"/>
<text text-anchor="middle" x="58.99" y="-420.77" font-family="Arial" font-size="12.00">Y</text>
<text text-anchor="middle" x="58.99" y="-407.77" font-family="Arial" font-size="12.00">(MERGE)</text>
</g>
<!-- 21 -->
<g id="node21" class="node">
<title>21</title>
<ellipse fill="none" stroke="black" cx="58.99" cy="-322.29" rx="27" ry="24.08"/>
<text text-anchor="middle" x="58.99" y="-325.69" font-family="Arial" font-size="12.00">Y</text>
<text text-anchor="middle" x="58.99" y="-312.69" font-family="Arial" font-size="12.00">(H)</text>
</g>
<!-- 4&#45;&gt;21 -->
<g id="edge9" class="edge">
<title>4&#45;&gt;21</title>
<path fill="none" stroke="black" d="M58.99,-392.89C58.99,-381.89 58.99,-368.59 58.99,-356.58"/>
<polygon fill="black" stroke="black" points="62.49,-356.45 58.99,-346.45 55.49,-356.45 62.49,-356.45"/>
<text text-anchor="middle" x="67.49" y="-367.33" font-family="Arial" font-size="10.00">&#45;1.0</text>
</g>
<!-- 5 -->
<g id="node5" class="node">
<title>5</title>
<ellipse fill="none" stroke="black" cx="70.99" cy="-47.04" rx="27" ry="24.08"/>
<text text-anchor="middle" x="70.99" y="-50.44" font-family="Arial" font-size="12.00">Z</text>
<text text-anchor="middle" x="70.99" y="-37.44" font-family="Arial" font-size="12.00">(X)</text>
</g>
<!-- 6 -->
<g id="node6" class="node">
<title>6</title>
<ellipse fill="none" stroke="black" cx="31.99" cy="-227.21" rx="28.98" ry="24.08"/>
<text text-anchor="middle" x="31.99" y="-230.61" font-family="Arial" font-size="12.00">Z</text>
<text text-anchor="middle" x="31.99" y="-217.61" font-family="Arial" font-size="12.00">(RX)</text>
</g>
<!-- 23 -->
<g id="node23" class="node">
<title>23</title>
<ellipse fill="none" stroke="black" cx="70.99" cy="-142.12" rx="48.17" ry="24.08"/>
<text text-anchor="middle" x="70.99" y="-145.52" font-family="Arial" font-size="12.00">Z</text>
<text text-anchor="middle" x="70.99" y="-132.52" font-family="Arial" font-size="12.00">(MERGE)</text>
</g>
<!-- 6&#45;&gt;23 -->
<g id="edge18" class="edge">
<title>6&#45;&gt;23</title>
<path fill="none" stroke="black" d="M42.24,-204.38C46.48,-195.34 51.48,-184.69 56.11,-174.82"/>
<polygon fill="black" stroke="black" points="59.32,-176.22 60.41,-165.68 52.99,-173.24 59.32,-176.22"/>
</g>
<!-- 8 -->
<g id="node8" class="node">
<title>8</title>
<ellipse fill="none" stroke="black" cx="28.99" cy="-512.46" rx="28.98" ry="24.08"/>
<text text-anchor="middle" x="28.99" y="-515.86" font-family="Arial" font-size="12.00">Y</text>
<text text-anchor="middle" x="28.99" y="-502.86" font-family="Arial" font-size="12.00">(RZ)</text>
</g>
<!-- 7&#45;&gt;8 -->
<g id="edge5" class="edge">
<title>7&#45;&gt;8</title>
<path fill="none" stroke="black" d="M54.93,-584.48C50.65,-572.74 45.3,-558.1 40.57,-545.16"/>
<polygon fill="black" stroke="black" points="43.83,-543.87 37.11,-535.68 37.25,-546.28 43.83,-543.87"/>
<text text-anchor="middle" x="56.49" y="-557.5" font-family="Arial" font-size="10.00">&#45;0.5</text>
</g>
<!-- 15 -->
<g id="node15" class="node">
<title>15</title>
<ellipse fill="none" stroke="black" cx="104.99" cy="-512.46" rx="28.98" ry="24.08"/>
<text text-anchor="middle" x="104.99" y="-515.86" font-family="Arial" font-size="12.00">X</text>
<text text-anchor="middle" x="104.99" y="-502.86" font-family="Arial" font-size="12.00">(RZ)</text>
</g>
<!-- 7&#45;&gt;15 -->
<g id="edge22" class="edge">
<title>7&#45;&gt;15</title>
<path fill="none" stroke="black" d="M72.73,-584.95C78.15,-572.94 85,-557.77 90.98,-544.51"/>
<polygon fill="black" stroke="black" points="94.23,-545.81 95.16,-535.25 87.85,-542.93 94.23,-545.81"/>
<text text-anchor="middle" x="98.49" y="-557.5" font-family="Arial" font-size="10.00">0.866</text>
</g>
<!-- 8&#45;&gt;4 -->
<g id="edge6" class="edge">
<title>8&#45;&gt;4</title>
<path fill="none" stroke="black" d="M36.25,-488.93C39.92,-477.55 44.44,-463.53 48.48,-451"/>
<polygon fill="black" stroke="black" points="51.85,-451.94 51.59,-441.35 45.19,-449.79 51.85,-451.94"/>
</g>
<!-- 9 -->
<g id="node9" class="node">
<title>9</title>
<ellipse fill="none" stroke="black" cx="355.99" cy="-512.46" rx="28.98" ry="24.08"/>
<text text-anchor="middle" x="355.99" y="-515.86" font-family="Arial" font-size="12.00">Z</text>
<text text-anchor="middle" x="355.99" y="-502.86" font-family="Arial" font-size="12.00">(RZ)</text>
</g>
<!-- 13 -->
<g id="node13" class="node">
<title>13</title>
<ellipse fill="none" stroke="black" cx="355.99" cy="-417.37" rx="27" ry="24.08"/>
<text text-anchor="middle" x="355.99" y="-420.77" font-family="Arial" font-size="12.00">X</text>
<text text-anchor="middle" x="355.99" y="-407.77" font-family="Arial" font-size="12.00">(H)</text>
</g>
<!-- 9&#45;&gt;13 -->
<g id="edge2" class="edge">
<title>9&#45;&gt;13</title>
<path fill="none" stroke="black" d="M355.99,-487.97C355.99,-476.97 355.99,-463.68 355.99,-451.67"/>
<polygon fill="black" stroke="black" points="359.49,-451.53 355.99,-441.53 352.49,-451.53 359.49,-451.53"/>
<text text-anchor="middle" x="362.99" y="-462.42" font-family="Arial" font-size="10.00">1.0</text>
</g>
<!-- 10 -->
<g id="node10" class="node">
<title>10</title>
<ellipse fill="none" stroke="black" cx="221.99" cy="-417.37" rx="48.17" ry="24.08"/>
<text text-anchor="middle" x="221.99" y="-420.77" font-family="Arial" font-size="12.00">X</text>
<text text-anchor="middle" x="221.99" y="-407.77" font-family="Arial" font-size="12.00">(MERGE)</text>
</g>
<!-- 16 -->
<g id="node16" class="node">
<title>16</title>
<ellipse fill="none" stroke="black" cx="221.99" cy="-322.29" rx="27" ry="24.08"/>
<text text-anchor="middle" x="221.99" y="-325.69" font-family="Arial" font-size="12.00">Z</text>
<text text-anchor="middle" x="221.99" y="-312.69" font-family="Arial" font-size="12.00">(H)</text>
</g>
<!-- 10&#45;&gt;16 -->
<g id="edge23" class="edge">
<title>10&#45;&gt;16</title>
<path fill="none" stroke="black" d="M221.99,-392.89C221.99,-381.89 221.99,-368.59 221.99,-356.58"/>
<polygon fill="black" stroke="black" points="225.49,-356.45 221.99,-346.45 218.49,-356.45 225.49,-356.45"/>
<text text-anchor="middle" x="228.99" y="-367.33" font-family="Arial" font-size="10.00">1.0</text>
</g>
<!-- 11 -->
<g id="node11" class="node">
<title>11</title>
<ellipse fill="none" stroke="black" cx="180.99" cy="-512.46" rx="28.98" ry="24.08"/>
<text text-anchor="middle" x="180.99" y="-515.86" font-family="Arial" font-size="12.00">Y</text>
<text text-anchor="middle" x="180.99" y="-502.86" font-family="Arial" font-size="12.00">(RZ)</text>
</g>
<!-- 11&#45;&gt;4 -->
<g id="edge19" class="edge">
<title>11&#45;&gt;4</title>
<path fill="none" stroke="black" d="M160.02,-495.46C141.61,-481.41 114.51,-460.73 93,-444.33"/>
<polygon fill="black" stroke="black" points="94.84,-441.33 84.77,-438.04 90.6,-446.89 94.84,-441.33"/>
</g>
<!-- 12 -->
<g id="node12" class="node">
<title>12</title>
<ellipse fill="none" stroke="black" cx="218.99" cy="-607.54" rx="27" ry="24.08"/>
<text text-anchor="middle" x="218.99" y="-610.94" font-family="Arial" font-size="12.00">Y</text>
<text text-anchor="middle" x="218.99" y="-597.94" font-family="Arial" font-size="12.00">(Z)</text>
</g>
<!-- 12&#45;&gt;11 -->
<g id="edge3" class="edge">
<title>12&#45;&gt;11</title>
<path fill="none" stroke="black" d="M206.33,-586.13C202.67,-579.68 198.89,-572.43 195.99,-565.5 193.42,-559.35 191.13,-552.62 189.15,-546.09"/>
<polygon fill="black" stroke="black" points="192.42,-544.79 186.31,-536.13 185.68,-546.71 192.42,-544.79"/>
<text text-anchor="middle" x="208.49" y="-557.5" font-family="Arial" font-size="10.00">0.866</text>
</g>
<!-- 18 -->
<g id="node18" class="node">
<title>18</title>
<ellipse fill="none" stroke="black" cx="256.99" cy="-512.46" rx="28.98" ry="24.08"/>
<text text-anchor="middle" x="256.99" y="-515.86" font-family="Arial" font-size="12.00">X</text>
<text text-anchor="middle" x="256.99" y="-502.86" font-family="Arial" font-size="12.00">(RZ)</text>
</g>
<!-- 12&#45;&gt;18 -->
<g id="edge11" class="edge">
<title>12&#45;&gt;18</title>
<path fill="none" stroke="black" d="M228,-584.48C232.82,-572.66 238.85,-557.89 244.16,-544.88"/>
<polygon fill="black" stroke="black" points="247.51,-545.94 248.05,-535.36 241.03,-543.29 247.51,-545.94"/>
<text text-anchor="middle" x="246.99" y="-557.5" font-family="Arial" font-size="10.00">0.5</text>
</g>
<!-- 14 -->
<g id="node14" class="node">
<title>14</title>
<ellipse fill="none" stroke="black" cx="355.99" cy="-322.29" rx="28.98" ry="24.08"/>
<text text-anchor="middle" x="355.99" y="-325.69" font-family="Arial" font-size="12.00">X</text>
<text text-anchor="middle" x="355.99" y="-312.69" font-family="Arial" font-size="12.00">(RX)</text>
</g>
<!-- 13&#45;&gt;14 -->
<g id="edge27" class="edge">
<title>13&#45;&gt;14</title>
<path fill="none" stroke="black" d="M355.99,-392.89C355.99,-381.89 355.99,-368.59 355.99,-356.58"/>
<polygon fill="black" stroke="black" points="359.49,-356.45 355.99,-346.45 352.49,-356.45 359.49,-356.45"/>
<text text-anchor="middle" x="358.99" y="-367.33" font-family="Arial" font-size="10.00">1</text>
</g>
<!-- 14&#45;&gt;2 -->
<g id="edge4" class="edge">
<title>14&#45;&gt;2</title>
<path fill="none" stroke="black" d="M355.99,-297.8C355.99,-286.81 355.99,-273.51 355.99,-261.5"/>
<polygon fill="black" stroke="black" points="359.49,-261.37 355.99,-251.37 352.49,-261.37 359.49,-261.37"/>
<text text-anchor="middle" x="362.99" y="-272.25" font-family="Arial" font-size="10.00">1.0</text>
</g>
<!-- 15&#45;&gt;10 -->
<g id="edge7" class="edge">
<title>15&#45;&gt;10</title>
<path fill="none" stroke="black" d="M125.37,-495.24C142.94,-481.26 168.64,-460.82 189.12,-444.53"/>
<polygon fill="black" stroke="black" points="191.32,-447.25 196.96,-438.29 186.96,-441.77 191.32,-447.25"/>
</g>
<!-- 17 -->
<g id="node17" class="node">
<title>17</title>
<ellipse fill="none" stroke="black" cx="259.99" cy="-227.21" rx="28.98" ry="24.08"/>
<text text-anchor="middle" x="259.99" y="-230.61" font-family="Arial" font-size="12.00">Y</text>
<text text-anchor="middle" x="259.99" y="-217.61" font-family="Arial" font-size="12.00">(RX)</text>
</g>
<!-- 16&#45;&gt;17 -->
<g id="edge17" class="edge">
<title>16&#45;&gt;17</title>
<path fill="none" stroke="black" d="M231,-299.23C235.82,-287.41 241.85,-272.64 247.16,-259.63"/>
<polygon fill="black" stroke="black" points="250.51,-260.69 251.05,-250.11 244.03,-258.04 250.51,-260.69"/>
<text text-anchor="middle" x="255.49" y="-272.25" font-family="Arial" font-size="10.00">0.707</text>
</g>
<!-- 24 -->
<g id="node24" class="node">
<title>24</title>
<ellipse fill="none" stroke="black" cx="183.99" cy="-227.21" rx="28.98" ry="24.08"/>
<text text-anchor="middle" x="183.99" y="-230.61" font-family="Arial" font-size="12.00">Z</text>
<text text-anchor="middle" x="183.99" y="-217.61" font-family="Arial" font-size="12.00">(RX)</text>
</g>
<!-- 16&#45;&gt;24 -->
<g id="edge15" class="edge">
<title>16&#45;&gt;24</title>
<path fill="none" stroke="black" d="M212.99,-299.23C208.16,-287.41 202.13,-272.64 196.82,-259.63"/>
<polygon fill="black" stroke="black" points="199.95,-258.04 192.93,-250.11 193.47,-260.69 199.95,-258.04"/>
<text text-anchor="middle" x="217.49" y="-272.25" font-family="Arial" font-size="10.00">0.707</text>
</g>
<!-- 25 -->
<g id="node25" class="node">
<title>25</title>
<ellipse fill="none" stroke="black" cx="187.99" cy="-142.12" rx="48.17" ry="24.08"/>
<text text-anchor="middle" x="187.99" y="-145.52" font-family="Arial" font-size="12.00">Y</text>
<text text-anchor="middle" x="187.99" y="-132.52" font-family="Arial" font-size="12.00">(MERGE)</text>
</g>
<!-- 17&#45;&gt;25 -->
<g id="edge1" class="edge">
<title>17&#45;&gt;25</title>
<path fill="none" stroke="black" d="M243.29,-206.94C234.38,-196.66 223.23,-183.79 213.28,-172.31"/>
<polygon fill="black" stroke="black" points="215.82,-169.89 206.63,-164.63 210.53,-174.48 215.82,-169.89"/>
</g>
<!-- 18&#45;&gt;10 -->
<g id="edge8" class="edge">
<title>18&#45;&gt;10</title>
<path fill="none" stroke="black" d="M248.7,-489.4C244.35,-477.83 238.94,-463.44 234.13,-450.65"/>
<polygon fill="black" stroke="black" points="237.39,-449.38 230.59,-441.25 230.84,-451.84 237.39,-449.38"/>
</g>
<!-- 19 -->
<g id="node19" class="node">
<title>19</title>
<ellipse fill="none" stroke="black" cx="218.99" cy="-696.58" rx="27" ry="18"/>
<text text-anchor="middle" x="218.99" y="-693.48" font-family="Arial" font-size="12.00">Y</text>
</g>
<!-- 19&#45;&gt;12 -->
<g id="edge10" class="edge">
<title>19&#45;&gt;12</title>
<path fill="none" stroke="black" d="M218.99,-678.39C218.99,-667.94 218.99,-654.24 218.99,-641.75"/>
<polygon fill="black" stroke="black" points="222.49,-641.64 218.99,-631.64 215.49,-641.64 222.49,-641.64"/>
<text text-anchor="middle" x="227.49" y="-652.58" font-family="Arial" font-size="10.00">&#45;1.0</text>
</g>
<!-- 20 -->
<g id="node20" class="node">
<title>20</title>
<ellipse fill="none" stroke="black" cx="355.99" cy="-696.58" rx="27" ry="18"/>
<text text-anchor="middle" x="355.99" y="-693.48" font-family="Arial" font-size="12.00">Z</text>
</g>
<!-- 26 -->
<g id="node26" class="node">
<title>26</title>
<ellipse fill="none" stroke="black" cx="355.99" cy="-607.54" rx="27" ry="24.08"/>
<text text-anchor="middle" x="355.99" y="-610.94" font-family="Arial" font-size="12.00">Z</text>
<text text-anchor="middle" x="355.99" y="-597.94" font-family="Arial" font-size="12.00">(Z)</text>
</g>
<!-- 20&#45;&gt;26 -->
<g id="edge24" class="edge">
<title>20&#45;&gt;26</title>
<path fill="none" stroke="black" d="M355.99,-678.39C355.99,-667.94 355.99,-654.24 355.99,-641.75"/>
<polygon fill="black" stroke="black" points="359.49,-641.64 355.99,-631.64 352.49,-641.64 359.49,-641.64"/>
<text text-anchor="middle" x="362.99" y="-652.58" font-family="Arial" font-size="10.00">1.0</text>
</g>
<!-- 21&#45;&gt;6 -->
<g id="edge26" class="edge">
<title>21&#45;&gt;6</title>
<path fill="none" stroke="black" d="M51.66,-298.77C49.76,-292.77 47.76,-286.28 45.99,-280.25 44.15,-273.94 42.26,-267.18 40.49,-260.69"/>
<polygon fill="black" stroke="black" points="43.81,-259.56 37.84,-250.81 37.05,-261.38 43.81,-259.56"/>
<text text-anchor="middle" x="59.99" y="-272.25" font-family="Arial" font-size="10.00">&#45;0.707</text>
</g>
<!-- 22 -->
<g id="node22" class="node">
<title>22</title>
<ellipse fill="none" stroke="black" cx="107.99" cy="-227.21" rx="28.98" ry="24.08"/>
<text text-anchor="middle" x="107.99" y="-230.61" font-family="Arial" font-size="12.00">Y</text>
<text text-anchor="middle" x="107.99" y="-217.61" font-family="Arial" font-size="12.00">(RX)</text>
</g>
<!-- 21&#45;&gt;22 -->
<g id="edge12" class="edge">
<title>21&#45;&gt;22</title>
<path fill="none" stroke="black" d="M70.11,-300.17C76.58,-287.88 84.85,-272.18 92,-258.58"/>
<polygon fill="black" stroke="black" points="95.19,-260.05 96.75,-249.57 88.99,-256.79 95.19,-260.05"/>
<text text-anchor="middle" x="97.49" y="-272.25" font-family="Arial" font-size="10.00">0.707</text>
</g>
<!-- 22&#45;&gt;25 -->
<g id="edge16" class="edge">
<title>22&#45;&gt;25</title>
<path fill="none" stroke="black" d="M125.75,-207.77C136.04,-197.08 149.21,-183.4 160.79,-171.38"/>
<polygon fill="black" stroke="black" points="163.33,-173.78 167.75,-164.15 158.29,-168.92 163.33,-173.78"/>
</g>
<!-- 23&#45;&gt;5 -->
<g id="edge20" class="edge">
<title>23&#45;&gt;5</title>
<path fill="none" stroke="black" d="M70.99,-117.64C70.99,-106.64 70.99,-93.34 70.99,-81.33"/>
<polygon fill="black" stroke="black" points="74.49,-81.2 70.99,-71.2 67.49,-81.2 74.49,-81.2"/>
<text text-anchor="middle" x="79.49" y="-92.08" font-family="Arial" font-size="10.00">&#45;1.0</text>
</g>
<!-- 24&#45;&gt;23 -->
<g id="edge14" class="edge">
<title>24&#45;&gt;23</title>
<path fill="none" stroke="black" d="M162.74,-210.58C146.66,-198.76 124.24,-182.28 105.59,-168.56"/>
<polygon fill="black" stroke="black" points="107.45,-165.59 97.32,-162.48 103.31,-171.23 107.45,-165.59"/>
</g>
<!-- 25&#45;&gt;3 -->
<g id="edge13" class="edge">
<title>25&#45;&gt;3</title>
<path fill="none" stroke="black" d="M187.99,-117.64C187.99,-106.64 187.99,-93.34 187.99,-81.33"/>
<polygon fill="black" stroke="black" points="191.49,-81.2 187.99,-71.2 184.49,-81.2 191.49,-81.2"/>
<text text-anchor="middle" x="196.49" y="-92.08" font-family="Arial" font-size="10.00">&#45;1.0</text>
</g>
<!-- 26&#45;&gt;9 -->
<g id="edge21" class="edge">
<title>26&#45;&gt;9</title>
<path fill="none" stroke="black" d="M355.99,-583.05C355.99,-572.06 355.99,-558.76 355.99,-546.75"/>
<polygon fill="black" stroke="black" points="359.49,-546.62 355.99,-536.62 352.49,-546.62 359.49,-546.62"/>
<text text-anchor="middle" x="358.99" y="-557.5" font-family="Arial" font-size="10.00">1</text>
</g>
</g>
</svg>
