<?xml version="1.0" encoding="utf-8"?>
<svg xmlns="http://www.w3.org/2000/svg" xmlns:xlink="http://www.w3.org/1999/xlink" width="600" height="400" viewBox="0 0 2400 1600">
<defs>
  <clipPath id="clip890">
    <rect x="0" y="0" width="2400" height="1600"/>
  </clipPath>
</defs>
<path clip-path="url(#clip890)" d="M0 1600 L2400 1600 L2400 0 L0 0  Z" fill="#ffffff" fill-rule="evenodd" fill-opacity="1"/>
<defs>
  <clipPath id="clip891">
    <rect x="287" y="47" width="2067" height="1344"/>
  </clipPath>
</defs>
<path clip-path="url(#clip890)" d="M285.29 1390.55 L2352.76 1390.55 L2352.76 47.2441 L285.29 47.2441  Z" fill="#ffffff" fill-rule="evenodd" fill-opacity="1"/>
<defs>
  <clipPath id="clip892">
    <rect x="285" y="47" width="2068" height="1344"/>
  </clipPath>
</defs>
<polyline clip-path="url(#clip892)" style="stroke:#000000; stroke-linecap:round; stroke-linejoin:round; stroke-width:2; stroke-opacity:0.1; fill:none" points="343.803,1390.55 343.803,47.2441 "/>
<polyline clip-path="url(#clip892)" style="stroke:#000000; stroke-linecap:round; stroke-linejoin:round; stroke-width:2; stroke-opacity:0.1; fill:none" points="560.519,1390.55 560.519,47.2441 "/>
<polyline clip-path="url(#clip892)" style="stroke:#000000; stroke-linecap:round; stroke-linejoin:round; stroke-width:2; stroke-opacity:0.1; fill:none" points="777.234,1390.55 777.234,47.2441 "/>
<polyline clip-path="url(#clip892)" style="stroke:#000000; stroke-linecap:round; stroke-linejoin:round; stroke-width:2; stroke-opacity:0.1; fill:none" points="993.95,1390.55 993.95,47.2441 "/>
<polyline clip-path="url(#clip892)" style="stroke:#000000; stroke-linecap:round; stroke-linejoin:round; stroke-width:2; stroke-opacity:0.1; fill:none" points="1210.67,1390.55 1210.67,47.2441 "/>
<polyline clip-path="url(#clip892)" style="stroke:#000000; stroke-linecap:round; stroke-linejoin:round; stroke-width:2; stroke-opacity:0.1; fill:none" points="1427.38,1390.55 1427.38,47.2441 "/>
<polyline clip-path="url(#clip892)" style="stroke:#000000; stroke-linecap:round; stroke-linejoin:round; stroke-width:2; stroke-opacity:0.1; fill:none" points="1644.1,1390.55 1644.1,47.2441 "/>
<polyline clip-path="url(#clip892)" style="stroke:#000000; stroke-linecap:round; stroke-linejoin:round; stroke-width:2; stroke-opacity:0.1; fill:none" points="1860.81,1390.55 1860.81,47.2441 "/>
<polyline clip-path="url(#clip892)" style="stroke:#000000; stroke-linecap:round; stroke-linejoin:round; stroke-width:2; stroke-opacity:0.1; fill:none" points="2077.53,1390.55 2077.53,47.2441 "/>
<polyline clip-path="url(#clip892)" style="stroke:#000000; stroke-linecap:round; stroke-linejoin:round; stroke-width:2; stroke-opacity:0.1; fill:none" points="2294.24,1390.55 2294.24,47.2441 "/>
<polyline clip-path="url(#clip892)" style="stroke:#000000; stroke-linecap:round; stroke-linejoin:round; stroke-width:2; stroke-opacity:0.1; fill:none" points="285.29,1163.79 2352.76,1163.79 "/>
<polyline clip-path="url(#clip892)" style="stroke:#000000; stroke-linecap:round; stroke-linejoin:round; stroke-width:2; stroke-opacity:0.1; fill:none" points="285.29,692.814 2352.76,692.814 "/>
<polyline clip-path="url(#clip892)" style="stroke:#000000; stroke-linecap:round; stroke-linejoin:round; stroke-width:2; stroke-opacity:0.1; fill:none" points="285.29,221.84 2352.76,221.84 "/>
<polyline clip-path="url(#clip890)" style="stroke:#000000; stroke-linecap:round; stroke-linejoin:round; stroke-width:4; stroke-opacity:1; fill:none" points="285.29,1390.55 2352.76,1390.55 "/>
<polyline clip-path="url(#clip890)" style="stroke:#000000; stroke-linecap:round; stroke-linejoin:round; stroke-width:4; stroke-opacity:1; fill:none" points="343.803,1390.55 343.803,1371.65 "/>
<polyline clip-path="url(#clip890)" style="stroke:#000000; stroke-linecap:round; stroke-linejoin:round; stroke-width:4; stroke-opacity:1; fill:none" points="560.519,1390.55 560.519,1371.65 "/>
<polyline clip-path="url(#clip890)" style="stroke:#000000; stroke-linecap:round; stroke-linejoin:round; stroke-width:4; stroke-opacity:1; fill:none" points="777.234,1390.55 777.234,1371.65 "/>
<polyline clip-path="url(#clip890)" style="stroke:#000000; stroke-linecap:round; stroke-linejoin:round; stroke-width:4; stroke-opacity:1; fill:none" points="993.95,1390.55 993.95,1371.65 "/>
<polyline clip-path="url(#clip890)" style="stroke:#000000; stroke-linecap:round; stroke-linejoin:round; stroke-width:4; stroke-opacity:1; fill:none" points="1210.67,1390.55 1210.67,1371.65 "/>
<polyline clip-path="url(#clip890)" style="stroke:#000000; stroke-linecap:round; stroke-linejoin:round; stroke-width:4; stroke-opacity:1; fill:none" points="1427.38,1390.55 1427.38,1371.65 "/>
<polyline clip-path="url(#clip890)" style="stroke:#000000; stroke-linecap:round; stroke-linejoin:round; stroke-width:4; stroke-opacity:1; fill:none" points="1644.1,1390.55 1644.1,1371.65 "/>
<polyline clip-path="url(#clip890)" style="stroke:#000000; stroke-linecap:round; stroke-linejoin:round; stroke-width:4; stroke-opacity:1; fill:none" points="1860.81,1390.55 1860.81,1371.65 "/>
<polyline clip-path="url(#clip890)" style="stroke:#000000; stroke-linecap:round; stroke-linejoin:round; stroke-width:4; stroke-opacity:1; fill:none" points="2077.53,1390.55 2077.53,1371.65 "/>
<polyline clip-path="url(#clip890)" style="stroke:#000000; stroke-linecap:round; stroke-linejoin:round; stroke-width:4; stroke-opacity:1; fill:none" points="2294.24,1390.55 2294.24,1371.65 "/>
<path clip-path="url(#clip890)" d="M265.508 1478.4 L275.056 1478.4 L275.056 1445.44 L264.669 1447.53 L264.669 1442.2 L274.999 1440.12 L280.843 1440.12 L280.843 1478.4 L290.392 1478.4 L290.392 1483.32 L265.508 1483.32 L265.508 1478.4 Z" fill="#000000" fill-rule="nonzero" fill-opacity="1" /><path clip-path="url(#clip890)" d="M314.697 1443.97 Q310.184 1443.97 307.898 1448.43 Q305.641 1452.85 305.641 1461.76 Q305.641 1470.65 307.898 1475.1 Q310.184 1479.53 314.697 1479.53 Q319.24 1479.53 321.497 1475.1 Q323.783 1470.65 323.783 1461.76 Q323.783 1452.85 321.497 1448.43 Q319.24 1443.97 314.697 1443.97 M314.697 1439.34 Q321.96 1439.34 325.78 1445.1 Q329.628 1450.83 329.628 1461.76 Q329.628 1472.67 325.78 1478.43 Q321.96 1484.16 314.697 1484.16 Q307.435 1484.16 303.586 1478.43 Q299.767 1472.67 299.767 1461.76 Q299.767 1450.83 303.586 1445.1 Q307.435 1439.34 314.697 1439.34 Z" fill="#000000" fill-rule="nonzero" fill-opacity="1" /><path clip-path="url(#clip890)" d="M329.628 1431.97 L359.767 1431.97 L359.767 1435.96 L329.628 1435.96 L329.628 1431.97 Z" fill="#000000" fill-rule="nonzero" fill-opacity="1" /><path clip-path="url(#clip890)" d="M370.84 1445.06 L378.599 1445.06 L378.599 1418.28 L370.159 1419.98 L370.159 1415.65 L378.552 1413.96 L383.301 1413.96 L383.301 1445.06 L391.059 1445.06 L391.059 1449.06 L370.84 1449.06 L370.84 1445.06 Z" fill="#000000" fill-rule="nonzero" fill-opacity="1" /><path clip-path="url(#clip890)" d="M410.807 1417.08 Q407.139 1417.08 405.282 1420.71 Q403.448 1424.3 403.448 1431.54 Q403.448 1438.76 405.282 1442.38 Q407.139 1445.98 410.807 1445.98 Q414.498 1445.98 416.332 1442.38 Q418.189 1438.76 418.189 1431.54 Q418.189 1424.3 416.332 1420.71 Q414.498 1417.08 410.807 1417.08 M410.807 1413.32 Q416.708 1413.32 419.811 1418 Q422.938 1422.66 422.938 1431.54 Q422.938 1440.41 419.811 1445.08 Q416.708 1449.74 410.807 1449.74 Q404.906 1449.74 401.779 1445.08 Q398.676 1440.41 398.676 1431.54 Q398.676 1422.66 401.779 1418 Q404.906 1413.32 410.807 1413.32 Z" fill="#000000" fill-rule="nonzero" fill-opacity="1" /><path clip-path="url(#clip890)" d="M497.634 1478.4 L507.183 1478.4 L507.183 1445.44 L496.795 1447.53 L496.795 1442.2 L507.125 1440.12 L512.97 1440.12 L512.97 1478.4 L522.518 1478.4 L522.518 1483.32 L497.634 1483.32 L497.634 1478.4 Z" fill="#000000" fill-rule="nonzero" fill-opacity="1" /><path clip-path="url(#clip890)" d="M546.824 1443.97 Q542.31 1443.97 540.024 1448.43 Q537.767 1452.85 537.767 1461.76 Q537.767 1470.65 540.024 1475.1 Q542.31 1479.53 546.824 1479.53 Q551.366 1479.53 553.623 1475.1 Q555.909 1470.65 555.909 1461.76 Q555.909 1452.85 553.623 1448.43 Q551.366 1443.97 546.824 1443.97 M546.824 1439.34 Q554.086 1439.34 557.906 1445.1 Q561.754 1450.83 561.754 1461.76 Q561.754 1472.67 557.906 1478.43 Q554.086 1484.16 546.824 1484.16 Q539.561 1484.16 535.712 1478.43 Q531.893 1472.67 531.893 1461.76 Q531.893 1450.83 535.712 1445.1 Q539.561 1439.34 546.824 1439.34 Z" fill="#000000" fill-rule="nonzero" fill-opacity="1" /><path clip-path="url(#clip890)" d="M561.754 1431.97 L591.893 1431.97 L591.893 1435.96 L561.754 1435.96 L561.754 1431.97 Z" fill="#000000" fill-rule="nonzero" fill-opacity="1" /><path clip-path="url(#clip890)" d="M602.285 1448.33 L602.285 1444 Q604.071 1444.85 605.905 1445.3 Q607.739 1445.74 609.502 1445.74 Q614.204 1445.74 616.673 1442.59 Q619.165 1439.42 619.517 1432.98 Q618.154 1435 616.061 1436.08 Q613.969 1437.16 611.43 1437.16 Q606.164 1437.16 603.084 1433.99 Q600.028 1430.79 600.028 1425.27 Q600.028 1419.86 603.225 1416.59 Q606.422 1413.32 611.736 1413.32 Q617.825 1413.32 621.022 1418 Q624.243 1422.66 624.243 1431.54 Q624.243 1439.84 620.293 1444.8 Q616.367 1449.74 609.714 1449.74 Q607.927 1449.74 606.093 1449.39 Q604.26 1449.03 602.285 1448.33 M611.736 1433.45 Q614.933 1433.45 616.79 1431.26 Q618.671 1429.07 618.671 1425.27 Q618.671 1421.48 616.79 1419.29 Q614.933 1417.08 611.736 1417.08 Q608.538 1417.08 606.658 1419.29 Q604.8 1421.48 604.8 1425.27 Q604.8 1429.07 606.658 1431.26 Q608.538 1433.45 611.736 1433.45 Z" fill="#000000" fill-rule="nonzero" fill-opacity="1" /><path clip-path="url(#clip890)" d="M714.302 1478.4 L723.851 1478.4 L723.851 1445.44 L713.463 1447.53 L713.463 1442.2 L723.793 1440.12 L729.638 1440.12 L729.638 1478.4 L739.187 1478.4 L739.187 1483.32 L714.302 1483.32 L714.302 1478.4 Z" fill="#000000" fill-rule="nonzero" fill-opacity="1" /><path clip-path="url(#clip890)" d="M763.492 1443.97 Q758.978 1443.97 756.692 1448.43 Q754.435 1452.85 754.435 1461.76 Q754.435 1470.65 756.692 1475.1 Q758.978 1479.53 763.492 1479.53 Q768.035 1479.53 770.292 1475.1 Q772.578 1470.65 772.578 1461.76 Q772.578 1452.85 770.292 1448.43 Q768.035 1443.97 763.492 1443.97 M763.492 1439.34 Q770.755 1439.34 774.574 1445.1 Q778.422 1450.83 778.422 1461.76 Q778.422 1472.67 774.574 1478.43 Q770.755 1484.16 763.492 1484.16 Q756.229 1484.16 752.381 1478.43 Q748.562 1472.67 748.562 1461.76 Q748.562 1450.83 752.381 1445.1 Q756.229 1439.34 763.492 1439.34 Z" fill="#000000" fill-rule="nonzero" fill-opacity="1" /><path clip-path="url(#clip890)" d="M778.422 1431.97 L808.562 1431.97 L808.562 1435.96 L778.422 1435.96 L778.422 1431.97 Z" fill="#000000" fill-rule="nonzero" fill-opacity="1" /><path clip-path="url(#clip890)" d="M828.968 1432.39 Q825.583 1432.39 823.632 1434.2 Q821.704 1436.01 821.704 1439.18 Q821.704 1442.36 823.632 1444.17 Q825.583 1445.98 828.968 1445.98 Q832.354 1445.98 834.305 1444.17 Q836.256 1442.33 836.256 1439.18 Q836.256 1436.01 834.305 1434.2 Q832.377 1432.39 828.968 1432.39 M824.219 1430.37 Q821.163 1429.62 819.447 1427.52 Q817.754 1425.43 817.754 1422.42 Q817.754 1418.21 820.74 1415.77 Q823.749 1413.32 828.968 1413.32 Q834.211 1413.32 837.197 1415.77 Q840.182 1418.21 840.182 1422.42 Q840.182 1425.43 838.466 1427.52 Q836.774 1429.62 833.741 1430.37 Q837.173 1431.17 839.078 1433.49 Q841.005 1435.82 841.005 1439.18 Q841.005 1444.29 837.879 1447.01 Q834.775 1449.74 828.968 1449.74 Q823.161 1449.74 820.035 1447.01 Q816.931 1444.29 816.931 1439.18 Q816.931 1435.82 818.859 1433.49 Q820.787 1431.17 824.219 1430.37 M822.48 1422.87 Q822.48 1425.6 824.172 1427.12 Q825.889 1428.65 828.968 1428.65 Q832.025 1428.65 833.741 1427.12 Q835.481 1425.6 835.481 1422.87 Q835.481 1420.14 833.741 1418.61 Q832.025 1417.08 828.968 1417.08 Q825.889 1417.08 824.172 1418.61 Q822.48 1420.14 822.48 1422.87 Z" fill="#000000" fill-rule="nonzero" fill-opacity="1" /><path clip-path="url(#clip890)" d="M931.429 1478.4 L940.978 1478.4 L940.978 1445.44 L930.59 1447.53 L930.59 1442.2 L940.92 1440.12 L946.765 1440.12 L946.765 1478.4 L956.313 1478.4 L956.313 1483.32 L931.429 1483.32 L931.429 1478.4 Z" fill="#000000" fill-rule="nonzero" fill-opacity="1" /><path clip-path="url(#clip890)" d="M980.619 1443.97 Q976.105 1443.97 973.819 1448.43 Q971.562 1452.85 971.562 1461.76 Q971.562 1470.65 973.819 1475.1 Q976.105 1479.53 980.619 1479.53 Q985.162 1479.53 987.419 1475.1 Q989.705 1470.65 989.705 1461.76 Q989.705 1452.85 987.419 1448.43 Q985.162 1443.97 980.619 1443.97 M980.619 1439.34 Q987.882 1439.34 991.701 1445.1 Q995.549 1450.83 995.549 1461.76 Q995.549 1472.67 991.701 1478.43 Q987.882 1484.16 980.619 1484.16 Q973.356 1484.16 969.508 1478.43 Q965.688 1472.67 965.688 1461.76 Q965.688 1450.83 969.508 1445.1 Q973.356 1439.34 980.619 1439.34 Z" fill="#000000" fill-rule="nonzero" fill-opacity="1" /><path clip-path="url(#clip890)" d="M995.549 1431.97 L1025.69 1431.97 L1025.69 1435.96 L995.549 1435.96 L995.549 1431.97 Z" fill="#000000" fill-rule="nonzero" fill-opacity="1" /><path clip-path="url(#clip890)" d="M1034.74 1413.96 L1057.31 1413.96 L1057.31 1415.98 L1044.57 1449.06 L1039.61 1449.06 L1051.6 1417.95 L1034.74 1417.95 L1034.74 1413.96 Z" fill="#000000" fill-rule="nonzero" fill-opacity="1" /><path clip-path="url(#clip890)" d="M1147.6 1478.4 L1157.15 1478.4 L1157.15 1445.44 L1146.76 1447.53 L1146.76 1442.2 L1157.09 1440.12 L1162.94 1440.12 L1162.94 1478.4 L1172.49 1478.4 L1172.49 1483.32 L1147.6 1483.32 L1147.6 1478.4 Z" fill="#000000" fill-rule="nonzero" fill-opacity="1" /><path clip-path="url(#clip890)" d="M1196.79 1443.97 Q1192.28 1443.97 1189.99 1448.43 Q1187.74 1452.85 1187.74 1461.76 Q1187.74 1470.65 1189.99 1475.1 Q1192.28 1479.53 1196.79 1479.53 Q1201.34 1479.53 1203.59 1475.1 Q1205.88 1470.65 1205.88 1461.76 Q1205.88 1452.85 1203.59 1448.43 Q1201.34 1443.97 1196.79 1443.97 M1196.79 1439.34 Q1204.06 1439.34 1207.88 1445.1 Q1211.72 1450.83 1211.72 1461.76 Q1211.72 1472.67 1207.88 1478.43 Q1204.06 1484.16 1196.79 1484.16 Q1189.53 1484.16 1185.68 1478.43 Q1181.86 1472.67 1181.86 1461.76 Q1181.86 1450.83 1185.68 1445.1 Q1189.53 1439.34 1196.79 1439.34 Z" fill="#000000" fill-rule="nonzero" fill-opacity="1" /><path clip-path="url(#clip890)" d="M1211.72 1431.97 L1241.86 1431.97 L1241.86 1435.96 L1211.72 1435.96 L1211.72 1431.97 Z" fill="#000000" fill-rule="nonzero" fill-opacity="1" /><path clip-path="url(#clip890)" d="M1262.86 1429.62 Q1259.66 1429.62 1257.78 1431.8 Q1255.92 1433.99 1255.92 1437.8 Q1255.92 1441.58 1257.78 1443.79 Q1259.66 1445.98 1262.86 1445.98 Q1266.06 1445.98 1267.91 1443.79 Q1269.79 1441.58 1269.79 1437.8 Q1269.79 1433.99 1267.91 1431.8 Q1266.06 1429.62 1262.86 1429.62 M1272.29 1414.73 L1272.29 1419.06 Q1270.5 1418.21 1268.66 1417.77 Q1266.85 1417.32 1265.07 1417.32 Q1260.37 1417.32 1257.87 1420.49 Q1255.41 1423.67 1255.05 1430.09 Q1256.44 1428.04 1258.53 1426.96 Q1260.62 1425.85 1263.14 1425.85 Q1268.43 1425.85 1271.49 1429.07 Q1274.57 1432.27 1274.57 1437.8 Q1274.57 1443.2 1271.37 1446.47 Q1268.17 1449.74 1262.86 1449.74 Q1256.77 1449.74 1253.55 1445.08 Q1250.33 1440.41 1250.33 1431.54 Q1250.33 1423.22 1254.28 1418.28 Q1258.23 1413.32 1264.88 1413.32 Q1266.67 1413.32 1268.48 1413.68 Q1270.31 1414.03 1272.29 1414.73 Z" fill="#000000" fill-rule="nonzero" fill-opacity="1" /><path clip-path="url(#clip890)" d="M1364.91 1478.4 L1374.46 1478.4 L1374.46 1445.44 L1364.07 1447.53 L1364.07 1442.2 L1374.4 1440.12 L1380.24 1440.12 L1380.24 1478.4 L1389.79 1478.4 L1389.79 1483.32 L1364.91 1483.32 L1364.91 1478.4 Z" fill="#000000" fill-rule="nonzero" fill-opacity="1" /><path clip-path="url(#clip890)" d="M1414.1 1443.97 Q1409.58 1443.97 1407.3 1448.43 Q1405.04 1452.85 1405.04 1461.76 Q1405.04 1470.65 1407.3 1475.1 Q1409.58 1479.53 1414.1 1479.53 Q1418.64 1479.53 1420.9 1475.1 Q1423.18 1470.65 1423.18 1461.76 Q1423.18 1452.85 1420.9 1448.43 Q1418.64 1443.97 1414.1 1443.97 M1414.1 1439.34 Q1421.36 1439.34 1425.18 1445.1 Q1429.03 1450.83 1429.03 1461.76 Q1429.03 1472.67 1425.18 1478.43 Q1421.36 1484.16 1414.1 1484.16 Q1406.83 1484.16 1402.99 1478.43 Q1399.17 1472.67 1399.17 1461.76 Q1399.17 1450.83 1402.99 1445.1 Q1406.83 1439.34 1414.1 1439.34 Z" fill="#000000" fill-rule="nonzero" fill-opacity="1" /><path clip-path="url(#clip890)" d="M1429.03 1431.97 L1459.17 1431.97 L1459.17 1435.96 L1429.03 1435.96 L1429.03 1431.97 Z" fill="#000000" fill-rule="nonzero" fill-opacity="1" /><path clip-path="url(#clip890)" d="M1469.46 1413.96 L1488.11 1413.96 L1488.11 1417.95 L1473.81 1417.95 L1473.81 1426.56 Q1474.85 1426.21 1475.88 1426.04 Q1476.92 1425.85 1477.95 1425.85 Q1483.83 1425.85 1487.26 1429.07 Q1490.69 1432.3 1490.69 1437.8 Q1490.69 1443.46 1487.17 1446.61 Q1483.64 1449.74 1477.22 1449.74 Q1475.01 1449.74 1472.71 1449.36 Q1470.43 1448.99 1467.98 1448.24 L1467.98 1443.46 Q1470.1 1444.61 1472.36 1445.18 Q1474.61 1445.74 1477.13 1445.74 Q1481.2 1445.74 1483.57 1443.6 Q1485.94 1441.46 1485.94 1437.8 Q1485.94 1434.13 1483.57 1431.99 Q1481.2 1429.85 1477.13 1429.85 Q1475.22 1429.85 1473.32 1430.27 Q1471.44 1430.7 1469.46 1431.59 L1469.46 1413.96 Z" fill="#000000" fill-rule="nonzero" fill-opacity="1" /><path clip-path="url(#clip890)" d="M1580.87 1478.4 L1590.42 1478.4 L1590.42 1445.44 L1580.03 1447.53 L1580.03 1442.2 L1590.36 1440.12 L1596.21 1440.12 L1596.21 1478.4 L1605.75 1478.4 L1605.75 1483.32 L1580.87 1483.32 L1580.87 1478.4 Z" fill="#000000" fill-rule="nonzero" fill-opacity="1" /><path clip-path="url(#clip890)" d="M1630.06 1443.97 Q1625.55 1443.97 1623.26 1448.43 Q1621 1452.85 1621 1461.76 Q1621 1470.65 1623.26 1475.1 Q1625.55 1479.53 1630.06 1479.53 Q1634.6 1479.53 1636.86 1475.1 Q1639.15 1470.65 1639.15 1461.76 Q1639.15 1452.85 1636.86 1448.43 Q1634.6 1443.97 1630.06 1443.97 M1630.06 1439.34 Q1637.32 1439.34 1641.14 1445.1 Q1644.99 1450.83 1644.99 1461.76 Q1644.99 1472.67 1641.14 1478.43 Q1637.32 1484.16 1630.06 1484.16 Q1622.8 1484.16 1618.95 1478.43 Q1615.13 1472.67 1615.13 1461.76 Q1615.13 1450.83 1618.95 1445.1 Q1622.8 1439.34 1630.06 1439.34 Z" fill="#000000" fill-rule="nonzero" fill-opacity="1" /><path clip-path="url(#clip890)" d="M1644.99 1431.97 L1675.13 1431.97 L1675.13 1435.96 L1644.99 1435.96 L1644.99 1431.97 Z" fill="#000000" fill-rule="nonzero" fill-opacity="1" /><path clip-path="url(#clip890)" d="M1698.43 1418.1 L1686.44 1436.83 L1698.43 1436.83 L1698.43 1418.1 M1697.18 1413.96 L1703.15 1413.96 L1703.15 1436.83 L1708.16 1436.83 L1708.16 1440.78 L1703.15 1440.78 L1703.15 1449.06 L1698.43 1449.06 L1698.43 1440.78 L1682.58 1440.78 L1682.58 1436.2 L1697.18 1413.96 Z" fill="#000000" fill-rule="nonzero" fill-opacity="1" /><path clip-path="url(#clip890)" d="M1798.16 1478.4 L1807.71 1478.4 L1807.71 1445.44 L1797.32 1447.53 L1797.32 1442.2 L1807.65 1440.12 L1813.5 1440.12 L1813.5 1478.4 L1823.05 1478.4 L1823.05 1483.32 L1798.16 1483.32 L1798.16 1478.4 Z" fill="#000000" fill-rule="nonzero" fill-opacity="1" /><path clip-path="url(#clip890)" d="M1847.35 1443.97 Q1842.84 1443.97 1840.55 1448.43 Q1838.29 1452.85 1838.29 1461.76 Q1838.29 1470.65 1840.55 1475.1 Q1842.84 1479.53 1847.35 1479.53 Q1851.89 1479.53 1854.15 1475.1 Q1856.44 1470.65 1856.44 1461.76 Q1856.44 1452.85 1854.15 1448.43 Q1851.89 1443.97 1847.35 1443.97 M1847.35 1439.34 Q1854.61 1439.34 1858.43 1445.1 Q1862.28 1450.83 1862.28 1461.76 Q1862.28 1472.67 1858.43 1478.43 Q1854.61 1484.16 1847.35 1484.16 Q1840.09 1484.16 1836.24 1478.43 Q1832.42 1472.67 1832.42 1461.76 Q1832.42 1450.83 1836.24 1445.1 Q1840.09 1439.34 1847.35 1439.34 Z" fill="#000000" fill-rule="nonzero" fill-opacity="1" /><path clip-path="url(#clip890)" d="M1862.28 1431.97 L1892.42 1431.97 L1892.42 1435.96 L1862.28 1435.96 L1862.28 1431.97 Z" fill="#000000" fill-rule="nonzero" fill-opacity="1" /><path clip-path="url(#clip890)" d="M1917.06 1430.13 Q1920.47 1430.86 1922.37 1433.17 Q1924.3 1435.47 1924.3 1438.85 Q1924.3 1444.05 1920.73 1446.89 Q1917.15 1449.74 1910.57 1449.74 Q1908.36 1449.74 1906.01 1449.29 Q1903.68 1448.87 1901.19 1448 L1901.19 1443.42 Q1903.17 1444.57 1905.52 1445.16 Q1907.87 1445.74 1910.43 1445.74 Q1914.9 1445.74 1917.22 1443.98 Q1919.58 1442.22 1919.58 1438.85 Q1919.58 1435.75 1917.39 1434.01 Q1915.23 1432.25 1911.35 1432.25 L1907.26 1432.25 L1907.26 1428.35 L1911.53 1428.35 Q1915.04 1428.35 1916.9 1426.96 Q1918.75 1425.55 1918.75 1422.92 Q1918.75 1420.21 1916.82 1418.78 Q1914.92 1417.32 1911.35 1417.32 Q1909.4 1417.32 1907.16 1417.74 Q1904.93 1418.17 1902.25 1419.06 L1902.25 1414.83 Q1904.95 1414.08 1907.3 1413.7 Q1909.68 1413.32 1911.77 1413.32 Q1917.18 1413.32 1920.33 1415.79 Q1923.48 1418.24 1923.48 1422.42 Q1923.48 1425.34 1921.81 1427.36 Q1920.14 1429.36 1917.06 1430.13 Z" fill="#000000" fill-rule="nonzero" fill-opacity="1" /><path clip-path="url(#clip890)" d="M2015.36 1478.4 L2024.91 1478.4 L2024.91 1445.44 L2014.52 1447.53 L2014.52 1442.2 L2024.85 1440.12 L2030.69 1440.12 L2030.69 1478.4 L2040.24 1478.4 L2040.24 1483.32 L2015.36 1483.32 L2015.36 1478.4 Z" fill="#000000" fill-rule="nonzero" fill-opacity="1" /><path clip-path="url(#clip890)" d="M2064.55 1443.97 Q2060.04 1443.97 2057.75 1448.43 Q2055.49 1452.85 2055.49 1461.76 Q2055.49 1470.65 2057.75 1475.1 Q2060.04 1479.53 2064.55 1479.53 Q2069.09 1479.53 2071.35 1475.1 Q2073.63 1470.65 2073.63 1461.76 Q2073.63 1452.85 2071.35 1448.43 Q2069.09 1443.97 2064.55 1443.97 M2064.55 1439.34 Q2071.81 1439.34 2075.63 1445.1 Q2079.48 1450.83 2079.48 1461.76 Q2079.48 1472.67 2075.63 1478.43 Q2071.81 1484.16 2064.55 1484.16 Q2057.29 1484.16 2053.44 1478.43 Q2049.62 1472.67 2049.62 1461.76 Q2049.62 1450.83 2053.44 1445.1 Q2057.29 1439.34 2064.55 1439.34 Z" fill="#000000" fill-rule="nonzero" fill-opacity="1" /><path clip-path="url(#clip890)" d="M2079.48 1431.97 L2109.62 1431.97 L2109.62 1435.96 L2079.48 1435.96 L2079.48 1431.97 Z" fill="#000000" fill-rule="nonzero" fill-opacity="1" /><path clip-path="url(#clip890)" d="M2123.96 1445.06 L2140.53 1445.06 L2140.53 1449.06 L2118.25 1449.06 L2118.25 1445.06 Q2120.95 1442.26 2125.61 1437.56 Q2130.28 1432.84 2131.48 1431.47 Q2133.76 1428.91 2134.66 1427.15 Q2135.57 1425.36 2135.57 1423.64 Q2135.57 1420.85 2133.6 1419.08 Q2131.65 1417.32 2128.5 1417.32 Q2126.26 1417.32 2123.77 1418.1 Q2121.3 1418.87 2118.48 1420.45 L2118.48 1415.65 Q2121.35 1414.5 2123.84 1413.91 Q2126.33 1413.32 2128.4 1413.32 Q2133.86 1413.32 2137.1 1416.05 Q2140.35 1418.78 2140.35 1423.34 Q2140.35 1425.5 2139.52 1427.45 Q2138.72 1429.38 2136.58 1432.01 Q2136 1432.7 2132.85 1435.96 Q2129.7 1439.21 2123.96 1445.06 Z" fill="#000000" fill-rule="nonzero" fill-opacity="1" /><path clip-path="url(#clip890)" d="M2231.89 1478.4 L2241.44 1478.4 L2241.44 1445.44 L2231.05 1447.53 L2231.05 1442.2 L2241.38 1440.12 L2247.22 1440.12 L2247.22 1478.4 L2256.77 1478.4 L2256.77 1483.32 L2231.89 1483.32 L2231.89 1478.4 Z" fill="#000000" fill-rule="nonzero" fill-opacity="1" /><path clip-path="url(#clip890)" d="M2281.08 1443.97 Q2276.56 1443.97 2274.28 1448.43 Q2272.02 1452.85 2272.02 1461.76 Q2272.02 1470.65 2274.28 1475.1 Q2276.56 1479.53 2281.08 1479.53 Q2285.62 1479.53 2287.88 1475.1 Q2290.16 1470.65 2290.16 1461.76 Q2290.16 1452.85 2287.88 1448.43 Q2285.62 1443.97 2281.08 1443.97 M2281.08 1439.34 Q2288.34 1439.34 2292.16 1445.1 Q2296.01 1450.83 2296.01 1461.76 Q2296.01 1472.67 2292.16 1478.43 Q2288.34 1484.16 2281.08 1484.16 Q2273.81 1484.16 2269.97 1478.43 Q2266.15 1472.67 2266.15 1461.76 Q2266.15 1450.83 2269.97 1445.1 Q2273.81 1439.34 2281.08 1439.34 Z" fill="#000000" fill-rule="nonzero" fill-opacity="1" /><path clip-path="url(#clip890)" d="M2296.01 1431.97 L2326.15 1431.97 L2326.15 1435.96 L2296.01 1435.96 L2296.01 1431.97 Z" fill="#000000" fill-rule="nonzero" fill-opacity="1" /><path clip-path="url(#clip890)" d="M2337.22 1445.06 L2344.98 1445.06 L2344.98 1418.28 L2336.54 1419.98 L2336.54 1415.65 L2344.93 1413.96 L2349.68 1413.96 L2349.68 1445.06 L2357.44 1445.06 L2357.44 1449.06 L2337.22 1449.06 L2337.22 1445.06 Z" fill="#000000" fill-rule="nonzero" fill-opacity="1" /><path clip-path="url(#clip890)" d="M919.245 1525.61 L966.754 1525.61 L966.754 1532 L946.817 1532 L946.817 1581.77 L939.181 1581.77 L939.181 1532 L919.245 1532 L919.245 1525.61 Z" fill="#000000" fill-rule="nonzero" fill-opacity="1" /><path clip-path="url(#clip890)" d="M986.878 1546.11 Q985.712 1545.43 984.32 1545.13 Q982.966 1544.79 981.311 1544.79 Q975.443 1544.79 972.283 1548.63 Q969.161 1552.43 969.161 1559.58 L969.161 1581.77 L962.202 1581.77 L962.202 1539.64 L969.161 1539.64 L969.161 1546.18 Q971.343 1542.35 974.841 1540.5 Q978.339 1538.62 983.342 1538.62 Q984.057 1538.62 984.922 1538.74 Q985.787 1538.81 986.84 1539 L986.878 1546.11 Z" fill="#000000" fill-rule="nonzero" fill-opacity="1" /><path clip-path="url(#clip890)" d="M993.423 1565.14 L993.423 1539.64 L1000.34 1539.64 L1000.34 1564.88 Q1000.34 1570.86 1002.68 1573.87 Q1005.01 1576.84 1009.67 1576.84 Q1015.28 1576.84 1018.51 1573.27 Q1021.79 1569.69 1021.79 1563.53 L1021.79 1539.64 L1028.71 1539.64 L1028.71 1581.77 L1021.79 1581.77 L1021.79 1575.3 Q1019.26 1579.14 1015.92 1581.02 Q1012.61 1582.86 1008.21 1582.86 Q1000.95 1582.86 997.184 1578.35 Q993.423 1573.83 993.423 1565.14 M1010.84 1538.62 L1010.84 1538.62 Z" fill="#000000" fill-rule="nonzero" fill-opacity="1" /><path clip-path="url(#clip890)" d="M1077.98 1556.34 L1077.98 1581.77 L1071.06 1581.77 L1071.06 1556.57 Q1071.06 1550.59 1068.73 1547.61 Q1066.4 1544.64 1061.73 1544.64 Q1056.13 1544.64 1052.89 1548.22 Q1049.66 1551.79 1049.66 1557.96 L1049.66 1581.77 L1042.7 1581.77 L1042.7 1539.64 L1049.66 1539.64 L1049.66 1546.18 Q1052.14 1542.39 1055.49 1540.5 Q1058.87 1538.62 1063.27 1538.62 Q1070.53 1538.62 1074.26 1543.14 Q1077.98 1547.61 1077.98 1556.34 Z" fill="#000000" fill-rule="nonzero" fill-opacity="1" /><path clip-path="url(#clip890)" d="M1122.11 1541.26 L1122.11 1547.73 Q1119.17 1546.11 1116.2 1545.32 Q1113.27 1544.49 1110.26 1544.49 Q1103.52 1544.49 1099.8 1548.78 Q1096.08 1553.03 1096.08 1560.74 Q1096.08 1568.45 1099.8 1572.74 Q1103.52 1576.99 1110.26 1576.99 Q1113.27 1576.99 1116.2 1576.2 Q1119.17 1575.37 1122.11 1573.76 L1122.11 1580.15 Q1119.21 1581.51 1116.09 1582.18 Q1113 1582.86 1109.5 1582.86 Q1099.99 1582.86 1094.38 1576.88 Q1088.78 1570.9 1088.78 1560.74 Q1088.78 1550.44 1094.42 1544.53 Q1100.1 1538.62 1109.96 1538.62 Q1113.15 1538.62 1116.2 1539.3 Q1119.25 1539.94 1122.11 1541.26 Z" fill="#000000" fill-rule="nonzero" fill-opacity="1" /><path clip-path="url(#clip890)" d="M1153.29 1560.59 Q1144.9 1560.59 1141.67 1562.51 Q1138.43 1564.43 1138.43 1569.05 Q1138.43 1572.74 1140.84 1574.92 Q1143.28 1577.07 1147.46 1577.07 Q1153.21 1577.07 1156.67 1573 Q1160.17 1568.9 1160.17 1562.13 L1160.17 1560.59 L1153.29 1560.59 M1167.09 1557.73 L1167.09 1581.77 L1160.17 1581.77 L1160.17 1575.37 Q1157.8 1579.21 1154.27 1581.05 Q1150.73 1582.86 1145.62 1582.86 Q1139.15 1582.86 1135.31 1579.25 Q1131.51 1575.6 1131.51 1569.51 Q1131.51 1562.4 1136.25 1558.79 Q1141.03 1555.17 1150.47 1555.17 L1160.17 1555.17 L1160.17 1554.5 Q1160.17 1549.72 1157.01 1547.12 Q1153.89 1544.49 1148.21 1544.49 Q1144.6 1544.49 1141.18 1545.36 Q1137.75 1546.22 1134.59 1547.95 L1134.59 1541.56 Q1138.39 1540.09 1141.97 1539.38 Q1145.54 1538.62 1148.93 1538.62 Q1158.07 1538.62 1162.58 1543.36 Q1167.09 1548.1 1167.09 1557.73 Z" fill="#000000" fill-rule="nonzero" fill-opacity="1" /><path clip-path="url(#clip890)" d="M1188.2 1527.68 L1188.2 1539.64 L1202.45 1539.64 L1202.45 1545.02 L1188.2 1545.02 L1188.2 1567.89 Q1188.2 1573.04 1189.59 1574.51 Q1191.02 1575.98 1195.34 1575.98 L1202.45 1575.98 L1202.45 1581.77 L1195.34 1581.77 Q1187.33 1581.77 1184.28 1578.8 Q1181.24 1575.79 1181.24 1567.89 L1181.24 1545.02 L1176.16 1545.02 L1176.16 1539.64 L1181.24 1539.64 L1181.24 1527.68 L1188.2 1527.68 Z" fill="#000000" fill-rule="nonzero" fill-opacity="1" /><path clip-path="url(#clip890)" d="M1211.56 1539.64 L1218.48 1539.64 L1218.48 1581.77 L1211.56 1581.77 L1211.56 1539.64 M1211.56 1523.24 L1218.48 1523.24 L1218.48 1532 L1211.56 1532 L1211.56 1523.24 Z" fill="#000000" fill-rule="nonzero" fill-opacity="1" /><path clip-path="url(#clip890)" d="M1249.28 1544.49 Q1243.72 1544.49 1240.48 1548.86 Q1237.25 1553.18 1237.25 1560.74 Q1237.25 1568.3 1240.44 1572.67 Q1243.68 1576.99 1249.28 1576.99 Q1254.81 1576.99 1258.05 1572.63 Q1261.28 1568.26 1261.28 1560.74 Q1261.28 1553.26 1258.05 1548.89 Q1254.81 1544.49 1249.28 1544.49 M1249.28 1538.62 Q1258.31 1538.62 1263.46 1544.49 Q1268.62 1550.36 1268.62 1560.74 Q1268.62 1571.09 1263.46 1576.99 Q1258.31 1582.86 1249.28 1582.86 Q1240.22 1582.86 1235.07 1576.99 Q1229.95 1571.09 1229.95 1560.74 Q1229.95 1550.36 1235.07 1544.49 Q1240.22 1538.62 1249.28 1538.62 Z" fill="#000000" fill-rule="nonzero" fill-opacity="1" /><path clip-path="url(#clip890)" d="M1315.11 1556.34 L1315.11 1581.77 L1308.19 1581.77 L1308.19 1556.57 Q1308.19 1550.59 1305.86 1547.61 Q1303.53 1544.64 1298.86 1544.64 Q1293.26 1544.64 1290.02 1548.22 Q1286.79 1551.79 1286.79 1557.96 L1286.79 1581.77 L1279.83 1581.77 L1279.83 1539.64 L1286.79 1539.64 L1286.79 1546.18 Q1289.27 1542.39 1292.62 1540.5 Q1296 1538.62 1300.4 1538.62 Q1307.66 1538.62 1311.39 1543.14 Q1315.11 1547.61 1315.11 1556.34 Z" fill="#000000" fill-rule="nonzero" fill-opacity="1" /><path clip-path="url(#clip890)" d="M1345.92 1525.61 L1393.43 1525.61 L1393.43 1532 L1373.49 1532 L1373.49 1581.77 L1365.85 1581.77 L1365.85 1532 L1345.92 1532 L1345.92 1525.61 Z" fill="#000000" fill-rule="nonzero" fill-opacity="1" /><path clip-path="url(#clip890)" d="M1435.48 1556.34 L1435.48 1581.77 L1428.56 1581.77 L1428.56 1556.57 Q1428.56 1550.59 1426.23 1547.61 Q1423.9 1544.64 1419.23 1544.64 Q1413.63 1544.64 1410.39 1548.22 Q1407.16 1551.79 1407.16 1557.96 L1407.16 1581.77 L1400.2 1581.77 L1400.2 1523.24 L1407.16 1523.24 L1407.16 1546.18 Q1409.64 1542.39 1412.99 1540.5 Q1416.37 1538.62 1420.77 1538.62 Q1428.03 1538.62 1431.76 1543.14 Q1435.48 1547.61 1435.48 1556.34 Z" fill="#000000" fill-rule="nonzero" fill-opacity="1" /><path clip-path="url(#clip890)" d="M1473.7 1546.11 Q1472.53 1545.43 1471.14 1545.13 Q1469.79 1544.79 1468.13 1544.79 Q1462.26 1544.79 1459.1 1548.63 Q1455.98 1552.43 1455.98 1559.58 L1455.98 1581.77 L1449.02 1581.77 L1449.02 1539.64 L1455.98 1539.64 L1455.98 1546.18 Q1458.16 1542.35 1461.66 1540.5 Q1465.16 1538.62 1470.16 1538.62 Q1470.88 1538.62 1471.74 1538.74 Q1472.61 1538.81 1473.66 1539 L1473.7 1546.11 Z" fill="#000000" fill-rule="nonzero" fill-opacity="1" /><path clip-path="url(#clip890)" d="M1515.3 1558.97 L1515.3 1562.36 L1483.48 1562.36 Q1483.93 1569.51 1487.77 1573.27 Q1491.64 1576.99 1498.52 1576.99 Q1502.51 1576.99 1506.24 1576.01 Q1510 1575.04 1513.68 1573.08 L1513.68 1579.62 Q1509.96 1581.2 1506.05 1582.03 Q1502.14 1582.86 1498.11 1582.86 Q1488.03 1582.86 1482.12 1576.99 Q1476.26 1571.12 1476.26 1561.12 Q1476.26 1550.77 1481.82 1544.72 Q1487.43 1538.62 1496.91 1538.62 Q1505.41 1538.62 1510.34 1544.12 Q1515.3 1549.57 1515.3 1558.97 M1508.38 1556.94 Q1508.3 1551.26 1505.18 1547.88 Q1502.1 1544.49 1496.98 1544.49 Q1491.19 1544.49 1487.69 1547.76 Q1484.23 1551.04 1483.7 1556.98 L1508.38 1556.94 Z" fill="#000000" fill-rule="nonzero" fill-opacity="1" /><path clip-path="url(#clip890)" d="M1553.52 1540.88 L1553.52 1547.43 Q1550.58 1545.92 1547.42 1545.17 Q1544.26 1544.42 1540.88 1544.42 Q1535.73 1544.42 1533.13 1546 Q1530.57 1547.58 1530.57 1550.74 Q1530.57 1553.14 1532.42 1554.54 Q1534.26 1555.89 1539.83 1557.13 L1542.2 1557.66 Q1549.57 1559.24 1552.65 1562.13 Q1555.78 1564.99 1555.78 1570.15 Q1555.78 1576.01 1551.11 1579.44 Q1546.48 1582.86 1538.36 1582.86 Q1534.97 1582.86 1531.29 1582.18 Q1527.64 1581.54 1523.58 1580.23 L1523.58 1573.08 Q1527.41 1575.07 1531.14 1576.09 Q1534.86 1577.07 1538.51 1577.07 Q1543.4 1577.07 1546.03 1575.41 Q1548.67 1573.72 1548.67 1570.67 Q1548.67 1567.85 1546.75 1566.35 Q1544.87 1564.84 1538.43 1563.45 L1536.03 1562.89 Q1529.59 1561.53 1526.74 1558.75 Q1523.88 1555.93 1523.88 1551.04 Q1523.88 1545.09 1528.09 1541.86 Q1532.3 1538.62 1540.05 1538.62 Q1543.89 1538.62 1547.27 1539.19 Q1550.66 1539.75 1553.52 1540.88 Z" fill="#000000" fill-rule="nonzero" fill-opacity="1" /><path clip-path="url(#clip890)" d="M1601.82 1556.34 L1601.82 1581.77 L1594.9 1581.77 L1594.9 1556.57 Q1594.9 1550.59 1592.56 1547.61 Q1590.23 1544.64 1585.57 1544.64 Q1579.96 1544.64 1576.73 1548.22 Q1573.49 1551.79 1573.49 1557.96 L1573.49 1581.77 L1566.53 1581.77 L1566.53 1523.24 L1573.49 1523.24 L1573.49 1546.18 Q1575.97 1542.39 1579.32 1540.5 Q1582.71 1538.62 1587.11 1538.62 Q1594.37 1538.62 1598.09 1543.14 Q1601.82 1547.61 1601.82 1556.34 Z" fill="#000000" fill-rule="nonzero" fill-opacity="1" /><path clip-path="url(#clip890)" d="M1631.95 1544.49 Q1626.38 1544.49 1623.14 1548.86 Q1619.91 1553.18 1619.91 1560.74 Q1619.91 1568.3 1623.11 1572.67 Q1626.34 1576.99 1631.95 1576.99 Q1637.48 1576.99 1640.71 1572.63 Q1643.95 1568.26 1643.95 1560.74 Q1643.95 1553.26 1640.71 1548.89 Q1637.48 1544.49 1631.95 1544.49 M1631.95 1538.62 Q1640.97 1538.62 1646.13 1544.49 Q1651.28 1550.36 1651.28 1560.74 Q1651.28 1571.09 1646.13 1576.99 Q1640.97 1582.86 1631.95 1582.86 Q1622.88 1582.86 1617.73 1576.99 Q1612.61 1571.09 1612.61 1560.74 Q1612.61 1550.36 1617.73 1544.49 Q1622.88 1538.62 1631.95 1538.62 Z" fill="#000000" fill-rule="nonzero" fill-opacity="1" /><path clip-path="url(#clip890)" d="M1662.75 1523.24 L1669.68 1523.24 L1669.68 1581.77 L1662.75 1581.77 L1662.75 1523.24 Z" fill="#000000" fill-rule="nonzero" fill-opacity="1" /><path clip-path="url(#clip890)" d="M1711.88 1546.03 L1711.88 1523.24 L1718.8 1523.24 L1718.8 1581.77 L1711.88 1581.77 L1711.88 1575.45 Q1709.7 1579.21 1706.35 1581.05 Q1703.04 1582.86 1698.38 1582.86 Q1690.74 1582.86 1685.93 1576.77 Q1681.15 1570.67 1681.15 1560.74 Q1681.15 1550.81 1685.93 1544.72 Q1690.74 1538.62 1698.38 1538.62 Q1703.04 1538.62 1706.35 1540.47 Q1709.7 1542.27 1711.88 1546.03 M1688.29 1560.74 Q1688.29 1568.38 1691.42 1572.74 Q1694.58 1577.07 1700.07 1577.07 Q1705.56 1577.07 1708.72 1572.74 Q1711.88 1568.38 1711.88 1560.74 Q1711.88 1553.11 1708.72 1548.78 Q1705.56 1544.42 1700.07 1544.42 Q1694.58 1544.42 1691.42 1548.78 Q1688.29 1553.11 1688.29 1560.74 Z" fill="#000000" fill-rule="nonzero" fill-opacity="1" /><polyline clip-path="url(#clip890)" style="stroke:#000000; stroke-linecap:round; stroke-linejoin:round; stroke-width:4; stroke-opacity:1; fill:none" points="285.29,1390.55 285.29,47.2441 "/>
<polyline clip-path="url(#clip890)" style="stroke:#000000; stroke-linecap:round; stroke-linejoin:round; stroke-width:4; stroke-opacity:1; fill:none" points="285.29,1163.79 304.188,1163.79 "/>
<polyline clip-path="url(#clip890)" style="stroke:#000000; stroke-linecap:round; stroke-linejoin:round; stroke-width:4; stroke-opacity:1; fill:none" points="285.29,692.814 304.188,692.814 "/>
<polyline clip-path="url(#clip890)" style="stroke:#000000; stroke-linecap:round; stroke-linejoin:round; stroke-width:4; stroke-opacity:1; fill:none" points="285.29,221.84 304.188,221.84 "/>
<path clip-path="url(#clip890)" d="M124.115 1188.53 L133.664 1188.53 L133.664 1155.57 L123.276 1157.65 L123.276 1152.33 L133.606 1150.25 L139.451 1150.25 L139.451 1188.53 L149 1188.53 L149 1193.45 L124.115 1193.45 L124.115 1188.53 Z" fill="#000000" fill-rule="nonzero" fill-opacity="1" /><path clip-path="url(#clip890)" d="M173.305 1154.1 Q168.791 1154.1 166.505 1158.55 Q164.248 1162.98 164.248 1171.89 Q164.248 1180.77 166.505 1185.23 Q168.791 1189.66 173.305 1189.66 Q177.848 1189.66 180.105 1185.23 Q182.391 1180.77 182.391 1171.89 Q182.391 1162.98 180.105 1158.55 Q177.848 1154.1 173.305 1154.1 M173.305 1149.47 Q180.568 1149.47 184.387 1155.22 Q188.235 1160.95 188.235 1171.89 Q188.235 1182.8 184.387 1188.56 Q180.568 1194.29 173.305 1194.29 Q166.042 1194.29 162.194 1188.56 Q158.375 1182.8 158.375 1171.89 Q158.375 1160.95 162.194 1155.22 Q166.042 1149.47 173.305 1149.47 Z" fill="#000000" fill-rule="nonzero" fill-opacity="1" /><path clip-path="url(#clip890)" d="M188.235 1142.09 L218.375 1142.09 L218.375 1146.09 L188.235 1146.09 L188.235 1142.09 Z" fill="#000000" fill-rule="nonzero" fill-opacity="1" /><path clip-path="url(#clip890)" d="M232.716 1155.19 L249.29 1155.19 L249.29 1159.18 L227.003 1159.18 L227.003 1155.19 Q229.707 1152.39 234.362 1147.69 Q239.04 1142.96 240.239 1141.6 Q242.519 1139.04 243.413 1137.27 Q244.33 1135.49 244.33 1133.77 Q244.33 1130.97 242.355 1129.21 Q240.404 1127.45 237.253 1127.45 Q235.02 1127.45 232.528 1128.22 Q230.059 1129 227.238 1130.57 L227.238 1125.78 Q230.106 1124.63 232.598 1124.04 Q235.09 1123.45 237.159 1123.45 Q242.613 1123.45 245.858 1126.18 Q249.102 1128.9 249.102 1133.46 Q249.102 1135.63 248.279 1137.58 Q247.48 1139.51 245.341 1142.14 Q244.753 1142.82 241.603 1146.09 Q238.452 1149.33 232.716 1155.19 Z" fill="#000000" fill-rule="nonzero" fill-opacity="1" /><path clip-path="url(#clip890)" d="M123.739 717.554 L133.288 717.554 L133.288 684.597 L122.9 686.681 L122.9 681.357 L133.23 679.273 L139.075 679.273 L139.075 717.554 L148.623 717.554 L148.623 722.473 L123.739 722.473 L123.739 717.554 Z" fill="#000000" fill-rule="nonzero" fill-opacity="1" /><path clip-path="url(#clip890)" d="M172.929 683.122 Q168.415 683.122 166.129 687.578 Q163.872 692.005 163.872 700.917 Q163.872 709.8 166.129 714.256 Q168.415 718.683 172.929 718.683 Q177.472 718.683 179.729 714.256 Q182.014 709.8 182.014 700.917 Q182.014 692.005 179.729 687.578 Q177.472 683.122 172.929 683.122 M172.929 678.492 Q180.192 678.492 184.011 684.25 Q187.859 689.979 187.859 700.917 Q187.859 711.825 184.011 717.583 Q180.192 723.312 172.929 723.312 Q165.666 723.312 161.818 717.583 Q157.998 711.825 157.998 700.917 Q157.998 689.979 161.818 684.25 Q165.666 678.492 172.929 678.492 Z" fill="#000000" fill-rule="nonzero" fill-opacity="1" /><path clip-path="url(#clip890)" d="M187.859 671.119 L217.999 671.119 L217.999 675.115 L187.859 675.115 L187.859 671.119 Z" fill="#000000" fill-rule="nonzero" fill-opacity="1" /><path clip-path="url(#clip890)" d="M229.072 684.214 L236.83 684.214 L236.83 657.436 L228.39 659.129 L228.39 654.803 L236.783 653.11 L241.532 653.11 L241.532 684.214 L249.29 684.214 L249.29 688.21 L229.072 688.21 L229.072 684.214 Z" fill="#000000" fill-rule="nonzero" fill-opacity="1" /><path clip-path="url(#clip890)" d="M160.908 246.58 L170.457 246.58 L170.457 213.623 L160.069 215.707 L160.069 210.382 L170.399 208.299 L176.244 208.299 L176.244 246.58 L185.792 246.58 L185.792 251.499 L160.908 251.499 L160.908 246.58 Z" fill="#000000" fill-rule="nonzero" fill-opacity="1" /><path clip-path="url(#clip890)" d="M210.098 212.148 Q205.584 212.148 203.298 216.604 Q201.041 221.031 201.041 229.943 Q201.041 238.826 203.298 243.282 Q205.584 247.709 210.098 247.709 Q214.64 247.709 216.897 243.282 Q219.183 238.826 219.183 229.943 Q219.183 221.031 216.897 216.604 Q214.64 212.148 210.098 212.148 M210.098 207.518 Q217.36 207.518 221.18 213.276 Q225.028 219.005 225.028 229.943 Q225.028 240.851 221.18 246.609 Q217.36 252.338 210.098 252.338 Q202.835 252.338 198.987 246.609 Q195.167 240.851 195.167 229.943 Q195.167 219.005 198.987 213.276 Q202.835 207.518 210.098 207.518 Z" fill="#000000" fill-rule="nonzero" fill-opacity="1" /><path clip-path="url(#clip890)" d="M237.159 185.263 Q233.492 185.263 231.634 188.883 Q229.801 192.48 229.801 199.721 Q229.801 206.939 231.634 210.559 Q233.492 214.156 237.159 214.156 Q240.85 214.156 242.684 210.559 Q244.541 206.939 244.541 199.721 Q244.541 192.48 242.684 188.883 Q240.85 185.263 237.159 185.263 M237.159 181.501 Q243.06 181.501 246.163 186.18 Q249.29 190.835 249.29 199.721 Q249.29 208.585 246.163 213.263 Q243.06 217.918 237.159 217.918 Q231.258 217.918 228.131 213.263 Q225.028 208.585 225.028 199.721 Q225.028 190.835 228.131 186.18 Q231.258 181.501 237.159 181.501 Z" fill="#000000" fill-rule="nonzero" fill-opacity="1" /><path clip-path="url(#clip890)" d="M43.7213 908.421 Q44.5488 905.976 47.2571 903.681 Q49.9655 901.349 54.705 899.017 L70.0522 891.306 L70.0522 899.468 L55.6454 906.653 Q50.0031 909.436 48.1599 912.07 Q46.3168 914.665 46.3168 919.179 L46.3168 927.454 L70.0522 927.454 L70.0522 935.053 L13.8922 935.053 L13.8922 917.9 Q13.8922 908.27 17.917 903.531 Q21.9419 898.791 30.0668 898.791 Q35.3706 898.791 38.8689 901.274 Q42.3671 903.719 43.7213 908.421 M20.1363 927.454 L40.0726 927.454 L40.0726 917.9 Q40.0726 912.408 37.5523 909.625 Q34.9945 906.803 30.0668 906.803 Q25.1392 906.803 22.6566 909.625 Q20.1363 912.408 20.1363 917.9 L20.1363 927.454 Z" fill="#000000" fill-rule="nonzero" fill-opacity="1" /><path clip-path="url(#clip890)" d="M53.4261 886.002 L27.9228 886.002 L27.9228 879.081 L53.1628 879.081 Q59.1437 879.081 62.1529 876.749 Q65.1245 874.416 65.1245 869.752 Q65.1245 864.147 61.551 860.912 Q57.9776 857.64 51.8086 857.64 L27.9228 857.64 L27.9228 850.719 L70.0522 850.719 L70.0522 857.64 L63.5823 857.64 Q67.4191 860.16 69.2998 863.508 Q71.143 866.818 71.143 871.219 Q71.143 878.479 66.6291 882.24 Q62.1153 886.002 53.4261 886.002 M26.9071 868.586 L26.9071 868.586 Z" fill="#000000" fill-rule="nonzero" fill-opacity="1" /><path clip-path="url(#clip890)" d="M44.6241 801.442 L70.0522 801.442 L70.0522 808.364 L44.8497 808.364 Q38.8689 808.364 35.8972 810.696 Q32.9256 813.028 32.9256 817.692 Q32.9256 823.297 36.4991 826.532 Q40.0726 829.767 46.2415 829.767 L70.0522 829.767 L70.0522 836.726 L27.9228 836.726 L27.9228 829.767 L34.4679 829.767 Q30.6687 827.284 28.7879 823.936 Q26.9071 820.551 26.9071 816.15 Q26.9071 808.89 31.421 805.166 Q35.8972 801.442 44.6241 801.442 Z" fill="#000000" fill-rule="nonzero" fill-opacity="1" /><path clip-path="url(#clip890)" d="M15.961 780.791 L27.9228 780.791 L27.9228 766.535 L33.3018 766.535 L33.3018 780.791 L56.172 780.791 Q61.3254 780.791 62.7924 779.4 Q64.2594 777.97 64.2594 773.644 L64.2594 766.535 L70.0522 766.535 L70.0522 773.644 Q70.0522 781.656 67.0805 784.703 Q64.0713 787.75 56.172 787.75 L33.3018 787.75 L33.3018 792.828 L27.9228 792.828 L27.9228 787.75 L15.961 787.75 L15.961 780.791 Z" fill="#000000" fill-rule="nonzero" fill-opacity="1" /><path clip-path="url(#clip890)" d="M27.9228 757.432 L27.9228 750.511 L70.0522 750.511 L70.0522 757.432 L27.9228 757.432 M11.5224 757.432 L11.5224 750.511 L20.2868 750.511 L20.2868 757.432 L11.5224 757.432 Z" fill="#000000" fill-rule="nonzero" fill-opacity="1" /><path clip-path="url(#clip890)" d="M36.0101 703.228 Q31.3458 700.633 29.1265 697.022 Q26.9071 693.41 26.9071 688.52 Q26.9071 681.938 31.5338 678.364 Q36.1229 674.791 44.6241 674.791 L70.0522 674.791 L70.0522 681.75 L44.8497 681.75 Q38.7936 681.75 35.8596 683.894 Q32.9256 686.038 32.9256 690.439 Q32.9256 695.818 36.4991 698.94 Q40.0726 702.062 46.2415 702.062 L70.0522 702.062 L70.0522 709.021 L44.8497 709.021 Q38.756 709.021 35.8596 711.165 Q32.9256 713.309 32.9256 717.785 Q32.9256 723.089 36.5367 726.211 Q40.1102 729.333 46.2415 729.333 L70.0522 729.333 L70.0522 736.292 L27.9228 736.292 L27.9228 729.333 L34.4679 729.333 Q30.5935 726.964 28.7503 723.653 Q26.9071 720.343 26.9071 715.792 Q26.9071 711.203 29.2393 708.005 Q31.5715 704.77 36.0101 703.228 Z" fill="#000000" fill-rule="nonzero" fill-opacity="1" /><path clip-path="url(#clip890)" d="M47.2571 624.95 L50.6425 624.95 L50.6425 656.773 Q57.7895 656.322 61.551 652.485 Q65.275 648.61 65.275 641.727 Q65.275 637.739 64.297 634.016 Q63.319 630.254 61.363 626.568 L67.9081 626.568 Q69.4879 630.292 70.3155 634.204 Q71.143 638.116 71.143 642.14 Q71.143 652.221 65.275 658.127 Q59.407 663.995 49.4012 663.995 Q39.057 663.995 33.0009 658.428 Q26.9071 652.823 26.9071 643.344 Q26.9071 634.843 32.399 629.915 Q37.8533 624.95 47.2571 624.95 M45.2259 631.871 Q39.546 631.947 36.1606 635.069 Q32.7752 638.153 32.7752 643.269 Q32.7752 649.062 36.0477 652.56 Q39.3203 656.021 45.2635 656.547 L45.2259 631.871 Z" fill="#000000" fill-rule="nonzero" fill-opacity="1" /><path clip-path="url(#clip890)" d="M11.5224 589.742 L11.5224 573.793 L16.9014 573.793 L16.9014 582.821 L74.8293 582.821 L74.8293 573.793 L80.2084 573.793 L80.2084 589.742 L11.5224 589.742 Z" fill="#000000" fill-rule="nonzero" fill-opacity="1" /><path clip-path="url(#clip890)" d="M29.1641 532.19 L35.7092 532.19 Q34.2045 535.124 33.4522 538.284 Q32.6999 541.444 32.6999 544.829 Q32.6999 549.982 34.2798 552.578 Q35.8596 555.136 39.0193 555.136 Q41.4267 555.136 42.8185 553.293 Q44.1727 551.449 45.414 545.882 L45.9406 543.513 Q47.5204 536.14 50.4168 533.055 Q53.2756 529.933 58.429 529.933 Q64.297 529.933 67.72 534.598 Q71.143 539.224 71.143 547.349 Q71.143 550.735 70.4659 554.421 Q69.8265 558.07 68.5099 562.132 L61.363 562.132 Q63.3566 558.295 64.3722 554.571 Q65.3502 550.848 65.3502 547.199 Q65.3502 542.309 63.6951 539.676 Q62.0024 537.043 58.9556 537.043 Q56.1344 537.043 54.6298 538.961 Q53.1252 540.842 51.7334 547.274 L51.1692 549.681 Q49.815 556.114 47.0314 558.973 Q44.2103 561.831 39.3203 561.831 Q33.377 561.831 30.1421 557.618 Q26.9071 553.405 26.9071 545.657 Q26.9071 541.82 27.4714 538.434 Q28.0356 535.049 29.1641 532.19 Z" fill="#000000" fill-rule="nonzero" fill-opacity="1" /><path clip-path="url(#clip890)" d="M11.5224 502.737 L80.2084 502.737 L80.2084 518.686 L74.8293 518.686 L74.8293 509.696 L16.9014 509.696 L16.9014 518.686 L11.5224 518.686 L11.5224 502.737 Z" fill="#000000" fill-rule="nonzero" fill-opacity="1" /><polyline clip-path="url(#clip892)" style="stroke:#009af9; stroke-linecap:round; stroke-linejoin:round; stroke-width:4; stroke-opacity:1; fill:none" points="2294.24,438.79 2077.53,1352.53 1860.81,1185.99 1644.1,948.002 1427.38,751.802 1210.67,691.8 993.95,596.687 777.234,448.926 560.519,355.808 343.803,259.484 "/>
<path clip-path="url(#clip892)" d="M2294.24 454.79 L2282.93 450.102 L2278.24 438.79 L2282.93 427.478 L2294.24 422.79 L2305.55 427.478 L2310.24 438.79 L2305.55 450.102 Z" fill="#009af9" fill-rule="evenodd" fill-opacity="1" stroke="#000000" stroke-opacity="1" stroke-width="3.2"/>
<path clip-path="url(#clip892)" d="M2077.53 1368.53 L2066.22 1363.84 L2061.53 1352.53 L2066.22 1341.22 L2077.53 1336.53 L2088.84 1341.22 L2093.53 1352.53 L2088.84 1363.84 Z" fill="#009af9" fill-rule="evenodd" fill-opacity="1" stroke="#000000" stroke-opacity="1" stroke-width="3.2"/>
<path clip-path="url(#clip892)" d="M1860.81 1201.99 L1849.5 1197.3 L1844.81 1185.99 L1849.5 1174.67 L1860.81 1169.99 L1872.12 1174.67 L1876.81 1185.99 L1872.12 1197.3 Z" fill="#009af9" fill-rule="evenodd" fill-opacity="1" stroke="#000000" stroke-opacity="1" stroke-width="3.2"/>
<path clip-path="url(#clip892)" d="M1644.1 964.002 L1632.78 959.314 L1628.1 948.002 L1632.78 936.69 L1644.1 932.002 L1655.41 936.69 L1660.1 948.002 L1655.41 959.314 Z" fill="#009af9" fill-rule="evenodd" fill-opacity="1" stroke="#000000" stroke-opacity="1" stroke-width="3.2"/>
<path clip-path="url(#clip892)" d="M1427.38 767.802 L1416.07 763.114 L1411.38 751.802 L1416.07 740.49 L1427.38 735.802 L1438.69 740.49 L1443.38 751.802 L1438.69 763.114 Z" fill="#009af9" fill-rule="evenodd" fill-opacity="1" stroke="#000000" stroke-opacity="1" stroke-width="3.2"/>
<path clip-path="url(#clip892)" d="M1210.67 707.8 L1199.35 703.112 L1194.67 691.8 L1199.35 680.488 L1210.67 675.8 L1221.98 680.488 L1226.67 691.8 L1221.98 703.112 Z" fill="#009af9" fill-rule="evenodd" fill-opacity="1" stroke="#000000" stroke-opacity="1" stroke-width="3.2"/>
<path clip-path="url(#clip892)" d="M993.95 612.687 L982.638 607.999 L977.95 596.687 L982.638 585.375 L993.95 580.687 L1005.26 585.375 L1009.95 596.687 L1005.26 607.999 Z" fill="#009af9" fill-rule="evenodd" fill-opacity="1" stroke="#000000" stroke-opacity="1" stroke-width="3.2"/>
<path clip-path="url(#clip892)" d="M777.234 464.926 L765.922 460.238 L761.234 448.926 L765.922 437.614 L777.234 432.926 L788.546 437.614 L793.234 448.926 L788.546 460.238 Z" fill="#009af9" fill-rule="evenodd" fill-opacity="1" stroke="#000000" stroke-opacity="1" stroke-width="3.2"/>
<path clip-path="url(#clip892)" d="M560.519 371.808 L549.207 367.12 L544.519 355.808 L549.207 344.496 L560.519 339.808 L571.831 344.496 L576.519 355.808 L571.831 367.12 Z" fill="#009af9" fill-rule="evenodd" fill-opacity="1" stroke="#000000" stroke-opacity="1" stroke-width="3.2"/>
<path clip-path="url(#clip892)" d="M343.803 275.484 L332.491 270.796 L327.803 259.484 L332.491 248.172 L343.803 243.484 L355.115 248.172 L359.803 259.484 L355.115 270.796 Z" fill="#009af9" fill-rule="evenodd" fill-opacity="1" stroke="#000000" stroke-opacity="1" stroke-width="3.2"/>
<polyline clip-path="url(#clip892)" style="stroke:#808080; stroke-linecap:round; stroke-linejoin:round; stroke-width:8; stroke-opacity:1; fill:none" stroke-dasharray="32, 20" points="-1782.18,85.2621 4420.22,85.2621 "/>
<path clip-path="url(#clip890)" d="M354.206 1345.77 L1341.07 1345.77 L1341.07 1151.37 L354.206 1151.37  Z" fill="#ffffff" fill-rule="evenodd" fill-opacity="1"/>
<polyline clip-path="url(#clip890)" style="stroke:#000000; stroke-linecap:round; stroke-linejoin:round; stroke-width:4; stroke-opacity:1; fill:none" points="354.206,1345.77 1341.07,1345.77 1341.07,1151.37 354.206,1151.37 354.206,1345.77 "/>
<polyline clip-path="url(#clip890)" style="stroke:#009af9; stroke-linecap:round; stroke-linejoin:round; stroke-width:5; stroke-opacity:1; fill:none" points="377.178,1216.17 515.009,1216.17 "/>
<path clip-path="url(#clip890)" d="M446.093 1233.19 L434.063 1228.2 L429.077 1216.17 L434.063 1204.14 L446.093 1199.15 L458.124 1204.14 L463.109 1216.17 L458.124 1228.2 Z" fill="#009af9" fill-rule="evenodd" fill-opacity="1" stroke="#000000" stroke-opacity="1" stroke-width="5.68889"/>
<path clip-path="url(#clip890)" d="M537.98 1194.57 L543.883 1194.57 L552.969 1231.09 L562.025 1194.57 L568.594 1194.57 L577.679 1231.09 L586.736 1194.57 L592.668 1194.57 L581.817 1237.77 L574.468 1237.77 L565.353 1200.27 L556.152 1237.77 L548.802 1237.77 L537.98 1194.57 Z" fill="#000000" fill-rule="nonzero" fill-opacity="1" /><path clip-path="url(#clip890)" d="M598.889 1205.36 L604.213 1205.36 L604.213 1237.77 L598.889 1237.77 L598.889 1205.36 M598.889 1192.75 L604.213 1192.75 L604.213 1199.49 L598.889 1199.49 L598.889 1192.75 Z" fill="#000000" fill-rule="nonzero" fill-opacity="1" /><path clip-path="url(#clip890)" d="M620.619 1196.16 L620.619 1205.36 L631.585 1205.36 L631.585 1209.5 L620.619 1209.5 L620.619 1227.09 Q620.619 1231.06 621.689 1232.18 Q622.789 1233.31 626.117 1233.31 L631.585 1233.31 L631.585 1237.77 L626.117 1237.77 Q619.953 1237.77 617.61 1235.48 Q615.266 1233.17 615.266 1227.09 L615.266 1209.5 L611.36 1209.5 L611.36 1205.36 L615.266 1205.36 L615.266 1196.16 L620.619 1196.16 Z" fill="#000000" fill-rule="nonzero" fill-opacity="1" /><path clip-path="url(#clip890)" d="M665.526 1218.21 L665.526 1237.77 L660.202 1237.77 L660.202 1218.38 Q660.202 1213.78 658.408 1211.5 Q656.614 1209.21 653.026 1209.21 Q648.715 1209.21 646.226 1211.96 Q643.738 1214.71 643.738 1219.45 L643.738 1237.77 L638.385 1237.77 L638.385 1192.75 L643.738 1192.75 L643.738 1210.4 Q645.648 1207.47 648.223 1206.03 Q650.827 1204.58 654.212 1204.58 Q659.797 1204.58 662.661 1208.05 Q665.526 1211.5 665.526 1218.21 Z" fill="#000000" fill-rule="nonzero" fill-opacity="1" /><path clip-path="url(#clip890)" d="M718.304 1206.61 L718.304 1211.58 Q716.047 1210.34 713.761 1209.73 Q711.504 1209.09 709.189 1209.09 Q704.01 1209.09 701.145 1212.39 Q698.281 1215.66 698.281 1221.59 Q698.281 1227.53 701.145 1230.82 Q704.01 1234.09 709.189 1234.09 Q711.504 1234.09 713.761 1233.49 Q716.047 1232.85 718.304 1231.61 L718.304 1236.52 Q716.076 1237.57 713.674 1238.09 Q711.301 1238.61 708.61 1238.61 Q701.29 1238.61 696.978 1234.01 Q692.667 1229.41 692.667 1221.59 Q692.667 1213.67 697.007 1209.12 Q701.377 1204.58 708.958 1204.58 Q711.417 1204.58 713.761 1205.1 Q716.104 1205.59 718.304 1206.61 Z" fill="#000000" fill-rule="nonzero" fill-opacity="1" /><path clip-path="url(#clip890)" d="M740.121 1209.09 Q735.838 1209.09 733.35 1212.45 Q730.861 1215.78 730.861 1221.59 Q730.861 1227.41 733.321 1230.77 Q735.809 1234.09 740.121 1234.09 Q744.374 1234.09 746.862 1230.74 Q749.351 1227.38 749.351 1221.59 Q749.351 1215.84 746.862 1212.48 Q744.374 1209.09 740.121 1209.09 M740.121 1204.58 Q747.065 1204.58 751.029 1209.09 Q754.993 1213.61 754.993 1221.59 Q754.993 1229.55 751.029 1234.09 Q747.065 1238.61 740.121 1238.61 Q733.147 1238.61 729.183 1234.09 Q725.248 1229.55 725.248 1221.59 Q725.248 1213.61 729.183 1209.09 Q733.147 1204.58 740.121 1204.58 Z" fill="#000000" fill-rule="nonzero" fill-opacity="1" /><path clip-path="url(#clip890)" d="M791.538 1220.23 L791.538 1222.84 L767.059 1222.84 Q767.406 1228.34 770.358 1231.23 Q773.338 1234.09 778.633 1234.09 Q781.7 1234.09 784.565 1233.34 Q787.458 1232.59 790.294 1231.09 L790.294 1236.12 Q787.429 1237.34 784.42 1237.97 Q781.411 1238.61 778.315 1238.61 Q770.56 1238.61 766.017 1234.09 Q761.504 1229.58 761.504 1221.88 Q761.504 1213.93 765.786 1209.27 Q770.097 1204.58 777.389 1204.58 Q783.928 1204.58 787.719 1208.81 Q791.538 1213 791.538 1220.23 M786.214 1218.67 Q786.156 1214.3 783.755 1211.7 Q781.382 1209.09 777.447 1209.09 Q772.991 1209.09 770.3 1211.61 Q767.638 1214.13 767.233 1218.7 L786.214 1218.67 Z" fill="#000000" fill-rule="nonzero" fill-opacity="1" /><path clip-path="url(#clip890)" d="M816.683 1192.75 L816.683 1197.17 L811.59 1197.17 Q808.726 1197.17 807.597 1198.33 Q806.498 1199.49 806.498 1202.5 L806.498 1205.36 L815.265 1205.36 L815.265 1209.5 L806.498 1209.5 L806.498 1237.77 L801.145 1237.77 L801.145 1209.5 L796.052 1209.5 L796.052 1205.36 L801.145 1205.36 L801.145 1203.1 Q801.145 1197.69 803.662 1195.23 Q806.179 1192.75 811.648 1192.75 L816.683 1192.75 Z" fill="#000000" fill-rule="nonzero" fill-opacity="1" /><path clip-path="url(#clip890)" d="M837.545 1192.75 L837.545 1197.17 L832.452 1197.17 Q829.588 1197.17 828.459 1198.33 Q827.36 1199.49 827.36 1202.5 L827.36 1205.36 L836.127 1205.36 L836.127 1209.5 L827.36 1209.5 L827.36 1237.77 L822.007 1237.77 L822.007 1209.5 L816.914 1209.5 L816.914 1205.36 L822.007 1205.36 L822.007 1203.1 Q822.007 1197.69 824.524 1195.23 Q827.041 1192.75 832.51 1192.75 L837.545 1192.75 Z" fill="#000000" fill-rule="nonzero" fill-opacity="1" /><path clip-path="url(#clip890)" d="M842.001 1205.36 L847.325 1205.36 L847.325 1237.77 L842.001 1237.77 L842.001 1205.36 M842.001 1192.75 L847.325 1192.75 L847.325 1199.49 L842.001 1199.49 L842.001 1192.75 Z" fill="#000000" fill-rule="nonzero" fill-opacity="1" /><path clip-path="url(#clip890)" d="M881.786 1206.61 L881.786 1211.58 Q879.53 1210.34 877.244 1209.73 Q874.987 1209.09 872.672 1209.09 Q867.493 1209.09 864.628 1212.39 Q861.763 1215.66 861.763 1221.59 Q861.763 1227.53 864.628 1230.82 Q867.493 1234.09 872.672 1234.09 Q874.987 1234.09 877.244 1233.49 Q879.53 1232.85 881.786 1231.61 L881.786 1236.52 Q879.558 1237.57 877.157 1238.09 Q874.784 1238.61 872.093 1238.61 Q864.773 1238.61 860.461 1234.01 Q856.15 1229.41 856.15 1221.59 Q856.15 1213.67 860.49 1209.12 Q864.859 1204.58 872.44 1204.58 Q874.9 1204.58 877.244 1205.1 Q879.587 1205.59 881.786 1206.61 Z" fill="#000000" fill-rule="nonzero" fill-opacity="1" /><path clip-path="url(#clip890)" d="M891.046 1205.36 L896.37 1205.36 L896.37 1237.77 L891.046 1237.77 L891.046 1205.36 M891.046 1192.75 L896.37 1192.75 L896.37 1199.49 L891.046 1199.49 L891.046 1192.75 Z" fill="#000000" fill-rule="nonzero" fill-opacity="1" /><path clip-path="url(#clip890)" d="M935.229 1220.23 L935.229 1222.84 L910.75 1222.84 Q911.098 1228.34 914.049 1231.23 Q917.029 1234.09 922.324 1234.09 Q925.392 1234.09 928.256 1233.34 Q931.15 1232.59 933.985 1231.09 L933.985 1236.12 Q931.121 1237.34 928.111 1237.97 Q925.102 1238.61 922.006 1238.61 Q914.252 1238.61 909.709 1234.09 Q905.195 1229.58 905.195 1221.88 Q905.195 1213.93 909.477 1209.27 Q913.789 1204.58 921.08 1204.58 Q927.62 1204.58 931.41 1208.81 Q935.229 1213 935.229 1220.23 M929.905 1218.67 Q929.848 1214.3 927.446 1211.7 Q925.073 1209.09 921.138 1209.09 Q916.682 1209.09 913.991 1211.61 Q911.329 1214.13 910.924 1218.7 L929.905 1218.67 Z" fill="#000000" fill-rule="nonzero" fill-opacity="1" /><path clip-path="url(#clip890)" d="M970.906 1218.21 L970.906 1237.77 L965.582 1237.77 L965.582 1218.38 Q965.582 1213.78 963.788 1211.5 Q961.994 1209.21 958.406 1209.21 Q954.095 1209.21 951.607 1211.96 Q949.118 1214.71 949.118 1219.45 L949.118 1237.77 L943.765 1237.77 L943.765 1205.36 L949.118 1205.36 L949.118 1210.4 Q951.028 1207.47 953.603 1206.03 Q956.207 1204.58 959.593 1204.58 Q965.177 1204.58 968.042 1208.05 Q970.906 1211.5 970.906 1218.21 Z" fill="#000000" fill-rule="nonzero" fill-opacity="1" /><path clip-path="url(#clip890)" d="M986.792 1196.16 L986.792 1205.36 L997.758 1205.36 L997.758 1209.5 L986.792 1209.5 L986.792 1227.09 Q986.792 1231.06 987.862 1232.18 Q988.962 1233.31 992.289 1233.31 L997.758 1233.31 L997.758 1237.77 L992.289 1237.77 Q986.126 1237.77 983.782 1235.48 Q981.439 1233.17 981.439 1227.09 L981.439 1209.5 L977.532 1209.5 L977.532 1205.36 L981.439 1205.36 L981.439 1196.16 L986.792 1196.16 Z" fill="#000000" fill-rule="nonzero" fill-opacity="1" /><path clip-path="url(#clip890)" d="M1028.86 1196.16 L1028.86 1205.36 L1039.83 1205.36 L1039.83 1209.5 L1028.86 1209.5 L1028.86 1227.09 Q1028.86 1231.06 1029.93 1232.18 Q1031.03 1233.31 1034.36 1233.31 L1039.83 1233.31 L1039.83 1237.77 L1034.36 1237.77 Q1028.2 1237.77 1025.85 1235.48 Q1023.51 1233.17 1023.51 1227.09 L1023.51 1209.5 L1019.6 1209.5 L1019.6 1205.36 L1023.51 1205.36 L1023.51 1196.16 L1028.86 1196.16 Z" fill="#000000" fill-rule="nonzero" fill-opacity="1" /><path clip-path="url(#clip890)" d="M1065.61 1210.34 Q1064.71 1209.82 1063.64 1209.59 Q1062.6 1209.33 1061.33 1209.33 Q1056.81 1209.33 1054.38 1212.28 Q1051.98 1215.2 1051.98 1220.7 L1051.98 1237.77 L1046.63 1237.77 L1046.63 1205.36 L1051.98 1205.36 L1051.98 1210.4 Q1053.66 1207.45 1056.35 1206.03 Q1059.04 1204.58 1062.89 1204.58 Q1063.44 1204.58 1064.11 1204.67 Q1064.77 1204.73 1065.58 1204.87 L1065.61 1210.34 Z" fill="#000000" fill-rule="nonzero" fill-opacity="1" /><path clip-path="url(#clip890)" d="M1070.65 1224.98 L1070.65 1205.36 L1075.97 1205.36 L1075.97 1224.78 Q1075.97 1229.38 1077.76 1231.69 Q1079.56 1233.98 1083.15 1233.98 Q1087.46 1233.98 1089.95 1231.23 Q1092.46 1228.48 1092.46 1223.74 L1092.46 1205.36 L1097.79 1205.36 L1097.79 1237.77 L1092.46 1237.77 L1092.46 1232.79 Q1090.52 1235.74 1087.95 1237.19 Q1085.4 1238.61 1082.02 1238.61 Q1076.43 1238.61 1073.54 1235.14 Q1070.65 1231.66 1070.65 1224.98 M1084.04 1204.58 L1084.04 1204.58 Z" fill="#000000" fill-rule="nonzero" fill-opacity="1" /><path clip-path="url(#clip890)" d="M1135.69 1218.21 L1135.69 1237.77 L1130.37 1237.77 L1130.37 1218.38 Q1130.37 1213.78 1128.57 1211.5 Q1126.78 1209.21 1123.19 1209.21 Q1118.88 1209.21 1116.39 1211.96 Q1113.9 1214.71 1113.9 1219.45 L1113.9 1237.77 L1108.55 1237.77 L1108.55 1205.36 L1113.9 1205.36 L1113.9 1210.4 Q1115.81 1207.47 1118.39 1206.03 Q1120.99 1204.58 1124.38 1204.58 Q1129.96 1204.58 1132.83 1208.05 Q1135.69 1211.5 1135.69 1218.21 Z" fill="#000000" fill-rule="nonzero" fill-opacity="1" /><path clip-path="url(#clip890)" d="M1169.63 1206.61 L1169.63 1211.58 Q1167.38 1210.34 1165.09 1209.73 Q1162.83 1209.09 1160.52 1209.09 Q1155.34 1209.09 1152.47 1212.39 Q1149.61 1215.66 1149.61 1221.59 Q1149.61 1227.53 1152.47 1230.82 Q1155.34 1234.09 1160.52 1234.09 Q1162.83 1234.09 1165.09 1233.49 Q1167.38 1232.85 1169.63 1231.61 L1169.63 1236.52 Q1167.4 1237.57 1165 1238.09 Q1162.63 1238.61 1159.94 1238.61 Q1152.62 1238.61 1148.31 1234.01 Q1144 1229.41 1144 1221.59 Q1144 1213.67 1148.34 1209.12 Q1152.71 1204.58 1160.29 1204.58 Q1162.75 1204.58 1165.09 1205.1 Q1167.43 1205.59 1169.63 1206.61 Z" fill="#000000" fill-rule="nonzero" fill-opacity="1" /><path clip-path="url(#clip890)" d="M1193.62 1221.48 Q1187.17 1221.48 1184.68 1222.95 Q1182.19 1224.43 1182.19 1227.99 Q1182.19 1230.82 1184.04 1232.5 Q1185.92 1234.15 1189.13 1234.15 Q1193.56 1234.15 1196.22 1231.03 Q1198.91 1227.87 1198.91 1222.67 L1198.91 1221.48 L1193.62 1221.48 M1204.24 1219.28 L1204.24 1237.77 L1198.91 1237.77 L1198.91 1232.85 Q1197.09 1235.8 1194.37 1237.22 Q1191.65 1238.61 1187.72 1238.61 Q1182.74 1238.61 1179.79 1235.83 Q1176.87 1233.02 1176.87 1228.34 Q1176.87 1222.87 1180.51 1220.09 Q1184.19 1217.31 1191.45 1217.31 L1198.91 1217.31 L1198.91 1216.79 Q1198.91 1213.12 1196.48 1211.12 Q1194.08 1209.09 1189.71 1209.09 Q1186.94 1209.09 1184.3 1209.76 Q1181.67 1210.43 1179.24 1211.76 L1179.24 1206.84 Q1182.16 1205.71 1184.91 1205.16 Q1187.66 1204.58 1190.26 1204.58 Q1197.29 1204.58 1200.77 1208.23 Q1204.24 1211.87 1204.24 1219.28 Z" fill="#000000" fill-rule="nonzero" fill-opacity="1" /><path clip-path="url(#clip890)" d="M1220.47 1196.16 L1220.47 1205.36 L1231.44 1205.36 L1231.44 1209.5 L1220.47 1209.5 L1220.47 1227.09 Q1220.47 1231.06 1221.54 1232.18 Q1222.64 1233.31 1225.97 1233.31 L1231.44 1233.31 L1231.44 1237.77 L1225.97 1237.77 Q1219.81 1237.77 1217.46 1235.48 Q1215.12 1233.17 1215.12 1227.09 L1215.12 1209.5 L1211.21 1209.5 L1211.21 1205.36 L1215.12 1205.36 L1215.12 1196.16 L1220.47 1196.16 Z" fill="#000000" fill-rule="nonzero" fill-opacity="1" /><path clip-path="url(#clip890)" d="M1238.44 1205.36 L1243.76 1205.36 L1243.76 1237.77 L1238.44 1237.77 L1238.44 1205.36 M1238.44 1192.75 L1243.76 1192.75 L1243.76 1199.49 L1238.44 1199.49 L1238.44 1192.75 Z" fill="#000000" fill-rule="nonzero" fill-opacity="1" /><path clip-path="url(#clip890)" d="M1267.46 1209.09 Q1263.18 1209.09 1260.69 1212.45 Q1258.2 1215.78 1258.2 1221.59 Q1258.2 1227.41 1260.66 1230.77 Q1263.15 1234.09 1267.46 1234.09 Q1271.71 1234.09 1274.2 1230.74 Q1276.69 1227.38 1276.69 1221.59 Q1276.69 1215.84 1274.2 1212.48 Q1271.71 1209.09 1267.46 1209.09 M1267.46 1204.58 Q1274.41 1204.58 1278.37 1209.09 Q1282.33 1213.61 1282.33 1221.59 Q1282.33 1229.55 1278.37 1234.09 Q1274.41 1238.61 1267.46 1238.61 Q1260.49 1238.61 1256.52 1234.09 Q1252.59 1229.55 1252.59 1221.59 Q1252.59 1213.61 1256.52 1209.09 Q1260.49 1204.58 1267.46 1204.58 Z" fill="#000000" fill-rule="nonzero" fill-opacity="1" /><path clip-path="url(#clip890)" d="M1318.1 1218.21 L1318.1 1237.77 L1312.77 1237.77 L1312.77 1218.38 Q1312.77 1213.78 1310.98 1211.5 Q1309.19 1209.21 1305.6 1209.21 Q1301.29 1209.21 1298.8 1211.96 Q1296.31 1214.71 1296.31 1219.45 L1296.31 1237.77 L1290.96 1237.77 L1290.96 1205.36 L1296.31 1205.36 L1296.31 1210.4 Q1298.22 1207.47 1300.79 1206.03 Q1303.4 1204.58 1306.78 1204.58 Q1312.37 1204.58 1315.23 1208.05 Q1318.1 1211.5 1318.1 1218.21 Z" fill="#000000" fill-rule="nonzero" fill-opacity="1" /><polyline clip-path="url(#clip890)" style="stroke:#808080; stroke-linecap:round; stroke-linejoin:round; stroke-width:10; stroke-opacity:1; fill:none" stroke-dasharray="40, 25" points="377.178,1280.97 515.009,1280.97 "/>
<path clip-path="url(#clip890)" d="M537.98 1259.37 L565.295 1259.37 L565.295 1264.29 L543.825 1264.29 L543.825 1277.08 L564.398 1277.08 L564.398 1282 L543.825 1282 L543.825 1297.65 L565.816 1297.65 L565.816 1302.57 L537.98 1302.57 L537.98 1259.37 Z" fill="#000000" fill-rule="nonzero" fill-opacity="1" /><path clip-path="url(#clip890)" d="M602.129 1270.16 L590.411 1285.93 L602.737 1302.57 L596.458 1302.57 L587.025 1289.84 L577.592 1302.57 L571.314 1302.57 L583.9 1285.61 L572.384 1270.16 L578.663 1270.16 L587.257 1281.71 L595.85 1270.16 L602.129 1270.16 Z" fill="#000000" fill-rule="nonzero" fill-opacity="1" /><path clip-path="url(#clip890)" d="M624.988 1286.28 Q618.536 1286.28 616.047 1287.75 Q613.559 1289.23 613.559 1292.79 Q613.559 1295.62 615.411 1297.3 Q617.291 1298.95 620.503 1298.95 Q624.93 1298.95 627.592 1295.83 Q630.283 1292.67 630.283 1287.47 L630.283 1286.28 L624.988 1286.28 M635.607 1284.08 L635.607 1302.57 L630.283 1302.57 L630.283 1297.65 Q628.46 1300.6 625.74 1302.02 Q623.02 1303.41 619.085 1303.41 Q614.108 1303.41 611.157 1300.63 Q608.235 1297.82 608.235 1293.14 Q608.235 1287.67 611.881 1284.89 Q615.555 1282.11 622.818 1282.11 L630.283 1282.11 L630.283 1281.59 Q630.283 1277.92 627.853 1275.92 Q625.451 1273.89 621.082 1273.89 Q618.304 1273.89 615.671 1274.56 Q613.038 1275.23 610.607 1276.56 L610.607 1271.64 Q613.53 1270.51 616.279 1269.96 Q619.027 1269.38 621.632 1269.38 Q628.663 1269.38 632.135 1273.03 Q635.607 1276.67 635.607 1284.08 Z" fill="#000000" fill-rule="nonzero" fill-opacity="1" /><path clip-path="url(#clip890)" d="M669.895 1271.41 L669.895 1276.38 Q667.638 1275.14 665.352 1274.53 Q663.096 1273.89 660.781 1273.89 Q655.601 1273.89 652.737 1277.19 Q649.872 1280.46 649.872 1286.39 Q649.872 1292.33 652.737 1295.62 Q655.601 1298.89 660.781 1298.89 Q663.096 1298.89 665.352 1298.29 Q667.638 1297.65 669.895 1296.41 L669.895 1301.32 Q667.667 1302.37 665.266 1302.89 Q662.893 1303.41 660.202 1303.41 Q652.881 1303.41 648.57 1298.81 Q644.259 1294.21 644.259 1286.39 Q644.259 1278.47 648.599 1273.92 Q652.968 1269.38 660.549 1269.38 Q663.009 1269.38 665.352 1269.9 Q667.696 1270.39 669.895 1271.41 Z" fill="#000000" fill-rule="nonzero" fill-opacity="1" /><path clip-path="url(#clip890)" d="M684.421 1260.96 L684.421 1270.16 L695.387 1270.16 L695.387 1274.3 L684.421 1274.3 L684.421 1291.89 Q684.421 1295.86 685.491 1296.98 Q686.591 1298.11 689.918 1298.11 L695.387 1298.11 L695.387 1302.57 L689.918 1302.57 Q683.755 1302.57 681.411 1300.28 Q679.068 1297.97 679.068 1291.89 L679.068 1274.3 L675.161 1274.3 L675.161 1270.16 L679.068 1270.16 L679.068 1260.96 L684.421 1260.96 Z" fill="#000000" fill-rule="nonzero" fill-opacity="1" /><path clip-path="url(#clip890)" d="M744.548 1271.41 L744.548 1276.38 Q742.291 1275.14 740.005 1274.53 Q737.748 1273.89 735.433 1273.89 Q730.254 1273.89 727.389 1277.19 Q724.525 1280.46 724.525 1286.39 Q724.525 1292.33 727.389 1295.62 Q730.254 1298.89 735.433 1298.89 Q737.748 1298.89 740.005 1298.29 Q742.291 1297.65 744.548 1296.41 L744.548 1301.32 Q742.32 1302.37 739.918 1302.89 Q737.545 1303.41 734.854 1303.41 Q727.534 1303.41 723.222 1298.81 Q718.911 1294.21 718.911 1286.39 Q718.911 1278.47 723.251 1273.92 Q727.621 1269.38 735.202 1269.38 Q737.661 1269.38 740.005 1269.9 Q742.349 1270.39 744.548 1271.41 Z" fill="#000000" fill-rule="nonzero" fill-opacity="1" /><path clip-path="url(#clip890)" d="M766.365 1273.89 Q762.082 1273.89 759.594 1277.25 Q757.105 1280.58 757.105 1286.39 Q757.105 1292.21 759.565 1295.57 Q762.053 1298.89 766.365 1298.89 Q770.618 1298.89 773.106 1295.54 Q775.595 1292.18 775.595 1286.39 Q775.595 1280.64 773.106 1277.28 Q770.618 1273.89 766.365 1273.89 M766.365 1269.38 Q773.309 1269.38 777.273 1273.89 Q781.237 1278.41 781.237 1286.39 Q781.237 1294.35 777.273 1298.89 Q773.309 1303.41 766.365 1303.41 Q759.391 1303.41 755.427 1298.89 Q751.492 1294.35 751.492 1286.39 Q751.492 1278.41 755.427 1273.89 Q759.391 1269.38 766.365 1269.38 Z" fill="#000000" fill-rule="nonzero" fill-opacity="1" /><path clip-path="url(#clip890)" d="M815.294 1276.38 Q817.29 1272.79 820.068 1271.09 Q822.846 1269.38 826.607 1269.38 Q831.671 1269.38 834.42 1272.94 Q837.169 1276.47 837.169 1283.01 L837.169 1302.57 L831.816 1302.57 L831.816 1283.18 Q831.816 1278.52 830.166 1276.27 Q828.517 1274.01 825.132 1274.01 Q820.994 1274.01 818.592 1276.76 Q816.191 1279.51 816.191 1284.25 L816.191 1302.57 L810.838 1302.57 L810.838 1283.18 Q810.838 1278.5 809.188 1276.27 Q807.539 1274.01 804.096 1274.01 Q800.016 1274.01 797.614 1276.79 Q795.213 1279.54 795.213 1284.25 L795.213 1302.57 L789.86 1302.57 L789.86 1270.16 L795.213 1270.16 L795.213 1275.2 Q797.036 1272.22 799.582 1270.8 Q802.128 1269.38 805.629 1269.38 Q809.16 1269.38 811.619 1271.17 Q814.107 1272.97 815.294 1276.38 Z" fill="#000000" fill-rule="nonzero" fill-opacity="1" /><path clip-path="url(#clip890)" d="M852.938 1297.71 L852.938 1314.9 L847.585 1314.9 L847.585 1270.16 L852.938 1270.16 L852.938 1275.08 Q854.616 1272.19 857.163 1270.8 Q859.738 1269.38 863.297 1269.38 Q869.2 1269.38 872.874 1274.07 Q876.578 1278.76 876.578 1286.39 Q876.578 1294.03 872.874 1298.72 Q869.2 1303.41 863.297 1303.41 Q859.738 1303.41 857.163 1302.02 Q854.616 1300.6 852.938 1297.71 M871.052 1286.39 Q871.052 1280.52 868.621 1277.19 Q866.219 1273.84 861.995 1273.84 Q857.77 1273.84 855.34 1277.19 Q852.938 1280.52 852.938 1286.39 Q852.938 1292.27 855.34 1295.62 Q857.77 1298.95 861.995 1298.95 Q866.219 1298.95 868.621 1295.62 Q871.052 1292.27 871.052 1286.39 Z" fill="#000000" fill-rule="nonzero" fill-opacity="1" /><path clip-path="url(#clip890)" d="M884.854 1289.78 L884.854 1270.16 L890.178 1270.16 L890.178 1289.58 Q890.178 1294.18 891.972 1296.49 Q893.766 1298.78 897.354 1298.78 Q901.665 1298.78 904.153 1296.03 Q906.671 1293.28 906.671 1288.54 L906.671 1270.16 L911.995 1270.16 L911.995 1302.57 L906.671 1302.57 L906.671 1297.59 Q904.732 1300.54 902.157 1301.99 Q899.61 1303.41 896.225 1303.41 Q890.641 1303.41 887.747 1299.94 Q884.854 1296.46 884.854 1289.78 M898.25 1269.38 L898.25 1269.38 Z" fill="#000000" fill-rule="nonzero" fill-opacity="1" /><path clip-path="url(#clip890)" d="M928.227 1260.96 L928.227 1270.16 L939.194 1270.16 L939.194 1274.3 L928.227 1274.3 L928.227 1291.89 Q928.227 1295.86 929.298 1296.98 Q930.397 1298.11 933.725 1298.11 L939.194 1298.11 L939.194 1302.57 L933.725 1302.57 Q927.562 1302.57 925.218 1300.28 Q922.874 1297.97 922.874 1291.89 L922.874 1274.3 L918.968 1274.3 L918.968 1270.16 L922.874 1270.16 L922.874 1260.96 L928.227 1260.96 Z" fill="#000000" fill-rule="nonzero" fill-opacity="1" /><path clip-path="url(#clip890)" d="M960.924 1286.28 Q954.471 1286.28 951.983 1287.75 Q949.494 1289.23 949.494 1292.79 Q949.494 1295.62 951.346 1297.3 Q953.227 1298.95 956.439 1298.95 Q960.866 1298.95 963.528 1295.83 Q966.219 1292.67 966.219 1287.47 L966.219 1286.28 L960.924 1286.28 M971.543 1284.08 L971.543 1302.57 L966.219 1302.57 L966.219 1297.65 Q964.396 1300.6 961.676 1302.02 Q958.956 1303.41 955.021 1303.41 Q950.044 1303.41 947.093 1300.63 Q944.17 1297.82 944.17 1293.14 Q944.17 1287.67 947.816 1284.89 Q951.491 1282.11 958.754 1282.11 L966.219 1282.11 L966.219 1281.59 Q966.219 1277.92 963.788 1275.92 Q961.387 1273.89 957.018 1273.89 Q954.24 1273.89 951.607 1274.56 Q948.974 1275.23 946.543 1276.56 L946.543 1271.64 Q949.465 1270.51 952.214 1269.96 Q954.963 1269.38 957.567 1269.38 Q964.599 1269.38 968.071 1273.03 Q971.543 1276.67 971.543 1284.08 Z" fill="#000000" fill-rule="nonzero" fill-opacity="1" /><path clip-path="url(#clip890)" d="M987.775 1260.96 L987.775 1270.16 L998.742 1270.16 L998.742 1274.3 L987.775 1274.3 L987.775 1291.89 Q987.775 1295.86 988.846 1296.98 Q989.946 1298.11 993.273 1298.11 L998.742 1298.11 L998.742 1302.57 L993.273 1302.57 Q987.11 1302.57 984.766 1300.28 Q982.422 1297.97 982.422 1291.89 L982.422 1274.3 L978.516 1274.3 L978.516 1270.16 L982.422 1270.16 L982.422 1260.96 L987.775 1260.96 Z" fill="#000000" fill-rule="nonzero" fill-opacity="1" /><path clip-path="url(#clip890)" d="M1005.74 1270.16 L1011.07 1270.16 L1011.07 1302.57 L1005.74 1302.57 L1005.74 1270.16 M1005.74 1257.55 L1011.07 1257.55 L1011.07 1264.29 L1005.74 1264.29 L1005.74 1257.55 Z" fill="#000000" fill-rule="nonzero" fill-opacity="1" /><path clip-path="url(#clip890)" d="M1034.77 1273.89 Q1030.48 1273.89 1028 1277.25 Q1025.51 1280.58 1025.51 1286.39 Q1025.51 1292.21 1027.97 1295.57 Q1030.45 1298.89 1034.77 1298.89 Q1039.02 1298.89 1041.51 1295.54 Q1044 1292.18 1044 1286.39 Q1044 1280.64 1041.51 1277.28 Q1039.02 1273.89 1034.77 1273.89 M1034.77 1269.38 Q1041.71 1269.38 1045.67 1273.89 Q1049.64 1278.41 1049.64 1286.39 Q1049.64 1294.35 1045.67 1298.89 Q1041.71 1303.41 1034.77 1303.41 Q1027.79 1303.41 1023.83 1298.89 Q1019.89 1294.35 1019.89 1286.39 Q1019.89 1278.41 1023.83 1273.89 Q1027.79 1269.38 1034.77 1269.38 Z" fill="#000000" fill-rule="nonzero" fill-opacity="1" /><path clip-path="url(#clip890)" d="M1085.4 1283.01 L1085.4 1302.57 L1080.08 1302.57 L1080.08 1283.18 Q1080.08 1278.58 1078.28 1276.3 Q1076.49 1274.01 1072.9 1274.01 Q1068.59 1274.01 1066.1 1276.76 Q1063.61 1279.51 1063.61 1284.25 L1063.61 1302.57 L1058.26 1302.57 L1058.26 1270.16 L1063.61 1270.16 L1063.61 1275.2 Q1065.52 1272.27 1068.1 1270.83 Q1070.7 1269.38 1074.09 1269.38 Q1079.67 1269.38 1082.54 1272.85 Q1085.4 1276.3 1085.4 1283.01 Z" fill="#000000" fill-rule="nonzero" fill-opacity="1" /></svg>
