<?xml version="1.0" encoding="utf-8"?>
<svg xmlns="http://www.w3.org/2000/svg" xmlns:xlink="http://www.w3.org/1999/xlink" width="800" height="600" viewBox="0 0 3200 2400">
<defs>
  <clipPath id="clip020">
    <rect x="0" y="0" width="3200" height="2400"/>
  </clipPath>
</defs>
<path clip-path="url(#clip020)" d="M0 2400 L3200 2400 L3200 0 L0 0  Z" fill="#ffffff" fill-rule="evenodd" fill-opacity="1"/>
<defs>
  <clipPath id="clip021">
    <rect x="427" y="431" width="2710" height="1682"/>
  </clipPath>
</defs>
<path clip-path="url(#clip020)" d="M342.256 1520.48 L3152.76 1520.48 L3152.76 47.2441 L342.256 47.2441  Z" fill="#ffffff" fill-rule="evenodd" fill-opacity="1"/>
<defs>
  <clipPath id="clip022">
    <rect x="342" y="47" width="2812" height="1474"/>
  </clipPath>
</defs>
<polyline clip-path="url(#clip022)" style="stroke:#000000; stroke-linecap:round; stroke-linejoin:round; stroke-width:2; stroke-opacity:0.1; fill:none" points="716.4,1520.48 716.4,47.2441 "/>
<polyline clip-path="url(#clip022)" style="stroke:#000000; stroke-linecap:round; stroke-linejoin:round; stroke-width:2; stroke-opacity:0.1; fill:none" points="1452.9,1520.48 1452.9,47.2441 "/>
<polyline clip-path="url(#clip022)" style="stroke:#000000; stroke-linecap:round; stroke-linejoin:round; stroke-width:2; stroke-opacity:0.1; fill:none" points="2189.41,1520.48 2189.41,47.2441 "/>
<polyline clip-path="url(#clip022)" style="stroke:#000000; stroke-linecap:round; stroke-linejoin:round; stroke-width:2; stroke-opacity:0.1; fill:none" points="2925.91,1520.48 2925.91,47.2441 "/>
<polyline clip-path="url(#clip022)" style="stroke:#000000; stroke-linecap:round; stroke-linejoin:round; stroke-width:2; stroke-opacity:0.1; fill:none" points="342.256,250.607 3152.76,250.607 "/>
<polyline clip-path="url(#clip022)" style="stroke:#000000; stroke-linecap:round; stroke-linejoin:round; stroke-width:2; stroke-opacity:0.1; fill:none" points="342.256,464.252 3152.76,464.252 "/>
<polyline clip-path="url(#clip022)" style="stroke:#000000; stroke-linecap:round; stroke-linejoin:round; stroke-width:2; stroke-opacity:0.1; fill:none" points="342.256,677.897 3152.76,677.897 "/>
<polyline clip-path="url(#clip022)" style="stroke:#000000; stroke-linecap:round; stroke-linejoin:round; stroke-width:2; stroke-opacity:0.1; fill:none" points="342.256,891.543 3152.76,891.543 "/>
<polyline clip-path="url(#clip022)" style="stroke:#000000; stroke-linecap:round; stroke-linejoin:round; stroke-width:2; stroke-opacity:0.1; fill:none" points="342.256,1105.19 3152.76,1105.19 "/>
<polyline clip-path="url(#clip022)" style="stroke:#000000; stroke-linecap:round; stroke-linejoin:round; stroke-width:2; stroke-opacity:0.1; fill:none" points="342.256,1318.83 3152.76,1318.83 "/>
<polyline clip-path="url(#clip020)" style="stroke:#000000; stroke-linecap:round; stroke-linejoin:round; stroke-width:4; stroke-opacity:1; fill:none" points="342.256,1520.48 3152.76,1520.48 "/>
<polyline clip-path="url(#clip020)" style="stroke:#000000; stroke-linecap:round; stroke-linejoin:round; stroke-width:4; stroke-opacity:1; fill:none" points="716.4,1520.48 716.4,1507.31 "/>
<polyline clip-path="url(#clip020)" style="stroke:#000000; stroke-linecap:round; stroke-linejoin:round; stroke-width:4; stroke-opacity:1; fill:none" points="1452.9,1520.48 1452.9,1507.31 "/>
<polyline clip-path="url(#clip020)" style="stroke:#000000; stroke-linecap:round; stroke-linejoin:round; stroke-width:4; stroke-opacity:1; fill:none" points="2189.41,1520.48 2189.41,1507.31 "/>
<polyline clip-path="url(#clip020)" style="stroke:#000000; stroke-linecap:round; stroke-linejoin:round; stroke-width:4; stroke-opacity:1; fill:none" points="2925.91,1520.48 2925.91,1507.31 "/>
<path clip-path="url(#clip020)" d="M701.817 1559.04 L729.351 1559.04 L729.351 1564.94 L708.24 1564.94 L708.24 1577.65 Q709.768 1577.13 711.296 1576.88 Q712.824 1576.6 714.351 1576.6 Q723.032 1576.6 728.101 1581.36 Q733.171 1586.12 733.171 1594.24 Q733.171 1602.61 727.962 1607.26 Q722.754 1611.88 713.275 1611.88 Q710.011 1611.88 706.608 1611.33 Q703.24 1610.77 699.629 1609.66 L699.629 1602.61 Q702.754 1604.31 706.088 1605.15 Q709.421 1605.98 713.136 1605.98 Q719.143 1605.98 722.65 1602.82 Q726.157 1599.66 726.157 1594.24 Q726.157 1588.83 722.65 1585.67 Q719.143 1582.51 713.136 1582.51 Q710.324 1582.51 707.511 1583.13 Q704.733 1583.76 701.817 1585.08 L701.817 1559.04 Z" fill="#000000" fill-rule="nonzero" fill-opacity="1" /><path clip-path="url(#clip020)" d="M1414.94 1604.97 L1426.39 1604.97 L1426.39 1565.42 L1413.93 1567.92 L1413.93 1561.54 L1426.32 1559.04 L1433.34 1559.04 L1433.34 1604.97 L1444.8 1604.97 L1444.8 1610.88 L1414.94 1610.88 L1414.94 1604.97 Z" fill="#000000" fill-rule="nonzero" fill-opacity="1" /><path clip-path="url(#clip020)" d="M1473.96 1563.65 Q1468.55 1563.65 1465.8 1569 Q1463.1 1574.31 1463.1 1585.01 Q1463.1 1595.67 1465.8 1601.01 Q1468.55 1606.33 1473.96 1606.33 Q1479.41 1606.33 1482.12 1601.01 Q1484.87 1595.67 1484.87 1585.01 Q1484.87 1574.31 1482.12 1569 Q1479.41 1563.65 1473.96 1563.65 M1473.96 1558.1 Q1482.68 1558.1 1487.26 1565.01 Q1491.88 1571.88 1491.88 1585.01 Q1491.88 1598.1 1487.26 1605.01 Q1482.68 1611.88 1473.96 1611.88 Q1465.25 1611.88 1460.63 1605.01 Q1456.05 1598.1 1456.05 1585.01 Q1456.05 1571.88 1460.63 1565.01 Q1465.25 1558.1 1473.96 1558.1 Z" fill="#000000" fill-rule="nonzero" fill-opacity="1" /><path clip-path="url(#clip020)" d="M2152.19 1604.97 L2163.64 1604.97 L2163.64 1565.42 L2151.18 1567.92 L2151.18 1561.54 L2163.58 1559.04 L2170.59 1559.04 L2170.59 1604.97 L2182.05 1604.97 L2182.05 1610.88 L2152.19 1610.88 L2152.19 1604.97 Z" fill="#000000" fill-rule="nonzero" fill-opacity="1" /><path clip-path="url(#clip020)" d="M2196.28 1559.04 L2223.82 1559.04 L2223.82 1564.94 L2202.71 1564.94 L2202.71 1577.65 Q2204.23 1577.13 2205.76 1576.88 Q2207.29 1576.6 2208.82 1576.6 Q2217.5 1576.6 2222.57 1581.36 Q2227.64 1586.12 2227.64 1594.24 Q2227.64 1602.61 2222.43 1607.26 Q2217.22 1611.88 2207.74 1611.88 Q2204.48 1611.88 2201.08 1611.33 Q2197.71 1610.77 2194.1 1609.66 L2194.1 1602.61 Q2197.22 1604.31 2200.55 1605.15 Q2203.89 1605.98 2207.6 1605.98 Q2213.61 1605.98 2217.12 1602.82 Q2220.62 1599.66 2220.62 1594.24 Q2220.62 1588.83 2217.12 1585.67 Q2213.61 1582.51 2207.6 1582.51 Q2204.79 1582.51 2201.98 1583.13 Q2199.2 1583.76 2196.28 1585.08 L2196.28 1559.04 Z" fill="#000000" fill-rule="nonzero" fill-opacity="1" /><path clip-path="url(#clip020)" d="M2894.07 1604.97 L2918.55 1604.97 L2918.55 1610.88 L2885.64 1610.88 L2885.64 1604.97 Q2889.63 1600.84 2896.5 1593.9 Q2903.41 1586.92 2905.18 1584.9 Q2908.55 1581.12 2909.87 1578.51 Q2911.23 1575.88 2911.23 1573.34 Q2911.23 1569.21 2908.31 1566.6 Q2905.43 1564 2900.77 1564 Q2897.48 1564 2893.79 1565.15 Q2890.15 1566.29 2885.98 1568.62 L2885.98 1561.54 Q2890.22 1559.83 2893.9 1558.97 Q2897.58 1558.1 2900.63 1558.1 Q2908.69 1558.1 2913.48 1562.13 Q2918.27 1566.15 2918.27 1572.89 Q2918.27 1576.08 2917.06 1578.97 Q2915.88 1581.81 2912.72 1585.7 Q2911.85 1586.71 2907.2 1591.54 Q2902.54 1596.33 2894.07 1604.97 Z" fill="#000000" fill-rule="nonzero" fill-opacity="1" /><path clip-path="url(#clip020)" d="M2948.27 1563.65 Q2942.86 1563.65 2940.11 1569 Q2937.41 1574.31 2937.41 1585.01 Q2937.41 1595.67 2940.11 1601.01 Q2942.86 1606.33 2948.27 1606.33 Q2953.72 1606.33 2956.43 1601.01 Q2959.18 1595.67 2959.18 1585.01 Q2959.18 1574.31 2956.43 1569 Q2953.72 1563.65 2948.27 1563.65 M2948.27 1558.1 Q2956.99 1558.1 2961.57 1565.01 Q2966.19 1571.88 2966.19 1585.01 Q2966.19 1598.1 2961.57 1605.01 Q2956.99 1611.88 2948.27 1611.88 Q2939.56 1611.88 2934.94 1605.01 Q2930.36 1598.1 2930.36 1585.01 Q2930.36 1571.88 2934.94 1565.01 Q2939.56 1558.1 2948.27 1558.1 Z" fill="#000000" fill-rule="nonzero" fill-opacity="1" /><path clip-path="url(#clip020)" d="M1664.8 1662.33 L1664.8 1671.45 Q1659.47 1668.9 1654.75 1667.65 Q1650.03 1666.4 1645.63 1666.4 Q1637.99 1666.4 1633.83 1669.36 Q1629.71 1672.33 1629.71 1677.79 Q1629.71 1682.37 1632.44 1684.74 Q1635.21 1687.05 1642.9 1688.49 L1648.55 1689.64 Q1659.01 1691.63 1663.96 1696.68 Q1668.96 1701.68 1668.96 1710.11 Q1668.96 1720.15 1662.21 1725.34 Q1655.49 1730.52 1642.48 1730.52 Q1637.58 1730.52 1632.02 1729.41 Q1626.51 1728.3 1620.59 1726.12 L1620.59 1716.49 Q1626.28 1719.69 1631.74 1721.31 Q1637.21 1722.93 1642.48 1722.93 Q1650.49 1722.93 1654.84 1719.78 Q1659.2 1716.63 1659.2 1710.8 Q1659.2 1705.71 1656.05 1702.84 Q1652.95 1699.97 1645.82 1698.53 L1640.12 1697.42 Q1629.66 1695.34 1624.98 1690.89 Q1620.31 1686.45 1620.31 1678.53 Q1620.31 1669.36 1626.74 1664.09 Q1633.22 1658.81 1644.57 1658.81 Q1649.43 1658.81 1654.47 1659.69 Q1659.52 1660.57 1664.8 1662.33 Z" fill="#000000" fill-rule="nonzero" fill-opacity="1" /><path clip-path="url(#clip020)" d="M1691.6 1662.61 L1691.6 1677.33 L1709.15 1677.33 L1709.15 1683.95 L1691.6 1683.95 L1691.6 1712.1 Q1691.6 1718.44 1693.32 1720.24 Q1695.08 1722.05 1700.4 1722.05 L1709.15 1722.05 L1709.15 1729.18 L1700.4 1729.18 Q1690.54 1729.18 1686.79 1725.52 Q1683.04 1721.82 1683.04 1712.1 L1683.04 1683.95 L1676.79 1683.95 L1676.79 1677.33 L1683.04 1677.33 L1683.04 1662.61 L1691.6 1662.61 Z" fill="#000000" fill-rule="nonzero" fill-opacity="1" /><path clip-path="url(#clip020)" d="M1764.7 1701.12 L1764.7 1705.29 L1725.54 1705.29 Q1726.09 1714.09 1730.82 1718.72 Q1735.58 1723.3 1744.06 1723.3 Q1748.96 1723.3 1753.55 1722.1 Q1758.18 1720.89 1762.71 1718.48 L1762.71 1726.54 Q1758.13 1728.48 1753.32 1729.5 Q1748.5 1730.52 1743.55 1730.52 Q1731.14 1730.52 1723.87 1723.3 Q1716.65 1716.08 1716.65 1703.76 Q1716.65 1691.03 1723.5 1683.58 Q1730.4 1676.08 1742.07 1676.08 Q1752.53 1676.08 1758.59 1682.84 Q1764.7 1689.55 1764.7 1701.12 M1756.19 1698.62 Q1756.09 1691.63 1752.25 1687.47 Q1748.45 1683.3 1742.16 1683.3 Q1735.03 1683.3 1730.72 1687.33 Q1726.46 1691.36 1725.82 1698.67 L1756.19 1698.62 Z" fill="#000000" fill-rule="nonzero" fill-opacity="1" /><path clip-path="url(#clip020)" d="M1786.93 1721.4 L1786.93 1748.9 L1778.36 1748.9 L1778.36 1677.33 L1786.93 1677.33 L1786.93 1685.2 Q1789.61 1680.57 1793.69 1678.35 Q1797.81 1676.08 1803.5 1676.08 Q1812.95 1676.08 1818.82 1683.58 Q1824.75 1691.08 1824.75 1703.3 Q1824.75 1715.52 1818.82 1723.02 Q1812.95 1730.52 1803.5 1730.52 Q1797.81 1730.52 1793.69 1728.3 Q1789.61 1726.03 1786.93 1721.4 M1815.91 1703.3 Q1815.91 1693.9 1812.02 1688.58 Q1808.18 1683.21 1801.42 1683.21 Q1794.66 1683.21 1790.77 1688.58 Q1786.93 1693.9 1786.93 1703.3 Q1786.93 1712.7 1790.77 1718.07 Q1794.66 1723.39 1801.42 1723.39 Q1808.18 1723.39 1812.02 1718.07 Q1815.91 1712.7 1815.91 1703.3 Z" fill="#000000" fill-rule="nonzero" fill-opacity="1" /><path clip-path="url(#clip020)" d="M1871.93 1678.86 L1871.93 1686.91 Q1868.32 1685.06 1864.43 1684.13 Q1860.54 1683.21 1856.37 1683.21 Q1850.03 1683.21 1846.83 1685.15 Q1843.69 1687.1 1843.69 1690.99 Q1843.69 1693.95 1845.95 1695.66 Q1848.22 1697.33 1855.07 1698.86 L1857.99 1699.5 Q1867.07 1701.45 1870.86 1705.01 Q1874.7 1708.53 1874.7 1714.87 Q1874.7 1722.1 1868.96 1726.31 Q1863.27 1730.52 1853.27 1730.52 Q1849.1 1730.52 1844.57 1729.69 Q1840.07 1728.9 1835.07 1727.28 L1835.07 1718.48 Q1839.8 1720.94 1844.38 1722.19 Q1848.96 1723.39 1853.45 1723.39 Q1859.47 1723.39 1862.71 1721.36 Q1865.95 1719.27 1865.95 1715.52 Q1865.95 1712.05 1863.59 1710.2 Q1861.28 1708.35 1853.36 1706.63 L1850.4 1705.94 Q1842.48 1704.27 1838.96 1700.85 Q1835.45 1697.37 1835.45 1691.36 Q1835.45 1684.04 1840.63 1680.06 Q1845.82 1676.08 1855.35 1676.08 Q1860.07 1676.08 1864.24 1676.77 Q1868.41 1677.47 1871.93 1678.86 Z" fill="#000000" fill-rule="nonzero" fill-opacity="1" /><polyline clip-path="url(#clip020)" style="stroke:#000000; stroke-linecap:round; stroke-linejoin:round; stroke-width:4; stroke-opacity:1; fill:none" points="342.256,1520.48 342.256,47.2441 "/>
<polyline clip-path="url(#clip020)" style="stroke:#000000; stroke-linecap:round; stroke-linejoin:round; stroke-width:4; stroke-opacity:1; fill:none" points="342.256,250.607 361.153,250.607 "/>
<polyline clip-path="url(#clip020)" style="stroke:#000000; stroke-linecap:round; stroke-linejoin:round; stroke-width:4; stroke-opacity:1; fill:none" points="342.256,464.252 361.153,464.252 "/>
<polyline clip-path="url(#clip020)" style="stroke:#000000; stroke-linecap:round; stroke-linejoin:round; stroke-width:4; stroke-opacity:1; fill:none" points="342.256,677.897 361.153,677.897 "/>
<polyline clip-path="url(#clip020)" style="stroke:#000000; stroke-linecap:round; stroke-linejoin:round; stroke-width:4; stroke-opacity:1; fill:none" points="342.256,891.543 361.153,891.543 "/>
<polyline clip-path="url(#clip020)" style="stroke:#000000; stroke-linecap:round; stroke-linejoin:round; stroke-width:4; stroke-opacity:1; fill:none" points="342.256,1105.19 361.153,1105.19 "/>
<polyline clip-path="url(#clip020)" style="stroke:#000000; stroke-linecap:round; stroke-linejoin:round; stroke-width:4; stroke-opacity:1; fill:none" points="342.256,1318.83 361.153,1318.83 "/>
<path clip-path="url(#clip020)" d="M143.595 280.295 L155.053 280.295 L155.053 240.747 L142.588 243.247 L142.588 236.858 L154.984 234.358 L161.997 234.358 L161.997 280.295 L173.456 280.295 L173.456 286.198 L143.595 286.198 L143.595 280.295 Z" fill="#000000" fill-rule="nonzero" fill-opacity="1" /><path clip-path="url(#clip020)" d="M202.622 238.976 Q197.206 238.976 194.463 244.323 Q191.754 249.636 191.754 260.33 Q191.754 270.99 194.463 276.337 Q197.206 281.649 202.622 281.649 Q208.074 281.649 210.782 276.337 Q213.525 270.99 213.525 260.33 Q213.525 249.636 210.782 244.323 Q208.074 238.976 202.622 238.976 M202.622 233.42 Q211.337 233.42 215.921 240.33 Q220.539 247.205 220.539 260.33 Q220.539 273.42 215.921 280.33 Q211.337 287.205 202.622 287.205 Q193.907 287.205 189.289 280.33 Q184.706 273.42 184.706 260.33 Q184.706 247.205 189.289 240.33 Q193.907 233.42 202.622 233.42 Z" fill="#000000" fill-rule="nonzero" fill-opacity="1" /><path clip-path="url(#clip020)" d="M220.539 224.572 L256.706 224.572 L256.706 229.368 L220.539 229.368 L220.539 224.572 Z" fill="#000000" fill-rule="nonzero" fill-opacity="1" /><path clip-path="url(#clip020)" d="M269.994 240.286 L279.304 240.286 L279.304 208.153 L269.176 210.185 L269.176 204.994 L279.247 202.962 L284.946 202.962 L284.946 240.286 L294.256 240.286 L294.256 245.082 L269.994 245.082 L269.994 240.286 Z" fill="#000000" fill-rule="nonzero" fill-opacity="1" /><path clip-path="url(#clip020)" d="M144.046 493.941 L155.504 493.941 L155.504 454.392 L143.039 456.892 L143.039 450.503 L155.435 448.003 L162.449 448.003 L162.449 493.941 L173.907 493.941 L173.907 499.843 L144.046 499.843 L144.046 493.941 Z" fill="#000000" fill-rule="nonzero" fill-opacity="1" /><path clip-path="url(#clip020)" d="M203.074 452.621 Q197.657 452.621 194.914 457.969 Q192.206 463.281 192.206 473.975 Q192.206 484.635 194.914 489.982 Q197.657 495.295 203.074 495.295 Q208.525 495.295 211.233 489.982 Q213.976 484.635 213.976 473.975 Q213.976 463.281 211.233 457.969 Q208.525 452.621 203.074 452.621 M203.074 447.066 Q211.789 447.066 216.372 453.976 Q220.99 460.85 220.99 473.975 Q220.99 487.066 216.372 493.975 Q211.789 500.85 203.074 500.85 Q194.358 500.85 189.74 493.975 Q185.157 487.066 185.157 473.975 Q185.157 460.85 189.74 453.976 Q194.358 447.066 203.074 447.066 Z" fill="#000000" fill-rule="nonzero" fill-opacity="1" /><path clip-path="url(#clip020)" d="M220.99 438.218 L257.158 438.218 L257.158 443.014 L220.99 443.014 L220.99 438.218 Z" fill="#000000" fill-rule="nonzero" fill-opacity="1" /><path clip-path="url(#clip020)" d="M274.367 453.932 L294.256 453.932 L294.256 458.728 L267.511 458.728 L267.511 453.932 Q270.756 450.575 276.341 444.932 Q281.956 439.262 283.394 437.625 Q286.131 434.55 287.203 432.434 Q288.303 430.29 288.303 428.231 Q288.303 424.874 285.933 422.758 Q283.592 420.642 279.811 420.642 Q277.131 420.642 274.141 421.573 Q271.179 422.504 267.793 424.394 L267.793 418.639 Q271.235 417.257 274.226 416.551 Q277.216 415.846 279.699 415.846 Q286.244 415.846 290.137 419.119 Q294.03 422.391 294.03 427.864 Q294.03 430.46 293.043 432.801 Q292.084 435.115 289.516 438.274 Q288.811 439.092 285.031 443.014 Q281.25 446.907 274.367 453.932 Z" fill="#000000" fill-rule="nonzero" fill-opacity="1" /><path clip-path="url(#clip020)" d="M142.889 707.586 L154.348 707.586 L154.348 668.038 L141.883 670.538 L141.883 664.149 L154.278 661.649 L161.292 661.649 L161.292 707.586 L172.75 707.586 L172.75 713.489 L142.889 713.489 L142.889 707.586 Z" fill="#000000" fill-rule="nonzero" fill-opacity="1" /><path clip-path="url(#clip020)" d="M201.917 666.267 Q196.5 666.267 193.757 671.614 Q191.049 676.926 191.049 687.621 Q191.049 698.28 193.757 703.628 Q196.5 708.94 201.917 708.94 Q207.368 708.94 210.077 703.628 Q212.82 698.28 212.82 687.621 Q212.82 676.926 210.077 671.614 Q207.368 666.267 201.917 666.267 M201.917 660.711 Q210.632 660.711 215.215 667.621 Q219.833 674.496 219.833 687.621 Q219.833 700.711 215.215 707.621 Q210.632 714.496 201.917 714.496 Q193.202 714.496 188.584 707.621 Q184 700.711 184 687.621 Q184 674.496 188.584 667.621 Q193.202 660.711 201.917 660.711 Z" fill="#000000" fill-rule="nonzero" fill-opacity="1" /><path clip-path="url(#clip020)" d="M219.833 651.863 L256.001 651.863 L256.001 656.659 L219.833 656.659 L219.833 651.863 Z" fill="#000000" fill-rule="nonzero" fill-opacity="1" /><path clip-path="url(#clip020)" d="M285.567 649.663 Q289.657 650.537 291.942 653.302 Q294.256 656.067 294.256 660.129 Q294.256 666.364 289.968 669.778 Q285.68 673.191 277.78 673.191 Q275.128 673.191 272.307 672.655 Q269.514 672.147 266.524 671.104 L266.524 665.602 Q268.894 666.985 271.715 667.69 Q274.536 668.395 277.611 668.395 Q282.971 668.395 285.764 666.279 Q288.585 664.163 288.585 660.129 Q288.585 656.405 285.962 654.318 Q283.366 652.202 278.711 652.202 L273.802 652.202 L273.802 647.519 L278.937 647.519 Q283.14 647.519 285.369 645.854 Q287.598 644.161 287.598 641.002 Q287.598 637.757 285.285 636.036 Q282.999 634.287 278.711 634.287 Q276.37 634.287 273.69 634.795 Q271.009 635.303 267.793 636.375 L267.793 631.297 Q271.038 630.394 273.859 629.943 Q276.708 629.491 279.219 629.491 Q285.708 629.491 289.488 632.454 Q293.268 635.388 293.268 640.409 Q293.268 643.908 291.265 646.334 Q289.262 648.732 285.567 649.663 Z" fill="#000000" fill-rule="nonzero" fill-opacity="1" /><path clip-path="url(#clip020)" d="M141.507 921.231 L152.965 921.231 L152.965 881.683 L140.5 884.183 L140.5 877.794 L152.896 875.294 L159.91 875.294 L159.91 921.231 L171.368 921.231 L171.368 927.134 L141.507 927.134 L141.507 921.231 Z" fill="#000000" fill-rule="nonzero" fill-opacity="1" /><path clip-path="url(#clip020)" d="M200.535 879.912 Q195.118 879.912 192.375 885.259 Q189.667 890.572 189.667 901.266 Q189.667 911.926 192.375 917.273 Q195.118 922.585 200.535 922.585 Q205.986 922.585 208.694 917.273 Q211.437 911.926 211.437 901.266 Q211.437 890.572 208.694 885.259 Q205.986 879.912 200.535 879.912 M200.535 874.357 Q209.25 874.357 213.833 881.266 Q218.451 888.141 218.451 901.266 Q218.451 914.356 213.833 921.266 Q209.25 928.141 200.535 928.141 Q191.819 928.141 187.201 921.266 Q182.618 914.356 182.618 901.266 Q182.618 888.141 187.201 881.266 Q191.819 874.357 200.535 874.357 Z" fill="#000000" fill-rule="nonzero" fill-opacity="1" /><path clip-path="url(#clip020)" d="M218.451 865.509 L254.618 865.509 L254.618 870.305 L218.451 870.305 L218.451 865.509 Z" fill="#000000" fill-rule="nonzero" fill-opacity="1" /><path clip-path="url(#clip020)" d="M282.576 848.864 L268.188 871.348 L282.576 871.348 L282.576 848.864 M281.081 843.898 L288.247 843.898 L288.247 871.348 L294.256 871.348 L294.256 876.088 L288.247 876.088 L288.247 886.018 L282.576 886.018 L282.576 876.088 L263.562 876.088 L263.562 870.587 L281.081 843.898 Z" fill="#000000" fill-rule="nonzero" fill-opacity="1" /><path clip-path="url(#clip020)" d="M143.313 1134.88 L154.771 1134.88 L154.771 1095.33 L142.306 1097.83 L142.306 1091.44 L154.701 1088.94 L161.715 1088.94 L161.715 1134.88 L173.174 1134.88 L173.174 1140.78 L143.313 1140.78 L143.313 1134.88 Z" fill="#000000" fill-rule="nonzero" fill-opacity="1" /><path clip-path="url(#clip020)" d="M202.34 1093.56 Q196.923 1093.56 194.18 1098.9 Q191.472 1104.22 191.472 1114.91 Q191.472 1125.57 194.18 1130.92 Q196.923 1136.23 202.34 1136.23 Q207.791 1136.23 210.5 1130.92 Q213.243 1125.57 213.243 1114.91 Q213.243 1104.22 210.5 1098.9 Q207.791 1093.56 202.34 1093.56 M202.34 1088 Q211.055 1088 215.639 1094.91 Q220.257 1101.79 220.257 1114.91 Q220.257 1128 215.639 1134.91 Q211.055 1141.79 202.34 1141.79 Q193.625 1141.79 189.007 1134.91 Q184.424 1128 184.424 1114.91 Q184.424 1101.79 189.007 1094.91 Q193.625 1088 202.34 1088 Z" fill="#000000" fill-rule="nonzero" fill-opacity="1" /><path clip-path="url(#clip020)" d="M220.257 1079.15 L256.424 1079.15 L256.424 1083.95 L220.257 1083.95 L220.257 1079.15 Z" fill="#000000" fill-rule="nonzero" fill-opacity="1" /><path clip-path="url(#clip020)" d="M268.781 1057.54 L291.153 1057.54 L291.153 1062.34 L274 1062.34 L274 1072.67 Q275.241 1072.24 276.483 1072.04 Q277.724 1071.82 278.965 1071.82 Q286.018 1071.82 290.137 1075.68 Q294.256 1079.55 294.256 1086.15 Q294.256 1092.95 290.024 1096.73 Q285.792 1100.48 278.091 1100.48 Q275.439 1100.48 272.674 1100.03 Q269.937 1099.58 267.003 1098.68 L267.003 1092.95 Q269.542 1094.33 272.251 1095.01 Q274.959 1095.69 277.978 1095.69 Q282.858 1095.69 285.708 1093.12 Q288.557 1090.55 288.557 1086.15 Q288.557 1081.75 285.708 1079.18 Q282.858 1076.61 277.978 1076.61 Q275.693 1076.61 273.407 1077.12 Q271.15 1077.63 268.781 1078.7 L268.781 1057.54 Z" fill="#000000" fill-rule="nonzero" fill-opacity="1" /><path clip-path="url(#clip020)" d="M141.902 1348.52 L153.36 1348.52 L153.36 1308.97 L140.895 1311.47 L140.895 1305.08 L153.291 1302.58 L160.305 1302.58 L160.305 1348.52 L171.763 1348.52 L171.763 1354.42 L141.902 1354.42 L141.902 1348.52 Z" fill="#000000" fill-rule="nonzero" fill-opacity="1" /><path clip-path="url(#clip020)" d="M200.93 1307.2 Q195.513 1307.2 192.77 1312.55 Q190.062 1317.86 190.062 1328.56 Q190.062 1339.22 192.77 1344.56 Q195.513 1349.88 200.93 1349.88 Q206.381 1349.88 209.089 1344.56 Q211.832 1339.22 211.832 1328.56 Q211.832 1317.86 209.089 1312.55 Q206.381 1307.2 200.93 1307.2 M200.93 1301.65 Q209.645 1301.65 214.228 1308.56 Q218.846 1315.43 218.846 1328.56 Q218.846 1341.65 214.228 1348.56 Q209.645 1355.43 200.93 1355.43 Q192.214 1355.43 187.596 1348.56 Q183.013 1341.65 183.013 1328.56 Q183.013 1315.43 187.596 1308.56 Q192.214 1301.65 200.93 1301.65 Z" fill="#000000" fill-rule="nonzero" fill-opacity="1" /><path clip-path="url(#clip020)" d="M218.846 1292.8 L255.013 1292.8 L255.013 1297.6 L218.846 1297.6 L218.846 1292.8 Z" fill="#000000" fill-rule="nonzero" fill-opacity="1" /><path clip-path="url(#clip020)" d="M280.206 1289.98 Q276.37 1289.98 274.113 1292.6 Q271.884 1295.23 271.884 1299.8 Q271.884 1304.34 274.113 1306.99 Q276.37 1309.61 280.206 1309.61 Q284.043 1309.61 286.272 1306.99 Q288.529 1304.34 288.529 1299.8 Q288.529 1295.23 286.272 1292.6 Q284.043 1289.98 280.206 1289.98 M291.519 1272.12 L291.519 1277.31 Q289.375 1276.3 287.175 1275.76 Q285.002 1275.22 282.858 1275.22 Q277.216 1275.22 274.226 1279.03 Q271.263 1282.84 270.84 1290.54 Q272.505 1288.09 275.015 1286.79 Q277.526 1285.46 280.545 1285.46 Q286.893 1285.46 290.56 1289.33 Q294.256 1293.17 294.256 1299.8 Q294.256 1306.28 290.419 1310.21 Q286.582 1314.13 280.206 1314.13 Q272.9 1314.13 269.035 1308.54 Q265.17 1302.93 265.17 1292.29 Q265.17 1282.3 269.909 1276.38 Q274.649 1270.43 282.633 1270.43 Q284.777 1270.43 286.949 1270.85 Q289.15 1271.27 291.519 1272.12 Z" fill="#000000" fill-rule="nonzero" fill-opacity="1" /><path clip-path="url(#clip020)" d="M11.8571 1088.86 L46.255 1101.54 L46.255 1076.13 L11.8571 1088.86 M2.64416 1094.14 L2.64416 1083.53 L71.7642 1057.19 L71.7642 1066.91 L54.0328 1073.21 L54.0328 1104.37 L71.7642 1110.66 L71.7642 1120.52 L2.64416 1094.14 Z" fill="#000000" fill-rule="nonzero" fill-opacity="1" /><path clip-path="url(#clip020)" d="M45.8847 1010.25 Q36.4866 1010.25 31.1625 1014.14 Q25.7922 1017.98 25.7922 1024.74 Q25.7922 1031.5 31.1625 1035.39 Q36.4866 1039.23 45.8847 1039.23 Q55.2828 1039.23 60.6531 1035.39 Q65.9772 1031.5 65.9772 1024.74 Q65.9772 1017.98 60.6531 1014.14 Q55.2828 1010.25 45.8847 1010.25 M27.7829 1039.23 Q23.1533 1036.54 20.9311 1032.47 Q18.6626 1028.35 18.6626 1022.65 Q18.6626 1013.21 26.1625 1007.33 Q33.6625 1001.4 45.8847 1001.4 Q58.1068 1001.4 65.6068 1007.33 Q73.1067 1013.21 73.1067 1022.65 Q73.1067 1028.35 70.8845 1032.47 Q68.616 1036.54 63.9864 1039.23 L71.7642 1039.23 L71.7642 1047.79 L-0.272494 1047.79 L-0.272494 1039.23 L27.7829 1039.23 Z" fill="#000000" fill-rule="nonzero" fill-opacity="1" /><path clip-path="url(#clip020)" d="M21.4404 954.229 L29.4959 954.229 Q27.644 957.84 26.7181 961.729 Q25.7922 965.618 25.7922 969.785 Q25.7922 976.127 27.7366 979.322 Q29.681 982.47 33.5699 982.47 Q36.5329 982.47 38.2458 980.201 Q39.9125 977.933 41.4402 971.081 L42.0884 968.164 Q44.0328 959.09 47.5976 955.294 Q51.1161 951.451 57.4587 951.451 Q64.6809 951.451 68.8938 957.192 Q73.1067 962.887 73.1067 972.886 Q73.1067 977.053 72.2734 981.59 Q71.4864 986.081 69.866 991.081 L61.0698 991.081 Q63.5235 986.359 64.7735 981.775 Q65.9772 977.192 65.9772 972.701 Q65.9772 966.683 63.9401 963.442 Q61.8568 960.201 58.1068 960.201 Q54.6346 960.201 52.7828 962.562 Q50.9309 964.877 49.218 972.794 L48.5235 975.757 Q46.8569 983.673 43.431 987.192 Q39.9588 990.71 33.9403 990.71 Q26.6255 990.71 22.6441 985.525 Q18.6626 980.34 18.6626 970.803 Q18.6626 966.081 19.357 961.914 Q20.0515 957.748 21.4404 954.229 Z" fill="#000000" fill-rule="nonzero" fill-opacity="1" /><path clip-path="url(#clip020)" d="M25.8848 917.794 Q25.8848 924.646 31.2551 928.627 Q36.5792 932.609 45.8847 932.609 Q55.1902 932.609 60.5605 928.674 Q65.8846 924.692 65.8846 917.794 Q65.8846 910.989 60.5142 907.007 Q55.1439 903.026 45.8847 903.026 Q36.6718 903.026 31.3014 907.007 Q25.8848 910.989 25.8848 917.794 M18.6626 917.794 Q18.6626 906.683 25.8848 900.341 Q33.107 893.998 45.8847 893.998 Q58.6161 893.998 65.8846 900.341 Q73.1067 906.683 73.1067 917.794 Q73.1067 928.952 65.8846 935.294 Q58.6161 941.59 45.8847 941.59 Q33.107 941.59 25.8848 935.294 Q18.6626 928.952 18.6626 917.794 Z" fill="#000000" fill-rule="nonzero" fill-opacity="1" /><path clip-path="url(#clip020)" d="M-0.272494 879.878 L-0.272494 871.359 L71.7642 871.359 L71.7642 879.878 L-0.272494 879.878 Z" fill="#000000" fill-rule="nonzero" fill-opacity="1" /><path clip-path="url(#clip020)" d="M51.3013 854.415 L19.9126 854.415 L19.9126 845.896 L50.9772 845.896 Q58.3383 845.896 62.042 843.026 Q65.6994 840.156 65.6994 834.415 Q65.6994 827.517 61.3013 823.535 Q56.9031 819.508 49.3106 819.508 L19.9126 819.508 L19.9126 810.989 L71.7642 810.989 L71.7642 819.508 L63.8012 819.508 Q68.5234 822.609 70.8382 826.73 Q73.1067 830.804 73.1067 836.221 Q73.1067 845.156 67.5512 849.785 Q61.9957 854.415 51.3013 854.415 M18.6626 832.98 L18.6626 832.98 Z" fill="#000000" fill-rule="nonzero" fill-opacity="1" /><path clip-path="url(#clip020)" d="M5.19044 785.017 L19.9126 785.017 L19.9126 767.471 L26.5329 767.471 L26.5329 785.017 L54.6809 785.017 Q61.0235 785.017 62.829 783.304 Q64.6346 781.545 64.6346 776.221 L64.6346 767.471 L71.7642 767.471 L71.7642 776.221 Q71.7642 786.082 68.1068 789.832 Q64.4031 793.582 54.6809 793.582 L26.5329 793.582 L26.5329 799.832 L19.9126 799.832 L19.9126 793.582 L5.19044 793.582 L5.19044 785.017 Z" fill="#000000" fill-rule="nonzero" fill-opacity="1" /><path clip-path="url(#clip020)" d="M43.7088 711.916 L47.8754 711.916 L47.8754 751.082 Q56.6716 750.527 61.3013 745.804 Q65.8846 741.036 65.8846 732.564 Q65.8846 727.656 64.6809 723.073 Q63.4772 718.443 61.0698 713.906 L69.1253 713.906 Q71.0697 718.49 72.0882 723.304 Q73.1067 728.119 73.1067 733.073 Q73.1067 745.48 65.8846 752.749 Q58.6624 759.971 46.3476 759.971 Q33.6162 759.971 26.1625 753.119 Q18.6626 746.221 18.6626 734.554 Q18.6626 724.092 25.4218 718.027 Q32.1347 711.916 43.7088 711.916 M41.2088 720.434 Q34.2181 720.527 30.0514 724.369 Q25.8848 728.166 25.8848 734.462 Q25.8848 741.591 29.9125 745.897 Q33.9403 750.156 41.2551 750.804 L41.2088 720.434 Z" fill="#000000" fill-rule="nonzero" fill-opacity="1" /><path clip-path="url(#clip020)" d="M43.7088 623.444 L47.8754 623.444 L47.8754 662.61 Q56.6716 662.055 61.3013 657.333 Q65.8846 652.564 65.8846 644.092 Q65.8846 639.185 64.6809 634.601 Q63.4772 629.972 61.0698 625.435 L69.1253 625.435 Q71.0697 630.018 72.0882 634.833 Q73.1067 639.648 73.1067 644.601 Q73.1067 657.009 65.8846 664.277 Q58.6624 671.499 46.3476 671.499 Q33.6162 671.499 26.1625 664.647 Q18.6626 657.749 18.6626 646.083 Q18.6626 635.62 25.4218 629.555 Q32.1347 623.444 43.7088 623.444 M41.2088 631.962 Q34.2181 632.055 30.0514 635.898 Q25.8848 639.694 25.8848 645.99 Q25.8848 653.12 29.9125 657.425 Q33.9403 661.684 41.2551 662.333 L41.2088 631.962 Z" fill="#000000" fill-rule="nonzero" fill-opacity="1" /><path clip-path="url(#clip020)" d="M27.8755 579.416 Q27.0422 580.852 26.6718 582.564 Q26.2551 584.231 26.2551 586.268 Q26.2551 593.49 30.9773 597.379 Q35.6532 601.222 44.4495 601.222 L71.7642 601.222 L71.7642 609.787 L19.9126 609.787 L19.9126 601.222 L27.9681 601.222 Q23.2459 598.537 20.9774 594.231 Q18.6626 589.926 18.6626 583.768 Q18.6626 582.889 18.8015 581.824 Q18.8941 580.759 19.1256 579.463 L27.8755 579.416 Z" fill="#000000" fill-rule="nonzero" fill-opacity="1" /><path clip-path="url(#clip020)" d="M27.8755 542.102 Q27.0422 543.537 26.6718 545.25 Q26.2551 546.917 26.2551 548.954 Q26.2551 556.176 30.9773 560.065 Q35.6532 563.907 44.4495 563.907 L71.7642 563.907 L71.7642 572.472 L19.9126 572.472 L19.9126 563.907 L27.9681 563.907 Q23.2459 561.222 20.9774 556.916 Q18.6626 552.611 18.6626 546.454 Q18.6626 545.574 18.8015 544.509 Q18.8941 543.444 19.1256 542.148 L27.8755 542.102 Z" fill="#000000" fill-rule="nonzero" fill-opacity="1" /><path clip-path="url(#clip020)" d="M25.8848 515.157 Q25.8848 522.009 31.2551 525.991 Q36.5792 529.972 45.8847 529.972 Q55.1902 529.972 60.5605 526.037 Q65.8846 522.056 65.8846 515.157 Q65.8846 508.352 60.5142 504.37 Q55.1439 500.389 45.8847 500.389 Q36.6718 500.389 31.3014 504.37 Q25.8848 508.352 25.8848 515.157 M18.6626 515.157 Q18.6626 504.046 25.8848 497.704 Q33.107 491.361 45.8847 491.361 Q58.6161 491.361 65.8846 497.704 Q73.1067 504.046 73.1067 515.157 Q73.1067 526.315 65.8846 532.657 Q58.6161 538.954 45.8847 538.954 Q33.107 538.954 25.8848 532.657 Q18.6626 526.315 18.6626 515.157 Z" fill="#000000" fill-rule="nonzero" fill-opacity="1" /><path clip-path="url(#clip020)" d="M27.8755 447.195 Q27.0422 448.63 26.6718 450.343 Q26.2551 452.01 26.2551 454.047 Q26.2551 461.269 30.9773 465.158 Q35.6532 469 44.4495 469 L71.7642 469 L71.7642 477.565 L19.9126 477.565 L19.9126 469 L27.9681 469 Q23.2459 466.315 20.9774 462.01 Q18.6626 457.704 18.6626 451.547 Q18.6626 450.667 18.8015 449.602 Q18.8941 448.537 19.1256 447.241 L27.8755 447.195 Z" fill="#000000" fill-rule="nonzero" fill-opacity="1" /><polyline clip-path="url(#clip022)" style="stroke:#009af9; stroke-linecap:round; stroke-linejoin:round; stroke-width:4; stroke-opacity:1; fill:none" points="421.798,261.674 569.099,230.513 716.4,210.555 863.701,195.829 1011,183.368 1158.3,171.702 1305.6,160.369 1452.9,149.47 1600.21,139.306 1747.51,130.133 1894.81,122.055 2042.11,115.068 2189.41,109.093 2336.71,104.036 2484.01,99.8131 2631.31,96.3382 2778.61,93.4785 2925.91,91.0672 3073.21,88.9393 "/>
<path clip-path="url(#clip022)" d="M421.798 285.674 L404.83 278.642 L397.798 261.674 L404.83 244.706 L421.798 237.674 L438.766 244.706 L445.798 261.674 L438.766 278.642 Z" fill="#009af9" fill-rule="evenodd" fill-opacity="1" stroke="#000000" stroke-opacity="1" stroke-width="4.8"/>
<path clip-path="url(#clip022)" d="M569.099 254.513 L552.131 247.481 L545.099 230.513 L552.131 213.545 L569.099 206.513 L586.067 213.545 L593.099 230.513 L586.067 247.481 Z" fill="#009af9" fill-rule="evenodd" fill-opacity="1" stroke="#000000" stroke-opacity="1" stroke-width="4.8"/>
<path clip-path="url(#clip022)" d="M716.4 234.555 L699.432 227.523 L692.4 210.555 L699.432 193.587 L716.4 186.555 L733.368 193.587 L740.4 210.555 L733.368 227.523 Z" fill="#009af9" fill-rule="evenodd" fill-opacity="1" stroke="#000000" stroke-opacity="1" stroke-width="4.8"/>
<path clip-path="url(#clip022)" d="M863.701 219.829 L846.733 212.797 L839.701 195.829 L846.733 178.861 L863.701 171.829 L880.669 178.861 L887.701 195.829 L880.669 212.797 Z" fill="#009af9" fill-rule="evenodd" fill-opacity="1" stroke="#000000" stroke-opacity="1" stroke-width="4.8"/>
<path clip-path="url(#clip022)" d="M1011 207.368 L994.034 200.336 L987.002 183.368 L994.034 166.4 L1011 159.368 L1027.97 166.4 L1035 183.368 L1027.97 200.336 Z" fill="#009af9" fill-rule="evenodd" fill-opacity="1" stroke="#000000" stroke-opacity="1" stroke-width="4.8"/>
<path clip-path="url(#clip022)" d="M1158.3 195.702 L1141.33 188.67 L1134.3 171.702 L1141.33 154.734 L1158.3 147.702 L1175.27 154.734 L1182.3 171.702 L1175.27 188.67 Z" fill="#009af9" fill-rule="evenodd" fill-opacity="1" stroke="#000000" stroke-opacity="1" stroke-width="4.8"/>
<path clip-path="url(#clip022)" d="M1305.6 184.369 L1288.64 177.337 L1281.6 160.369 L1288.64 143.401 L1305.6 136.369 L1322.57 143.401 L1329.6 160.369 L1322.57 177.337 Z" fill="#009af9" fill-rule="evenodd" fill-opacity="1" stroke="#000000" stroke-opacity="1" stroke-width="4.8"/>
<path clip-path="url(#clip022)" d="M1452.9 173.47 L1435.94 166.438 L1428.9 149.47 L1435.94 132.502 L1452.9 125.47 L1469.87 132.502 L1476.9 149.47 L1469.87 166.438 Z" fill="#009af9" fill-rule="evenodd" fill-opacity="1" stroke="#000000" stroke-opacity="1" stroke-width="4.8"/>
<path clip-path="url(#clip022)" d="M1600.21 163.306 L1583.24 156.274 L1576.21 139.306 L1583.24 122.338 L1600.21 115.306 L1617.17 122.338 L1624.21 139.306 L1617.17 156.274 Z" fill="#009af9" fill-rule="evenodd" fill-opacity="1" stroke="#000000" stroke-opacity="1" stroke-width="4.8"/>
<path clip-path="url(#clip022)" d="M1747.51 154.133 L1730.54 147.101 L1723.51 130.133 L1730.54 113.165 L1747.51 106.133 L1764.47 113.165 L1771.51 130.133 L1764.47 147.101 Z" fill="#009af9" fill-rule="evenodd" fill-opacity="1" stroke="#000000" stroke-opacity="1" stroke-width="4.8"/>
<path clip-path="url(#clip022)" d="M1894.81 146.055 L1877.84 139.023 L1870.81 122.055 L1877.84 105.087 L1894.81 98.0547 L1911.77 105.087 L1918.81 122.055 L1911.77 139.023 Z" fill="#009af9" fill-rule="evenodd" fill-opacity="1" stroke="#000000" stroke-opacity="1" stroke-width="4.8"/>
<path clip-path="url(#clip022)" d="M2042.11 139.068 L2025.14 132.036 L2018.11 115.068 L2025.14 98.0996 L2042.11 91.0676 L2059.08 98.0996 L2066.11 115.068 L2059.08 132.036 Z" fill="#009af9" fill-rule="evenodd" fill-opacity="1" stroke="#000000" stroke-opacity="1" stroke-width="4.8"/>
<path clip-path="url(#clip022)" d="M2189.41 133.093 L2172.44 126.061 L2165.41 109.093 L2172.44 92.1247 L2189.41 85.0927 L2206.38 92.1247 L2213.41 109.093 L2206.38 126.061 Z" fill="#009af9" fill-rule="evenodd" fill-opacity="1" stroke="#000000" stroke-opacity="1" stroke-width="4.8"/>
<path clip-path="url(#clip022)" d="M2336.71 128.036 L2319.74 121.004 L2312.71 104.036 L2319.74 87.0676 L2336.71 80.0356 L2353.68 87.0676 L2360.71 104.036 L2353.68 121.004 Z" fill="#009af9" fill-rule="evenodd" fill-opacity="1" stroke="#000000" stroke-opacity="1" stroke-width="4.8"/>
<path clip-path="url(#clip022)" d="M2484.01 123.813 L2467.04 116.781 L2460.01 99.8131 L2467.04 82.8451 L2484.01 75.8131 L2500.98 82.8451 L2508.01 99.8131 L2500.98 116.781 Z" fill="#009af9" fill-rule="evenodd" fill-opacity="1" stroke="#000000" stroke-opacity="1" stroke-width="4.8"/>
<path clip-path="url(#clip022)" d="M2631.31 120.338 L2614.34 113.306 L2607.31 96.3382 L2614.34 79.3702 L2631.31 72.3382 L2648.28 79.3702 L2655.31 96.3382 L2648.28 113.306 Z" fill="#009af9" fill-rule="evenodd" fill-opacity="1" stroke="#000000" stroke-opacity="1" stroke-width="4.8"/>
<path clip-path="url(#clip022)" d="M2778.61 117.478 L2761.64 110.446 L2754.61 93.4785 L2761.64 76.5105 L2778.61 69.4785 L2795.58 76.5105 L2802.61 93.4785 L2795.58 110.446 Z" fill="#009af9" fill-rule="evenodd" fill-opacity="1" stroke="#000000" stroke-opacity="1" stroke-width="4.8"/>
<path clip-path="url(#clip022)" d="M2925.91 115.067 L2908.94 108.035 L2901.91 91.0672 L2908.94 74.0992 L2925.91 67.0672 L2942.88 74.0992 L2949.91 91.0672 L2942.88 108.035 Z" fill="#009af9" fill-rule="evenodd" fill-opacity="1" stroke="#000000" stroke-opacity="1" stroke-width="4.8"/>
<path clip-path="url(#clip022)" d="M3073.21 112.939 L3056.25 105.907 L3049.21 88.9393 L3056.25 71.9713 L3073.21 64.9393 L3090.18 71.9713 L3097.21 88.9393 L3090.18 105.907 Z" fill="#009af9" fill-rule="evenodd" fill-opacity="1" stroke="#000000" stroke-opacity="1" stroke-width="4.8"/>
<polyline clip-path="url(#clip022)" style="stroke:#e26f46; stroke-linecap:round; stroke-linejoin:round; stroke-width:4; stroke-opacity:1; fill:none" points="421.798,1351.68 569.099,1162.57 716.4,982.082 863.701,859.257 1011,744.548 1158.3,664.905 1305.6,604.849 1452.9,560.441 1600.21,530.189 1747.51,513.118 1894.81,513.743 2042.11,542.213 2189.41,679.111 2336.71,548.327 2484.01,461.225 2631.31,413.617 2778.61,381.388 2925.91,357.048 3073.21,337.218 "/>
<path clip-path="url(#clip022)" d="M421.798 1375.68 L404.83 1368.65 L397.798 1351.68 L404.83 1334.71 L421.798 1327.68 L438.766 1334.71 L445.798 1351.68 L438.766 1368.65 Z" fill="#e26f46" fill-rule="evenodd" fill-opacity="1" stroke="#000000" stroke-opacity="1" stroke-width="4.8"/>
<path clip-path="url(#clip022)" d="M569.099 1186.57 L552.131 1179.54 L545.099 1162.57 L552.131 1145.6 L569.099 1138.57 L586.067 1145.6 L593.099 1162.57 L586.067 1179.54 Z" fill="#e26f46" fill-rule="evenodd" fill-opacity="1" stroke="#000000" stroke-opacity="1" stroke-width="4.8"/>
<path clip-path="url(#clip022)" d="M716.4 1006.08 L699.432 999.05 L692.4 982.082 L699.432 965.114 L716.4 958.082 L733.368 965.114 L740.4 982.082 L733.368 999.05 Z" fill="#e26f46" fill-rule="evenodd" fill-opacity="1" stroke="#000000" stroke-opacity="1" stroke-width="4.8"/>
<path clip-path="url(#clip022)" d="M863.701 883.257 L846.733 876.225 L839.701 859.257 L846.733 842.289 L863.701 835.257 L880.669 842.289 L887.701 859.257 L880.669 876.225 Z" fill="#e26f46" fill-rule="evenodd" fill-opacity="1" stroke="#000000" stroke-opacity="1" stroke-width="4.8"/>
<path clip-path="url(#clip022)" d="M1011 768.548 L994.034 761.516 L987.002 744.548 L994.034 727.58 L1011 720.548 L1027.97 727.58 L1035 744.548 L1027.97 761.516 Z" fill="#e26f46" fill-rule="evenodd" fill-opacity="1" stroke="#000000" stroke-opacity="1" stroke-width="4.8"/>
<path clip-path="url(#clip022)" d="M1158.3 688.905 L1141.33 681.873 L1134.3 664.905 L1141.33 647.937 L1158.3 640.905 L1175.27 647.937 L1182.3 664.905 L1175.27 681.873 Z" fill="#e26f46" fill-rule="evenodd" fill-opacity="1" stroke="#000000" stroke-opacity="1" stroke-width="4.8"/>
<path clip-path="url(#clip022)" d="M1305.6 628.849 L1288.64 621.817 L1281.6 604.849 L1288.64 587.881 L1305.6 580.849 L1322.57 587.881 L1329.6 604.849 L1322.57 621.817 Z" fill="#e26f46" fill-rule="evenodd" fill-opacity="1" stroke="#000000" stroke-opacity="1" stroke-width="4.8"/>
<path clip-path="url(#clip022)" d="M1452.9 584.441 L1435.94 577.409 L1428.9 560.441 L1435.94 543.473 L1452.9 536.441 L1469.87 543.473 L1476.9 560.441 L1469.87 577.409 Z" fill="#e26f46" fill-rule="evenodd" fill-opacity="1" stroke="#000000" stroke-opacity="1" stroke-width="4.8"/>
<path clip-path="url(#clip022)" d="M1600.21 554.189 L1583.24 547.157 L1576.21 530.189 L1583.24 513.221 L1600.21 506.189 L1617.17 513.221 L1624.21 530.189 L1617.17 547.157 Z" fill="#e26f46" fill-rule="evenodd" fill-opacity="1" stroke="#000000" stroke-opacity="1" stroke-width="4.8"/>
<path clip-path="url(#clip022)" d="M1747.51 537.118 L1730.54 530.086 L1723.51 513.118 L1730.54 496.15 L1747.51 489.118 L1764.47 496.15 L1771.51 513.118 L1764.47 530.086 Z" fill="#e26f46" fill-rule="evenodd" fill-opacity="1" stroke="#000000" stroke-opacity="1" stroke-width="4.8"/>
<path clip-path="url(#clip022)" d="M1894.81 537.743 L1877.84 530.711 L1870.81 513.743 L1877.84 496.775 L1894.81 489.743 L1911.77 496.775 L1918.81 513.743 L1911.77 530.711 Z" fill="#e26f46" fill-rule="evenodd" fill-opacity="1" stroke="#000000" stroke-opacity="1" stroke-width="4.8"/>
<path clip-path="url(#clip022)" d="M2042.11 566.213 L2025.14 559.181 L2018.11 542.213 L2025.14 525.245 L2042.11 518.213 L2059.08 525.245 L2066.11 542.213 L2059.08 559.181 Z" fill="#e26f46" fill-rule="evenodd" fill-opacity="1" stroke="#000000" stroke-opacity="1" stroke-width="4.8"/>
<path clip-path="url(#clip022)" d="M2189.41 703.111 L2172.44 696.079 L2165.41 679.111 L2172.44 662.143 L2189.41 655.111 L2206.38 662.143 L2213.41 679.111 L2206.38 696.079 Z" fill="#e26f46" fill-rule="evenodd" fill-opacity="1" stroke="#000000" stroke-opacity="1" stroke-width="4.8"/>
<path clip-path="url(#clip022)" d="M2336.71 572.327 L2319.74 565.295 L2312.71 548.327 L2319.74 531.359 L2336.71 524.327 L2353.68 531.359 L2360.71 548.327 L2353.68 565.295 Z" fill="#e26f46" fill-rule="evenodd" fill-opacity="1" stroke="#000000" stroke-opacity="1" stroke-width="4.8"/>
<path clip-path="url(#clip022)" d="M2484.01 485.225 L2467.04 478.193 L2460.01 461.225 L2467.04 444.257 L2484.01 437.225 L2500.98 444.257 L2508.01 461.225 L2500.98 478.193 Z" fill="#e26f46" fill-rule="evenodd" fill-opacity="1" stroke="#000000" stroke-opacity="1" stroke-width="4.8"/>
<path clip-path="url(#clip022)" d="M2631.31 437.617 L2614.34 430.585 L2607.31 413.617 L2614.34 396.649 L2631.31 389.617 L2648.28 396.649 L2655.31 413.617 L2648.28 430.585 Z" fill="#e26f46" fill-rule="evenodd" fill-opacity="1" stroke="#000000" stroke-opacity="1" stroke-width="4.8"/>
<path clip-path="url(#clip022)" d="M2778.61 405.388 L2761.64 398.356 L2754.61 381.388 L2761.64 364.42 L2778.61 357.388 L2795.58 364.42 L2802.61 381.388 L2795.58 398.356 Z" fill="#e26f46" fill-rule="evenodd" fill-opacity="1" stroke="#000000" stroke-opacity="1" stroke-width="4.8"/>
<path clip-path="url(#clip022)" d="M2925.91 381.048 L2908.94 374.016 L2901.91 357.048 L2908.94 340.08 L2925.91 333.048 L2942.88 340.08 L2949.91 357.048 L2942.88 374.016 Z" fill="#e26f46" fill-rule="evenodd" fill-opacity="1" stroke="#000000" stroke-opacity="1" stroke-width="4.8"/>
<path clip-path="url(#clip022)" d="M3073.21 361.218 L3056.25 354.186 L3049.21 337.218 L3056.25 320.25 L3073.21 313.218 L3090.18 320.25 L3097.21 337.218 L3090.18 354.186 Z" fill="#e26f46" fill-rule="evenodd" fill-opacity="1" stroke="#000000" stroke-opacity="1" stroke-width="4.8"/>
<polyline clip-path="url(#clip022)" style="stroke:#3da44d; stroke-linecap:round; stroke-linejoin:round; stroke-width:4; stroke-opacity:1; fill:none" points="421.798,894.471 569.099,816.306 716.4,767.406 863.701,739.021 1011,718.36 1158.3,706.196 1305.6,699.619 1452.9,700.228 1600.21,702.628 1747.51,708.513 1894.81,794.56 2042.11,741.253 2189.41,622.841 2336.71,558.403 2484.01,513.526 2631.31,483.058 2778.61,460.121 2925.91,441.342 3073.21,427.169 "/>
<path clip-path="url(#clip022)" d="M421.798 918.471 L404.83 911.439 L397.798 894.471 L404.83 877.503 L421.798 870.471 L438.766 877.503 L445.798 894.471 L438.766 911.439 Z" fill="#3da44d" fill-rule="evenodd" fill-opacity="1" stroke="#000000" stroke-opacity="1" stroke-width="4.8"/>
<path clip-path="url(#clip022)" d="M569.099 840.306 L552.131 833.274 L545.099 816.306 L552.131 799.338 L569.099 792.306 L586.067 799.338 L593.099 816.306 L586.067 833.274 Z" fill="#3da44d" fill-rule="evenodd" fill-opacity="1" stroke="#000000" stroke-opacity="1" stroke-width="4.8"/>
<path clip-path="url(#clip022)" d="M716.4 791.406 L699.432 784.374 L692.4 767.406 L699.432 750.438 L716.4 743.406 L733.368 750.438 L740.4 767.406 L733.368 784.374 Z" fill="#3da44d" fill-rule="evenodd" fill-opacity="1" stroke="#000000" stroke-opacity="1" stroke-width="4.8"/>
<path clip-path="url(#clip022)" d="M863.701 763.021 L846.733 755.989 L839.701 739.021 L846.733 722.053 L863.701 715.021 L880.669 722.053 L887.701 739.021 L880.669 755.989 Z" fill="#3da44d" fill-rule="evenodd" fill-opacity="1" stroke="#000000" stroke-opacity="1" stroke-width="4.8"/>
<path clip-path="url(#clip022)" d="M1011 742.36 L994.034 735.328 L987.002 718.36 L994.034 701.392 L1011 694.36 L1027.97 701.392 L1035 718.36 L1027.97 735.328 Z" fill="#3da44d" fill-rule="evenodd" fill-opacity="1" stroke="#000000" stroke-opacity="1" stroke-width="4.8"/>
<path clip-path="url(#clip022)" d="M1158.3 730.196 L1141.33 723.164 L1134.3 706.196 L1141.33 689.228 L1158.3 682.196 L1175.27 689.228 L1182.3 706.196 L1175.27 723.164 Z" fill="#3da44d" fill-rule="evenodd" fill-opacity="1" stroke="#000000" stroke-opacity="1" stroke-width="4.8"/>
<path clip-path="url(#clip022)" d="M1305.6 723.619 L1288.64 716.587 L1281.6 699.619 L1288.64 682.651 L1305.6 675.619 L1322.57 682.651 L1329.6 699.619 L1322.57 716.587 Z" fill="#3da44d" fill-rule="evenodd" fill-opacity="1" stroke="#000000" stroke-opacity="1" stroke-width="4.8"/>
<path clip-path="url(#clip022)" d="M1452.9 724.228 L1435.94 717.196 L1428.9 700.228 L1435.94 683.26 L1452.9 676.228 L1469.87 683.26 L1476.9 700.228 L1469.87 717.196 Z" fill="#3da44d" fill-rule="evenodd" fill-opacity="1" stroke="#000000" stroke-opacity="1" stroke-width="4.8"/>
<path clip-path="url(#clip022)" d="M1600.21 726.628 L1583.24 719.596 L1576.21 702.628 L1583.24 685.66 L1600.21 678.628 L1617.17 685.66 L1624.21 702.628 L1617.17 719.596 Z" fill="#3da44d" fill-rule="evenodd" fill-opacity="1" stroke="#000000" stroke-opacity="1" stroke-width="4.8"/>
<path clip-path="url(#clip022)" d="M1747.51 732.513 L1730.54 725.481 L1723.51 708.513 L1730.54 691.545 L1747.51 684.513 L1764.47 691.545 L1771.51 708.513 L1764.47 725.481 Z" fill="#3da44d" fill-rule="evenodd" fill-opacity="1" stroke="#000000" stroke-opacity="1" stroke-width="4.8"/>
<path clip-path="url(#clip022)" d="M1894.81 818.56 L1877.84 811.528 L1870.81 794.56 L1877.84 777.592 L1894.81 770.56 L1911.77 777.592 L1918.81 794.56 L1911.77 811.528 Z" fill="#3da44d" fill-rule="evenodd" fill-opacity="1" stroke="#000000" stroke-opacity="1" stroke-width="4.8"/>
<path clip-path="url(#clip022)" d="M2042.11 765.253 L2025.14 758.221 L2018.11 741.253 L2025.14 724.285 L2042.11 717.253 L2059.08 724.285 L2066.11 741.253 L2059.08 758.221 Z" fill="#3da44d" fill-rule="evenodd" fill-opacity="1" stroke="#000000" stroke-opacity="1" stroke-width="4.8"/>
<path clip-path="url(#clip022)" d="M2189.41 646.841 L2172.44 639.809 L2165.41 622.841 L2172.44 605.873 L2189.41 598.841 L2206.38 605.873 L2213.41 622.841 L2206.38 639.809 Z" fill="#3da44d" fill-rule="evenodd" fill-opacity="1" stroke="#000000" stroke-opacity="1" stroke-width="4.8"/>
<path clip-path="url(#clip022)" d="M2336.71 582.403 L2319.74 575.371 L2312.71 558.403 L2319.74 541.435 L2336.71 534.403 L2353.68 541.435 L2360.71 558.403 L2353.68 575.371 Z" fill="#3da44d" fill-rule="evenodd" fill-opacity="1" stroke="#000000" stroke-opacity="1" stroke-width="4.8"/>
<path clip-path="url(#clip022)" d="M2484.01 537.526 L2467.04 530.494 L2460.01 513.526 L2467.04 496.558 L2484.01 489.526 L2500.98 496.558 L2508.01 513.526 L2500.98 530.494 Z" fill="#3da44d" fill-rule="evenodd" fill-opacity="1" stroke="#000000" stroke-opacity="1" stroke-width="4.8"/>
<path clip-path="url(#clip022)" d="M2631.31 507.058 L2614.34 500.026 L2607.31 483.058 L2614.34 466.09 L2631.31 459.058 L2648.28 466.09 L2655.31 483.058 L2648.28 500.026 Z" fill="#3da44d" fill-rule="evenodd" fill-opacity="1" stroke="#000000" stroke-opacity="1" stroke-width="4.8"/>
<path clip-path="url(#clip022)" d="M2778.61 484.121 L2761.64 477.089 L2754.61 460.121 L2761.64 443.153 L2778.61 436.121 L2795.58 443.153 L2802.61 460.121 L2795.58 477.089 Z" fill="#3da44d" fill-rule="evenodd" fill-opacity="1" stroke="#000000" stroke-opacity="1" stroke-width="4.8"/>
<path clip-path="url(#clip022)" d="M2925.91 465.342 L2908.94 458.31 L2901.91 441.342 L2908.94 424.374 L2925.91 417.342 L2942.88 424.374 L2949.91 441.342 L2942.88 458.31 Z" fill="#3da44d" fill-rule="evenodd" fill-opacity="1" stroke="#000000" stroke-opacity="1" stroke-width="4.8"/>
<path clip-path="url(#clip022)" d="M3073.21 451.169 L3056.25 444.137 L3049.21 427.169 L3056.25 410.201 L3073.21 403.169 L3090.18 410.201 L3097.21 427.169 L3090.18 444.137 Z" fill="#3da44d" fill-rule="evenodd" fill-opacity="1" stroke="#000000" stroke-opacity="1" stroke-width="4.8"/>
<polyline clip-path="url(#clip022)" style="stroke:#c271d2; stroke-linecap:round; stroke-linejoin:round; stroke-width:4; stroke-opacity:1; fill:none" points="421.798,1238.73 569.099,995.955 716.4,1478.78 863.701,1051.84 1011,889.472 1158.3,1007.52 1305.6,836.41 1452.9,785.465 1600.21,882.156 1747.51,1042.14 1894.81,702.84 2042.11,631.054 2189.41,736.886 2336.71,619.379 2484.01,788.548 2631.31,845.357 2778.61,632.764 2925.91,462.129 3073.21,440.424 "/>
<path clip-path="url(#clip022)" d="M421.798 1262.73 L404.83 1255.7 L397.798 1238.73 L404.83 1221.76 L421.798 1214.73 L438.766 1221.76 L445.798 1238.73 L438.766 1255.7 Z" fill="#c271d2" fill-rule="evenodd" fill-opacity="1" stroke="#000000" stroke-opacity="1" stroke-width="4.8"/>
<path clip-path="url(#clip022)" d="M569.099 1019.95 L552.131 1012.92 L545.099 995.955 L552.131 978.987 L569.099 971.955 L586.067 978.987 L593.099 995.955 L586.067 1012.92 Z" fill="#c271d2" fill-rule="evenodd" fill-opacity="1" stroke="#000000" stroke-opacity="1" stroke-width="4.8"/>
<path clip-path="url(#clip022)" d="M716.4 1502.78 L699.432 1495.75 L692.4 1478.78 L699.432 1461.81 L716.4 1454.78 L733.368 1461.81 L740.4 1478.78 L733.368 1495.75 Z" fill="#c271d2" fill-rule="evenodd" fill-opacity="1" stroke="#000000" stroke-opacity="1" stroke-width="4.8"/>
<path clip-path="url(#clip022)" d="M863.701 1075.84 L846.733 1068.81 L839.701 1051.84 L846.733 1034.87 L863.701 1027.84 L880.669 1034.87 L887.701 1051.84 L880.669 1068.81 Z" fill="#c271d2" fill-rule="evenodd" fill-opacity="1" stroke="#000000" stroke-opacity="1" stroke-width="4.8"/>
<path clip-path="url(#clip022)" d="M1011 913.472 L994.034 906.44 L987.002 889.472 L994.034 872.504 L1011 865.472 L1027.97 872.504 L1035 889.472 L1027.97 906.44 Z" fill="#c271d2" fill-rule="evenodd" fill-opacity="1" stroke="#000000" stroke-opacity="1" stroke-width="4.8"/>
<path clip-path="url(#clip022)" d="M1158.3 1031.52 L1141.33 1024.49 L1134.3 1007.52 L1141.33 990.551 L1158.3 983.519 L1175.27 990.551 L1182.3 1007.52 L1175.27 1024.49 Z" fill="#c271d2" fill-rule="evenodd" fill-opacity="1" stroke="#000000" stroke-opacity="1" stroke-width="4.8"/>
<path clip-path="url(#clip022)" d="M1305.6 860.41 L1288.64 853.378 L1281.6 836.41 L1288.64 819.442 L1305.6 812.41 L1322.57 819.442 L1329.6 836.41 L1322.57 853.378 Z" fill="#c271d2" fill-rule="evenodd" fill-opacity="1" stroke="#000000" stroke-opacity="1" stroke-width="4.8"/>
<path clip-path="url(#clip022)" d="M1452.9 809.465 L1435.94 802.433 L1428.9 785.465 L1435.94 768.497 L1452.9 761.465 L1469.87 768.497 L1476.9 785.465 L1469.87 802.433 Z" fill="#c271d2" fill-rule="evenodd" fill-opacity="1" stroke="#000000" stroke-opacity="1" stroke-width="4.8"/>
<path clip-path="url(#clip022)" d="M1600.21 906.156 L1583.24 899.124 L1576.21 882.156 L1583.24 865.188 L1600.21 858.156 L1617.17 865.188 L1624.21 882.156 L1617.17 899.124 Z" fill="#c271d2" fill-rule="evenodd" fill-opacity="1" stroke="#000000" stroke-opacity="1" stroke-width="4.8"/>
<path clip-path="url(#clip022)" d="M1747.51 1066.14 L1730.54 1059.1 L1723.51 1042.14 L1730.54 1025.17 L1747.51 1018.14 L1764.47 1025.17 L1771.51 1042.14 L1764.47 1059.1 Z" fill="#c271d2" fill-rule="evenodd" fill-opacity="1" stroke="#000000" stroke-opacity="1" stroke-width="4.8"/>
<path clip-path="url(#clip022)" d="M1894.81 726.84 L1877.84 719.808 L1870.81 702.84 L1877.84 685.872 L1894.81 678.84 L1911.77 685.872 L1918.81 702.84 L1911.77 719.808 Z" fill="#c271d2" fill-rule="evenodd" fill-opacity="1" stroke="#000000" stroke-opacity="1" stroke-width="4.8"/>
<path clip-path="url(#clip022)" d="M2042.11 655.054 L2025.14 648.022 L2018.11 631.054 L2025.14 614.086 L2042.11 607.054 L2059.08 614.086 L2066.11 631.054 L2059.08 648.022 Z" fill="#c271d2" fill-rule="evenodd" fill-opacity="1" stroke="#000000" stroke-opacity="1" stroke-width="4.8"/>
<path clip-path="url(#clip022)" d="M2189.41 760.886 L2172.44 753.854 L2165.41 736.886 L2172.44 719.918 L2189.41 712.886 L2206.38 719.918 L2213.41 736.886 L2206.38 753.854 Z" fill="#c271d2" fill-rule="evenodd" fill-opacity="1" stroke="#000000" stroke-opacity="1" stroke-width="4.8"/>
<path clip-path="url(#clip022)" d="M2336.71 643.379 L2319.74 636.347 L2312.71 619.379 L2319.74 602.411 L2336.71 595.379 L2353.68 602.411 L2360.71 619.379 L2353.68 636.347 Z" fill="#c271d2" fill-rule="evenodd" fill-opacity="1" stroke="#000000" stroke-opacity="1" stroke-width="4.8"/>
<path clip-path="url(#clip022)" d="M2484.01 812.548 L2467.04 805.516 L2460.01 788.548 L2467.04 771.58 L2484.01 764.548 L2500.98 771.58 L2508.01 788.548 L2500.98 805.516 Z" fill="#c271d2" fill-rule="evenodd" fill-opacity="1" stroke="#000000" stroke-opacity="1" stroke-width="4.8"/>
<path clip-path="url(#clip022)" d="M2631.31 869.357 L2614.34 862.325 L2607.31 845.357 L2614.34 828.389 L2631.31 821.357 L2648.28 828.389 L2655.31 845.357 L2648.28 862.325 Z" fill="#c271d2" fill-rule="evenodd" fill-opacity="1" stroke="#000000" stroke-opacity="1" stroke-width="4.8"/>
<path clip-path="url(#clip022)" d="M2778.61 656.764 L2761.64 649.732 L2754.61 632.764 L2761.64 615.796 L2778.61 608.764 L2795.58 615.796 L2802.61 632.764 L2795.58 649.732 Z" fill="#c271d2" fill-rule="evenodd" fill-opacity="1" stroke="#000000" stroke-opacity="1" stroke-width="4.8"/>
<path clip-path="url(#clip022)" d="M2925.91 486.129 L2908.94 479.097 L2901.91 462.129 L2908.94 445.161 L2925.91 438.129 L2942.88 445.161 L2949.91 462.129 L2942.88 479.097 Z" fill="#c271d2" fill-rule="evenodd" fill-opacity="1" stroke="#000000" stroke-opacity="1" stroke-width="4.8"/>
<path clip-path="url(#clip022)" d="M3073.21 464.424 L3056.25 457.392 L3049.21 440.424 L3056.25 423.456 L3073.21 416.424 L3090.18 423.456 L3097.21 440.424 L3090.18 457.392 Z" fill="#c271d2" fill-rule="evenodd" fill-opacity="1" stroke="#000000" stroke-opacity="1" stroke-width="4.8"/>
<path clip-path="url(#clip020)" d="M1124.88 2161.18 L2370.13 2161.18 L2370.13 1772.38 L1124.88 1772.38  Z" fill="#ffffff" fill-rule="evenodd" fill-opacity="1"/>
<polyline clip-path="url(#clip020)" style="stroke:#000000; stroke-linecap:round; stroke-linejoin:round; stroke-width:4; stroke-opacity:1; fill:none" points="1124.88,2161.18 2370.13,2161.18 2370.13,1772.38 1124.88,1772.38 1124.88,2161.18 "/>
<polyline clip-path="url(#clip020)" style="stroke:#009af9; stroke-linecap:round; stroke-linejoin:round; stroke-width:6; stroke-opacity:1; fill:none" points="1156.11,1850.14 1343.48,1850.14 "/>
<path clip-path="url(#clip020)" d="M1249.79 1869.42 L1236.17 1863.77 L1230.52 1850.14 L1236.17 1836.51 L1249.79 1830.86 L1263.42 1836.51 L1269.07 1850.14 L1263.42 1863.77 Z" fill="#009af9" fill-rule="evenodd" fill-opacity="1" stroke="#000000" stroke-opacity="1" stroke-width="7.08923"/>
<path clip-path="url(#clip020)" d="M1394.81 1856.51 Q1387.07 1856.51 1384.08 1858.28 Q1381.09 1860.05 1381.09 1864.32 Q1381.09 1867.73 1383.32 1869.74 Q1385.57 1871.72 1389.43 1871.72 Q1394.74 1871.72 1397.93 1867.97 Q1401.16 1864.18 1401.16 1857.93 L1401.16 1856.51 L1394.81 1856.51 M1407.55 1853.87 L1407.55 1876.06 L1401.16 1876.06 L1401.16 1870.16 Q1398.98 1873.7 1395.71 1875.4 Q1392.45 1877.07 1387.73 1877.07 Q1381.75 1877.07 1378.21 1873.73 Q1374.7 1870.37 1374.7 1864.74 Q1374.7 1858.18 1379.08 1854.84 Q1383.49 1851.51 1392.2 1851.51 L1401.16 1851.51 L1401.16 1850.89 Q1401.16 1846.48 1398.25 1844.08 Q1395.36 1841.65 1390.12 1841.65 Q1386.79 1841.65 1383.63 1842.45 Q1380.47 1843.25 1377.55 1844.84 L1377.55 1838.94 Q1381.06 1837.59 1384.36 1836.93 Q1387.66 1836.23 1390.78 1836.23 Q1399.22 1836.23 1403.39 1840.61 Q1407.55 1844.98 1407.55 1853.87 Z" fill="#000000" fill-rule="nonzero" fill-opacity="1" /><path clip-path="url(#clip020)" d="M1448.63 1856.65 Q1448.63 1849.6 1445.71 1845.61 Q1442.83 1841.58 1437.76 1841.58 Q1432.69 1841.58 1429.77 1845.61 Q1426.89 1849.6 1426.89 1856.65 Q1426.89 1863.7 1429.77 1867.73 Q1432.69 1871.72 1437.76 1871.72 Q1442.83 1871.72 1445.71 1867.73 Q1448.63 1863.7 1448.63 1856.65 M1426.89 1843.07 Q1428.91 1839.6 1431.96 1837.94 Q1435.05 1836.23 1439.32 1836.23 Q1446.41 1836.23 1450.82 1841.86 Q1455.26 1847.48 1455.26 1856.65 Q1455.26 1865.82 1450.82 1871.44 Q1446.41 1877.07 1439.32 1877.07 Q1435.05 1877.07 1431.96 1875.4 Q1428.91 1873.7 1426.89 1870.23 L1426.89 1876.06 L1420.47 1876.06 L1420.47 1822.03 L1426.89 1822.03 L1426.89 1843.07 Z" fill="#000000" fill-rule="nonzero" fill-opacity="1" /><path clip-path="url(#clip020)" d="M1490.64 1838.32 L1490.64 1844.36 Q1487.93 1842.97 1485.02 1842.28 Q1482.1 1841.58 1478.98 1841.58 Q1474.22 1841.58 1471.82 1843.04 Q1469.46 1844.5 1469.46 1847.41 Q1469.46 1849.64 1471.16 1850.92 Q1472.86 1852.17 1478 1853.32 L1480.19 1853.8 Q1487 1855.26 1489.84 1857.93 Q1492.73 1860.57 1492.73 1865.33 Q1492.73 1870.75 1488.42 1873.91 Q1484.15 1877.07 1476.65 1877.07 Q1473.52 1877.07 1470.12 1876.44 Q1466.75 1875.85 1463 1874.64 L1463 1868.04 Q1466.54 1869.88 1469.98 1870.82 Q1473.42 1871.72 1476.79 1871.72 Q1481.3 1871.72 1483.73 1870.19 Q1486.16 1868.63 1486.16 1865.82 Q1486.16 1863.21 1484.39 1861.82 Q1482.66 1860.43 1476.72 1859.15 L1474.5 1858.63 Q1468.56 1857.38 1465.92 1854.81 Q1463.28 1852.21 1463.28 1847.69 Q1463.28 1842.21 1467.17 1839.22 Q1471.06 1836.23 1478.21 1836.23 Q1481.75 1836.23 1484.88 1836.75 Q1488 1837.28 1490.64 1838.32 Z" fill="#000000" fill-rule="nonzero" fill-opacity="1" /><path clip-path="url(#clip020)" d="M1503.8 1867.24 L1511.13 1867.24 L1511.13 1876.06 L1503.8 1876.06 L1503.8 1867.24 Z" fill="#000000" fill-rule="nonzero" fill-opacity="1" /><path clip-path="url(#clip020)" d="M1581.37 1855.02 L1581.37 1858.14 L1552 1858.14 Q1552.41 1864.74 1555.95 1868.21 Q1559.53 1871.65 1565.88 1871.65 Q1569.57 1871.65 1573 1870.75 Q1576.47 1869.84 1579.88 1868.04 L1579.88 1874.08 Q1576.44 1875.54 1572.83 1876.3 Q1569.22 1877.07 1565.5 1877.07 Q1556.2 1877.07 1550.75 1871.65 Q1545.33 1866.23 1545.33 1857 Q1545.33 1847.45 1550.47 1841.86 Q1555.64 1836.23 1564.39 1836.23 Q1572.24 1836.23 1576.79 1841.3 Q1581.37 1846.34 1581.37 1855.02 M1574.98 1853.14 Q1574.91 1847.9 1572.03 1844.78 Q1569.18 1841.65 1564.46 1841.65 Q1559.11 1841.65 1555.88 1844.67 Q1552.69 1847.69 1552.2 1853.18 L1574.98 1853.14 Z" fill="#000000" fill-rule="nonzero" fill-opacity="1" /><path clip-path="url(#clip020)" d="M1614.39 1843.14 Q1613.31 1842.52 1612.03 1842.24 Q1610.78 1841.93 1609.25 1841.93 Q1603.84 1841.93 1600.92 1845.47 Q1598.04 1848.98 1598.04 1855.57 L1598.04 1876.06 L1591.61 1876.06 L1591.61 1837.17 L1598.04 1837.17 L1598.04 1843.21 Q1600.05 1839.67 1603.28 1837.97 Q1606.51 1836.23 1611.13 1836.23 Q1611.79 1836.23 1612.59 1836.34 Q1613.38 1836.41 1614.36 1836.58 L1614.39 1843.14 Z" fill="#000000" fill-rule="nonzero" fill-opacity="1" /><path clip-path="url(#clip020)" d="M1642.38 1843.14 Q1641.3 1842.52 1640.02 1842.24 Q1638.77 1841.93 1637.24 1841.93 Q1631.82 1841.93 1628.91 1845.47 Q1626.02 1848.98 1626.02 1855.57 L1626.02 1876.06 L1619.6 1876.06 L1619.6 1837.17 L1626.02 1837.17 L1626.02 1843.21 Q1628.04 1839.67 1631.27 1837.97 Q1634.5 1836.23 1639.11 1836.23 Q1639.77 1836.23 1640.57 1836.34 Q1641.37 1836.41 1642.34 1836.58 L1642.38 1843.14 Z" fill="#000000" fill-rule="nonzero" fill-opacity="1" /><path clip-path="url(#clip020)" d="M1662.59 1841.65 Q1657.45 1841.65 1654.46 1845.68 Q1651.47 1849.67 1651.47 1856.65 Q1651.47 1863.63 1654.43 1867.66 Q1657.41 1871.65 1662.59 1871.65 Q1667.69 1871.65 1670.68 1867.62 Q1673.66 1863.59 1673.66 1856.65 Q1673.66 1849.74 1670.68 1845.71 Q1667.69 1841.65 1662.59 1841.65 M1662.59 1836.23 Q1670.92 1836.23 1675.68 1841.65 Q1680.43 1847.07 1680.43 1856.65 Q1680.43 1866.2 1675.68 1871.65 Q1670.92 1877.07 1662.59 1877.07 Q1654.22 1877.07 1649.46 1871.65 Q1644.74 1866.2 1644.74 1856.65 Q1644.74 1847.07 1649.46 1841.65 Q1654.22 1836.23 1662.59 1836.23 Z" fill="#000000" fill-rule="nonzero" fill-opacity="1" /><path clip-path="url(#clip020)" d="M1713.56 1843.14 Q1712.48 1842.52 1711.2 1842.24 Q1709.95 1841.93 1708.42 1841.93 Q1703 1841.93 1700.09 1845.47 Q1697.2 1848.98 1697.2 1855.57 L1697.2 1876.06 L1690.78 1876.06 L1690.78 1837.17 L1697.2 1837.17 L1697.2 1843.21 Q1699.22 1839.67 1702.45 1837.97 Q1705.68 1836.23 1710.29 1836.23 Q1710.95 1836.23 1711.75 1836.34 Q1712.55 1836.41 1713.52 1836.58 L1713.56 1843.14 Z" fill="#000000" fill-rule="nonzero" fill-opacity="1" /><path clip-path="url(#clip020)" d="M1770.78 1856.65 Q1770.78 1849.6 1767.86 1845.61 Q1764.98 1841.58 1759.91 1841.58 Q1754.84 1841.58 1751.93 1845.61 Q1749.04 1849.6 1749.04 1856.65 Q1749.04 1863.7 1751.93 1867.73 Q1754.84 1871.72 1759.91 1871.72 Q1764.98 1871.72 1767.86 1867.73 Q1770.78 1863.7 1770.78 1856.65 M1749.04 1843.07 Q1751.06 1839.6 1754.11 1837.94 Q1757.2 1836.23 1761.47 1836.23 Q1768.56 1836.23 1772.97 1841.86 Q1777.41 1847.48 1777.41 1856.65 Q1777.41 1865.82 1772.97 1871.44 Q1768.56 1877.07 1761.47 1877.07 Q1757.2 1877.07 1754.11 1875.4 Q1751.06 1873.7 1749.04 1870.23 L1749.04 1876.06 L1742.62 1876.06 L1742.62 1822.03 L1749.04 1822.03 L1749.04 1843.07 Z" fill="#000000" fill-rule="nonzero" fill-opacity="1" /><path clip-path="url(#clip020)" d="M1821.27 1855.02 L1821.27 1858.14 L1791.89 1858.14 Q1792.31 1864.74 1795.85 1868.21 Q1799.42 1871.65 1805.78 1871.65 Q1809.46 1871.65 1812.9 1870.75 Q1816.37 1869.84 1819.77 1868.04 L1819.77 1874.08 Q1816.33 1875.54 1812.72 1876.3 Q1809.11 1877.07 1805.4 1877.07 Q1796.09 1877.07 1790.64 1871.65 Q1785.22 1866.23 1785.22 1857 Q1785.22 1847.45 1790.36 1841.86 Q1795.54 1836.23 1804.29 1836.23 Q1812.13 1836.23 1816.68 1841.3 Q1821.27 1846.34 1821.27 1855.02 M1814.88 1853.14 Q1814.81 1847.9 1811.92 1844.78 Q1809.08 1841.65 1804.36 1841.65 Q1799.01 1841.65 1795.78 1844.67 Q1792.58 1847.69 1792.1 1853.18 L1814.88 1853.14 Z" fill="#000000" fill-rule="nonzero" fill-opacity="1" /><path clip-path="url(#clip020)" d="M1851.44 1822.03 L1851.44 1827.34 L1845.33 1827.34 Q1841.89 1827.34 1840.54 1828.73 Q1839.22 1830.12 1839.22 1833.73 L1839.22 1837.17 L1849.74 1837.17 L1849.74 1842.14 L1839.22 1842.14 L1839.22 1876.06 L1832.79 1876.06 L1832.79 1842.14 L1826.68 1842.14 L1826.68 1837.17 L1832.79 1837.17 L1832.79 1834.46 Q1832.79 1827.97 1835.81 1825.02 Q1838.83 1822.03 1845.4 1822.03 L1851.44 1822.03 Z" fill="#000000" fill-rule="nonzero" fill-opacity="1" /><path clip-path="url(#clip020)" d="M1871.86 1841.65 Q1866.72 1841.65 1863.73 1845.68 Q1860.74 1849.67 1860.74 1856.65 Q1860.74 1863.63 1863.7 1867.66 Q1866.68 1871.65 1871.86 1871.65 Q1876.96 1871.65 1879.95 1867.62 Q1882.93 1863.59 1882.93 1856.65 Q1882.93 1849.74 1879.95 1845.71 Q1876.96 1841.65 1871.86 1841.65 M1871.86 1836.23 Q1880.19 1836.23 1884.95 1841.65 Q1889.7 1847.07 1889.7 1856.65 Q1889.7 1866.2 1884.95 1871.65 Q1880.19 1877.07 1871.86 1877.07 Q1863.49 1877.07 1858.73 1871.65 Q1854.01 1866.2 1854.01 1856.65 Q1854.01 1847.07 1858.73 1841.65 Q1863.49 1836.23 1871.86 1836.23 Z" fill="#000000" fill-rule="nonzero" fill-opacity="1" /><path clip-path="url(#clip020)" d="M1922.83 1843.14 Q1921.75 1842.52 1920.47 1842.24 Q1919.22 1841.93 1917.69 1841.93 Q1912.27 1841.93 1909.35 1845.47 Q1906.47 1848.98 1906.47 1855.57 L1906.47 1876.06 L1900.05 1876.06 L1900.05 1837.17 L1906.47 1837.17 L1906.47 1843.21 Q1908.49 1839.67 1911.72 1837.97 Q1914.95 1836.23 1919.56 1836.23 Q1920.22 1836.23 1921.02 1836.34 Q1921.82 1836.41 1922.79 1836.58 L1922.83 1843.14 Z" fill="#000000" fill-rule="nonzero" fill-opacity="1" /><path clip-path="url(#clip020)" d="M1961.23 1855.02 L1961.23 1858.14 L1931.85 1858.14 Q1932.27 1864.74 1935.81 1868.21 Q1939.39 1871.65 1945.74 1871.65 Q1949.42 1871.65 1952.86 1870.75 Q1956.33 1869.84 1959.74 1868.04 L1959.74 1874.08 Q1956.3 1875.54 1952.69 1876.3 Q1949.08 1877.07 1945.36 1877.07 Q1936.06 1877.07 1930.6 1871.65 Q1925.19 1866.23 1925.19 1857 Q1925.19 1847.45 1930.33 1841.86 Q1935.5 1836.23 1944.25 1836.23 Q1952.1 1836.23 1956.65 1841.3 Q1961.23 1846.34 1961.23 1855.02 M1954.84 1853.14 Q1954.77 1847.9 1951.89 1844.78 Q1949.04 1841.65 1944.32 1841.65 Q1938.97 1841.65 1935.74 1844.67 Q1932.55 1847.69 1932.06 1853.18 L1954.84 1853.14 Z" fill="#000000" fill-rule="nonzero" fill-opacity="1" /><path clip-path="url(#clip020)" d="M2022.31 1838.66 L2022.31 1844.64 Q2019.6 1843.14 2016.85 1842.41 Q2014.15 1841.65 2011.37 1841.65 Q2005.15 1841.65 2001.72 1845.61 Q1998.28 1849.53 1998.28 1856.65 Q1998.28 1863.77 2001.72 1867.73 Q2005.15 1871.65 2011.37 1871.65 Q2014.15 1871.65 2016.85 1870.92 Q2019.6 1870.16 2022.31 1868.66 L2022.31 1874.57 Q2019.63 1875.82 2016.75 1876.44 Q2013.9 1877.07 2010.67 1877.07 Q2001.89 1877.07 1996.72 1871.55 Q1991.54 1866.03 1991.54 1856.65 Q1991.54 1847.14 1996.75 1841.69 Q2001.99 1836.23 2011.09 1836.23 Q2014.04 1836.23 2016.85 1836.86 Q2019.67 1837.45 2022.31 1838.66 Z" fill="#000000" fill-rule="nonzero" fill-opacity="1" /><path clip-path="url(#clip020)" d="M2048.49 1841.65 Q2043.35 1841.65 2040.36 1845.68 Q2037.38 1849.67 2037.38 1856.65 Q2037.38 1863.63 2040.33 1867.66 Q2043.31 1871.65 2048.49 1871.65 Q2053.59 1871.65 2056.58 1867.62 Q2059.56 1863.59 2059.56 1856.65 Q2059.56 1849.74 2056.58 1845.71 Q2053.59 1841.65 2048.49 1841.65 M2048.49 1836.23 Q2056.82 1836.23 2061.58 1841.65 Q2066.33 1847.07 2066.33 1856.65 Q2066.33 1866.2 2061.58 1871.65 Q2056.82 1877.07 2048.49 1877.07 Q2040.12 1877.07 2035.36 1871.65 Q2030.64 1866.2 2030.64 1856.65 Q2030.64 1847.07 2035.36 1841.65 Q2040.12 1836.23 2048.49 1836.23 Z" fill="#000000" fill-rule="nonzero" fill-opacity="1" /><path clip-path="url(#clip020)" d="M2099.46 1843.14 Q2098.38 1842.52 2097.1 1842.24 Q2095.85 1841.93 2094.32 1841.93 Q2088.9 1841.93 2085.99 1845.47 Q2083.1 1848.98 2083.1 1855.57 L2083.1 1876.06 L2076.68 1876.06 L2076.68 1837.17 L2083.1 1837.17 L2083.1 1843.21 Q2085.12 1839.67 2088.35 1837.97 Q2091.58 1836.23 2096.19 1836.23 Q2096.85 1836.23 2097.65 1836.34 Q2098.45 1836.41 2099.42 1836.58 L2099.46 1843.14 Z" fill="#000000" fill-rule="nonzero" fill-opacity="1" /><path clip-path="url(#clip020)" d="M2127.44 1843.14 Q2126.37 1842.52 2125.08 1842.24 Q2123.83 1841.93 2122.31 1841.93 Q2116.89 1841.93 2113.97 1845.47 Q2111.09 1848.98 2111.09 1855.57 L2111.09 1876.06 L2104.67 1876.06 L2104.67 1837.17 L2111.09 1837.17 L2111.09 1843.21 Q2113.1 1839.67 2116.33 1837.97 Q2119.56 1836.23 2124.18 1836.23 Q2124.84 1836.23 2125.64 1836.34 Q2126.44 1836.41 2127.41 1836.58 L2127.44 1843.14 Z" fill="#000000" fill-rule="nonzero" fill-opacity="1" /><path clip-path="url(#clip020)" d="M2165.85 1855.02 L2165.85 1858.14 L2136.47 1858.14 Q2136.89 1864.74 2140.43 1868.21 Q2144.01 1871.65 2150.36 1871.65 Q2154.04 1871.65 2157.48 1870.75 Q2160.95 1869.84 2164.35 1868.04 L2164.35 1874.08 Q2160.92 1875.54 2157.3 1876.3 Q2153.69 1877.07 2149.98 1877.07 Q2140.67 1877.07 2135.22 1871.65 Q2129.81 1866.23 2129.81 1857 Q2129.81 1847.45 2134.94 1841.86 Q2140.12 1836.23 2148.87 1836.23 Q2156.71 1836.23 2161.26 1841.3 Q2165.85 1846.34 2165.85 1855.02 M2159.46 1853.14 Q2159.39 1847.9 2156.51 1844.78 Q2153.66 1841.65 2148.94 1841.65 Q2143.59 1841.65 2140.36 1844.67 Q2137.17 1847.69 2136.68 1853.18 L2159.46 1853.14 Z" fill="#000000" fill-rule="nonzero" fill-opacity="1" /><path clip-path="url(#clip020)" d="M2204.32 1838.66 L2204.32 1844.64 Q2201.61 1843.14 2198.87 1842.41 Q2196.16 1841.65 2193.38 1841.65 Q2187.17 1841.65 2183.73 1845.61 Q2180.29 1849.53 2180.29 1856.65 Q2180.29 1863.77 2183.73 1867.73 Q2187.17 1871.65 2193.38 1871.65 Q2196.16 1871.65 2198.87 1870.92 Q2201.61 1870.16 2204.32 1868.66 L2204.32 1874.57 Q2201.65 1875.82 2198.76 1876.44 Q2195.92 1877.07 2192.69 1877.07 Q2183.9 1877.07 2178.73 1871.55 Q2173.55 1866.03 2173.55 1856.65 Q2173.55 1847.14 2178.76 1841.69 Q2184.01 1836.23 2193.1 1836.23 Q2196.05 1836.23 2198.87 1836.86 Q2201.68 1837.45 2204.32 1838.66 Z" fill="#000000" fill-rule="nonzero" fill-opacity="1" /><path clip-path="url(#clip020)" d="M2221.75 1826.13 L2221.75 1837.17 L2234.91 1837.17 L2234.91 1842.14 L2221.75 1842.14 L2221.75 1863.25 Q2221.75 1868 2223.03 1869.36 Q2224.35 1870.71 2228.35 1870.71 L2234.91 1870.71 L2234.91 1876.06 L2228.35 1876.06 Q2220.95 1876.06 2218.14 1873.32 Q2215.33 1870.54 2215.33 1863.25 L2215.33 1842.14 L2210.64 1842.14 L2210.64 1837.17 L2215.33 1837.17 L2215.33 1826.13 L2221.75 1826.13 Z" fill="#000000" fill-rule="nonzero" fill-opacity="1" /><path clip-path="url(#clip020)" d="M2243.31 1837.17 L2249.7 1837.17 L2249.7 1876.06 L2243.31 1876.06 L2243.31 1837.17 M2243.31 1822.03 L2249.7 1822.03 L2249.7 1830.12 L2243.31 1830.12 L2243.31 1822.03 Z" fill="#000000" fill-rule="nonzero" fill-opacity="1" /><path clip-path="url(#clip020)" d="M2278.14 1841.65 Q2273 1841.65 2270.01 1845.68 Q2267.03 1849.67 2267.03 1856.65 Q2267.03 1863.63 2269.98 1867.66 Q2272.96 1871.65 2278.14 1871.65 Q2283.24 1871.65 2286.23 1867.62 Q2289.21 1863.59 2289.21 1856.65 Q2289.21 1849.74 2286.23 1845.71 Q2283.24 1841.65 2278.14 1841.65 M2278.14 1836.23 Q2286.47 1836.23 2291.23 1841.65 Q2295.98 1847.07 2295.98 1856.65 Q2295.98 1866.2 2291.23 1871.65 Q2286.47 1877.07 2278.14 1877.07 Q2269.77 1877.07 2265.01 1871.65 Q2260.29 1866.2 2260.29 1856.65 Q2260.29 1847.07 2265.01 1841.65 Q2269.77 1836.23 2278.14 1836.23 Z" fill="#000000" fill-rule="nonzero" fill-opacity="1" /><path clip-path="url(#clip020)" d="M2338.9 1852.59 L2338.9 1876.06 L2332.51 1876.06 L2332.51 1852.8 Q2332.51 1847.28 2330.36 1844.53 Q2328.21 1841.79 2323.9 1841.79 Q2318.73 1841.79 2315.74 1845.09 Q2312.76 1848.39 2312.76 1854.08 L2312.76 1876.06 L2306.33 1876.06 L2306.33 1837.17 L2312.76 1837.17 L2312.76 1843.21 Q2315.05 1839.71 2318.14 1837.97 Q2321.26 1836.23 2325.32 1836.23 Q2332.03 1836.23 2335.46 1840.4 Q2338.9 1844.53 2338.9 1852.59 Z" fill="#000000" fill-rule="nonzero" fill-opacity="1" /><polyline clip-path="url(#clip020)" style="stroke:#e26f46; stroke-linecap:round; stroke-linejoin:round; stroke-width:6; stroke-opacity:1; fill:none" points="1156.11,1927.9 1343.48,1927.9 "/>
<path clip-path="url(#clip020)" d="M1249.79 1947.18 L1236.17 1941.53 L1230.52 1927.9 L1236.17 1914.27 L1249.79 1908.62 L1263.42 1914.27 L1269.07 1927.9 L1263.42 1941.53 Z" fill="#e26f46" fill-rule="evenodd" fill-opacity="1" stroke="#000000" stroke-opacity="1" stroke-width="7.08923"/>
<path clip-path="url(#clip020)" d="M1416.51 1905.97 L1416.51 1913.37 Q1412.97 1910.07 1408.94 1908.44 Q1404.95 1906.81 1400.43 1906.81 Q1391.55 1906.81 1386.82 1912.26 Q1382.1 1917.67 1382.1 1927.95 Q1382.1 1938.19 1386.82 1943.65 Q1391.55 1949.06 1400.43 1949.06 Q1404.95 1949.06 1408.94 1947.43 Q1412.97 1945.8 1416.51 1942.5 L1416.51 1949.83 Q1412.83 1952.33 1408.7 1953.58 Q1404.6 1954.83 1400.02 1954.83 Q1388.25 1954.83 1381.48 1947.64 Q1374.7 1940.42 1374.7 1927.95 Q1374.7 1915.45 1381.48 1908.26 Q1388.25 1901.04 1400.02 1901.04 Q1404.67 1901.04 1408.77 1902.29 Q1412.9 1903.51 1416.51 1905.97 Z" fill="#000000" fill-rule="nonzero" fill-opacity="1" /><path clip-path="url(#clip020)" d="M1434.36 1907.74 L1434.36 1948.06 L1442.83 1948.06 Q1453.56 1948.06 1458.52 1943.19 Q1463.52 1938.33 1463.52 1927.85 Q1463.52 1917.43 1458.52 1912.6 Q1453.56 1907.74 1442.83 1907.74 L1434.36 1907.74 M1427.34 1901.98 L1441.75 1901.98 Q1456.82 1901.98 1463.87 1908.26 Q1470.92 1914.51 1470.92 1927.85 Q1470.92 1941.25 1463.84 1947.54 Q1456.75 1953.82 1441.75 1953.82 L1427.34 1953.82 L1427.34 1901.98 Z" fill="#000000" fill-rule="nonzero" fill-opacity="1" /><path clip-path="url(#clip020)" d="M1506.68 1929.51 Q1508.94 1930.28 1511.06 1932.78 Q1513.21 1935.28 1515.36 1939.65 L1522.48 1953.82 L1514.95 1953.82 L1508.32 1940.52 Q1505.75 1935.31 1503.32 1933.61 Q1500.92 1931.91 1496.75 1931.91 L1489.11 1931.91 L1489.11 1953.82 L1482.1 1953.82 L1482.1 1901.98 L1497.93 1901.98 Q1506.82 1901.98 1511.2 1905.7 Q1515.57 1909.41 1515.57 1916.91 Q1515.57 1921.81 1513.28 1925.04 Q1511.02 1928.26 1506.68 1929.51 M1489.11 1907.74 L1489.11 1926.15 L1497.93 1926.15 Q1503 1926.15 1505.57 1923.82 Q1508.18 1921.46 1508.18 1916.91 Q1508.18 1912.36 1505.57 1910.07 Q1503 1907.74 1497.93 1907.74 L1489.11 1907.74 Z" fill="#000000" fill-rule="nonzero" fill-opacity="1" /><polyline clip-path="url(#clip020)" style="stroke:#3da44d; stroke-linecap:round; stroke-linejoin:round; stroke-width:6; stroke-opacity:1; fill:none" points="1156.11,2005.66 1343.48,2005.66 "/>
<path clip-path="url(#clip020)" d="M1249.79 2024.94 L1236.17 2019.29 L1230.52 2005.66 L1236.17 1992.03 L1249.79 1986.38 L1263.42 1992.03 L1269.07 2005.66 L1263.42 2019.29 Z" fill="#3da44d" fill-rule="evenodd" fill-opacity="1" stroke="#000000" stroke-opacity="1" stroke-width="7.08923"/>
<path clip-path="url(#clip020)" d="M1375.5 1979.74 L1416.23 1979.74 L1416.23 1985.09 L1383.45 2025.68 L1417.03 2025.68 L1417.03 2031.58 L1374.7 2031.58 L1374.7 2026.23 L1407.48 1985.64 L1375.5 1985.64 L1375.5 1979.74 Z" fill="#000000" fill-rule="nonzero" fill-opacity="1" /><path clip-path="url(#clip020)" d="M1427.2 1979.74 L1436.65 1979.74 L1459.64 2023.11 L1459.64 1979.74 L1466.44 1979.74 L1466.44 2031.58 L1457 2031.58 L1434.01 1988.21 L1434.01 2031.58 L1427.2 2031.58 L1427.2 1979.74 Z" fill="#000000" fill-rule="nonzero" fill-opacity="1" /><path clip-path="url(#clip020)" d="M1480.4 1979.74 L1513.18 1979.74 L1513.18 1985.64 L1487.41 1985.64 L1487.41 2000.99 L1512.1 2000.99 L1512.1 2006.89 L1487.41 2006.89 L1487.41 2025.68 L1513.8 2025.68 L1513.8 2031.58 L1480.4 2031.58 L1480.4 1979.74 Z" fill="#000000" fill-rule="nonzero" fill-opacity="1" /><path clip-path="url(#clip020)" d="M1575.64 1994.18 L1575.64 2000.16 Q1572.93 1998.66 1570.19 1997.93 Q1567.48 1997.17 1564.7 1997.17 Q1558.49 1997.17 1555.05 2001.13 Q1551.61 2005.05 1551.61 2012.17 Q1551.61 2019.29 1555.05 2023.25 Q1558.49 2027.17 1564.7 2027.17 Q1567.48 2027.17 1570.19 2026.44 Q1572.93 2025.68 1575.64 2024.18 L1575.64 2030.09 Q1572.97 2031.34 1570.09 2031.96 Q1567.24 2032.59 1564.01 2032.59 Q1555.22 2032.59 1550.05 2027.07 Q1544.88 2021.55 1544.88 2012.17 Q1544.88 2002.66 1550.09 1997.21 Q1555.33 1991.75 1564.43 1991.75 Q1567.38 1991.75 1570.19 1992.38 Q1573 1992.97 1575.64 1994.18 Z" fill="#000000" fill-rule="nonzero" fill-opacity="1" /><path clip-path="url(#clip020)" d="M1601.82 1997.17 Q1596.68 1997.17 1593.7 2001.2 Q1590.71 2005.19 1590.71 2012.17 Q1590.71 2019.15 1593.66 2023.18 Q1596.65 2027.17 1601.82 2027.17 Q1606.93 2027.17 1609.91 2023.14 Q1612.9 2019.11 1612.9 2012.17 Q1612.9 2005.26 1609.91 2001.23 Q1606.93 1997.17 1601.82 1997.17 M1601.82 1991.75 Q1610.16 1991.75 1614.91 1997.17 Q1619.67 2002.59 1619.67 2012.17 Q1619.67 2021.72 1614.91 2027.17 Q1610.16 2032.59 1601.82 2032.59 Q1593.45 2032.59 1588.7 2027.17 Q1583.97 2021.72 1583.97 2012.17 Q1583.97 2002.59 1588.7 1997.17 Q1593.45 1991.75 1601.82 1991.75 Z" fill="#000000" fill-rule="nonzero" fill-opacity="1" /><path clip-path="url(#clip020)" d="M1652.79 1998.66 Q1651.72 1998.04 1650.43 1997.76 Q1649.18 1997.45 1647.65 1997.45 Q1642.24 1997.45 1639.32 2000.99 Q1636.44 2004.5 1636.44 2011.09 L1636.44 2031.58 L1630.02 2031.58 L1630.02 1992.69 L1636.44 1992.69 L1636.44 1998.73 Q1638.45 1995.19 1641.68 1993.49 Q1644.91 1991.75 1649.53 1991.75 Q1650.19 1991.75 1650.99 1991.86 Q1651.79 1991.93 1652.76 1992.1 L1652.79 1998.66 Z" fill="#000000" fill-rule="nonzero" fill-opacity="1" /><path clip-path="url(#clip020)" d="M1680.78 1998.66 Q1679.7 1998.04 1678.42 1997.76 Q1677.17 1997.45 1675.64 1997.45 Q1670.22 1997.45 1667.31 2000.99 Q1664.43 2004.5 1664.43 2011.09 L1664.43 2031.58 L1658 2031.58 L1658 1992.69 L1664.43 1992.69 L1664.43 1998.73 Q1666.44 1995.19 1669.67 1993.49 Q1672.9 1991.75 1677.52 1991.75 Q1678.18 1991.75 1678.97 1991.86 Q1679.77 1991.93 1680.75 1992.1 L1680.78 1998.66 Z" fill="#000000" fill-rule="nonzero" fill-opacity="1" /><path clip-path="url(#clip020)" d="M1719.18 2010.54 L1719.18 2013.66 L1689.81 2013.66 Q1690.22 2020.26 1693.77 2023.73 Q1697.34 2027.17 1703.7 2027.17 Q1707.38 2027.17 1710.81 2026.27 Q1714.29 2025.36 1717.69 2023.56 L1717.69 2029.6 Q1714.25 2031.06 1710.64 2031.82 Q1707.03 2032.59 1703.31 2032.59 Q1694.01 2032.59 1688.56 2027.17 Q1683.14 2021.75 1683.14 2012.52 Q1683.14 2002.97 1688.28 1997.38 Q1693.45 1991.75 1702.2 1991.75 Q1710.05 1991.75 1714.6 1996.82 Q1719.18 2001.86 1719.18 2010.54 M1712.79 2008.66 Q1712.72 2003.42 1709.84 2000.3 Q1706.99 1997.17 1702.27 1997.17 Q1696.93 1997.17 1693.7 2000.19 Q1690.5 2003.21 1690.02 2008.7 L1712.79 2008.66 Z" fill="#000000" fill-rule="nonzero" fill-opacity="1" /><path clip-path="url(#clip020)" d="M1757.65 1994.18 L1757.65 2000.16 Q1754.95 1998.66 1752.2 1997.93 Q1749.49 1997.17 1746.72 1997.17 Q1740.5 1997.17 1737.06 2001.13 Q1733.63 2005.05 1733.63 2012.17 Q1733.63 2019.29 1737.06 2023.25 Q1740.5 2027.17 1746.72 2027.17 Q1749.49 2027.17 1752.2 2026.44 Q1754.95 2025.68 1757.65 2024.18 L1757.65 2030.09 Q1754.98 2031.34 1752.1 2031.96 Q1749.25 2032.59 1746.02 2032.59 Q1737.24 2032.59 1732.06 2027.07 Q1726.89 2021.55 1726.89 2012.17 Q1726.89 2002.66 1732.1 1997.21 Q1737.34 1991.75 1746.44 1991.75 Q1749.39 1991.75 1752.2 1992.38 Q1755.02 1992.97 1757.65 1994.18 Z" fill="#000000" fill-rule="nonzero" fill-opacity="1" /><path clip-path="url(#clip020)" d="M1775.08 1981.65 L1775.08 1992.69 L1788.24 1992.69 L1788.24 1997.66 L1775.08 1997.66 L1775.08 2018.77 Q1775.08 2023.52 1776.37 2024.88 Q1777.69 2026.23 1781.68 2026.23 L1788.24 2026.23 L1788.24 2031.58 L1781.68 2031.58 Q1774.29 2031.58 1771.47 2028.84 Q1768.66 2026.06 1768.66 2018.77 L1768.66 1997.66 L1763.97 1997.66 L1763.97 1992.69 L1768.66 1992.69 L1768.66 1981.65 L1775.08 1981.65 Z" fill="#000000" fill-rule="nonzero" fill-opacity="1" /><path clip-path="url(#clip020)" d="M1796.65 1992.69 L1803.04 1992.69 L1803.04 2031.58 L1796.65 2031.58 L1796.65 1992.69 M1796.65 1977.55 L1803.04 1977.55 L1803.04 1985.64 L1796.65 1985.64 L1796.65 1977.55 Z" fill="#000000" fill-rule="nonzero" fill-opacity="1" /><path clip-path="url(#clip020)" d="M1831.47 1997.17 Q1826.33 1997.17 1823.35 2001.2 Q1820.36 2005.19 1820.36 2012.17 Q1820.36 2019.15 1823.31 2023.18 Q1826.3 2027.17 1831.47 2027.17 Q1836.58 2027.17 1839.56 2023.14 Q1842.55 2019.11 1842.55 2012.17 Q1842.55 2005.26 1839.56 2001.23 Q1836.58 1997.17 1831.47 1997.17 M1831.47 1991.75 Q1839.81 1991.75 1844.56 1997.17 Q1849.32 2002.59 1849.32 2012.17 Q1849.32 2021.72 1844.56 2027.17 Q1839.81 2032.59 1831.47 2032.59 Q1823.11 2032.59 1818.35 2027.17 Q1813.63 2021.72 1813.63 2012.17 Q1813.63 2002.59 1818.35 1997.17 Q1823.11 1991.75 1831.47 1991.75 Z" fill="#000000" fill-rule="nonzero" fill-opacity="1" /><path clip-path="url(#clip020)" d="M1892.24 2008.11 L1892.24 2031.58 L1885.85 2031.58 L1885.85 2008.32 Q1885.85 2002.8 1883.7 2000.05 Q1881.54 1997.31 1877.24 1997.31 Q1872.06 1997.31 1869.08 2000.61 Q1866.09 2003.91 1866.09 2009.6 L1866.09 2031.58 L1859.67 2031.58 L1859.67 1992.69 L1866.09 1992.69 L1866.09 1998.73 Q1868.38 1995.23 1871.47 1993.49 Q1874.6 1991.75 1878.66 1991.75 Q1885.36 1991.75 1888.8 1995.92 Q1892.24 2000.05 1892.24 2008.11 Z" fill="#000000" fill-rule="nonzero" fill-opacity="1" /><polyline clip-path="url(#clip020)" style="stroke:#c271d2; stroke-linecap:round; stroke-linejoin:round; stroke-width:6; stroke-opacity:1; fill:none" points="1156.11,2083.42 1343.48,2083.42 "/>
<path clip-path="url(#clip020)" d="M1249.79 2102.7 L1236.17 2097.05 L1230.52 2083.42 L1236.17 2069.79 L1249.79 2064.14 L1263.42 2069.79 L1269.07 2083.42 L1263.42 2097.05 Z" fill="#c271d2" fill-rule="evenodd" fill-opacity="1" stroke="#000000" stroke-opacity="1" stroke-width="7.08923"/>
<path clip-path="url(#clip020)" d="M1374.7 2070.45 L1381.48 2070.45 L1393.63 2103.09 L1405.78 2070.45 L1412.55 2070.45 L1397.97 2109.34 L1389.29 2109.34 L1374.7 2070.45 Z" fill="#000000" fill-rule="nonzero" fill-opacity="1" /><path clip-path="url(#clip020)" d="M1453.7 2085.87 L1453.7 2109.34 L1447.31 2109.34 L1447.31 2086.08 Q1447.31 2080.56 1445.16 2077.81 Q1443 2075.07 1438.7 2075.07 Q1433.52 2075.07 1430.54 2078.37 Q1427.55 2081.67 1427.55 2087.36 L1427.55 2109.34 L1421.13 2109.34 L1421.13 2070.45 L1427.55 2070.45 L1427.55 2076.49 Q1429.84 2072.99 1432.93 2071.25 Q1436.06 2069.51 1440.12 2069.51 Q1446.82 2069.51 1450.26 2073.68 Q1453.7 2077.81 1453.7 2085.87 Z" fill="#000000" fill-rule="nonzero" fill-opacity="1" /><path clip-path="url(#clip020)" d="M1505.54 2061.49 L1505.54 2068.89 Q1502 2065.59 1497.97 2063.96 Q1493.98 2062.33 1489.46 2062.33 Q1480.57 2062.33 1475.85 2067.78 Q1471.13 2073.19 1471.13 2083.47 Q1471.13 2093.71 1475.85 2099.17 Q1480.57 2104.58 1489.46 2104.58 Q1493.98 2104.58 1497.97 2102.95 Q1502 2101.32 1505.54 2098.02 L1505.54 2105.35 Q1501.86 2107.85 1497.73 2109.1 Q1493.63 2110.35 1489.04 2110.35 Q1477.27 2110.35 1470.5 2103.16 Q1463.73 2095.94 1463.73 2083.47 Q1463.73 2070.97 1470.5 2063.78 Q1477.27 2056.56 1489.04 2056.56 Q1493.7 2056.56 1497.79 2057.81 Q1501.93 2059.03 1505.54 2061.49 Z" fill="#000000" fill-rule="nonzero" fill-opacity="1" /><path clip-path="url(#clip020)" d="M1523.38 2063.26 L1523.38 2103.58 L1531.86 2103.58 Q1542.59 2103.58 1547.55 2098.71 Q1552.55 2093.85 1552.55 2083.37 Q1552.55 2072.95 1547.55 2068.12 Q1542.59 2063.26 1531.86 2063.26 L1523.38 2063.26 M1516.37 2057.5 L1530.78 2057.5 Q1545.85 2057.5 1552.9 2063.78 Q1559.95 2070.03 1559.95 2083.37 Q1559.95 2096.77 1552.86 2103.06 Q1545.78 2109.34 1530.78 2109.34 L1516.37 2109.34 L1516.37 2057.5 Z" fill="#000000" fill-rule="nonzero" fill-opacity="1" /><path clip-path="url(#clip020)" d="M1595.71 2085.03 Q1597.97 2085.8 1600.09 2088.3 Q1602.24 2090.8 1604.39 2095.17 L1611.51 2109.34 L1603.97 2109.34 L1597.34 2096.04 Q1594.77 2090.83 1592.34 2089.13 Q1589.95 2087.43 1585.78 2087.43 L1578.14 2087.43 L1578.14 2109.34 L1571.13 2109.34 L1571.13 2057.5 L1586.96 2057.5 Q1595.85 2057.5 1600.22 2061.22 Q1604.6 2064.93 1604.6 2072.43 Q1604.6 2077.33 1602.31 2080.56 Q1600.05 2083.78 1595.71 2085.03 M1578.14 2063.26 L1578.14 2081.67 L1586.96 2081.67 Q1592.03 2081.67 1594.6 2079.34 Q1597.2 2076.98 1597.2 2072.43 Q1597.2 2067.88 1594.6 2065.59 Q1592.03 2063.26 1586.96 2063.26 L1578.14 2063.26 Z" fill="#000000" fill-rule="nonzero" fill-opacity="1" /><path clip-path="url(#clip020)" d="M1670.85 2071.94 L1670.85 2077.92 Q1668.14 2076.42 1665.4 2075.69 Q1662.69 2074.93 1659.91 2074.93 Q1653.7 2074.93 1650.26 2078.89 Q1646.82 2082.81 1646.82 2089.93 Q1646.82 2097.05 1650.26 2101.01 Q1653.7 2104.93 1659.91 2104.93 Q1662.69 2104.93 1665.4 2104.2 Q1668.14 2103.44 1670.85 2101.94 L1670.85 2107.85 Q1668.18 2109.1 1665.29 2109.72 Q1662.45 2110.35 1659.22 2110.35 Q1650.43 2110.35 1645.26 2104.83 Q1640.09 2099.31 1640.09 2089.93 Q1640.09 2080.42 1645.29 2074.97 Q1650.54 2069.51 1659.63 2069.51 Q1662.59 2069.51 1665.4 2070.14 Q1668.21 2070.73 1670.85 2071.94 Z" fill="#000000" fill-rule="nonzero" fill-opacity="1" /><path clip-path="url(#clip020)" d="M1697.03 2074.93 Q1691.89 2074.93 1688.9 2078.96 Q1685.92 2082.95 1685.92 2089.93 Q1685.92 2096.91 1688.87 2100.94 Q1691.86 2104.93 1697.03 2104.93 Q1702.13 2104.93 1705.12 2100.9 Q1708.11 2096.87 1708.11 2089.93 Q1708.11 2083.02 1705.12 2078.99 Q1702.13 2074.93 1697.03 2074.93 M1697.03 2069.51 Q1705.36 2069.51 1710.12 2074.93 Q1714.88 2080.35 1714.88 2089.93 Q1714.88 2099.48 1710.12 2104.93 Q1705.36 2110.35 1697.03 2110.35 Q1688.66 2110.35 1683.9 2104.93 Q1679.18 2099.48 1679.18 2089.93 Q1679.18 2080.35 1683.9 2074.93 Q1688.66 2069.51 1697.03 2069.51 Z" fill="#000000" fill-rule="nonzero" fill-opacity="1" /><path clip-path="url(#clip020)" d="M1748 2076.42 Q1746.93 2075.8 1745.64 2075.52 Q1744.39 2075.21 1742.86 2075.21 Q1737.45 2075.21 1734.53 2078.75 Q1731.65 2082.26 1731.65 2088.85 L1731.65 2109.34 L1725.22 2109.34 L1725.22 2070.45 L1731.65 2070.45 L1731.65 2076.49 Q1733.66 2072.95 1736.89 2071.25 Q1740.12 2069.51 1744.74 2069.51 Q1745.4 2069.51 1746.2 2069.62 Q1746.99 2069.69 1747.97 2069.86 L1748 2076.42 Z" fill="#000000" fill-rule="nonzero" fill-opacity="1" /><path clip-path="url(#clip020)" d="M1775.99 2076.42 Q1774.91 2075.8 1773.63 2075.52 Q1772.38 2075.21 1770.85 2075.21 Q1765.43 2075.21 1762.52 2078.75 Q1759.63 2082.26 1759.63 2088.85 L1759.63 2109.34 L1753.21 2109.34 L1753.21 2070.45 L1759.63 2070.45 L1759.63 2076.49 Q1761.65 2072.95 1764.88 2071.25 Q1768.11 2069.51 1772.72 2069.51 Q1773.38 2069.51 1774.18 2069.62 Q1774.98 2069.69 1775.95 2069.86 L1775.99 2076.42 Z" fill="#000000" fill-rule="nonzero" fill-opacity="1" /><path clip-path="url(#clip020)" d="M1814.39 2088.3 L1814.39 2091.42 L1785.02 2091.42 Q1785.43 2098.02 1788.97 2101.49 Q1792.55 2104.93 1798.9 2104.93 Q1802.58 2104.93 1806.02 2104.03 Q1809.49 2103.12 1812.9 2101.32 L1812.9 2107.36 Q1809.46 2108.82 1805.85 2109.58 Q1802.24 2110.35 1798.52 2110.35 Q1789.22 2110.35 1783.77 2104.93 Q1778.35 2099.51 1778.35 2090.28 Q1778.35 2080.73 1783.49 2075.14 Q1788.66 2069.51 1797.41 2069.51 Q1805.26 2069.51 1809.81 2074.58 Q1814.39 2079.62 1814.39 2088.3 M1808 2086.42 Q1807.93 2081.18 1805.05 2078.06 Q1802.2 2074.93 1797.48 2074.93 Q1792.13 2074.93 1788.9 2077.95 Q1785.71 2080.97 1785.22 2086.46 L1808 2086.42 Z" fill="#000000" fill-rule="nonzero" fill-opacity="1" /><path clip-path="url(#clip020)" d="M1852.86 2071.94 L1852.86 2077.92 Q1850.15 2076.42 1847.41 2075.69 Q1844.7 2074.93 1841.92 2074.93 Q1835.71 2074.93 1832.27 2078.89 Q1828.83 2082.81 1828.83 2089.93 Q1828.83 2097.05 1832.27 2101.01 Q1835.71 2104.93 1841.92 2104.93 Q1844.7 2104.93 1847.41 2104.2 Q1850.15 2103.44 1852.86 2101.94 L1852.86 2107.85 Q1850.19 2109.1 1847.31 2109.72 Q1844.46 2110.35 1841.23 2110.35 Q1832.45 2110.35 1827.27 2104.83 Q1822.1 2099.31 1822.1 2089.93 Q1822.1 2080.42 1827.31 2074.97 Q1832.55 2069.51 1841.65 2069.51 Q1844.6 2069.51 1847.41 2070.14 Q1850.22 2070.73 1852.86 2071.94 Z" fill="#000000" fill-rule="nonzero" fill-opacity="1" /><path clip-path="url(#clip020)" d="M1870.29 2059.41 L1870.29 2070.45 L1883.45 2070.45 L1883.45 2075.42 L1870.29 2075.42 L1870.29 2096.53 Q1870.29 2101.28 1871.58 2102.64 Q1872.9 2103.99 1876.89 2103.99 L1883.45 2103.99 L1883.45 2109.34 L1876.89 2109.34 Q1869.49 2109.34 1866.68 2106.6 Q1863.87 2103.82 1863.87 2096.53 L1863.87 2075.42 L1859.18 2075.42 L1859.18 2070.45 L1863.87 2070.45 L1863.87 2059.41 L1870.29 2059.41 Z" fill="#000000" fill-rule="nonzero" fill-opacity="1" /><path clip-path="url(#clip020)" d="M1891.85 2070.45 L1898.24 2070.45 L1898.24 2109.34 L1891.85 2109.34 L1891.85 2070.45 M1891.85 2055.31 L1898.24 2055.31 L1898.24 2063.4 L1891.85 2063.4 L1891.85 2055.31 Z" fill="#000000" fill-rule="nonzero" fill-opacity="1" /><path clip-path="url(#clip020)" d="M1926.68 2074.93 Q1921.54 2074.93 1918.56 2078.96 Q1915.57 2082.95 1915.57 2089.93 Q1915.57 2096.91 1918.52 2100.94 Q1921.51 2104.93 1926.68 2104.93 Q1931.79 2104.93 1934.77 2100.9 Q1937.76 2096.87 1937.76 2089.93 Q1937.76 2083.02 1934.77 2078.99 Q1931.79 2074.93 1926.68 2074.93 M1926.68 2069.51 Q1935.01 2069.51 1939.77 2074.93 Q1944.53 2080.35 1944.53 2089.93 Q1944.53 2099.48 1939.77 2104.93 Q1935.01 2110.35 1926.68 2110.35 Q1918.31 2110.35 1913.56 2104.93 Q1908.83 2099.48 1908.83 2089.93 Q1908.83 2080.35 1913.56 2074.93 Q1918.31 2069.51 1926.68 2069.51 Z" fill="#000000" fill-rule="nonzero" fill-opacity="1" /><path clip-path="url(#clip020)" d="M1987.44 2085.87 L1987.44 2109.34 L1981.06 2109.34 L1981.06 2086.08 Q1981.06 2080.56 1978.9 2077.81 Q1976.75 2075.07 1972.44 2075.07 Q1967.27 2075.07 1964.29 2078.37 Q1961.3 2081.67 1961.3 2087.36 L1961.3 2109.34 L1954.88 2109.34 L1954.88 2070.45 L1961.3 2070.45 L1961.3 2076.49 Q1963.59 2072.99 1966.68 2071.25 Q1969.81 2069.51 1973.87 2069.51 Q1980.57 2069.51 1984.01 2073.68 Q1987.44 2077.81 1987.44 2085.87 Z" fill="#000000" fill-rule="nonzero" fill-opacity="1" /></svg>
