<?xml version="1.0" encoding="UTF-8" standalone="no"?>
<!DOCTYPE svg PUBLIC "-//W3C//DTD SVG 1.1//EN"
 "http://www.w3.org/Graphics/SVG/1.1/DTD/svg11.dtd">
<!-- Generated by graphviz version 2.43.0 (0)
 -->
<!-- Title: G Pages: 1 -->
<svg width="383pt" height="723pt"
 viewBox="0.00 0.00 382.98 722.58" xmlns="http://www.w3.org/2000/svg" xmlns:xlink="http://www.w3.org/1999/xlink">
<g id="graph0" class="graph" transform="scale(1 1) rotate(0) translate(4 718.58)">
<title>G</title>
<polygon fill="white" stroke="transparent" points="-4,4 -4,-718.58 378.98,-718.58 378.98,4 -4,4"/>
<text text-anchor="middle" x="187.49" y="-7.8" font-family="Times,serif" font-size="14.00">Pauli Propagation Graph</text>
<!-- 1 -->
<g id="node1" class="node">
<title>1</title>
<ellipse fill="none" stroke="black" cx="70.99" cy="-607.54" rx="27" ry="24.08"/>
<text text-anchor="middle" x="70.99" y="-610.94" font-family="Arial" font-size="12.00">X</text>
<text text-anchor="middle" x="70.99" y="-597.94" font-family="Arial" font-size="12.00">(Z)</text>
</g>
<!-- 12 -->
<g id="node12" class="node">
<title>12</title>
<ellipse fill="none" stroke="black" cx="117.99" cy="-512.46" rx="28.98" ry="24.08"/>
<text text-anchor="middle" x="117.99" y="-515.86" font-family="Arial" font-size="12.00">X</text>
<text text-anchor="middle" x="117.99" y="-502.86" font-family="Arial" font-size="12.00">(RZ)</text>
</g>
<!-- 1&#45;&gt;12 -->
<g id="edge6" class="edge">
<title>1&#45;&gt;12</title>
<path fill="none" stroke="black" d="M81.66,-585.42C87.86,-573.13 95.79,-557.43 102.66,-543.83"/>
<polygon fill="black" stroke="black" points="105.82,-545.32 107.21,-534.82 99.57,-542.17 105.82,-545.32"/>
<text text-anchor="middle" x="108.49" y="-557.5" font-family="Arial" font-size="10.00">0.866</text>
</g>
<!-- 13 -->
<g id="node13" class="node">
<title>13</title>
<ellipse fill="none" stroke="black" cx="41.99" cy="-512.46" rx="28.98" ry="24.08"/>
<text text-anchor="middle" x="41.99" y="-515.86" font-family="Arial" font-size="12.00">Y</text>
<text text-anchor="middle" x="41.99" y="-502.86" font-family="Arial" font-size="12.00">(RZ)</text>
</g>
<!-- 1&#45;&gt;13 -->
<g id="edge9" class="edge">
<title>1&#45;&gt;13</title>
<path fill="none" stroke="black" d="M63.97,-584.01C60.4,-572.55 56,-558.41 52.07,-545.8"/>
<polygon fill="black" stroke="black" points="55.36,-544.61 49.05,-536.11 48.68,-546.69 55.36,-544.61"/>
<text text-anchor="middle" x="66.49" y="-557.5" font-family="Arial" font-size="10.00">&#45;0.5</text>
</g>
<!-- 2 -->
<g id="node2" class="node">
<title>2</title>
<ellipse fill="none" stroke="black" cx="70.99" cy="-696.58" rx="27" ry="18"/>
<text text-anchor="middle" x="70.99" y="-693.48" font-family="Arial" font-size="12.00">X</text>
</g>
<!-- 2&#45;&gt;1 -->
<g id="edge8" class="edge">
<title>2&#45;&gt;1</title>
<path fill="none" stroke="black" d="M70.99,-678.39C70.99,-667.94 70.99,-654.24 70.99,-641.75"/>
<polygon fill="black" stroke="black" points="74.49,-641.64 70.99,-631.64 67.49,-641.64 74.49,-641.64"/>
<text text-anchor="middle" x="79.49" y="-652.58" font-family="Arial" font-size="10.00">&#45;1.0</text>
</g>
<!-- 3 -->
<g id="node3" class="node">
<title>3</title>
<ellipse fill="none" stroke="black" cx="60.99" cy="-142.12" rx="48.17" ry="24.08"/>
<text text-anchor="middle" x="60.99" y="-145.52" font-family="Arial" font-size="12.00">Z</text>
<text text-anchor="middle" x="60.99" y="-132.52" font-family="Arial" font-size="12.00">(MERGE)</text>
</g>
<!-- 15 -->
<g id="node15" class="node">
<title>15</title>
<ellipse fill="none" stroke="black" cx="60.99" cy="-47.04" rx="27" ry="24.08"/>
<text text-anchor="middle" x="60.99" y="-50.44" font-family="Arial" font-size="12.00">Z</text>
<text text-anchor="middle" x="60.99" y="-37.44" font-family="Arial" font-size="12.00">(X)</text>
</g>
<!-- 3&#45;&gt;15 -->
<g id="edge10" class="edge">
<title>3&#45;&gt;15</title>
<path fill="none" stroke="black" d="M60.99,-117.64C60.99,-106.64 60.99,-93.34 60.99,-81.33"/>
<polygon fill="black" stroke="black" points="64.49,-81.2 60.99,-71.2 57.49,-81.2 64.49,-81.2"/>
<text text-anchor="middle" x="69.49" y="-92.08" font-family="Arial" font-size="10.00">&#45;1.0</text>
</g>
<!-- 4 -->
<g id="node4" class="node">
<title>4</title>
<ellipse fill="none" stroke="black" cx="345.99" cy="-696.58" rx="27" ry="18"/>
<text text-anchor="middle" x="345.99" y="-693.48" font-family="Arial" font-size="12.00">Z</text>
</g>
<!-- 24 -->
<g id="node24" class="node">
<title>24</title>
<ellipse fill="none" stroke="black" cx="345.99" cy="-607.54" rx="27" ry="24.08"/>
<text text-anchor="middle" x="345.99" y="-610.94" font-family="Arial" font-size="12.00">Z</text>
<text text-anchor="middle" x="345.99" y="-597.94" font-family="Arial" font-size="12.00">(Z)</text>
</g>
<!-- 4&#45;&gt;24 -->
<g id="edge16" class="edge">
<title>4&#45;&gt;24</title>
<path fill="none" stroke="black" d="M345.99,-678.39C345.99,-667.94 345.99,-654.24 345.99,-641.75"/>
<polygon fill="black" stroke="black" points="349.49,-641.64 345.99,-631.64 342.49,-641.64 349.49,-641.64"/>
<text text-anchor="middle" x="352.99" y="-652.58" font-family="Arial" font-size="10.00">1.0</text>
</g>
<!-- 5 -->
<g id="node5" class="node">
<title>5</title>
<ellipse fill="none" stroke="black" cx="227.99" cy="-607.54" rx="27" ry="24.08"/>
<text text-anchor="middle" x="227.99" y="-610.94" font-family="Arial" font-size="12.00">Y</text>
<text text-anchor="middle" x="227.99" y="-597.94" font-family="Arial" font-size="12.00">(Z)</text>
</g>
<!-- 11 -->
<g id="node11" class="node">
<title>11</title>
<ellipse fill="none" stroke="black" cx="269.99" cy="-512.46" rx="28.98" ry="24.08"/>
<text text-anchor="middle" x="269.99" y="-515.86" font-family="Arial" font-size="12.00">X</text>
<text text-anchor="middle" x="269.99" y="-502.86" font-family="Arial" font-size="12.00">(RZ)</text>
</g>
<!-- 5&#45;&gt;11 -->
<g id="edge17" class="edge">
<title>5&#45;&gt;11</title>
<path fill="none" stroke="black" d="M237.73,-584.95C243.15,-572.94 250,-557.77 255.98,-544.51"/>
<polygon fill="black" stroke="black" points="259.23,-545.81 260.16,-535.25 252.85,-542.93 259.23,-545.81"/>
<text text-anchor="middle" x="257.99" y="-557.5" font-family="Arial" font-size="10.00">0.5</text>
</g>
<!-- 23 -->
<g id="node23" class="node">
<title>23</title>
<ellipse fill="none" stroke="black" cx="193.99" cy="-512.46" rx="28.98" ry="24.08"/>
<text text-anchor="middle" x="193.99" y="-515.86" font-family="Arial" font-size="12.00">Y</text>
<text text-anchor="middle" x="193.99" y="-502.86" font-family="Arial" font-size="12.00">(RZ)</text>
</g>
<!-- 5&#45;&gt;23 -->
<g id="edge3" class="edge">
<title>5&#45;&gt;23</title>
<path fill="none" stroke="black" d="M217.3,-585.08C214.41,-578.85 211.41,-571.97 208.99,-565.5 206.68,-559.31 204.51,-552.61 202.58,-546.13"/>
<polygon fill="black" stroke="black" points="205.87,-544.89 199.75,-536.25 199.14,-546.82 205.87,-544.89"/>
<text text-anchor="middle" x="221.49" y="-557.5" font-family="Arial" font-size="10.00">0.866</text>
</g>
<!-- 6 -->
<g id="node6" class="node">
<title>6</title>
<ellipse fill="none" stroke="black" cx="104.99" cy="-227.21" rx="28.98" ry="24.08"/>
<text text-anchor="middle" x="104.99" y="-230.61" font-family="Arial" font-size="12.00">Y</text>
<text text-anchor="middle" x="104.99" y="-217.61" font-family="Arial" font-size="12.00">(RX)</text>
</g>
<!-- 21 -->
<g id="node21" class="node">
<title>21</title>
<ellipse fill="none" stroke="black" cx="177.99" cy="-142.12" rx="48.17" ry="24.08"/>
<text text-anchor="middle" x="177.99" y="-145.52" font-family="Arial" font-size="12.00">Y</text>
<text text-anchor="middle" x="177.99" y="-132.52" font-family="Arial" font-size="12.00">(MERGE)</text>
</g>
<!-- 6&#45;&gt;21 -->
<g id="edge20" class="edge">
<title>6&#45;&gt;21</title>
<path fill="none" stroke="black" d="M121.56,-207.36C130.65,-197.01 142.12,-183.95 152.34,-172.32"/>
<polygon fill="black" stroke="black" points="155.2,-174.36 159.18,-164.54 149.95,-169.74 155.2,-174.36"/>
</g>
<!-- 7 -->
<g id="node7" class="node">
<title>7</title>
<ellipse fill="none" stroke="black" cx="55.99" cy="-417.37" rx="48.17" ry="24.08"/>
<text text-anchor="middle" x="55.99" y="-420.77" font-family="Arial" font-size="12.00">Y</text>
<text text-anchor="middle" x="55.99" y="-407.77" font-family="Arial" font-size="12.00">(MERGE)</text>
</g>
<!-- 9 -->
<g id="node9" class="node">
<title>9</title>
<ellipse fill="none" stroke="black" cx="55.99" cy="-322.29" rx="27" ry="24.08"/>
<text text-anchor="middle" x="55.99" y="-325.69" font-family="Arial" font-size="12.00">Y</text>
<text text-anchor="middle" x="55.99" y="-312.69" font-family="Arial" font-size="12.00">(H)</text>
</g>
<!-- 7&#45;&gt;9 -->
<g id="edge18" class="edge">
<title>7&#45;&gt;9</title>
<path fill="none" stroke="black" d="M55.99,-392.89C55.99,-381.89 55.99,-368.59 55.99,-356.58"/>
<polygon fill="black" stroke="black" points="59.49,-356.45 55.99,-346.45 52.49,-356.45 59.49,-356.45"/>
<text text-anchor="middle" x="64.49" y="-367.33" font-family="Arial" font-size="10.00">&#45;1.0</text>
</g>
<!-- 8 -->
<g id="node8" class="node">
<title>8</title>
<ellipse fill="none" stroke="black" cx="177.99" cy="-47.04" rx="27" ry="24.08"/>
<text text-anchor="middle" x="177.99" y="-50.44" font-family="Arial" font-size="12.00">Y</text>
<text text-anchor="middle" x="177.99" y="-37.44" font-family="Arial" font-size="12.00">(X)</text>
</g>
<!-- 9&#45;&gt;6 -->
<g id="edge4" class="edge">
<title>9&#45;&gt;6</title>
<path fill="none" stroke="black" d="M67.11,-300.17C73.58,-287.88 81.85,-272.18 89,-258.58"/>
<polygon fill="black" stroke="black" points="92.19,-260.05 93.75,-249.57 85.99,-256.79 92.19,-260.05"/>
<text text-anchor="middle" x="94.49" y="-272.25" font-family="Arial" font-size="10.00">0.707</text>
</g>
<!-- 14 -->
<g id="node14" class="node">
<title>14</title>
<ellipse fill="none" stroke="black" cx="28.99" cy="-227.21" rx="28.98" ry="24.08"/>
<text text-anchor="middle" x="28.99" y="-230.61" font-family="Arial" font-size="12.00">Z</text>
<text text-anchor="middle" x="28.99" y="-217.61" font-family="Arial" font-size="12.00">(RX)</text>
</g>
<!-- 9&#45;&gt;14 -->
<g id="edge21" class="edge">
<title>9&#45;&gt;14</title>
<path fill="none" stroke="black" d="M48.66,-298.77C46.76,-292.77 44.76,-286.28 42.99,-280.25 41.15,-273.94 39.26,-267.18 37.49,-260.69"/>
<polygon fill="black" stroke="black" points="40.81,-259.56 34.84,-250.81 34.05,-261.38 40.81,-259.56"/>
<text text-anchor="middle" x="56.99" y="-272.25" font-family="Arial" font-size="10.00">&#45;0.707</text>
</g>
<!-- 10 -->
<g id="node10" class="node">
<title>10</title>
<ellipse fill="none" stroke="black" cx="345.99" cy="-512.46" rx="28.98" ry="24.08"/>
<text text-anchor="middle" x="345.99" y="-515.86" font-family="Arial" font-size="12.00">Z</text>
<text text-anchor="middle" x="345.99" y="-502.86" font-family="Arial" font-size="12.00">(RZ)</text>
</g>
<!-- 20 -->
<g id="node20" class="node">
<title>20</title>
<ellipse fill="none" stroke="black" cx="345.99" cy="-417.37" rx="27" ry="24.08"/>
<text text-anchor="middle" x="345.99" y="-420.77" font-family="Arial" font-size="12.00">X</text>
<text text-anchor="middle" x="345.99" y="-407.77" font-family="Arial" font-size="12.00">(H)</text>
</g>
<!-- 10&#45;&gt;20 -->
<g id="edge11" class="edge">
<title>10&#45;&gt;20</title>
<path fill="none" stroke="black" d="M345.99,-487.97C345.99,-476.97 345.99,-463.68 345.99,-451.67"/>
<polygon fill="black" stroke="black" points="349.49,-451.53 345.99,-441.53 342.49,-451.53 349.49,-451.53"/>
<text text-anchor="middle" x="352.99" y="-462.42" font-family="Arial" font-size="10.00">1.0</text>
</g>
<!-- 22 -->
<g id="node22" class="node">
<title>22</title>
<ellipse fill="none" stroke="black" cx="203.99" cy="-417.37" rx="48.17" ry="24.08"/>
<text text-anchor="middle" x="203.99" y="-420.77" font-family="Arial" font-size="12.00">X</text>
<text text-anchor="middle" x="203.99" y="-407.77" font-family="Arial" font-size="12.00">(MERGE)</text>
</g>
<!-- 11&#45;&gt;22 -->
<g id="edge14" class="edge">
<title>11&#45;&gt;22</title>
<path fill="none" stroke="black" d="M255.67,-491.26C246.82,-478.77 235.29,-462.51 225.37,-448.52"/>
<polygon fill="black" stroke="black" points="228.07,-446.29 219.44,-440.16 222.36,-450.34 228.07,-446.29"/>
</g>
<!-- 12&#45;&gt;22 -->
<g id="edge24" class="edge">
<title>12&#45;&gt;22</title>
<path fill="none" stroke="black" d="M135.39,-492.62C147.52,-479.5 163.9,-461.77 177.62,-446.92"/>
<polygon fill="black" stroke="black" points="180.3,-449.18 184.51,-439.46 175.16,-444.43 180.3,-449.18"/>
</g>
<!-- 13&#45;&gt;7 -->
<g id="edge23" class="edge">
<title>13&#45;&gt;7</title>
<path fill="none" stroke="black" d="M45.45,-488.45C47.13,-477.26 49.19,-463.61 51.03,-451.34"/>
<polygon fill="black" stroke="black" points="54.5,-451.85 52.52,-441.44 47.57,-450.81 54.5,-451.85"/>
</g>
<!-- 14&#45;&gt;3 -->
<g id="edge2" class="edge">
<title>14&#45;&gt;3</title>
<path fill="none" stroke="black" d="M37.57,-203.94C40.92,-195.24 44.83,-185.08 48.49,-175.59"/>
<polygon fill="black" stroke="black" points="51.84,-176.62 52.17,-166.03 45.31,-174.1 51.84,-176.62"/>
</g>
<!-- 16 -->
<g id="node16" class="node">
<title>16</title>
<ellipse fill="none" stroke="black" cx="180.99" cy="-227.21" rx="28.98" ry="24.08"/>
<text text-anchor="middle" x="180.99" y="-230.61" font-family="Arial" font-size="12.00">Z</text>
<text text-anchor="middle" x="180.99" y="-217.61" font-family="Arial" font-size="12.00">(RX)</text>
</g>
<!-- 16&#45;&gt;3 -->
<g id="edge19" class="edge">
<title>16&#45;&gt;3</title>
<path fill="none" stroke="black" d="M159.26,-211.16C141.89,-199.13 117.16,-182.02 96.86,-167.96"/>
<polygon fill="black" stroke="black" points="98.68,-164.96 88.47,-162.15 94.7,-170.72 98.68,-164.96"/>
</g>
<!-- 17 -->
<g id="node17" class="node">
<title>17</title>
<ellipse fill="none" stroke="black" cx="256.99" cy="-227.21" rx="28.98" ry="24.08"/>
<text text-anchor="middle" x="256.99" y="-230.61" font-family="Arial" font-size="12.00">Y</text>
<text text-anchor="middle" x="256.99" y="-217.61" font-family="Arial" font-size="12.00">(RX)</text>
</g>
<!-- 17&#45;&gt;21 -->
<g id="edge13" class="edge">
<title>17&#45;&gt;21</title>
<path fill="none" stroke="black" d="M239.46,-207.77C229.39,-197.18 216.53,-183.66 205.18,-171.72"/>
<polygon fill="black" stroke="black" points="207.41,-168.98 197.98,-164.15 202.33,-173.81 207.41,-168.98"/>
</g>
<!-- 18 -->
<g id="node18" class="node">
<title>18</title>
<ellipse fill="none" stroke="black" cx="345.99" cy="-227.21" rx="27" ry="24.08"/>
<text text-anchor="middle" x="345.99" y="-230.61" font-family="Arial" font-size="12.00">X</text>
<text text-anchor="middle" x="345.99" y="-217.61" font-family="Arial" font-size="12.00">(X)</text>
</g>
<!-- 19 -->
<g id="node19" class="node">
<title>19</title>
<ellipse fill="none" stroke="black" cx="227.99" cy="-696.58" rx="27" ry="18"/>
<text text-anchor="middle" x="227.99" y="-693.48" font-family="Arial" font-size="12.00">Y</text>
</g>
<!-- 19&#45;&gt;5 -->
<g id="edge26" class="edge">
<title>19&#45;&gt;5</title>
<path fill="none" stroke="black" d="M227.99,-678.39C227.99,-667.94 227.99,-654.24 227.99,-641.75"/>
<polygon fill="black" stroke="black" points="231.49,-641.64 227.99,-631.64 224.49,-641.64 231.49,-641.64"/>
<text text-anchor="middle" x="236.49" y="-652.58" font-family="Arial" font-size="10.00">&#45;1.0</text>
</g>
<!-- 26 -->
<g id="node26" class="node">
<title>26</title>
<ellipse fill="none" stroke="black" cx="345.99" cy="-322.29" rx="28.98" ry="24.08"/>
<text text-anchor="middle" x="345.99" y="-325.69" font-family="Arial" font-size="12.00">X</text>
<text text-anchor="middle" x="345.99" y="-312.69" font-family="Arial" font-size="12.00">(RX)</text>
</g>
<!-- 20&#45;&gt;26 -->
<g id="edge7" class="edge">
<title>20&#45;&gt;26</title>
<path fill="none" stroke="black" d="M345.99,-392.89C345.99,-381.89 345.99,-368.59 345.99,-356.58"/>
<polygon fill="black" stroke="black" points="349.49,-356.45 345.99,-346.45 342.49,-356.45 349.49,-356.45"/>
<text text-anchor="middle" x="348.99" y="-367.33" font-family="Arial" font-size="10.00">1</text>
</g>
<!-- 21&#45;&gt;8 -->
<g id="edge22" class="edge">
<title>21&#45;&gt;8</title>
<path fill="none" stroke="black" d="M177.99,-117.64C177.99,-106.64 177.99,-93.34 177.99,-81.33"/>
<polygon fill="black" stroke="black" points="181.49,-81.2 177.99,-71.2 174.49,-81.2 181.49,-81.2"/>
<text text-anchor="middle" x="186.49" y="-92.08" font-family="Arial" font-size="10.00">&#45;1.0</text>
</g>
<!-- 25 -->
<g id="node25" class="node">
<title>25</title>
<ellipse fill="none" stroke="black" cx="203.99" cy="-322.29" rx="27" ry="24.08"/>
<text text-anchor="middle" x="203.99" y="-325.69" font-family="Arial" font-size="12.00">Z</text>
<text text-anchor="middle" x="203.99" y="-312.69" font-family="Arial" font-size="12.00">(H)</text>
</g>
<!-- 22&#45;&gt;25 -->
<g id="edge1" class="edge">
<title>22&#45;&gt;25</title>
<path fill="none" stroke="black" d="M203.99,-392.89C203.99,-381.89 203.99,-368.59 203.99,-356.58"/>
<polygon fill="black" stroke="black" points="207.49,-356.45 203.99,-346.45 200.49,-356.45 207.49,-356.45"/>
<text text-anchor="middle" x="210.99" y="-367.33" font-family="Arial" font-size="10.00">1.0</text>
</g>
<!-- 23&#45;&gt;7 -->
<g id="edge12" class="edge">
<title>23&#45;&gt;7</title>
<path fill="none" stroke="black" d="M171.82,-496.5C150.42,-482.07 117.64,-459.96 92.41,-442.94"/>
<polygon fill="black" stroke="black" points="94.07,-439.84 83.83,-437.15 90.16,-445.64 94.07,-439.84"/>
</g>
<!-- 24&#45;&gt;10 -->
<g id="edge27" class="edge">
<title>24&#45;&gt;10</title>
<path fill="none" stroke="black" d="M345.99,-583.05C345.99,-572.06 345.99,-558.76 345.99,-546.75"/>
<polygon fill="black" stroke="black" points="349.49,-546.62 345.99,-536.62 342.49,-546.62 349.49,-546.62"/>
<text text-anchor="middle" x="348.99" y="-557.5" font-family="Arial" font-size="10.00">1</text>
</g>
<!-- 25&#45;&gt;16 -->
<g id="edge25" class="edge">
<title>25&#45;&gt;16</title>
<path fill="none" stroke="black" d="M198.42,-298.76C195.62,-287.41 192.17,-273.44 189.08,-260.93"/>
<polygon fill="black" stroke="black" points="192.38,-259.72 186.59,-250.86 185.59,-261.4 192.38,-259.72"/>
<text text-anchor="middle" x="206.49" y="-272.25" font-family="Arial" font-size="10.00">0.707</text>
</g>
<!-- 25&#45;&gt;17 -->
<g id="edge15" class="edge">
<title>25&#45;&gt;17</title>
<path fill="none" stroke="black" d="M215.75,-300.63C222.91,-288.07 232.16,-271.81 240.09,-257.88"/>
<polygon fill="black" stroke="black" points="243.17,-259.55 245.08,-249.13 237.09,-256.09 243.17,-259.55"/>
<text text-anchor="middle" x="245.49" y="-272.25" font-family="Arial" font-size="10.00">0.707</text>
</g>
<!-- 26&#45;&gt;18 -->
<g id="edge5" class="edge">
<title>26&#45;&gt;18</title>
<path fill="none" stroke="black" d="M345.99,-297.8C345.99,-286.81 345.99,-273.51 345.99,-261.5"/>
<polygon fill="black" stroke="black" points="349.49,-261.37 345.99,-251.37 342.49,-261.37 349.49,-261.37"/>
<text text-anchor="middle" x="352.99" y="-272.25" font-family="Arial" font-size="10.00">1.0</text>
</g>
</g>
</svg>
