<?xml version="1.0" encoding="utf-8"?>
<svg xmlns="http://www.w3.org/2000/svg" xmlns:xlink="http://www.w3.org/1999/xlink" width="600" height="400" viewBox="0 0 2400 1600">
<defs>
  <clipPath id="clip660">
    <rect x="0" y="0" width="2400" height="1600"/>
  </clipPath>
</defs>
<path clip-path="url(#clip660)" d="M0 1600 L2400 1600 L2400 0 L0 0  Z" fill="#ffffff" fill-rule="evenodd" fill-opacity="1"/>
<defs>
  <clipPath id="clip661">
    <rect x="257" y="47" width="2096" height="1377"/>
  </clipPath>
</defs>
<path clip-path="url(#clip660)" d="M289.514 1423.18 L2352.76 1423.18 L2352.76 47.2441 L289.514 47.2441  Z" fill="#ffffff" fill-rule="evenodd" fill-opacity="1"/>
<defs>
  <clipPath id="clip662">
    <rect x="289" y="47" width="2064" height="1377"/>
  </clipPath>
</defs>
<polyline clip-path="url(#clip662)" style="stroke:#000000; stroke-linecap:round; stroke-linejoin:round; stroke-width:2; stroke-opacity:0.1; fill:none" points="586.946,1423.18 586.946,47.2441 "/>
<polyline clip-path="url(#clip662)" style="stroke:#000000; stroke-linecap:round; stroke-linejoin:round; stroke-width:2; stroke-opacity:0.1; fill:none" points="928.429,1423.18 928.429,47.2441 "/>
<polyline clip-path="url(#clip662)" style="stroke:#000000; stroke-linecap:round; stroke-linejoin:round; stroke-width:2; stroke-opacity:0.1; fill:none" points="1269.91,1423.18 1269.91,47.2441 "/>
<polyline clip-path="url(#clip662)" style="stroke:#000000; stroke-linecap:round; stroke-linejoin:round; stroke-width:2; stroke-opacity:0.1; fill:none" points="1611.4,1423.18 1611.4,47.2441 "/>
<polyline clip-path="url(#clip662)" style="stroke:#000000; stroke-linecap:round; stroke-linejoin:round; stroke-width:2; stroke-opacity:0.1; fill:none" points="1952.88,1423.18 1952.88,47.2441 "/>
<polyline clip-path="url(#clip662)" style="stroke:#000000; stroke-linecap:round; stroke-linejoin:round; stroke-width:2; stroke-opacity:0.1; fill:none" points="2294.36,1423.18 2294.36,47.2441 "/>
<polyline clip-path="url(#clip662)" style="stroke:#000000; stroke-linecap:round; stroke-linejoin:round; stroke-width:2; stroke-opacity:0.1; fill:none" points="289.514,1387.65 2352.76,1387.65 "/>
<polyline clip-path="url(#clip662)" style="stroke:#000000; stroke-linecap:round; stroke-linejoin:round; stroke-width:2; stroke-opacity:0.1; fill:none" points="289.514,1047.58 2352.76,1047.58 "/>
<polyline clip-path="url(#clip662)" style="stroke:#000000; stroke-linecap:round; stroke-linejoin:round; stroke-width:2; stroke-opacity:0.1; fill:none" points="289.514,707.504 2352.76,707.504 "/>
<polyline clip-path="url(#clip662)" style="stroke:#000000; stroke-linecap:round; stroke-linejoin:round; stroke-width:2; stroke-opacity:0.1; fill:none" points="289.514,367.43 2352.76,367.43 "/>
<polyline clip-path="url(#clip660)" style="stroke:#000000; stroke-linecap:round; stroke-linejoin:round; stroke-width:4; stroke-opacity:1; fill:none" points="289.514,1423.18 2352.76,1423.18 "/>
<polyline clip-path="url(#clip660)" style="stroke:#000000; stroke-linecap:round; stroke-linejoin:round; stroke-width:4; stroke-opacity:1; fill:none" points="586.946,1423.18 586.946,1404.28 "/>
<polyline clip-path="url(#clip660)" style="stroke:#000000; stroke-linecap:round; stroke-linejoin:round; stroke-width:4; stroke-opacity:1; fill:none" points="928.429,1423.18 928.429,1404.28 "/>
<polyline clip-path="url(#clip660)" style="stroke:#000000; stroke-linecap:round; stroke-linejoin:round; stroke-width:4; stroke-opacity:1; fill:none" points="1269.91,1423.18 1269.91,1404.28 "/>
<polyline clip-path="url(#clip660)" style="stroke:#000000; stroke-linecap:round; stroke-linejoin:round; stroke-width:4; stroke-opacity:1; fill:none" points="1611.4,1423.18 1611.4,1404.28 "/>
<polyline clip-path="url(#clip660)" style="stroke:#000000; stroke-linecap:round; stroke-linejoin:round; stroke-width:4; stroke-opacity:1; fill:none" points="1952.88,1423.18 1952.88,1404.28 "/>
<polyline clip-path="url(#clip660)" style="stroke:#000000; stroke-linecap:round; stroke-linejoin:round; stroke-width:4; stroke-opacity:1; fill:none" points="2294.36,1423.18 2294.36,1404.28 "/>
<path clip-path="url(#clip660)" d="M577.328 1481.64 L584.967 1481.64 L584.967 1455.28 L576.657 1456.95 L576.657 1452.69 L584.921 1451.02 L589.597 1451.02 L589.597 1481.64 L597.236 1481.64 L597.236 1485.58 L577.328 1485.58 L577.328 1481.64 Z" fill="#000000" fill-rule="nonzero" fill-opacity="1" /><path clip-path="url(#clip660)" d="M923.082 1481.64 L939.402 1481.64 L939.402 1485.58 L917.457 1485.58 L917.457 1481.64 Q920.119 1478.89 924.703 1474.26 Q929.309 1469.61 930.49 1468.27 Q932.735 1465.74 933.615 1464.01 Q934.517 1462.25 934.517 1460.56 Q934.517 1457.8 932.573 1456.07 Q930.652 1454.33 927.55 1454.33 Q925.351 1454.33 922.897 1455.09 Q920.467 1455.86 917.689 1457.41 L917.689 1452.69 Q920.513 1451.55 922.966 1450.97 Q925.42 1450.39 927.457 1450.39 Q932.828 1450.39 936.022 1453.08 Q939.216 1455.77 939.216 1460.26 Q939.216 1462.39 938.406 1464.31 Q937.619 1466.2 935.513 1468.8 Q934.934 1469.47 931.832 1472.69 Q928.73 1475.88 923.082 1481.64 Z" fill="#000000" fill-rule="nonzero" fill-opacity="1" /><path clip-path="url(#clip660)" d="M1274.16 1466.95 Q1277.52 1467.66 1279.39 1469.93 Q1281.29 1472.2 1281.29 1475.53 Q1281.29 1480.65 1277.77 1483.45 Q1274.25 1486.25 1267.77 1486.25 Q1265.6 1486.25 1263.28 1485.81 Q1260.99 1485.39 1258.54 1484.54 L1258.54 1480.02 Q1260.48 1481.16 1262.79 1481.74 Q1265.11 1482.32 1267.63 1482.32 Q1272.03 1482.32 1274.32 1480.58 Q1276.64 1478.84 1276.64 1475.53 Q1276.64 1472.48 1274.48 1470.77 Q1272.35 1469.03 1268.54 1469.03 L1264.51 1469.03 L1264.51 1465.19 L1268.72 1465.19 Q1272.17 1465.19 1274 1463.82 Q1275.83 1462.43 1275.83 1459.84 Q1275.83 1457.18 1273.93 1455.77 Q1272.05 1454.33 1268.54 1454.33 Q1266.61 1454.33 1264.41 1454.75 Q1262.22 1455.16 1259.58 1456.04 L1259.58 1451.88 Q1262.24 1451.14 1264.55 1450.77 Q1266.89 1450.39 1268.95 1450.39 Q1274.28 1450.39 1277.38 1452.83 Q1280.48 1455.23 1280.48 1459.35 Q1280.48 1462.22 1278.84 1464.21 Q1277.19 1466.18 1274.16 1466.95 Z" fill="#000000" fill-rule="nonzero" fill-opacity="1" /><path clip-path="url(#clip660)" d="M1614.41 1455.09 L1602.6 1473.54 L1614.41 1473.54 L1614.41 1455.09 M1613.18 1451.02 L1619.06 1451.02 L1619.06 1473.54 L1623.99 1473.54 L1623.99 1477.43 L1619.06 1477.43 L1619.06 1485.58 L1614.41 1485.58 L1614.41 1477.43 L1598.8 1477.43 L1598.8 1472.92 L1613.18 1451.02 Z" fill="#000000" fill-rule="nonzero" fill-opacity="1" /><path clip-path="url(#clip660)" d="M1943.16 1451.02 L1961.51 1451.02 L1961.51 1454.96 L1947.44 1454.96 L1947.44 1463.43 Q1948.46 1463.08 1949.48 1462.92 Q1950.49 1462.73 1951.51 1462.73 Q1957.3 1462.73 1960.68 1465.9 Q1964.06 1469.08 1964.06 1474.49 Q1964.06 1480.07 1960.59 1483.17 Q1957.12 1486.25 1950.8 1486.25 Q1948.62 1486.25 1946.35 1485.88 Q1944.11 1485.51 1941.7 1484.77 L1941.7 1480.07 Q1943.78 1481.2 1946 1481.76 Q1948.23 1482.32 1950.7 1482.32 Q1954.71 1482.32 1957.05 1480.21 Q1959.38 1478.1 1959.38 1474.49 Q1959.38 1470.88 1957.05 1468.77 Q1954.71 1466.67 1950.7 1466.67 Q1948.83 1466.67 1946.95 1467.08 Q1945.1 1467.5 1943.16 1468.38 L1943.16 1451.02 Z" fill="#000000" fill-rule="nonzero" fill-opacity="1" /><path clip-path="url(#clip660)" d="M2294.77 1466.44 Q2291.62 1466.44 2289.77 1468.59 Q2287.94 1470.74 2287.94 1474.49 Q2287.94 1478.22 2289.77 1480.39 Q2291.62 1482.55 2294.77 1482.55 Q2297.92 1482.55 2299.74 1480.39 Q2301.6 1478.22 2301.6 1474.49 Q2301.6 1470.74 2299.74 1468.59 Q2297.92 1466.44 2294.77 1466.44 M2304.05 1451.78 L2304.05 1456.04 Q2302.29 1455.21 2300.48 1454.77 Q2298.7 1454.33 2296.94 1454.33 Q2292.31 1454.33 2289.86 1457.45 Q2287.43 1460.58 2287.08 1466.9 Q2288.45 1464.89 2290.51 1463.82 Q2292.57 1462.73 2295.05 1462.73 Q2300.25 1462.73 2303.26 1465.9 Q2306.3 1469.05 2306.3 1474.49 Q2306.3 1479.82 2303.15 1483.03 Q2300 1486.25 2294.77 1486.25 Q2288.77 1486.25 2285.6 1481.67 Q2282.43 1477.06 2282.43 1468.33 Q2282.43 1460.14 2286.32 1455.28 Q2290.21 1450.39 2296.76 1450.39 Q2298.52 1450.39 2300.3 1450.74 Q2302.11 1451.09 2304.05 1451.78 Z" fill="#000000" fill-rule="nonzero" fill-opacity="1" /><path clip-path="url(#clip660)" d="M1260.29 1522.27 L1260.29 1532.4 L1272.36 1532.4 L1272.36 1536.95 L1260.29 1536.95 L1260.29 1556.3 Q1260.29 1560.66 1261.47 1561.9 Q1262.68 1563.14 1266.34 1563.14 L1272.36 1563.14 L1272.36 1568.04 L1266.34 1568.04 Q1259.56 1568.04 1256.98 1565.53 Q1254.41 1562.98 1254.41 1556.3 L1254.41 1536.95 L1250.11 1536.95 L1250.11 1532.4 L1254.41 1532.4 L1254.41 1522.27 L1260.29 1522.27 Z" fill="#000000" fill-rule="nonzero" fill-opacity="1" /><path clip-path="url(#clip660)" d="M1280.06 1532.4 L1285.92 1532.4 L1285.92 1568.04 L1280.06 1568.04 L1280.06 1532.4 M1280.06 1518.52 L1285.92 1518.52 L1285.92 1525.93 L1280.06 1525.93 L1280.06 1518.52 Z" fill="#000000" fill-rule="nonzero" fill-opacity="1" /><path clip-path="url(#clip660)" d="M1325.93 1539.24 Q1328.12 1535.29 1331.18 1533.41 Q1334.23 1531.54 1338.37 1531.54 Q1343.94 1531.54 1346.96 1535.45 Q1349.99 1539.33 1349.99 1546.53 L1349.99 1568.04 L1344.1 1568.04 L1344.1 1546.72 Q1344.1 1541.59 1342.29 1539.11 Q1340.47 1536.63 1336.75 1536.63 Q1332.2 1536.63 1329.55 1539.65 Q1326.91 1542.68 1326.91 1547.9 L1326.91 1568.04 L1321.02 1568.04 L1321.02 1546.72 Q1321.02 1541.56 1319.21 1539.11 Q1317.4 1536.63 1313.61 1536.63 Q1309.12 1536.63 1306.48 1539.68 Q1303.84 1542.71 1303.84 1547.9 L1303.84 1568.04 L1297.95 1568.04 L1297.95 1532.4 L1303.84 1532.4 L1303.84 1537.93 Q1305.84 1534.66 1308.64 1533.1 Q1311.44 1531.54 1315.29 1531.54 Q1319.18 1531.54 1321.88 1533.51 Q1324.62 1535.48 1325.93 1539.24 Z" fill="#000000" fill-rule="nonzero" fill-opacity="1" /><path clip-path="url(#clip660)" d="M1392.16 1548.76 L1392.16 1551.62 L1365.23 1551.62 Q1365.62 1557.67 1368.86 1560.85 Q1372.14 1564 1377.96 1564 Q1381.34 1564 1384.49 1563.17 Q1387.67 1562.35 1390.79 1560.69 L1390.79 1566.23 Q1387.64 1567.57 1384.33 1568.27 Q1381.02 1568.97 1377.61 1568.97 Q1369.08 1568.97 1364.09 1564 Q1359.12 1559.04 1359.12 1550.57 Q1359.12 1541.82 1363.83 1536.69 Q1368.58 1531.54 1376.6 1531.54 Q1383.79 1531.54 1387.96 1536.18 Q1392.16 1540.8 1392.16 1548.76 M1386.3 1547.04 Q1386.24 1542.23 1383.6 1539.37 Q1380.99 1536.5 1376.66 1536.5 Q1371.76 1536.5 1368.8 1539.27 Q1365.87 1542.04 1365.42 1547.07 L1386.3 1547.04 Z" fill="#000000" fill-rule="nonzero" fill-opacity="1" /><polyline clip-path="url(#clip660)" style="stroke:#000000; stroke-linecap:round; stroke-linejoin:round; stroke-width:4; stroke-opacity:1; fill:none" points="289.514,1423.18 289.514,47.2441 "/>
<polyline clip-path="url(#clip660)" style="stroke:#000000; stroke-linecap:round; stroke-linejoin:round; stroke-width:4; stroke-opacity:1; fill:none" points="289.514,1387.65 308.412,1387.65 "/>
<polyline clip-path="url(#clip660)" style="stroke:#000000; stroke-linecap:round; stroke-linejoin:round; stroke-width:4; stroke-opacity:1; fill:none" points="289.514,1047.58 308.412,1047.58 "/>
<polyline clip-path="url(#clip660)" style="stroke:#000000; stroke-linecap:round; stroke-linejoin:round; stroke-width:4; stroke-opacity:1; fill:none" points="289.514,707.504 308.412,707.504 "/>
<polyline clip-path="url(#clip660)" style="stroke:#000000; stroke-linecap:round; stroke-linejoin:round; stroke-width:4; stroke-opacity:1; fill:none" points="289.514,367.43 308.412,367.43 "/>
<path clip-path="url(#clip660)" d="M115.326 1407.44 L122.965 1407.44 L122.965 1381.08 L114.655 1382.74 L114.655 1378.49 L122.919 1376.82 L127.595 1376.82 L127.595 1407.44 L135.234 1407.44 L135.234 1411.38 L115.326 1411.38 L115.326 1407.44 Z" fill="#000000" fill-rule="nonzero" fill-opacity="1" /><path clip-path="url(#clip660)" d="M154.678 1379.9 Q151.067 1379.9 149.238 1383.46 Q147.433 1387 147.433 1394.13 Q147.433 1401.24 149.238 1404.8 Q151.067 1408.35 154.678 1408.35 Q158.312 1408.35 160.118 1404.8 Q161.947 1401.24 161.947 1394.13 Q161.947 1387 160.118 1383.46 Q158.312 1379.9 154.678 1379.9 M154.678 1376.19 Q160.488 1376.19 163.544 1380.8 Q166.622 1385.38 166.622 1394.13 Q166.622 1402.86 163.544 1407.47 Q160.488 1412.05 154.678 1412.05 Q148.868 1412.05 145.789 1407.47 Q142.734 1402.86 142.734 1394.13 Q142.734 1385.38 145.789 1380.8 Q148.868 1376.19 154.678 1376.19 Z" fill="#000000" fill-rule="nonzero" fill-opacity="1" /><path clip-path="url(#clip660)" d="M166.622 1370.3 L190.734 1370.3 L190.734 1373.49 L166.622 1373.49 L166.622 1370.3 Z" fill="#000000" fill-rule="nonzero" fill-opacity="1" /><path clip-path="url(#clip660)" d="M210.445 1368.83 Q213.172 1369.41 214.695 1371.25 Q216.237 1373.1 216.237 1375.81 Q216.237 1379.96 213.379 1382.24 Q210.52 1384.51 205.254 1384.51 Q203.486 1384.51 201.605 1384.16 Q199.743 1383.82 197.749 1383.12 L197.749 1379.45 Q199.329 1380.38 201.21 1380.85 Q203.091 1381.32 205.141 1381.32 Q208.714 1381.32 210.576 1379.91 Q212.457 1378.5 212.457 1375.81 Q212.457 1373.32 210.708 1371.93 Q208.978 1370.52 205.874 1370.52 L202.602 1370.52 L202.602 1367.4 L206.025 1367.4 Q208.827 1367.4 210.313 1366.29 Q211.799 1365.16 211.799 1363.05 Q211.799 1360.89 210.256 1359.74 Q208.733 1358.58 205.874 1358.58 Q204.313 1358.58 202.526 1358.92 Q200.74 1359.25 198.596 1359.97 L198.596 1356.58 Q200.759 1355.98 202.639 1355.68 Q204.539 1355.38 206.213 1355.38 Q210.539 1355.38 213.059 1357.36 Q215.579 1359.31 215.579 1362.66 Q215.579 1364.99 214.244 1366.61 Q212.908 1368.21 210.445 1368.83 Z" fill="#000000" fill-rule="nonzero" fill-opacity="1" /><path clip-path="url(#clip660)" d="M223.441 1379.19 L227.409 1379.19 L227.409 1383.97 L223.441 1383.97 L223.441 1379.19 Z" fill="#000000" fill-rule="nonzero" fill-opacity="1" /><path clip-path="url(#clip660)" d="M243.81 1358.39 Q240.876 1358.39 239.39 1361.29 Q237.923 1364.16 237.923 1369.96 Q237.923 1375.73 239.39 1378.63 Q240.876 1381.5 243.81 1381.5 Q246.762 1381.5 248.229 1378.63 Q249.715 1375.73 249.715 1369.96 Q249.715 1364.16 248.229 1361.29 Q246.762 1358.39 243.81 1358.39 M243.81 1355.38 Q248.53 1355.38 251.013 1359.12 Q253.514 1362.85 253.514 1369.96 Q253.514 1377.05 251.013 1380.79 Q248.53 1384.51 243.81 1384.51 Q239.089 1384.51 236.587 1380.79 Q234.105 1377.05 234.105 1369.96 Q234.105 1362.85 236.587 1359.12 Q239.089 1355.38 243.81 1355.38 Z" fill="#000000" fill-rule="nonzero" fill-opacity="1" /><path clip-path="url(#clip660)" d="M116.06 1067.37 L123.699 1067.37 L123.699 1041 L115.389 1042.67 L115.389 1038.41 L123.652 1036.74 L128.328 1036.74 L128.328 1067.37 L135.967 1067.37 L135.967 1071.3 L116.06 1071.3 L116.06 1067.37 Z" fill="#000000" fill-rule="nonzero" fill-opacity="1" /><path clip-path="url(#clip660)" d="M155.412 1039.82 Q151.8 1039.82 149.972 1043.39 Q148.166 1046.93 148.166 1054.06 Q148.166 1061.17 149.972 1064.73 Q151.8 1068.27 155.412 1068.27 Q159.046 1068.27 160.851 1064.73 Q162.68 1061.17 162.68 1054.06 Q162.68 1046.93 160.851 1043.39 Q159.046 1039.82 155.412 1039.82 M155.412 1036.12 Q161.222 1036.12 164.277 1040.73 Q167.356 1045.31 167.356 1054.06 Q167.356 1062.79 164.277 1067.39 Q161.222 1071.98 155.412 1071.98 Q149.601 1071.98 146.523 1067.39 Q143.467 1062.79 143.467 1054.06 Q143.467 1045.31 146.523 1040.73 Q149.601 1036.12 155.412 1036.12 Z" fill="#000000" fill-rule="nonzero" fill-opacity="1" /><path clip-path="url(#clip660)" d="M167.356 1030.22 L191.467 1030.22 L191.467 1033.42 L167.356 1033.42 L167.356 1030.22 Z" fill="#000000" fill-rule="nonzero" fill-opacity="1" /><path clip-path="url(#clip660)" d="M202.94 1040.7 L216.2 1040.7 L216.2 1043.89 L198.37 1043.89 L198.37 1040.7 Q200.533 1038.46 204.257 1034.7 Q208 1030.92 208.959 1029.83 Q210.783 1027.78 211.498 1026.37 Q212.231 1024.94 212.231 1023.56 Q212.231 1021.33 210.651 1019.91 Q209.09 1018.5 206.57 1018.5 Q204.783 1018.5 202.79 1019.12 Q200.815 1019.75 198.558 1021.01 L198.558 1017.17 Q200.853 1016.25 202.846 1015.78 Q204.84 1015.31 206.495 1015.31 Q210.858 1015.31 213.454 1017.49 Q216.049 1019.67 216.049 1023.32 Q216.049 1025.05 215.391 1026.61 Q214.752 1028.15 213.04 1030.26 Q212.57 1030.8 210.05 1033.42 Q207.529 1036.01 202.94 1040.7 Z" fill="#000000" fill-rule="nonzero" fill-opacity="1" /><path clip-path="url(#clip660)" d="M224.174 1039.12 L228.143 1039.12 L228.143 1043.89 L224.174 1043.89 L224.174 1039.12 Z" fill="#000000" fill-rule="nonzero" fill-opacity="1" /><path clip-path="url(#clip660)" d="M235.459 1015.81 L253.514 1015.81 L253.514 1017.43 L243.321 1043.89 L239.352 1043.89 L248.944 1019.01 L235.459 1019.01 L235.459 1015.81 Z" fill="#000000" fill-rule="nonzero" fill-opacity="1" /><path clip-path="url(#clip660)" d="M114.931 727.296 L122.57 727.296 L122.57 700.93 L114.26 702.597 L114.26 698.338 L122.524 696.671 L127.2 696.671 L127.2 727.296 L134.839 727.296 L134.839 731.231 L114.931 731.231 L114.931 727.296 Z" fill="#000000" fill-rule="nonzero" fill-opacity="1" /><path clip-path="url(#clip660)" d="M154.283 699.75 Q150.672 699.75 148.843 703.315 Q147.038 706.856 147.038 713.986 Q147.038 721.092 148.843 724.657 Q150.672 728.199 154.283 728.199 Q157.917 728.199 159.723 724.657 Q161.552 721.092 161.552 713.986 Q161.552 706.856 159.723 703.315 Q157.917 699.75 154.283 699.75 M154.283 696.046 Q160.093 696.046 163.149 700.653 Q166.227 705.236 166.227 713.986 Q166.227 722.713 163.149 727.319 Q160.093 731.902 154.283 731.902 Q148.473 731.902 145.394 727.319 Q142.339 722.713 142.339 713.986 Q142.339 705.236 145.394 700.653 Q148.473 696.046 154.283 696.046 Z" fill="#000000" fill-rule="nonzero" fill-opacity="1" /><path clip-path="url(#clip660)" d="M166.227 690.147 L190.339 690.147 L190.339 693.345 L166.227 693.345 L166.227 690.147 Z" fill="#000000" fill-rule="nonzero" fill-opacity="1" /><path clip-path="url(#clip660)" d="M201.812 700.623 L215.071 700.623 L215.071 703.821 L197.241 703.821 L197.241 700.623 Q199.404 698.385 203.128 694.624 Q206.871 690.843 207.83 689.753 Q209.655 687.702 210.369 686.292 Q211.103 684.863 211.103 683.49 Q211.103 681.251 209.523 679.841 Q207.962 678.43 205.442 678.43 Q203.655 678.43 201.661 679.051 Q199.686 679.672 197.43 680.932 L197.43 677.095 Q199.724 676.173 201.718 675.703 Q203.711 675.233 205.366 675.233 Q209.73 675.233 212.325 677.415 Q214.921 679.596 214.921 683.245 Q214.921 684.975 214.263 686.536 Q213.623 688.079 211.912 690.185 Q211.441 690.731 208.921 693.345 Q206.401 695.94 201.812 700.623 Z" fill="#000000" fill-rule="nonzero" fill-opacity="1" /><path clip-path="url(#clip660)" d="M223.046 699.044 L227.014 699.044 L227.014 703.821 L223.046 703.821 L223.046 699.044 Z" fill="#000000" fill-rule="nonzero" fill-opacity="1" /><path clip-path="url(#clip660)" d="M245.728 679.051 L236.136 694.041 L245.728 694.041 L245.728 679.051 M244.731 675.741 L249.508 675.741 L249.508 694.041 L253.514 694.041 L253.514 697.2 L249.508 697.2 L249.508 703.821 L245.728 703.821 L245.728 697.2 L233.051 697.2 L233.051 693.533 L244.731 675.741 Z" fill="#000000" fill-rule="nonzero" fill-opacity="1" /><path clip-path="url(#clip660)" d="M116.323 387.222 L123.962 387.222 L123.962 360.857 L115.652 362.523 L115.652 358.264 L123.916 356.597 L128.592 356.597 L128.592 387.222 L136.231 387.222 L136.231 391.157 L116.323 391.157 L116.323 387.222 Z" fill="#000000" fill-rule="nonzero" fill-opacity="1" /><path clip-path="url(#clip660)" d="M155.675 359.676 Q152.064 359.676 150.235 363.241 Q148.43 366.783 148.43 373.912 Q148.43 381.019 150.235 384.583 Q152.064 388.125 155.675 388.125 Q159.309 388.125 161.115 384.583 Q162.943 381.019 162.943 373.912 Q162.943 366.783 161.115 363.241 Q159.309 359.676 155.675 359.676 M155.675 355.972 Q161.485 355.972 164.541 360.579 Q167.619 365.162 167.619 373.912 Q167.619 382.639 164.541 387.245 Q161.485 391.829 155.675 391.829 Q149.865 391.829 146.786 387.245 Q143.73 382.639 143.73 373.912 Q143.73 365.162 146.786 360.579 Q149.865 355.972 155.675 355.972 Z" fill="#000000" fill-rule="nonzero" fill-opacity="1" /><path clip-path="url(#clip660)" d="M167.619 350.074 L191.731 350.074 L191.731 353.271 L167.619 353.271 L167.619 350.074 Z" fill="#000000" fill-rule="nonzero" fill-opacity="1" /><path clip-path="url(#clip660)" d="M203.204 360.55 L216.463 360.55 L216.463 363.747 L198.633 363.747 L198.633 360.55 Q200.796 358.312 204.52 354.55 Q208.263 350.77 209.222 349.679 Q211.046 347.629 211.761 346.218 Q212.495 344.789 212.495 343.416 Q212.495 341.178 210.915 339.767 Q209.354 338.356 206.833 338.356 Q205.047 338.356 203.053 338.977 Q201.078 339.598 198.821 340.858 L198.821 337.021 Q201.116 336.1 203.11 335.629 Q205.103 335.159 206.758 335.159 Q211.122 335.159 213.717 337.341 Q216.313 339.523 216.313 343.171 Q216.313 344.902 215.654 346.463 Q215.015 348.005 213.303 350.111 Q212.833 350.657 210.313 353.271 Q207.793 355.867 203.204 360.55 Z" fill="#000000" fill-rule="nonzero" fill-opacity="1" /><path clip-path="url(#clip660)" d="M224.438 358.97 L228.406 358.97 L228.406 363.747 L224.438 363.747 L224.438 358.97 Z" fill="#000000" fill-rule="nonzero" fill-opacity="1" /><path clip-path="url(#clip660)" d="M237.34 360.55 L243.546 360.55 L243.546 339.128 L236.794 340.482 L236.794 337.021 L243.509 335.667 L247.308 335.667 L247.308 360.55 L253.514 360.55 L253.514 363.747 L237.34 363.747 L237.34 360.55 Z" fill="#000000" fill-rule="nonzero" fill-opacity="1" /><path clip-path="url(#clip660)" d="M35.1993 1037.81 Q31.2526 1035.61 29.3747 1032.55 Q27.4968 1029.5 27.4968 1025.36 Q27.4968 1019.79 31.4117 1016.77 Q35.2948 1013.74 42.4881 1013.74 L64.0042 1013.74 L64.0042 1019.63 L42.679 1019.63 Q37.5546 1019.63 35.072 1021.45 Q32.5894 1023.26 32.5894 1026.98 Q32.5894 1031.54 35.6131 1034.18 Q38.6368 1036.82 43.8567 1036.82 L64.0042 1036.82 L64.0042 1042.71 L42.679 1042.71 Q37.5228 1042.71 35.072 1044.52 Q32.5894 1046.34 32.5894 1050.12 Q32.5894 1054.61 35.6449 1057.25 Q38.6686 1059.89 43.8567 1059.89 L64.0042 1059.89 L64.0042 1065.78 L28.3562 1065.78 L28.3562 1059.89 L33.8944 1059.89 Q30.616 1057.89 29.0564 1055.09 Q27.4968 1052.29 27.4968 1048.44 Q27.4968 1044.55 29.4702 1041.85 Q31.4436 1039.11 35.1993 1037.81 Z" fill="#000000" fill-rule="nonzero" fill-opacity="1" /><path clip-path="url(#clip660)" d="M44.7161 971.571 L47.5806 971.571 L47.5806 998.498 Q53.6281 998.116 56.8109 994.869 Q59.9619 991.591 59.9619 985.766 Q59.9619 982.392 59.1344 979.241 Q58.3069 976.058 56.6518 972.939 L62.1899 972.939 Q63.5267 976.09 64.227 979.4 Q64.9272 982.711 64.9272 986.116 Q64.9272 994.646 59.9619 999.643 Q54.9967 1004.61 46.5303 1004.61 Q37.7774 1004.61 32.6531 999.898 Q27.4968 995.156 27.4968 987.135 Q27.4968 979.942 32.1438 975.772 Q36.7589 971.571 44.7161 971.571 M42.9973 977.427 Q38.1912 977.491 35.3266 980.133 Q32.4621 982.742 32.4621 987.071 Q32.4621 991.973 35.2312 994.933 Q38.0002 997.861 43.0292 998.307 L42.9973 977.427 Z" fill="#000000" fill-rule="nonzero" fill-opacity="1" /><path clip-path="url(#clip660)" d="M46.0847 945.758 Q46.0847 952.855 47.7079 955.593 Q49.3312 958.33 53.2461 958.33 Q56.3653 958.33 58.2114 956.293 Q60.0256 954.224 60.0256 950.691 Q60.0256 945.821 56.5881 942.893 Q53.1188 939.933 47.3897 939.933 L46.0847 939.933 L46.0847 945.758 M43.6657 934.077 L64.0042 934.077 L64.0042 939.933 L58.5933 939.933 Q61.8398 941.938 63.3994 944.93 Q64.9272 947.922 64.9272 952.251 Q64.9272 957.725 61.8716 960.972 Q58.7843 964.186 53.6281 964.186 Q47.6125 964.186 44.5569 960.176 Q41.5014 956.134 41.5014 948.145 L41.5014 939.933 L40.9285 939.933 Q36.8862 939.933 34.6901 942.607 Q32.4621 945.248 32.4621 950.055 Q32.4621 953.11 33.1941 956.007 Q33.9262 958.903 35.3903 961.576 L29.9795 961.576 Q28.7381 958.362 28.1334 955.338 Q27.4968 952.314 27.4968 949.45 Q27.4968 941.715 31.5072 937.896 Q35.5176 934.077 43.6657 934.077 Z" fill="#000000" fill-rule="nonzero" fill-opacity="1" /><path clip-path="url(#clip660)" d="M42.4881 892.381 L64.0042 892.381 L64.0042 898.238 L42.679 898.238 Q37.6183 898.238 35.1038 900.211 Q32.5894 902.184 32.5894 906.131 Q32.5894 910.874 35.6131 913.611 Q38.6368 916.348 43.8567 916.348 L64.0042 916.348 L64.0042 922.236 L28.3562 922.236 L28.3562 916.348 L33.8944 916.348 Q30.6797 914.247 29.0883 911.415 Q27.4968 908.55 27.4968 904.826 Q27.4968 898.683 31.3163 895.532 Q35.1038 892.381 42.4881 892.381 Z" fill="#000000" fill-rule="nonzero" fill-opacity="1" /><path clip-path="url(#clip660)" d="M14.5426 866.632 Q21.8632 870.897 29.0246 872.966 Q36.186 875.035 43.5384 875.035 Q50.8908 875.035 58.1159 872.966 Q65.3091 870.865 72.5979 866.632 L72.5979 871.725 Q65.1182 876.499 57.8931 878.886 Q50.668 881.241 43.5384 881.241 Q36.4406 881.241 29.2474 878.886 Q22.0542 876.531 14.5426 871.725 L14.5426 866.632 Z" fill="#000000" fill-rule="nonzero" fill-opacity="1" /><path clip-path="url(#clip660)" d="M43.5702 855.587 L14.5426 846.612 L14.5426 841.201 L43.5702 850.177 L72.5979 841.201 L72.5979 846.612 L43.5702 855.587 Z" fill="#000000" fill-rule="nonzero" fill-opacity="1" /><path clip-path="url(#clip660)" d="M16.4842 832.321 L16.4842 794.986 L21.3858 794.986 L58.5933 825.032 L58.5933 794.254 L64.0042 794.254 L64.0042 833.053 L59.1026 833.053 L21.895 803.007 L21.895 832.321 L16.4842 832.321 Z" fill="#000000" fill-rule="nonzero" fill-opacity="1" /><path clip-path="url(#clip660)" d="M44.0477 787.443 L44.0477 783.75 L64.3543 783.75 Q68.1737 783.75 69.8924 785.406 Q71.6112 787.029 71.6112 790.657 L71.6112 792.058 L68.8103 792.058 L68.8103 791.071 Q68.8103 788.97 67.9509 788.206 Q67.0915 787.443 64.3543 787.443 L44.0477 787.443 M36.2815 787.443 L36.2815 783.75 L40.4192 783.75 L40.4192 787.443 L36.2815 787.443 Z" fill="#000000" fill-rule="nonzero" fill-opacity="1" /><path clip-path="url(#clip660)" d="M43.5702 760.325 L72.5979 769.3 L72.5979 774.711 L43.5702 765.736 L14.5426 774.711 L14.5426 769.3 L43.5702 760.325 Z" fill="#000000" fill-rule="nonzero" fill-opacity="1" /><path clip-path="url(#clip660)" d="M43.5384 751.317 L43.5384 734.162 L48.7583 734.162 L48.7583 751.317 L43.5384 751.317 Z" fill="#000000" fill-rule="nonzero" fill-opacity="1" /><path clip-path="url(#clip660)" d="M43.5702 725.154 L14.5426 716.179 L14.5426 710.768 L43.5702 719.743 L72.5979 710.768 L72.5979 716.179 L43.5702 725.154 Z" fill="#000000" fill-rule="nonzero" fill-opacity="1" /><path clip-path="url(#clip660)" d="M16.4842 701.887 L16.4842 664.553 L21.3858 664.553 L58.5933 694.599 L58.5933 663.821 L64.0042 663.821 L64.0042 702.62 L59.1026 702.62 L21.895 672.573 L21.895 701.887 L16.4842 701.887 Z" fill="#000000" fill-rule="nonzero" fill-opacity="1" /><path clip-path="url(#clip660)" d="M44.0477 657.009 L44.0477 653.317 L64.3543 653.317 Q68.1737 653.317 69.8924 654.972 Q71.6112 656.595 71.6112 660.224 L71.6112 661.624 L68.8103 661.624 L68.8103 660.638 Q68.8103 658.537 67.9509 657.773 Q67.0915 657.009 64.3543 657.009 L44.0477 657.009 M36.2815 657.009 L36.2815 653.317 L40.4192 653.317 L40.4192 657.009 L36.2815 657.009 Z" fill="#000000" fill-rule="nonzero" fill-opacity="1" /><path clip-path="url(#clip660)" d="M44.7161 592.143 L47.5806 592.143 L47.5806 619.07 Q53.6281 618.688 56.8109 615.441 Q59.9619 612.163 59.9619 606.338 Q59.9619 602.964 59.1344 599.813 Q58.3069 596.631 56.6518 593.511 L62.1899 593.511 Q63.5267 596.662 64.227 599.973 Q64.9272 603.283 64.9272 606.688 Q64.9272 615.218 59.9619 620.215 Q54.9967 625.181 46.5303 625.181 Q37.7774 625.181 32.6531 620.47 Q27.4968 615.728 27.4968 607.707 Q27.4968 600.514 32.1438 596.344 Q36.7589 592.143 44.7161 592.143 M42.9973 597.999 Q38.1912 598.063 35.3266 600.705 Q32.4621 603.315 32.4621 607.643 Q32.4621 612.545 35.2312 615.505 Q38.0002 618.433 43.0292 618.879 L42.9973 597.999 Z" fill="#000000" fill-rule="nonzero" fill-opacity="1" /><path clip-path="url(#clip660)" d="M28.3562 554.044 L45.7028 566.935 L64.0042 553.376 L64.0042 560.282 L49.9996 570.658 L64.0042 581.035 L64.0042 587.941 L45.3526 574.096 L28.3562 586.764 L28.3562 579.857 L41.0558 570.404 L28.3562 560.951 L28.3562 554.044 Z" fill="#000000" fill-rule="nonzero" fill-opacity="1" /><path clip-path="url(#clip660)" d="M46.0847 528.899 Q46.0847 535.997 47.7079 538.734 Q49.3312 541.472 53.2461 541.472 Q56.3653 541.472 58.2114 539.435 Q60.0256 537.366 60.0256 533.833 Q60.0256 528.963 56.5881 526.035 Q53.1188 523.075 47.3897 523.075 L46.0847 523.075 L46.0847 528.899 M43.6657 517.218 L64.0042 517.218 L64.0042 523.075 L58.5933 523.075 Q61.8398 525.08 63.3994 528.072 Q64.9272 531.064 64.9272 535.392 Q64.9272 540.867 61.8716 544.113 Q58.7843 547.328 53.6281 547.328 Q47.6125 547.328 44.5569 543.318 Q41.5014 539.276 41.5014 531.287 L41.5014 523.075 L40.9285 523.075 Q36.8862 523.075 34.6901 525.748 Q32.4621 528.39 32.4621 533.196 Q32.4621 536.252 33.1941 539.148 Q33.9262 542.045 35.3903 544.718 L29.9795 544.718 Q28.7381 541.504 28.1334 538.48 Q27.4968 535.456 27.4968 532.592 Q27.4968 524.857 31.5072 521.038 Q35.5176 517.218 43.6657 517.218 Z" fill="#000000" fill-rule="nonzero" fill-opacity="1" /><path clip-path="url(#clip660)" d="M29.7248 479.502 L35.1993 479.502 Q33.8307 481.984 33.1623 484.499 Q32.4621 486.981 32.4621 489.528 Q32.4621 495.225 36.0905 498.376 Q39.6872 501.527 46.212 501.527 Q52.7369 501.527 56.3653 498.376 Q59.9619 495.225 59.9619 489.528 Q59.9619 486.981 59.2935 484.499 Q58.5933 481.984 57.2247 479.502 L62.6355 479.502 Q63.7814 481.952 64.3543 484.594 Q64.9272 487.204 64.9272 490.164 Q64.9272 498.217 59.8664 502.959 Q54.8057 507.702 46.212 507.702 Q37.491 507.702 32.4939 502.927 Q27.4968 498.121 27.4968 489.782 Q27.4968 487.077 28.0697 484.499 Q28.6108 481.921 29.7248 479.502 Z" fill="#000000" fill-rule="nonzero" fill-opacity="1" /><path clip-path="url(#clip660)" d="M18.2347 463.524 L28.3562 463.524 L28.3562 451.461 L32.9077 451.461 L32.9077 463.524 L52.2594 463.524 Q56.6199 463.524 57.8613 462.346 Q59.1026 461.136 59.1026 457.476 L59.1026 451.461 L64.0042 451.461 L64.0042 457.476 Q64.0042 464.256 61.4897 466.834 Q58.9434 469.412 52.2594 469.412 L32.9077 469.412 L32.9077 473.709 L28.3562 473.709 L28.3562 469.412 L18.2347 469.412 L18.2347 463.524 Z" fill="#000000" fill-rule="nonzero" fill-opacity="1" /><path clip-path="url(#clip660)" d="M43.5702 430.295 L72.5979 439.27 L72.5979 444.681 L43.5702 435.705 L14.5426 444.681 L14.5426 439.27 L43.5702 430.295 Z" fill="#000000" fill-rule="nonzero" fill-opacity="1" /><path clip-path="url(#clip660)" d="M14.5426 419.25 L14.5426 414.158 Q22.0542 409.383 29.2474 407.028 Q36.4406 404.641 43.5384 404.641 Q50.668 404.641 57.8931 407.028 Q65.1182 409.383 72.5979 414.158 L72.5979 419.25 Q65.3091 415.017 58.1159 412.948 Q50.8908 410.847 43.5384 410.847 Q36.186 410.847 29.0246 412.948 Q21.8632 415.017 14.5426 419.25 Z" fill="#000000" fill-rule="nonzero" fill-opacity="1" /><polyline clip-path="url(#clip662)" style="stroke:#009af9; stroke-linecap:round; stroke-linejoin:round; stroke-width:4; stroke-opacity:1; fill:none" stroke-dasharray="2, 4" points="347.908,610.777 450.353,199.227 552.798,204.249 655.243,325.488 757.688,303.48 860.133,238.479 962.578,255.422 1065.02,290.183 1167.47,302.002 1269.91,318.742 1372.36,329.919 1474.8,295.064 1577.25,261.851 1679.69,301.849 1782.14,403.823 1884.58,416.497 1987.03,236.003 2089.47,86.1857 2191.92,107.767 2294.36,247.258 "/>
<circle clip-path="url(#clip662)" cx="347.908" cy="610.777" r="14.4" fill="#009af9" fill-rule="evenodd" fill-opacity="1" stroke="#000000" stroke-opacity="1" stroke-width="3.2"/>
<circle clip-path="url(#clip662)" cx="450.353" cy="199.227" r="14.4" fill="#009af9" fill-rule="evenodd" fill-opacity="1" stroke="#000000" stroke-opacity="1" stroke-width="3.2"/>
<circle clip-path="url(#clip662)" cx="552.798" cy="204.249" r="14.4" fill="#009af9" fill-rule="evenodd" fill-opacity="1" stroke="#000000" stroke-opacity="1" stroke-width="3.2"/>
<circle clip-path="url(#clip662)" cx="655.243" cy="325.488" r="14.4" fill="#009af9" fill-rule="evenodd" fill-opacity="1" stroke="#000000" stroke-opacity="1" stroke-width="3.2"/>
<circle clip-path="url(#clip662)" cx="757.688" cy="303.48" r="14.4" fill="#009af9" fill-rule="evenodd" fill-opacity="1" stroke="#000000" stroke-opacity="1" stroke-width="3.2"/>
<circle clip-path="url(#clip662)" cx="860.133" cy="238.479" r="14.4" fill="#009af9" fill-rule="evenodd" fill-opacity="1" stroke="#000000" stroke-opacity="1" stroke-width="3.2"/>
<circle clip-path="url(#clip662)" cx="962.578" cy="255.422" r="14.4" fill="#009af9" fill-rule="evenodd" fill-opacity="1" stroke="#000000" stroke-opacity="1" stroke-width="3.2"/>
<circle clip-path="url(#clip662)" cx="1065.02" cy="290.183" r="14.4" fill="#009af9" fill-rule="evenodd" fill-opacity="1" stroke="#000000" stroke-opacity="1" stroke-width="3.2"/>
<circle clip-path="url(#clip662)" cx="1167.47" cy="302.002" r="14.4" fill="#009af9" fill-rule="evenodd" fill-opacity="1" stroke="#000000" stroke-opacity="1" stroke-width="3.2"/>
<circle clip-path="url(#clip662)" cx="1269.91" cy="318.742" r="14.4" fill="#009af9" fill-rule="evenodd" fill-opacity="1" stroke="#000000" stroke-opacity="1" stroke-width="3.2"/>
<circle clip-path="url(#clip662)" cx="1372.36" cy="329.919" r="14.4" fill="#009af9" fill-rule="evenodd" fill-opacity="1" stroke="#000000" stroke-opacity="1" stroke-width="3.2"/>
<circle clip-path="url(#clip662)" cx="1474.8" cy="295.064" r="14.4" fill="#009af9" fill-rule="evenodd" fill-opacity="1" stroke="#000000" stroke-opacity="1" stroke-width="3.2"/>
<circle clip-path="url(#clip662)" cx="1577.25" cy="261.851" r="14.4" fill="#009af9" fill-rule="evenodd" fill-opacity="1" stroke="#000000" stroke-opacity="1" stroke-width="3.2"/>
<circle clip-path="url(#clip662)" cx="1679.69" cy="301.849" r="14.4" fill="#009af9" fill-rule="evenodd" fill-opacity="1" stroke="#000000" stroke-opacity="1" stroke-width="3.2"/>
<circle clip-path="url(#clip662)" cx="1782.14" cy="403.823" r="14.4" fill="#009af9" fill-rule="evenodd" fill-opacity="1" stroke="#000000" stroke-opacity="1" stroke-width="3.2"/>
<circle clip-path="url(#clip662)" cx="1884.58" cy="416.497" r="14.4" fill="#009af9" fill-rule="evenodd" fill-opacity="1" stroke="#000000" stroke-opacity="1" stroke-width="3.2"/>
<circle clip-path="url(#clip662)" cx="1987.03" cy="236.003" r="14.4" fill="#009af9" fill-rule="evenodd" fill-opacity="1" stroke="#000000" stroke-opacity="1" stroke-width="3.2"/>
<circle clip-path="url(#clip662)" cx="2089.47" cy="86.1857" r="14.4" fill="#009af9" fill-rule="evenodd" fill-opacity="1" stroke="#000000" stroke-opacity="1" stroke-width="3.2"/>
<circle clip-path="url(#clip662)" cx="2191.92" cy="107.767" r="14.4" fill="#009af9" fill-rule="evenodd" fill-opacity="1" stroke="#000000" stroke-opacity="1" stroke-width="3.2"/>
<circle clip-path="url(#clip662)" cx="2294.36" cy="247.258" r="14.4" fill="#009af9" fill-rule="evenodd" fill-opacity="1" stroke="#000000" stroke-opacity="1" stroke-width="3.2"/>
<polyline clip-path="url(#clip662)" style="stroke:#e26f46; stroke-linecap:round; stroke-linejoin:round; stroke-width:4; stroke-opacity:1; fill:none" stroke-dasharray="2, 4" points="347.908,1290.5 450.353,876.098 552.798,870.035 655.243,988.959 757.688,986.716 860.133,927.453 962.578,935.49 1065.02,962.573 1167.47,976.343 1269.91,991.731 1372.36,1001.52 1474.8,968.658 1577.25,941.171 1679.69,992.006 1782.14,1098.51 1884.58,1098.43 1987.03,905.245 2089.47,760.191 2191.92,788.008 2294.36,926.343 "/>
<circle clip-path="url(#clip662)" cx="347.908" cy="1290.5" r="14.4" fill="#e26f46" fill-rule="evenodd" fill-opacity="1" stroke="#000000" stroke-opacity="1" stroke-width="3.2"/>
<circle clip-path="url(#clip662)" cx="450.353" cy="876.098" r="14.4" fill="#e26f46" fill-rule="evenodd" fill-opacity="1" stroke="#000000" stroke-opacity="1" stroke-width="3.2"/>
<circle clip-path="url(#clip662)" cx="552.798" cy="870.035" r="14.4" fill="#e26f46" fill-rule="evenodd" fill-opacity="1" stroke="#000000" stroke-opacity="1" stroke-width="3.2"/>
<circle clip-path="url(#clip662)" cx="655.243" cy="988.959" r="14.4" fill="#e26f46" fill-rule="evenodd" fill-opacity="1" stroke="#000000" stroke-opacity="1" stroke-width="3.2"/>
<circle clip-path="url(#clip662)" cx="757.688" cy="986.716" r="14.4" fill="#e26f46" fill-rule="evenodd" fill-opacity="1" stroke="#000000" stroke-opacity="1" stroke-width="3.2"/>
<circle clip-path="url(#clip662)" cx="860.133" cy="927.453" r="14.4" fill="#e26f46" fill-rule="evenodd" fill-opacity="1" stroke="#000000" stroke-opacity="1" stroke-width="3.2"/>
<circle clip-path="url(#clip662)" cx="962.578" cy="935.49" r="14.4" fill="#e26f46" fill-rule="evenodd" fill-opacity="1" stroke="#000000" stroke-opacity="1" stroke-width="3.2"/>
<circle clip-path="url(#clip662)" cx="1065.02" cy="962.573" r="14.4" fill="#e26f46" fill-rule="evenodd" fill-opacity="1" stroke="#000000" stroke-opacity="1" stroke-width="3.2"/>
<circle clip-path="url(#clip662)" cx="1167.47" cy="976.343" r="14.4" fill="#e26f46" fill-rule="evenodd" fill-opacity="1" stroke="#000000" stroke-opacity="1" stroke-width="3.2"/>
<circle clip-path="url(#clip662)" cx="1269.91" cy="991.731" r="14.4" fill="#e26f46" fill-rule="evenodd" fill-opacity="1" stroke="#000000" stroke-opacity="1" stroke-width="3.2"/>
<circle clip-path="url(#clip662)" cx="1372.36" cy="1001.52" r="14.4" fill="#e26f46" fill-rule="evenodd" fill-opacity="1" stroke="#000000" stroke-opacity="1" stroke-width="3.2"/>
<circle clip-path="url(#clip662)" cx="1474.8" cy="968.658" r="14.4" fill="#e26f46" fill-rule="evenodd" fill-opacity="1" stroke="#000000" stroke-opacity="1" stroke-width="3.2"/>
<circle clip-path="url(#clip662)" cx="1577.25" cy="941.171" r="14.4" fill="#e26f46" fill-rule="evenodd" fill-opacity="1" stroke="#000000" stroke-opacity="1" stroke-width="3.2"/>
<circle clip-path="url(#clip662)" cx="1679.69" cy="992.006" r="14.4" fill="#e26f46" fill-rule="evenodd" fill-opacity="1" stroke="#000000" stroke-opacity="1" stroke-width="3.2"/>
<circle clip-path="url(#clip662)" cx="1782.14" cy="1098.51" r="14.4" fill="#e26f46" fill-rule="evenodd" fill-opacity="1" stroke="#000000" stroke-opacity="1" stroke-width="3.2"/>
<circle clip-path="url(#clip662)" cx="1884.58" cy="1098.43" r="14.4" fill="#e26f46" fill-rule="evenodd" fill-opacity="1" stroke="#000000" stroke-opacity="1" stroke-width="3.2"/>
<circle clip-path="url(#clip662)" cx="1987.03" cy="905.245" r="14.4" fill="#e26f46" fill-rule="evenodd" fill-opacity="1" stroke="#000000" stroke-opacity="1" stroke-width="3.2"/>
<circle clip-path="url(#clip662)" cx="2089.47" cy="760.191" r="14.4" fill="#e26f46" fill-rule="evenodd" fill-opacity="1" stroke="#000000" stroke-opacity="1" stroke-width="3.2"/>
<circle clip-path="url(#clip662)" cx="2191.92" cy="788.008" r="14.4" fill="#e26f46" fill-rule="evenodd" fill-opacity="1" stroke="#000000" stroke-opacity="1" stroke-width="3.2"/>
<circle clip-path="url(#clip662)" cx="2294.36" cy="926.343" r="14.4" fill="#e26f46" fill-rule="evenodd" fill-opacity="1" stroke="#000000" stroke-opacity="1" stroke-width="3.2"/>
<polyline clip-path="url(#clip662)" style="stroke:#3da44d; stroke-linecap:round; stroke-linejoin:round; stroke-width:4; stroke-opacity:1; fill:none" stroke-dasharray="2, 4" points="347.908,1285.48 450.353,895.666 552.798,939.195 655.243,1263.4 757.688,1384.24 860.133,1170.69 962.578,1086.48 1065.02,1115.73 1167.47,1184.13 1269.91,1243.97 1372.36,1306.1 1474.8,1213.55 1577.25,1125.5 1679.69,1254.18 1782.14,1321.94 1884.58,1153.61 1987.03,755.191 2089.47,636.439 2191.92,781.863 2294.36,1080.18 "/>
<circle clip-path="url(#clip662)" cx="347.908" cy="1285.48" r="14.4" fill="#3da44d" fill-rule="evenodd" fill-opacity="1" stroke="#000000" stroke-opacity="1" stroke-width="3.2"/>
<circle clip-path="url(#clip662)" cx="450.353" cy="895.666" r="14.4" fill="#3da44d" fill-rule="evenodd" fill-opacity="1" stroke="#000000" stroke-opacity="1" stroke-width="3.2"/>
<circle clip-path="url(#clip662)" cx="552.798" cy="939.195" r="14.4" fill="#3da44d" fill-rule="evenodd" fill-opacity="1" stroke="#000000" stroke-opacity="1" stroke-width="3.2"/>
<circle clip-path="url(#clip662)" cx="655.243" cy="1263.4" r="14.4" fill="#3da44d" fill-rule="evenodd" fill-opacity="1" stroke="#000000" stroke-opacity="1" stroke-width="3.2"/>
<circle clip-path="url(#clip662)" cx="757.688" cy="1384.24" r="14.4" fill="#3da44d" fill-rule="evenodd" fill-opacity="1" stroke="#000000" stroke-opacity="1" stroke-width="3.2"/>
<circle clip-path="url(#clip662)" cx="860.133" cy="1170.69" r="14.4" fill="#3da44d" fill-rule="evenodd" fill-opacity="1" stroke="#000000" stroke-opacity="1" stroke-width="3.2"/>
<circle clip-path="url(#clip662)" cx="962.578" cy="1086.48" r="14.4" fill="#3da44d" fill-rule="evenodd" fill-opacity="1" stroke="#000000" stroke-opacity="1" stroke-width="3.2"/>
<circle clip-path="url(#clip662)" cx="1065.02" cy="1115.73" r="14.4" fill="#3da44d" fill-rule="evenodd" fill-opacity="1" stroke="#000000" stroke-opacity="1" stroke-width="3.2"/>
<circle clip-path="url(#clip662)" cx="1167.47" cy="1184.13" r="14.4" fill="#3da44d" fill-rule="evenodd" fill-opacity="1" stroke="#000000" stroke-opacity="1" stroke-width="3.2"/>
<circle clip-path="url(#clip662)" cx="1269.91" cy="1243.97" r="14.4" fill="#3da44d" fill-rule="evenodd" fill-opacity="1" stroke="#000000" stroke-opacity="1" stroke-width="3.2"/>
<circle clip-path="url(#clip662)" cx="1372.36" cy="1306.1" r="14.4" fill="#3da44d" fill-rule="evenodd" fill-opacity="1" stroke="#000000" stroke-opacity="1" stroke-width="3.2"/>
<circle clip-path="url(#clip662)" cx="1474.8" cy="1213.55" r="14.4" fill="#3da44d" fill-rule="evenodd" fill-opacity="1" stroke="#000000" stroke-opacity="1" stroke-width="3.2"/>
<circle clip-path="url(#clip662)" cx="1577.25" cy="1125.5" r="14.4" fill="#3da44d" fill-rule="evenodd" fill-opacity="1" stroke="#000000" stroke-opacity="1" stroke-width="3.2"/>
<circle clip-path="url(#clip662)" cx="1679.69" cy="1254.18" r="14.4" fill="#3da44d" fill-rule="evenodd" fill-opacity="1" stroke="#000000" stroke-opacity="1" stroke-width="3.2"/>
<circle clip-path="url(#clip662)" cx="1782.14" cy="1321.94" r="14.4" fill="#3da44d" fill-rule="evenodd" fill-opacity="1" stroke="#000000" stroke-opacity="1" stroke-width="3.2"/>
<circle clip-path="url(#clip662)" cx="1884.58" cy="1153.61" r="14.4" fill="#3da44d" fill-rule="evenodd" fill-opacity="1" stroke="#000000" stroke-opacity="1" stroke-width="3.2"/>
<circle clip-path="url(#clip662)" cx="1987.03" cy="755.191" r="14.4" fill="#3da44d" fill-rule="evenodd" fill-opacity="1" stroke="#000000" stroke-opacity="1" stroke-width="3.2"/>
<circle clip-path="url(#clip662)" cx="2089.47" cy="636.439" r="14.4" fill="#3da44d" fill-rule="evenodd" fill-opacity="1" stroke="#000000" stroke-opacity="1" stroke-width="3.2"/>
<circle clip-path="url(#clip662)" cx="2191.92" cy="781.863" r="14.4" fill="#3da44d" fill-rule="evenodd" fill-opacity="1" stroke="#000000" stroke-opacity="1" stroke-width="3.2"/>
<circle clip-path="url(#clip662)" cx="2294.36" cy="1080.18" r="14.4" fill="#3da44d" fill-rule="evenodd" fill-opacity="1" stroke="#000000" stroke-opacity="1" stroke-width="3.2"/>
<path clip-path="url(#clip660)" d="M358.289 300.469 L1006.23 300.469 L1006.23 93.1086 L358.289 93.1086  Z" fill="#ffffff" fill-rule="evenodd" fill-opacity="1"/>
<polyline clip-path="url(#clip660)" style="stroke:#000000; stroke-linecap:round; stroke-linejoin:round; stroke-width:4; stroke-opacity:1; fill:none" points="358.289,300.469 1006.23,300.469 1006.23,93.1086 358.289,93.1086 358.289,300.469 "/>
<polyline clip-path="url(#clip660)" style="stroke:#009af9; stroke-linecap:round; stroke-linejoin:round; stroke-width:4; stroke-opacity:1; fill:none" stroke-dasharray="2, 4" points="381.214,144.949 518.763,144.949 "/>
<circle clip-path="url(#clip660)" cx="449.989" cy="144.949" r="19.1041" fill="#009af9" fill-rule="evenodd" fill-opacity="1" stroke="#000000" stroke-opacity="1" stroke-width="4.55111"/>
<path clip-path="url(#clip660)" d="M541.688 127.669 L570.924 127.669 L570.924 131.604 L558.656 131.604 L558.656 162.229 L553.957 162.229 L553.957 131.604 L541.688 131.604 L541.688 127.669 Z" fill="#000000" fill-rule="nonzero" fill-opacity="1" /><path clip-path="url(#clip660)" d="M583.308 140.284 Q582.591 139.868 581.734 139.682 Q580.901 139.474 579.883 139.474 Q576.271 139.474 574.327 141.835 Q572.406 144.173 572.406 148.571 L572.406 162.229 L568.123 162.229 L568.123 136.303 L572.406 136.303 L572.406 140.331 Q573.748 137.969 575.901 136.835 Q578.054 135.678 581.133 135.678 Q581.572 135.678 582.105 135.747 Q582.637 135.794 583.285 135.909 L583.308 140.284 Z" fill="#000000" fill-rule="nonzero" fill-opacity="1" /><path clip-path="url(#clip660)" d="M596.781 139.289 Q593.355 139.289 591.364 141.974 Q589.373 144.636 589.373 149.289 Q589.373 153.942 591.341 156.627 Q593.332 159.289 596.781 159.289 Q600.183 159.289 602.174 156.604 Q604.165 153.918 604.165 149.289 Q604.165 144.682 602.174 141.997 Q600.183 139.289 596.781 139.289 M596.781 135.678 Q602.336 135.678 605.507 139.289 Q608.679 142.9 608.679 149.289 Q608.679 155.655 605.507 159.289 Q602.336 162.9 596.781 162.9 Q591.202 162.9 588.031 159.289 Q584.883 155.655 584.883 149.289 Q584.883 142.9 588.031 139.289 Q591.202 135.678 596.781 135.678 Z" fill="#000000" fill-rule="nonzero" fill-opacity="1" /><path clip-path="url(#clip660)" d="M619.952 128.942 L619.952 136.303 L628.725 136.303 L628.725 139.613 L619.952 139.613 L619.952 153.687 Q619.952 156.858 620.808 157.761 Q621.688 158.664 624.35 158.664 L628.725 158.664 L628.725 162.229 L624.35 162.229 Q619.419 162.229 617.544 160.4 Q615.669 158.548 615.669 153.687 L615.669 139.613 L612.544 139.613 L612.544 136.303 L615.669 136.303 L615.669 128.942 L619.952 128.942 Z" fill="#000000" fill-rule="nonzero" fill-opacity="1" /><path clip-path="url(#clip660)" d="M638.54 128.942 L638.54 136.303 L647.313 136.303 L647.313 139.613 L638.54 139.613 L638.54 153.687 Q638.54 156.858 639.396 157.761 Q640.276 158.664 642.938 158.664 L647.313 158.664 L647.313 162.229 L642.938 162.229 Q638.007 162.229 636.132 160.4 Q634.257 158.548 634.257 153.687 L634.257 139.613 L631.132 139.613 L631.132 136.303 L634.257 136.303 L634.257 128.942 L638.54 128.942 Z" fill="#000000" fill-rule="nonzero" fill-opacity="1" /><path clip-path="url(#clip660)" d="M675.09 148.201 L675.09 150.284 L655.507 150.284 Q655.785 154.682 658.146 156.997 Q660.53 159.289 664.766 159.289 Q667.22 159.289 669.512 158.687 Q671.826 158.085 674.095 156.881 L674.095 160.909 Q671.803 161.881 669.396 162.391 Q666.989 162.9 664.512 162.9 Q658.308 162.9 654.674 159.289 Q651.063 155.678 651.063 149.52 Q651.063 143.155 654.489 139.428 Q657.938 135.678 663.771 135.678 Q669.002 135.678 672.035 139.057 Q675.09 142.414 675.09 148.201 M670.831 146.951 Q670.785 143.456 668.864 141.372 Q666.965 139.289 663.817 139.289 Q660.252 139.289 658.1 141.303 Q655.97 143.317 655.646 146.974 L670.831 146.951 Z" fill="#000000" fill-rule="nonzero" fill-opacity="1" /><path clip-path="url(#clip660)" d="M697.104 140.284 Q696.387 139.868 695.53 139.682 Q694.697 139.474 693.678 139.474 Q690.067 139.474 688.123 141.835 Q686.201 144.173 686.201 148.571 L686.201 162.229 L681.919 162.229 L681.919 136.303 L686.201 136.303 L686.201 140.331 Q687.544 137.969 689.697 136.835 Q691.85 135.678 694.928 135.678 Q695.368 135.678 695.9 135.747 Q696.433 135.794 697.081 135.909 L697.104 140.284 Z" fill="#000000" fill-rule="nonzero" fill-opacity="1" /><path clip-path="url(#clip660)" d="M721.271 158.293 L737.59 158.293 L737.59 162.229 L715.646 162.229 L715.646 158.293 Q718.308 155.539 722.891 150.909 Q727.497 146.256 728.678 144.914 Q730.923 142.391 731.803 140.655 Q732.706 138.895 732.706 137.206 Q732.706 134.451 730.761 132.715 Q728.84 130.979 725.738 130.979 Q723.539 130.979 721.085 131.743 Q718.655 132.507 715.877 134.057 L715.877 129.335 Q718.701 128.201 721.155 127.622 Q723.609 127.044 725.646 127.044 Q731.016 127.044 734.21 129.729 Q737.405 132.414 737.405 136.905 Q737.405 139.034 736.595 140.956 Q735.808 142.854 733.701 145.446 Q733.122 146.118 730.021 149.335 Q726.919 152.53 721.271 158.293 Z" fill="#000000" fill-rule="nonzero" fill-opacity="1" /><path clip-path="url(#clip660)" d="M761.872 126.21 L766.132 126.21 L766.132 162.229 L761.872 162.229 L761.872 126.21 Z" fill="#000000" fill-rule="nonzero" fill-opacity="1" /><path clip-path="url(#clip660)" d="M786.826 149.196 Q781.664 149.196 779.673 150.377 Q777.682 151.557 777.682 154.405 Q777.682 156.673 779.164 158.016 Q780.669 159.335 783.238 159.335 Q786.78 159.335 788.909 156.835 Q791.062 154.312 791.062 150.145 L791.062 149.196 L786.826 149.196 M795.321 147.437 L795.321 162.229 L791.062 162.229 L791.062 158.293 Q789.604 160.655 787.428 161.789 Q785.252 162.9 782.104 162.9 Q778.122 162.9 775.761 160.678 Q773.423 158.432 773.423 154.682 Q773.423 150.307 776.34 148.085 Q779.28 145.863 785.09 145.863 L791.062 145.863 L791.062 145.446 Q791.062 142.507 789.118 140.909 Q787.196 139.289 783.701 139.289 Q781.479 139.289 779.372 139.821 Q777.266 140.354 775.321 141.419 L775.321 137.483 Q777.659 136.581 779.858 136.141 Q782.057 135.678 784.141 135.678 Q789.766 135.678 792.543 138.594 Q795.321 141.511 795.321 147.437 Z" fill="#000000" fill-rule="nonzero" fill-opacity="1" /><path clip-path="url(#clip660)" d="M814.881 164.636 Q813.076 169.266 811.363 170.678 Q809.65 172.09 806.779 172.09 L803.377 172.09 L803.377 168.525 L805.877 168.525 Q807.636 168.525 808.608 167.692 Q809.58 166.858 810.761 163.756 L811.525 161.812 L801.039 136.303 L805.553 136.303 L813.654 156.581 L821.756 136.303 L826.27 136.303 L814.881 164.636 Z" fill="#000000" fill-rule="nonzero" fill-opacity="1" /><path clip-path="url(#clip660)" d="M854.326 148.201 L854.326 150.284 L834.742 150.284 Q835.02 154.682 837.381 156.997 Q839.765 159.289 844.001 159.289 Q846.455 159.289 848.747 158.687 Q851.062 158.085 853.33 156.881 L853.33 160.909 Q851.038 161.881 848.631 162.391 Q846.224 162.9 843.747 162.9 Q837.543 162.9 833.909 159.289 Q830.298 155.678 830.298 149.52 Q830.298 143.155 833.724 139.428 Q837.173 135.678 843.006 135.678 Q848.238 135.678 851.27 139.057 Q854.326 142.414 854.326 148.201 M850.066 146.951 Q850.02 143.456 848.099 141.372 Q846.201 139.289 843.052 139.289 Q839.488 139.289 837.335 141.303 Q835.205 143.317 834.881 146.974 L850.066 146.951 Z" fill="#000000" fill-rule="nonzero" fill-opacity="1" /><path clip-path="url(#clip660)" d="M876.339 140.284 Q875.622 139.868 874.765 139.682 Q873.932 139.474 872.913 139.474 Q869.302 139.474 867.358 141.835 Q865.437 144.173 865.437 148.571 L865.437 162.229 L861.154 162.229 L861.154 136.303 L865.437 136.303 L865.437 140.331 Q866.779 137.969 868.932 136.835 Q871.085 135.678 874.163 135.678 Q874.603 135.678 875.136 135.747 Q875.668 135.794 876.316 135.909 L876.339 140.284 Z" fill="#000000" fill-rule="nonzero" fill-opacity="1" /><path clip-path="url(#clip660)" d="M897.335 137.067 L897.335 141.094 Q895.529 140.169 893.585 139.706 Q891.64 139.243 889.557 139.243 Q886.386 139.243 884.788 140.215 Q883.214 141.187 883.214 143.131 Q883.214 144.613 884.349 145.469 Q885.483 146.303 888.909 147.067 L890.367 147.391 Q894.904 148.363 896.802 150.145 Q898.723 151.905 898.723 155.076 Q898.723 158.687 895.853 160.793 Q893.006 162.9 888.006 162.9 Q885.923 162.9 883.654 162.483 Q881.409 162.09 878.909 161.28 L878.909 156.881 Q881.27 158.108 883.561 158.733 Q885.853 159.335 888.098 159.335 Q891.108 159.335 892.728 158.317 Q894.348 157.275 894.348 155.4 Q894.348 153.664 893.168 152.738 Q892.01 151.812 888.052 150.956 L886.571 150.608 Q882.612 149.775 880.853 148.062 Q879.094 146.326 879.094 143.317 Q879.094 139.659 881.686 137.669 Q884.279 135.678 889.048 135.678 Q891.409 135.678 893.492 136.025 Q895.575 136.372 897.335 137.067 Z" fill="#000000" fill-rule="nonzero" fill-opacity="1" /><polyline clip-path="url(#clip660)" style="stroke:#e26f46; stroke-linecap:round; stroke-linejoin:round; stroke-width:4; stroke-opacity:1; fill:none" stroke-dasharray="2, 4" points="381.214,196.789 518.763,196.789 "/>
<circle clip-path="url(#clip660)" cx="449.989" cy="196.789" r="19.1041" fill="#e26f46" fill-rule="evenodd" fill-opacity="1" stroke="#000000" stroke-opacity="1" stroke-width="4.55111"/>
<path clip-path="url(#clip660)" d="M541.688 179.509 L570.924 179.509 L570.924 183.444 L558.656 183.444 L558.656 214.069 L553.957 214.069 L553.957 183.444 L541.688 183.444 L541.688 179.509 Z" fill="#000000" fill-rule="nonzero" fill-opacity="1" /><path clip-path="url(#clip660)" d="M583.308 192.124 Q582.591 191.708 581.734 191.522 Q580.901 191.314 579.883 191.314 Q576.271 191.314 574.327 193.675 Q572.406 196.013 572.406 200.411 L572.406 214.069 L568.123 214.069 L568.123 188.143 L572.406 188.143 L572.406 192.171 Q573.748 189.809 575.901 188.675 Q578.054 187.518 581.133 187.518 Q581.572 187.518 582.105 187.587 Q582.637 187.634 583.285 187.749 L583.308 192.124 Z" fill="#000000" fill-rule="nonzero" fill-opacity="1" /><path clip-path="url(#clip660)" d="M596.781 191.129 Q593.355 191.129 591.364 193.814 Q589.373 196.476 589.373 201.129 Q589.373 205.782 591.341 208.467 Q593.332 211.129 596.781 211.129 Q600.183 211.129 602.174 208.444 Q604.165 205.758 604.165 201.129 Q604.165 196.522 602.174 193.837 Q600.183 191.129 596.781 191.129 M596.781 187.518 Q602.336 187.518 605.507 191.129 Q608.679 194.74 608.679 201.129 Q608.679 207.495 605.507 211.129 Q602.336 214.74 596.781 214.74 Q591.202 214.74 588.031 211.129 Q584.883 207.495 584.883 201.129 Q584.883 194.74 588.031 191.129 Q591.202 187.518 596.781 187.518 Z" fill="#000000" fill-rule="nonzero" fill-opacity="1" /><path clip-path="url(#clip660)" d="M619.952 180.782 L619.952 188.143 L628.725 188.143 L628.725 191.453 L619.952 191.453 L619.952 205.527 Q619.952 208.698 620.808 209.601 Q621.688 210.504 624.35 210.504 L628.725 210.504 L628.725 214.069 L624.35 214.069 Q619.419 214.069 617.544 212.24 Q615.669 210.388 615.669 205.527 L615.669 191.453 L612.544 191.453 L612.544 188.143 L615.669 188.143 L615.669 180.782 L619.952 180.782 Z" fill="#000000" fill-rule="nonzero" fill-opacity="1" /><path clip-path="url(#clip660)" d="M638.54 180.782 L638.54 188.143 L647.313 188.143 L647.313 191.453 L638.54 191.453 L638.54 205.527 Q638.54 208.698 639.396 209.601 Q640.276 210.504 642.938 210.504 L647.313 210.504 L647.313 214.069 L642.938 214.069 Q638.007 214.069 636.132 212.24 Q634.257 210.388 634.257 205.527 L634.257 191.453 L631.132 191.453 L631.132 188.143 L634.257 188.143 L634.257 180.782 L638.54 180.782 Z" fill="#000000" fill-rule="nonzero" fill-opacity="1" /><path clip-path="url(#clip660)" d="M675.09 200.041 L675.09 202.124 L655.507 202.124 Q655.785 206.522 658.146 208.837 Q660.53 211.129 664.766 211.129 Q667.22 211.129 669.512 210.527 Q671.826 209.925 674.095 208.721 L674.095 212.749 Q671.803 213.721 669.396 214.231 Q666.989 214.74 664.512 214.74 Q658.308 214.74 654.674 211.129 Q651.063 207.518 651.063 201.36 Q651.063 194.995 654.489 191.268 Q657.938 187.518 663.771 187.518 Q669.002 187.518 672.035 190.897 Q675.09 194.254 675.09 200.041 M670.831 198.791 Q670.785 195.296 668.864 193.212 Q666.965 191.129 663.817 191.129 Q660.252 191.129 658.1 193.143 Q655.97 195.157 655.646 198.814 L670.831 198.791 Z" fill="#000000" fill-rule="nonzero" fill-opacity="1" /><path clip-path="url(#clip660)" d="M697.104 192.124 Q696.387 191.708 695.53 191.522 Q694.697 191.314 693.678 191.314 Q690.067 191.314 688.123 193.675 Q686.201 196.013 686.201 200.411 L686.201 214.069 L681.919 214.069 L681.919 188.143 L686.201 188.143 L686.201 192.171 Q687.544 189.809 689.697 188.675 Q691.85 187.518 694.928 187.518 Q695.368 187.518 695.9 187.587 Q696.433 187.634 697.081 187.749 L697.104 192.124 Z" fill="#000000" fill-rule="nonzero" fill-opacity="1" /><path clip-path="url(#clip660)" d="M730.09 183.583 L718.285 202.032 L730.09 202.032 L730.09 183.583 M728.863 179.509 L734.743 179.509 L734.743 202.032 L739.673 202.032 L739.673 205.921 L734.743 205.921 L734.743 214.069 L730.09 214.069 L730.09 205.921 L714.488 205.921 L714.488 201.407 L728.863 179.509 Z" fill="#000000" fill-rule="nonzero" fill-opacity="1" /><path clip-path="url(#clip660)" d="M761.872 178.05 L766.132 178.05 L766.132 214.069 L761.872 214.069 L761.872 178.05 Z" fill="#000000" fill-rule="nonzero" fill-opacity="1" /><path clip-path="url(#clip660)" d="M786.826 201.036 Q781.664 201.036 779.673 202.217 Q777.682 203.397 777.682 206.245 Q777.682 208.513 779.164 209.856 Q780.669 211.175 783.238 211.175 Q786.78 211.175 788.909 208.675 Q791.062 206.152 791.062 201.985 L791.062 201.036 L786.826 201.036 M795.321 199.277 L795.321 214.069 L791.062 214.069 L791.062 210.133 Q789.604 212.495 787.428 213.629 Q785.252 214.74 782.104 214.74 Q778.122 214.74 775.761 212.518 Q773.423 210.272 773.423 206.522 Q773.423 202.147 776.34 199.925 Q779.28 197.703 785.09 197.703 L791.062 197.703 L791.062 197.286 Q791.062 194.347 789.118 192.749 Q787.196 191.129 783.701 191.129 Q781.479 191.129 779.372 191.661 Q777.266 192.194 775.321 193.259 L775.321 189.323 Q777.659 188.421 779.858 187.981 Q782.057 187.518 784.141 187.518 Q789.766 187.518 792.543 190.434 Q795.321 193.351 795.321 199.277 Z" fill="#000000" fill-rule="nonzero" fill-opacity="1" /><path clip-path="url(#clip660)" d="M814.881 216.476 Q813.076 221.106 811.363 222.518 Q809.65 223.93 806.779 223.93 L803.377 223.93 L803.377 220.365 L805.877 220.365 Q807.636 220.365 808.608 219.532 Q809.58 218.698 810.761 215.596 L811.525 213.652 L801.039 188.143 L805.553 188.143 L813.654 208.421 L821.756 188.143 L826.27 188.143 L814.881 216.476 Z" fill="#000000" fill-rule="nonzero" fill-opacity="1" /><path clip-path="url(#clip660)" d="M854.326 200.041 L854.326 202.124 L834.742 202.124 Q835.02 206.522 837.381 208.837 Q839.765 211.129 844.001 211.129 Q846.455 211.129 848.747 210.527 Q851.062 209.925 853.33 208.721 L853.33 212.749 Q851.038 213.721 848.631 214.231 Q846.224 214.74 843.747 214.74 Q837.543 214.74 833.909 211.129 Q830.298 207.518 830.298 201.36 Q830.298 194.995 833.724 191.268 Q837.173 187.518 843.006 187.518 Q848.238 187.518 851.27 190.897 Q854.326 194.254 854.326 200.041 M850.066 198.791 Q850.02 195.296 848.099 193.212 Q846.201 191.129 843.052 191.129 Q839.488 191.129 837.335 193.143 Q835.205 195.157 834.881 198.814 L850.066 198.791 Z" fill="#000000" fill-rule="nonzero" fill-opacity="1" /><path clip-path="url(#clip660)" d="M876.339 192.124 Q875.622 191.708 874.765 191.522 Q873.932 191.314 872.913 191.314 Q869.302 191.314 867.358 193.675 Q865.437 196.013 865.437 200.411 L865.437 214.069 L861.154 214.069 L861.154 188.143 L865.437 188.143 L865.437 192.171 Q866.779 189.809 868.932 188.675 Q871.085 187.518 874.163 187.518 Q874.603 187.518 875.136 187.587 Q875.668 187.634 876.316 187.749 L876.339 192.124 Z" fill="#000000" fill-rule="nonzero" fill-opacity="1" /><path clip-path="url(#clip660)" d="M897.335 188.907 L897.335 192.934 Q895.529 192.009 893.585 191.546 Q891.64 191.083 889.557 191.083 Q886.386 191.083 884.788 192.055 Q883.214 193.027 883.214 194.971 Q883.214 196.453 884.349 197.309 Q885.483 198.143 888.909 198.907 L890.367 199.231 Q894.904 200.203 896.802 201.985 Q898.723 203.745 898.723 206.916 Q898.723 210.527 895.853 212.633 Q893.006 214.74 888.006 214.74 Q885.923 214.74 883.654 214.323 Q881.409 213.93 878.909 213.12 L878.909 208.721 Q881.27 209.948 883.561 210.573 Q885.853 211.175 888.098 211.175 Q891.108 211.175 892.728 210.157 Q894.348 209.115 894.348 207.24 Q894.348 205.504 893.168 204.578 Q892.01 203.652 888.052 202.796 L886.571 202.448 Q882.612 201.615 880.853 199.902 Q879.094 198.166 879.094 195.157 Q879.094 191.499 881.686 189.509 Q884.279 187.518 889.048 187.518 Q891.409 187.518 893.492 187.865 Q895.575 188.212 897.335 188.907 Z" fill="#000000" fill-rule="nonzero" fill-opacity="1" /><polyline clip-path="url(#clip660)" style="stroke:#3da44d; stroke-linecap:round; stroke-linejoin:round; stroke-width:4; stroke-opacity:1; fill:none" stroke-dasharray="2, 4" points="381.214,248.629 518.763,248.629 "/>
<circle clip-path="url(#clip660)" cx="449.989" cy="248.629" r="19.1041" fill="#3da44d" fill-rule="evenodd" fill-opacity="1" stroke="#000000" stroke-opacity="1" stroke-width="4.55111"/>
<path clip-path="url(#clip660)" d="M557.707 234.52 Q552.614 234.52 549.605 238.316 Q546.619 242.112 546.619 248.663 Q546.619 255.191 549.605 258.987 Q552.614 262.784 557.707 262.784 Q562.799 262.784 565.762 258.987 Q568.748 255.191 568.748 248.663 Q568.748 242.112 565.762 238.316 Q562.799 234.52 557.707 234.52 M557.707 230.724 Q564.975 230.724 569.327 235.608 Q573.679 240.469 573.679 248.663 Q573.679 256.835 569.327 261.719 Q564.975 266.58 557.707 266.58 Q550.415 266.58 546.04 261.719 Q541.688 256.858 541.688 248.663 Q541.688 240.469 546.04 235.608 Q550.415 230.724 557.707 230.724 Z" fill="#000000" fill-rule="nonzero" fill-opacity="1" /><path clip-path="url(#clip660)" d="M584.929 262.02 L584.929 275.77 L580.646 275.77 L580.646 239.983 L584.929 239.983 L584.929 243.918 Q586.271 241.603 588.308 240.492 Q590.369 239.358 593.216 239.358 Q597.938 239.358 600.878 243.108 Q603.841 246.858 603.841 252.969 Q603.841 259.08 600.878 262.83 Q597.938 266.58 593.216 266.58 Q590.369 266.58 588.308 265.469 Q586.271 264.335 584.929 262.02 M599.419 252.969 Q599.419 248.27 597.475 245.608 Q595.554 242.923 592.174 242.923 Q588.795 242.923 586.85 245.608 Q584.929 248.27 584.929 252.969 Q584.929 257.668 586.85 260.353 Q588.795 263.015 592.174 263.015 Q595.554 263.015 597.475 260.353 Q599.419 257.668 599.419 252.969 Z" fill="#000000" fill-rule="nonzero" fill-opacity="1" /><path clip-path="url(#clip660)" d="M615.114 232.622 L615.114 239.983 L623.887 239.983 L623.887 243.293 L615.114 243.293 L615.114 257.367 Q615.114 260.538 615.97 261.441 Q616.85 262.344 619.512 262.344 L623.887 262.344 L623.887 265.909 L619.512 265.909 Q614.581 265.909 612.706 264.08 Q610.831 262.228 610.831 257.367 L610.831 243.293 L607.706 243.293 L607.706 239.983 L610.831 239.983 L610.831 232.622 L615.114 232.622 Z" fill="#000000" fill-rule="nonzero" fill-opacity="1" /><path clip-path="url(#clip660)" d="M629.489 239.983 L633.748 239.983 L633.748 265.909 L629.489 265.909 L629.489 239.983 M629.489 229.89 L633.748 229.89 L633.748 235.284 L629.489 235.284 L629.489 229.89 Z" fill="#000000" fill-rule="nonzero" fill-opacity="1" /><path clip-path="url(#clip660)" d="M662.845 244.96 Q664.442 242.089 666.664 240.724 Q668.887 239.358 671.896 239.358 Q675.947 239.358 678.146 242.205 Q680.345 245.029 680.345 250.261 L680.345 265.909 L676.063 265.909 L676.063 250.399 Q676.063 246.673 674.743 244.867 Q673.424 243.062 670.715 243.062 Q667.405 243.062 665.484 245.261 Q663.563 247.46 663.563 251.256 L663.563 265.909 L659.28 265.909 L659.28 250.399 Q659.28 246.649 657.961 244.867 Q656.641 243.062 653.887 243.062 Q650.623 243.062 648.702 245.284 Q646.78 247.483 646.78 251.256 L646.78 265.909 L642.498 265.909 L642.498 239.983 L646.78 239.983 L646.78 244.011 Q648.239 241.626 650.276 240.492 Q652.313 239.358 655.114 239.358 Q657.938 239.358 659.905 240.793 Q661.896 242.228 662.845 244.96 Z" fill="#000000" fill-rule="nonzero" fill-opacity="1" /><path clip-path="url(#clip660)" d="M688.84 239.983 L693.1 239.983 L693.1 265.909 L688.84 265.909 L688.84 239.983 M688.84 229.89 L693.1 229.89 L693.1 235.284 L688.84 235.284 L688.84 229.89 Z" fill="#000000" fill-rule="nonzero" fill-opacity="1" /><path clip-path="url(#clip660)" d="M700.16 239.983 L720.391 239.983 L720.391 243.872 L704.373 262.506 L720.391 262.506 L720.391 265.909 L699.581 265.909 L699.581 262.02 L715.599 243.386 L700.16 243.386 L700.16 239.983 Z" fill="#000000" fill-rule="nonzero" fill-opacity="1" /><path clip-path="url(#clip660)" d="M749.071 251.881 L749.071 253.964 L729.488 253.964 Q729.766 258.362 732.127 260.677 Q734.511 262.969 738.747 262.969 Q741.201 262.969 743.493 262.367 Q745.808 261.765 748.076 260.561 L748.076 264.589 Q745.784 265.561 743.377 266.071 Q740.97 266.58 738.493 266.58 Q732.289 266.58 728.655 262.969 Q725.044 259.358 725.044 253.2 Q725.044 246.835 728.47 243.108 Q731.919 239.358 737.752 239.358 Q742.984 239.358 746.016 242.737 Q749.071 246.094 749.071 251.881 M744.812 250.631 Q744.766 247.136 742.845 245.052 Q740.946 242.969 737.798 242.969 Q734.234 242.969 732.081 244.983 Q729.951 246.997 729.627 250.654 L744.812 250.631 Z" fill="#000000" fill-rule="nonzero" fill-opacity="1" /><path clip-path="url(#clip660)" d="M773.122 243.918 L773.122 229.89 L777.381 229.89 L777.381 265.909 L773.122 265.909 L773.122 262.02 Q771.78 264.335 769.719 265.469 Q767.682 266.58 764.812 266.58 Q760.113 266.58 757.15 262.83 Q754.21 259.08 754.21 252.969 Q754.21 246.858 757.15 243.108 Q760.113 239.358 764.812 239.358 Q767.682 239.358 769.719 240.492 Q771.78 241.603 773.122 243.918 M758.608 252.969 Q758.608 257.668 760.53 260.353 Q762.474 263.015 765.854 263.015 Q769.233 263.015 771.178 260.353 Q773.122 257.668 773.122 252.969 Q773.122 248.27 771.178 245.608 Q769.233 242.923 765.854 242.923 Q762.474 242.923 760.53 245.608 Q758.608 248.27 758.608 252.969 Z" fill="#000000" fill-rule="nonzero" fill-opacity="1" /><path clip-path="url(#clip660)" d="M805.854 261.973 L822.173 261.973 L822.173 265.909 L800.229 265.909 L800.229 261.973 Q802.891 259.219 807.474 254.589 Q812.08 249.936 813.261 248.594 Q815.506 246.071 816.386 244.335 Q817.289 242.575 817.289 240.886 Q817.289 238.131 815.344 236.395 Q813.423 234.659 810.321 234.659 Q808.122 234.659 805.668 235.423 Q803.238 236.187 800.46 237.737 L800.46 233.015 Q803.284 231.881 805.738 231.302 Q808.192 230.724 810.229 230.724 Q815.599 230.724 818.793 233.409 Q821.988 236.094 821.988 240.585 Q821.988 242.714 821.178 244.636 Q820.391 246.534 818.284 249.126 Q817.705 249.798 814.604 253.015 Q811.502 256.21 805.854 261.973 Z" fill="#000000" fill-rule="nonzero" fill-opacity="1" /><path clip-path="url(#clip660)" d="M846.455 229.89 L850.714 229.89 L850.714 265.909 L846.455 265.909 L846.455 229.89 Z" fill="#000000" fill-rule="nonzero" fill-opacity="1" /><path clip-path="url(#clip660)" d="M871.409 252.876 Q866.247 252.876 864.256 254.057 Q862.265 255.237 862.265 258.085 Q862.265 260.353 863.747 261.696 Q865.251 263.015 867.821 263.015 Q871.362 263.015 873.492 260.515 Q875.645 257.992 875.645 253.825 L875.645 252.876 L871.409 252.876 M879.904 251.117 L879.904 265.909 L875.645 265.909 L875.645 261.973 Q874.187 264.335 872.011 265.469 Q869.835 266.58 866.687 266.58 Q862.705 266.58 860.344 264.358 Q858.006 262.112 858.006 258.362 Q858.006 253.987 860.923 251.765 Q863.863 249.543 869.673 249.543 L875.645 249.543 L875.645 249.126 Q875.645 246.187 873.7 244.589 Q871.779 242.969 868.284 242.969 Q866.062 242.969 863.955 243.501 Q861.849 244.034 859.904 245.099 L859.904 241.163 Q862.242 240.261 864.441 239.821 Q866.64 239.358 868.724 239.358 Q874.349 239.358 877.126 242.274 Q879.904 245.191 879.904 251.117 Z" fill="#000000" fill-rule="nonzero" fill-opacity="1" /><path clip-path="url(#clip660)" d="M899.464 268.316 Q897.659 272.946 895.946 274.358 Q894.233 275.77 891.362 275.77 L887.96 275.77 L887.96 272.205 L890.46 272.205 Q892.219 272.205 893.191 271.372 Q894.163 270.538 895.344 267.436 L896.108 265.492 L885.622 239.983 L890.136 239.983 L898.237 260.261 L906.339 239.983 L910.853 239.983 L899.464 268.316 Z" fill="#000000" fill-rule="nonzero" fill-opacity="1" /><path clip-path="url(#clip660)" d="M938.908 251.881 L938.908 253.964 L919.325 253.964 Q919.603 258.362 921.964 260.677 Q924.348 262.969 928.584 262.969 Q931.038 262.969 933.33 262.367 Q935.645 261.765 937.913 260.561 L937.913 264.589 Q935.621 265.561 933.214 266.071 Q930.807 266.58 928.33 266.58 Q922.126 266.58 918.492 262.969 Q914.881 259.358 914.881 253.2 Q914.881 246.835 918.307 243.108 Q921.756 239.358 927.589 239.358 Q932.82 239.358 935.853 242.737 Q938.908 246.094 938.908 251.881 M934.649 250.631 Q934.603 247.136 932.682 245.052 Q930.783 242.969 927.635 242.969 Q924.071 242.969 921.918 244.983 Q919.788 246.997 919.464 250.654 L934.649 250.631 Z" fill="#000000" fill-rule="nonzero" fill-opacity="1" /><path clip-path="url(#clip660)" d="M960.922 243.964 Q960.205 243.548 959.348 243.362 Q958.515 243.154 957.496 243.154 Q953.885 243.154 951.941 245.515 Q950.019 247.853 950.019 252.251 L950.019 265.909 L945.737 265.909 L945.737 239.983 L950.019 239.983 L950.019 244.011 Q951.362 241.649 953.515 240.515 Q955.668 239.358 958.746 239.358 Q959.186 239.358 959.718 239.427 Q960.251 239.474 960.899 239.589 L960.922 243.964 Z" fill="#000000" fill-rule="nonzero" fill-opacity="1" /><path clip-path="url(#clip660)" d="M981.917 240.747 L981.917 244.774 Q980.112 243.849 978.167 243.386 Q976.223 242.923 974.14 242.923 Q970.968 242.923 969.371 243.895 Q967.797 244.867 967.797 246.811 Q967.797 248.293 968.931 249.149 Q970.066 249.983 973.492 250.747 L974.95 251.071 Q979.487 252.043 981.385 253.825 Q983.306 255.585 983.306 258.756 Q983.306 262.367 980.436 264.473 Q977.589 266.58 972.589 266.58 Q970.505 266.58 968.237 266.163 Q965.992 265.77 963.492 264.96 L963.492 260.561 Q965.853 261.788 968.144 262.413 Q970.436 263.015 972.681 263.015 Q975.691 263.015 977.311 261.997 Q978.931 260.955 978.931 259.08 Q978.931 257.344 977.751 256.418 Q976.593 255.492 972.635 254.636 L971.154 254.288 Q967.195 253.455 965.436 251.742 Q963.677 250.006 963.677 246.997 Q963.677 243.339 966.269 241.349 Q968.862 239.358 973.63 239.358 Q975.992 239.358 978.075 239.705 Q980.158 240.052 981.917 240.747 Z" fill="#000000" fill-rule="nonzero" fill-opacity="1" /></svg>
