<?xml version="1.0" encoding="UTF-8" standalone="no"?>
<!DOCTYPE svg PUBLIC "-//W3C//DTD SVG 1.1//EN"
 "http://www.w3.org/Graphics/SVG/1.1/DTD/svg11.dtd">
<!-- Generated by graphviz version 2.43.0 (0)
 -->
<!-- Title: G Pages: 1 -->
<svg width="386pt" height="723pt"
 viewBox="0.00 0.00 385.98 722.58" xmlns="http://www.w3.org/2000/svg" xmlns:xlink="http://www.w3.org/1999/xlink">
<g id="graph0" class="graph" transform="scale(1 1) rotate(0) translate(4 718.58)">
<title>G</title>
<polygon fill="white" stroke="transparent" points="-4,4 -4,-718.58 381.98,-718.58 381.98,4 -4,4"/>
<text text-anchor="middle" x="188.99" y="-7.8" font-family="Times,serif" font-size="14.00">Pauli Propagation Graph</text>
<!-- 1 -->
<g id="node1" class="node">
<title>1</title>
<ellipse fill="none" stroke="black" cx="60.99" cy="-142.12" rx="48.17" ry="24.08"/>
<text text-anchor="middle" x="60.99" y="-145.52" font-family="Arial" font-size="12.00">Y</text>
<text text-anchor="middle" x="60.99" y="-132.52" font-family="Arial" font-size="12.00">(MERGE)</text>
</g>
<!-- 7 -->
<g id="node7" class="node">
<title>7</title>
<ellipse fill="none" stroke="black" cx="60.99" cy="-47.04" rx="27" ry="24.08"/>
<text text-anchor="middle" x="60.99" y="-50.44" font-family="Arial" font-size="12.00">Y</text>
<text text-anchor="middle" x="60.99" y="-37.44" font-family="Arial" font-size="12.00">(X)</text>
</g>
<!-- 1&#45;&gt;7 -->
<g id="edge22" class="edge">
<title>1&#45;&gt;7</title>
<path fill="none" stroke="black" d="M60.99,-117.64C60.99,-106.64 60.99,-93.34 60.99,-81.33"/>
<polygon fill="black" stroke="black" points="64.49,-81.2 60.99,-71.2 57.49,-81.2 64.49,-81.2"/>
<text text-anchor="middle" x="69.49" y="-92.08" font-family="Arial" font-size="10.00">&#45;1.0</text>
</g>
<!-- 2 -->
<g id="node2" class="node">
<title>2</title>
<ellipse fill="none" stroke="black" cx="56.99" cy="-322.29" rx="27" ry="24.08"/>
<text text-anchor="middle" x="56.99" y="-325.69" font-family="Arial" font-size="12.00">Y</text>
<text text-anchor="middle" x="56.99" y="-312.69" font-family="Arial" font-size="12.00">(H)</text>
</g>
<!-- 9 -->
<g id="node9" class="node">
<title>9</title>
<ellipse fill="none" stroke="black" cx="28.99" cy="-227.21" rx="28.98" ry="24.08"/>
<text text-anchor="middle" x="28.99" y="-230.61" font-family="Arial" font-size="12.00">Y</text>
<text text-anchor="middle" x="28.99" y="-217.61" font-family="Arial" font-size="12.00">(RX)</text>
</g>
<!-- 2&#45;&gt;9 -->
<g id="edge26" class="edge">
<title>2&#45;&gt;9</title>
<path fill="none" stroke="black" d="M50.21,-298.76C46.77,-287.3 42.51,-273.16 38.72,-260.55"/>
<polygon fill="black" stroke="black" points="42.04,-259.42 35.8,-250.86 35.33,-261.44 42.04,-259.42"/>
<text text-anchor="middle" x="56.49" y="-272.25" font-family="Arial" font-size="10.00">0.707</text>
</g>
<!-- 11 -->
<g id="node11" class="node">
<title>11</title>
<ellipse fill="none" stroke="black" cx="104.99" cy="-227.21" rx="28.98" ry="24.08"/>
<text text-anchor="middle" x="104.99" y="-230.61" font-family="Arial" font-size="12.00">Z</text>
<text text-anchor="middle" x="104.99" y="-217.61" font-family="Arial" font-size="12.00">(RX)</text>
</g>
<!-- 2&#45;&gt;11 -->
<g id="edge7" class="edge">
<title>2&#45;&gt;11</title>
<path fill="none" stroke="black" d="M67.88,-300.17C74.22,-287.88 82.32,-272.18 89.33,-258.58"/>
<polygon fill="black" stroke="black" points="92.5,-260.06 93.98,-249.57 86.28,-256.85 92.5,-260.06"/>
<text text-anchor="middle" x="96.99" y="-272.25" font-family="Arial" font-size="10.00">&#45;0.707</text>
</g>
<!-- 3 -->
<g id="node3" class="node">
<title>3</title>
<ellipse fill="none" stroke="black" cx="272.99" cy="-512.46" rx="28.98" ry="24.08"/>
<text text-anchor="middle" x="272.99" y="-515.86" font-family="Arial" font-size="12.00">X</text>
<text text-anchor="middle" x="272.99" y="-502.86" font-family="Arial" font-size="12.00">(RZ)</text>
</g>
<!-- 26 -->
<g id="node26" class="node">
<title>26</title>
<ellipse fill="none" stroke="black" cx="206.99" cy="-417.37" rx="48.17" ry="24.08"/>
<text text-anchor="middle" x="206.99" y="-420.77" font-family="Arial" font-size="12.00">X</text>
<text text-anchor="middle" x="206.99" y="-407.77" font-family="Arial" font-size="12.00">(MERGE)</text>
</g>
<!-- 3&#45;&gt;26 -->
<g id="edge16" class="edge">
<title>3&#45;&gt;26</title>
<path fill="none" stroke="black" d="M258.67,-491.26C249.82,-478.77 238.29,-462.51 228.37,-448.52"/>
<polygon fill="black" stroke="black" points="231.07,-446.29 222.44,-440.16 225.36,-450.34 231.07,-446.29"/>
</g>
<!-- 4 -->
<g id="node4" class="node">
<title>4</title>
<ellipse fill="none" stroke="black" cx="44.99" cy="-512.46" rx="28.98" ry="24.08"/>
<text text-anchor="middle" x="44.99" y="-515.86" font-family="Arial" font-size="12.00">Y</text>
<text text-anchor="middle" x="44.99" y="-502.86" font-family="Arial" font-size="12.00">(RZ)</text>
</g>
<!-- 17 -->
<g id="node17" class="node">
<title>17</title>
<ellipse fill="none" stroke="black" cx="56.99" cy="-417.37" rx="48.17" ry="24.08"/>
<text text-anchor="middle" x="56.99" y="-420.77" font-family="Arial" font-size="12.00">Y</text>
<text text-anchor="middle" x="56.99" y="-407.77" font-family="Arial" font-size="12.00">(MERGE)</text>
</g>
<!-- 4&#45;&gt;17 -->
<g id="edge25" class="edge">
<title>4&#45;&gt;17</title>
<path fill="none" stroke="black" d="M47.96,-488.45C49.39,-477.37 51.12,-463.88 52.69,-451.71"/>
<polygon fill="black" stroke="black" points="56.21,-451.81 54.02,-441.44 49.27,-450.91 56.21,-451.81"/>
</g>
<!-- 5 -->
<g id="node5" class="node">
<title>5</title>
<ellipse fill="none" stroke="black" cx="73.99" cy="-696.58" rx="27" ry="18"/>
<text text-anchor="middle" x="73.99" y="-693.48" font-family="Arial" font-size="12.00">X</text>
</g>
<!-- 13 -->
<g id="node13" class="node">
<title>13</title>
<ellipse fill="none" stroke="black" cx="73.99" cy="-607.54" rx="27" ry="24.08"/>
<text text-anchor="middle" x="73.99" y="-610.94" font-family="Arial" font-size="12.00">X</text>
<text text-anchor="middle" x="73.99" y="-597.94" font-family="Arial" font-size="12.00">(Z)</text>
</g>
<!-- 5&#45;&gt;13 -->
<g id="edge21" class="edge">
<title>5&#45;&gt;13</title>
<path fill="none" stroke="black" d="M73.99,-678.39C73.99,-667.94 73.99,-654.24 73.99,-641.75"/>
<polygon fill="black" stroke="black" points="77.49,-641.64 73.99,-631.64 70.49,-641.64 77.49,-641.64"/>
<text text-anchor="middle" x="82.49" y="-652.58" font-family="Arial" font-size="10.00">&#45;1.0</text>
</g>
<!-- 6 -->
<g id="node6" class="node">
<title>6</title>
<ellipse fill="none" stroke="black" cx="348.99" cy="-322.29" rx="28.98" ry="24.08"/>
<text text-anchor="middle" x="348.99" y="-325.69" font-family="Arial" font-size="12.00">X</text>
<text text-anchor="middle" x="348.99" y="-312.69" font-family="Arial" font-size="12.00">(RX)</text>
</g>
<!-- 8 -->
<g id="node8" class="node">
<title>8</title>
<ellipse fill="none" stroke="black" cx="348.99" cy="-227.21" rx="27" ry="24.08"/>
<text text-anchor="middle" x="348.99" y="-230.61" font-family="Arial" font-size="12.00">X</text>
<text text-anchor="middle" x="348.99" y="-217.61" font-family="Arial" font-size="12.00">(X)</text>
</g>
<!-- 6&#45;&gt;8 -->
<g id="edge19" class="edge">
<title>6&#45;&gt;8</title>
<path fill="none" stroke="black" d="M348.99,-297.8C348.99,-286.81 348.99,-273.51 348.99,-261.5"/>
<polygon fill="black" stroke="black" points="352.49,-261.37 348.99,-251.37 345.49,-261.37 352.49,-261.37"/>
<text text-anchor="middle" x="355.99" y="-272.25" font-family="Arial" font-size="10.00">1.0</text>
</g>
<!-- 9&#45;&gt;1 -->
<g id="edge15" class="edge">
<title>9&#45;&gt;1</title>
<path fill="none" stroke="black" d="M37.57,-203.94C40.92,-195.24 44.83,-185.08 48.49,-175.59"/>
<polygon fill="black" stroke="black" points="51.84,-176.62 52.17,-166.03 45.31,-174.1 51.84,-176.62"/>
</g>
<!-- 10 -->
<g id="node10" class="node">
<title>10</title>
<ellipse fill="none" stroke="black" cx="177.99" cy="-142.12" rx="48.17" ry="24.08"/>
<text text-anchor="middle" x="177.99" y="-145.52" font-family="Arial" font-size="12.00">Z</text>
<text text-anchor="middle" x="177.99" y="-132.52" font-family="Arial" font-size="12.00">(MERGE)</text>
</g>
<!-- 21 -->
<g id="node21" class="node">
<title>21</title>
<ellipse fill="none" stroke="black" cx="177.99" cy="-47.04" rx="27" ry="24.08"/>
<text text-anchor="middle" x="177.99" y="-50.44" font-family="Arial" font-size="12.00">Z</text>
<text text-anchor="middle" x="177.99" y="-37.44" font-family="Arial" font-size="12.00">(X)</text>
</g>
<!-- 10&#45;&gt;21 -->
<g id="edge10" class="edge">
<title>10&#45;&gt;21</title>
<path fill="none" stroke="black" d="M177.99,-117.64C177.99,-106.64 177.99,-93.34 177.99,-81.33"/>
<polygon fill="black" stroke="black" points="181.49,-81.2 177.99,-71.2 174.49,-81.2 181.49,-81.2"/>
<text text-anchor="middle" x="186.49" y="-92.08" font-family="Arial" font-size="10.00">&#45;1.0</text>
</g>
<!-- 11&#45;&gt;10 -->
<g id="edge18" class="edge">
<title>11&#45;&gt;10</title>
<path fill="none" stroke="black" d="M121.56,-207.36C130.65,-197.01 142.12,-183.95 152.34,-172.32"/>
<polygon fill="black" stroke="black" points="155.2,-174.36 159.18,-164.54 149.95,-169.74 155.2,-174.36"/>
</g>
<!-- 12 -->
<g id="node12" class="node">
<title>12</title>
<ellipse fill="none" stroke="black" cx="234.99" cy="-696.58" rx="27" ry="18"/>
<text text-anchor="middle" x="234.99" y="-693.48" font-family="Arial" font-size="12.00">Y</text>
</g>
<!-- 14 -->
<g id="node14" class="node">
<title>14</title>
<ellipse fill="none" stroke="black" cx="234.99" cy="-607.54" rx="27" ry="24.08"/>
<text text-anchor="middle" x="234.99" y="-610.94" font-family="Arial" font-size="12.00">Y</text>
<text text-anchor="middle" x="234.99" y="-597.94" font-family="Arial" font-size="12.00">(Z)</text>
</g>
<!-- 12&#45;&gt;14 -->
<g id="edge4" class="edge">
<title>12&#45;&gt;14</title>
<path fill="none" stroke="black" d="M234.99,-678.39C234.99,-667.94 234.99,-654.24 234.99,-641.75"/>
<polygon fill="black" stroke="black" points="238.49,-641.64 234.99,-631.64 231.49,-641.64 238.49,-641.64"/>
<text text-anchor="middle" x="243.49" y="-652.58" font-family="Arial" font-size="10.00">&#45;1.0</text>
</g>
<!-- 13&#45;&gt;4 -->
<g id="edge2" class="edge">
<title>13&#45;&gt;4</title>
<path fill="none" stroke="black" d="M66.97,-584.01C63.4,-572.55 59,-558.41 55.07,-545.8"/>
<polygon fill="black" stroke="black" points="58.36,-544.61 52.05,-536.11 51.68,-546.69 58.36,-544.61"/>
<text text-anchor="middle" x="69.49" y="-557.5" font-family="Arial" font-size="10.00">&#45;0.5</text>
</g>
<!-- 16 -->
<g id="node16" class="node">
<title>16</title>
<ellipse fill="none" stroke="black" cx="120.99" cy="-512.46" rx="28.98" ry="24.08"/>
<text text-anchor="middle" x="120.99" y="-515.86" font-family="Arial" font-size="12.00">X</text>
<text text-anchor="middle" x="120.99" y="-502.86" font-family="Arial" font-size="12.00">(RZ)</text>
</g>
<!-- 13&#45;&gt;16 -->
<g id="edge14" class="edge">
<title>13&#45;&gt;16</title>
<path fill="none" stroke="black" d="M84.66,-585.42C90.86,-573.13 98.79,-557.43 105.66,-543.83"/>
<polygon fill="black" stroke="black" points="108.82,-545.32 110.21,-534.82 102.57,-542.17 108.82,-545.32"/>
<text text-anchor="middle" x="111.49" y="-557.5" font-family="Arial" font-size="10.00">0.866</text>
</g>
<!-- 14&#45;&gt;3 -->
<g id="edge1" class="edge">
<title>14&#45;&gt;3</title>
<path fill="none" stroke="black" d="M244,-584.48C248.82,-572.66 254.85,-557.89 260.16,-544.88"/>
<polygon fill="black" stroke="black" points="263.51,-545.94 264.05,-535.36 257.03,-543.29 263.51,-545.94"/>
<text text-anchor="middle" x="262.99" y="-557.5" font-family="Arial" font-size="10.00">0.5</text>
</g>
<!-- 18 -->
<g id="node18" class="node">
<title>18</title>
<ellipse fill="none" stroke="black" cx="196.99" cy="-512.46" rx="28.98" ry="24.08"/>
<text text-anchor="middle" x="196.99" y="-515.86" font-family="Arial" font-size="12.00">Y</text>
<text text-anchor="middle" x="196.99" y="-502.86" font-family="Arial" font-size="12.00">(RZ)</text>
</g>
<!-- 14&#45;&gt;18 -->
<g id="edge27" class="edge">
<title>14&#45;&gt;18</title>
<path fill="none" stroke="black" d="M225.99,-584.48C221.16,-572.66 215.13,-557.89 209.82,-544.88"/>
<polygon fill="black" stroke="black" points="212.95,-543.29 205.93,-535.36 206.47,-545.94 212.95,-543.29"/>
<text text-anchor="middle" x="230.49" y="-557.5" font-family="Arial" font-size="10.00">0.866</text>
</g>
<!-- 15 -->
<g id="node15" class="node">
<title>15</title>
<ellipse fill="none" stroke="black" cx="348.99" cy="-512.46" rx="28.98" ry="24.08"/>
<text text-anchor="middle" x="348.99" y="-515.86" font-family="Arial" font-size="12.00">Z</text>
<text text-anchor="middle" x="348.99" y="-502.86" font-family="Arial" font-size="12.00">(RZ)</text>
</g>
<!-- 20 -->
<g id="node20" class="node">
<title>20</title>
<ellipse fill="none" stroke="black" cx="348.99" cy="-417.37" rx="27" ry="24.08"/>
<text text-anchor="middle" x="348.99" y="-420.77" font-family="Arial" font-size="12.00">X</text>
<text text-anchor="middle" x="348.99" y="-407.77" font-family="Arial" font-size="12.00">(H)</text>
</g>
<!-- 15&#45;&gt;20 -->
<g id="edge12" class="edge">
<title>15&#45;&gt;20</title>
<path fill="none" stroke="black" d="M348.99,-487.97C348.99,-476.97 348.99,-463.68 348.99,-451.67"/>
<polygon fill="black" stroke="black" points="352.49,-451.53 348.99,-441.53 345.49,-451.53 352.49,-451.53"/>
<text text-anchor="middle" x="355.99" y="-462.42" font-family="Arial" font-size="10.00">1.0</text>
</g>
<!-- 16&#45;&gt;26 -->
<g id="edge24" class="edge">
<title>16&#45;&gt;26</title>
<path fill="none" stroke="black" d="M138.39,-492.62C150.52,-479.5 166.9,-461.77 180.62,-446.92"/>
<polygon fill="black" stroke="black" points="183.3,-449.18 187.51,-439.46 178.16,-444.43 183.3,-449.18"/>
</g>
<!-- 17&#45;&gt;2 -->
<g id="edge3" class="edge">
<title>17&#45;&gt;2</title>
<path fill="none" stroke="black" d="M56.99,-392.89C56.99,-381.89 56.99,-368.59 56.99,-356.58"/>
<polygon fill="black" stroke="black" points="60.49,-356.45 56.99,-346.45 53.49,-356.45 60.49,-356.45"/>
<text text-anchor="middle" x="65.49" y="-367.33" font-family="Arial" font-size="10.00">&#45;1.0</text>
</g>
<!-- 18&#45;&gt;17 -->
<g id="edge13" class="edge">
<title>18&#45;&gt;17</title>
<path fill="none" stroke="black" d="M174.81,-496.71C152.99,-482.2 119.29,-459.8 93.52,-442.66"/>
<polygon fill="black" stroke="black" points="95.37,-439.69 85.11,-437.07 91.5,-445.52 95.37,-439.69"/>
</g>
<!-- 19 -->
<g id="node19" class="node">
<title>19</title>
<ellipse fill="none" stroke="black" cx="348.99" cy="-607.54" rx="27" ry="24.08"/>
<text text-anchor="middle" x="348.99" y="-610.94" font-family="Arial" font-size="12.00">Z</text>
<text text-anchor="middle" x="348.99" y="-597.94" font-family="Arial" font-size="12.00">(Z)</text>
</g>
<!-- 19&#45;&gt;15 -->
<g id="edge23" class="edge">
<title>19&#45;&gt;15</title>
<path fill="none" stroke="black" d="M348.99,-583.05C348.99,-572.06 348.99,-558.76 348.99,-546.75"/>
<polygon fill="black" stroke="black" points="352.49,-546.62 348.99,-536.62 345.49,-546.62 352.49,-546.62"/>
<text text-anchor="middle" x="351.99" y="-557.5" font-family="Arial" font-size="10.00">1</text>
</g>
<!-- 20&#45;&gt;6 -->
<g id="edge20" class="edge">
<title>20&#45;&gt;6</title>
<path fill="none" stroke="black" d="M348.99,-392.89C348.99,-381.89 348.99,-368.59 348.99,-356.58"/>
<polygon fill="black" stroke="black" points="352.49,-356.45 348.99,-346.45 345.49,-356.45 352.49,-356.45"/>
<text text-anchor="middle" x="351.99" y="-367.33" font-family="Arial" font-size="10.00">1</text>
</g>
<!-- 22 -->
<g id="node22" class="node">
<title>22</title>
<ellipse fill="none" stroke="black" cx="348.99" cy="-696.58" rx="27" ry="18"/>
<text text-anchor="middle" x="348.99" y="-693.48" font-family="Arial" font-size="12.00">Z</text>
</g>
<!-- 22&#45;&gt;19 -->
<g id="edge8" class="edge">
<title>22&#45;&gt;19</title>
<path fill="none" stroke="black" d="M348.99,-678.39C348.99,-667.94 348.99,-654.24 348.99,-641.75"/>
<polygon fill="black" stroke="black" points="352.49,-641.64 348.99,-631.64 345.49,-641.64 352.49,-641.64"/>
<text text-anchor="middle" x="355.99" y="-652.58" font-family="Arial" font-size="10.00">1.0</text>
</g>
<!-- 23 -->
<g id="node23" class="node">
<title>23</title>
<ellipse fill="none" stroke="black" cx="206.99" cy="-322.29" rx="27" ry="24.08"/>
<text text-anchor="middle" x="206.99" y="-325.69" font-family="Arial" font-size="12.00">Z</text>
<text text-anchor="middle" x="206.99" y="-312.69" font-family="Arial" font-size="12.00">(H)</text>
</g>
<!-- 24 -->
<g id="node24" class="node">
<title>24</title>
<ellipse fill="none" stroke="black" cx="256.99" cy="-227.21" rx="28.98" ry="24.08"/>
<text text-anchor="middle" x="256.99" y="-230.61" font-family="Arial" font-size="12.00">Z</text>
<text text-anchor="middle" x="256.99" y="-217.61" font-family="Arial" font-size="12.00">(RX)</text>
</g>
<!-- 23&#45;&gt;24 -->
<g id="edge5" class="edge">
<title>23&#45;&gt;24</title>
<path fill="none" stroke="black" d="M218.34,-300.17C224.94,-287.88 233.37,-272.18 240.68,-258.58"/>
<polygon fill="black" stroke="black" points="243.87,-260.03 245.52,-249.57 237.7,-256.72 243.87,-260.03"/>
<text text-anchor="middle" x="246.49" y="-272.25" font-family="Arial" font-size="10.00">0.707</text>
</g>
<!-- 25 -->
<g id="node25" class="node">
<title>25</title>
<ellipse fill="none" stroke="black" cx="180.99" cy="-227.21" rx="28.98" ry="24.08"/>
<text text-anchor="middle" x="180.99" y="-230.61" font-family="Arial" font-size="12.00">Y</text>
<text text-anchor="middle" x="180.99" y="-217.61" font-family="Arial" font-size="12.00">(RX)</text>
</g>
<!-- 23&#45;&gt;25 -->
<g id="edge17" class="edge">
<title>23&#45;&gt;25</title>
<path fill="none" stroke="black" d="M200.7,-298.76C197.5,-287.3 193.55,-273.16 190.03,-260.55"/>
<polygon fill="black" stroke="black" points="193.38,-259.55 187.32,-250.86 186.64,-261.43 193.38,-259.55"/>
<text text-anchor="middle" x="207.49" y="-272.25" font-family="Arial" font-size="10.00">0.707</text>
</g>
<!-- 24&#45;&gt;10 -->
<g id="edge11" class="edge">
<title>24&#45;&gt;10</title>
<path fill="none" stroke="black" d="M239.46,-207.77C229.39,-197.18 216.53,-183.66 205.18,-171.72"/>
<polygon fill="black" stroke="black" points="207.41,-168.98 197.98,-164.15 202.33,-173.81 207.41,-168.98"/>
</g>
<!-- 25&#45;&gt;1 -->
<g id="edge9" class="edge">
<title>25&#45;&gt;1</title>
<path fill="none" stroke="black" d="M159.26,-211.16C141.89,-199.13 117.16,-182.02 96.86,-167.96"/>
<polygon fill="black" stroke="black" points="98.68,-164.96 88.47,-162.15 94.7,-170.72 98.68,-164.96"/>
</g>
<!-- 26&#45;&gt;23 -->
<g id="edge6" class="edge">
<title>26&#45;&gt;23</title>
<path fill="none" stroke="black" d="M206.99,-392.89C206.99,-381.89 206.99,-368.59 206.99,-356.58"/>
<polygon fill="black" stroke="black" points="210.49,-356.45 206.99,-346.45 203.49,-356.45 210.49,-356.45"/>
<text text-anchor="middle" x="213.99" y="-367.33" font-family="Arial" font-size="10.00">1.0</text>
</g>
</g>
</svg>
