<?xml version="1.0" encoding="UTF-8" standalone="no"?>
<!DOCTYPE svg PUBLIC "-//W3C//DTD SVG 1.1//EN"
 "http://www.w3.org/Graphics/SVG/1.1/DTD/svg11.dtd">
<!-- Generated by graphviz version 2.43.0 (0)
 -->
<!-- Title: G Pages: 1 -->
<svg width="383pt" height="542pt"
 viewBox="0.00 0.00 382.98 542.42" xmlns="http://www.w3.org/2000/svg" xmlns:xlink="http://www.w3.org/1999/xlink">
<g id="graph0" class="graph" transform="scale(1 1) rotate(0) translate(4 538.42)">
<title>G</title>
<polygon fill="white" stroke="transparent" points="-4,4 -4,-538.42 378.98,-538.42 378.98,4 -4,4"/>
<text text-anchor="middle" x="187.49" y="-7.8" font-family="Times,serif" font-size="14.00">Pauli Propagation example</text>
<!-- 1 -->
<g id="node1" class="node">
<title>1</title>
<ellipse fill="none" stroke="black" cx="59.99" cy="-427.37" rx="27" ry="24.08"/>
<text text-anchor="middle" x="59.99" y="-430.77" font-family="Arial" font-size="12.00">X</text>
<text text-anchor="middle" x="59.99" y="-417.77" font-family="Arial" font-size="12.00">(Z)</text>
</g>
<!-- 15 -->
<g id="node15" class="node">
<title>15</title>
<ellipse fill="none" stroke="black" cx="30.99" cy="-332.29" rx="28.98" ry="24.08"/>
<text text-anchor="middle" x="30.99" y="-335.69" font-family="Arial" font-size="12.00">Y</text>
<text text-anchor="middle" x="30.99" y="-322.69" font-family="Arial" font-size="12.00">(RZ)</text>
</g>
<!-- 1&#45;&gt;15 -->
<g id="edge22" class="edge">
<title>1&#45;&gt;15</title>
<path fill="none" stroke="black" d="M52.97,-403.84C49.4,-392.38 45,-378.24 41.07,-365.64"/>
<polygon fill="black" stroke="black" points="44.36,-364.45 38.05,-355.94 37.68,-366.53 44.36,-364.45"/>
<text text-anchor="middle" x="55.49" y="-377.33" font-family="Arial" font-size="10.00">&#45;0.5</text>
</g>
<!-- 20 -->
<g id="node20" class="node">
<title>20</title>
<ellipse fill="none" stroke="black" cx="106.99" cy="-332.29" rx="28.98" ry="24.08"/>
<text text-anchor="middle" x="106.99" y="-335.69" font-family="Arial" font-size="12.00">X</text>
<text text-anchor="middle" x="106.99" y="-322.69" font-family="Arial" font-size="12.00">(RZ)</text>
</g>
<!-- 1&#45;&gt;20 -->
<g id="edge7" class="edge">
<title>1&#45;&gt;20</title>
<path fill="none" stroke="black" d="M70.66,-405.25C76.86,-392.96 84.79,-377.26 91.66,-363.66"/>
<polygon fill="black" stroke="black" points="94.82,-365.16 96.21,-354.65 88.57,-362 94.82,-365.16"/>
<text text-anchor="middle" x="97.49" y="-377.33" font-family="Arial" font-size="10.00">0.866</text>
</g>
<!-- 2 -->
<g id="node2" class="node">
<title>2</title>
<ellipse fill="none" stroke="black" cx="345.99" cy="-427.37" rx="27" ry="24.08"/>
<text text-anchor="middle" x="345.99" y="-430.77" font-family="Arial" font-size="12.00">Z</text>
<text text-anchor="middle" x="345.99" y="-417.77" font-family="Arial" font-size="12.00">(Z)</text>
</g>
<!-- 10 -->
<g id="node10" class="node">
<title>10</title>
<ellipse fill="none" stroke="black" cx="345.99" cy="-332.29" rx="28.98" ry="24.08"/>
<text text-anchor="middle" x="345.99" y="-335.69" font-family="Arial" font-size="12.00">Z</text>
<text text-anchor="middle" x="345.99" y="-322.69" font-family="Arial" font-size="12.00">(RZ)</text>
</g>
<!-- 2&#45;&gt;10 -->
<g id="edge23" class="edge">
<title>2&#45;&gt;10</title>
<path fill="none" stroke="black" d="M345.99,-402.89C345.99,-391.89 345.99,-378.59 345.99,-366.58"/>
<polygon fill="black" stroke="black" points="349.49,-366.45 345.99,-356.45 342.49,-366.45 349.49,-366.45"/>
<text text-anchor="middle" x="348.99" y="-377.33" font-family="Arial" font-size="10.00">1</text>
</g>
<!-- 3 -->
<g id="node3" class="node">
<title>3</title>
<ellipse fill="none" stroke="black" cx="345.99" cy="-516.42" rx="27" ry="18"/>
<text text-anchor="middle" x="345.99" y="-513.32" font-family="Arial" font-size="12.00">Z</text>
</g>
<!-- 3&#45;&gt;2 -->
<g id="edge8" class="edge">
<title>3&#45;&gt;2</title>
<path fill="none" stroke="black" d="M345.99,-498.22C345.99,-487.77 345.99,-474.07 345.99,-461.58"/>
<polygon fill="black" stroke="black" points="349.49,-461.47 345.99,-451.47 342.49,-461.47 349.49,-461.47"/>
<text text-anchor="middle" x="352.99" y="-472.42" font-family="Arial" font-size="10.00">1.0</text>
</g>
<!-- 4 -->
<g id="node4" class="node">
<title>4</title>
<ellipse fill="none" stroke="black" cx="258.99" cy="-332.29" rx="28.98" ry="24.08"/>
<text text-anchor="middle" x="258.99" y="-335.69" font-family="Arial" font-size="12.00">X</text>
<text text-anchor="middle" x="258.99" y="-322.69" font-family="Arial" font-size="12.00">(RZ)</text>
</g>
<!-- 11 -->
<g id="node11" class="node">
<title>11</title>
<ellipse fill="none" stroke="black" cx="213.99" cy="-237.21" rx="27" ry="24.08"/>
<text text-anchor="middle" x="213.99" y="-240.61" font-family="Arial" font-size="12.00">Z</text>
<text text-anchor="middle" x="213.99" y="-227.61" font-family="Arial" font-size="12.00">(H)</text>
</g>
<!-- 4&#45;&gt;11 -->
<g id="edge2" class="edge">
<title>4&#45;&gt;11</title>
<path fill="none" stroke="black" d="M248.55,-309.7C242.7,-297.6 235.31,-282.31 228.86,-268.97"/>
<polygon fill="black" stroke="black" points="231.88,-267.16 224.37,-259.68 225.57,-270.21 231.88,-267.16"/>
<text text-anchor="middle" x="244.99" y="-282.25" font-family="Arial" font-size="10.00">1.0</text>
</g>
<!-- 5 -->
<g id="node5" class="node">
<title>5</title>
<ellipse fill="none" stroke="black" cx="345.99" cy="-47.04" rx="27" ry="24.08"/>
<text text-anchor="middle" x="345.99" y="-50.44" font-family="Arial" font-size="12.00">X</text>
<text text-anchor="middle" x="345.99" y="-37.44" font-family="Arial" font-size="12.00">(X)</text>
</g>
<!-- 6 -->
<g id="node6" class="node">
<title>6</title>
<ellipse fill="none" stroke="black" cx="220.99" cy="-427.37" rx="27" ry="24.08"/>
<text text-anchor="middle" x="220.99" y="-430.77" font-family="Arial" font-size="12.00">Y</text>
<text text-anchor="middle" x="220.99" y="-417.77" font-family="Arial" font-size="12.00">(Z)</text>
</g>
<!-- 6&#45;&gt;4 -->
<g id="edge16" class="edge">
<title>6&#45;&gt;4</title>
<path fill="none" stroke="black" d="M230,-404.32C234.82,-392.49 240.85,-377.72 246.16,-364.71"/>
<polygon fill="black" stroke="black" points="249.51,-365.77 250.05,-355.19 243.03,-363.13 249.51,-365.77"/>
<text text-anchor="middle" x="248.99" y="-377.33" font-family="Arial" font-size="10.00">0.5</text>
</g>
<!-- 16 -->
<g id="node16" class="node">
<title>16</title>
<ellipse fill="none" stroke="black" cx="182.99" cy="-332.29" rx="28.98" ry="24.08"/>
<text text-anchor="middle" x="182.99" y="-335.69" font-family="Arial" font-size="12.00">Y</text>
<text text-anchor="middle" x="182.99" y="-322.69" font-family="Arial" font-size="12.00">(RZ)</text>
</g>
<!-- 6&#45;&gt;16 -->
<g id="edge15" class="edge">
<title>6&#45;&gt;16</title>
<path fill="none" stroke="black" d="M208.33,-405.96C204.67,-399.52 200.89,-392.27 197.99,-385.33 195.42,-379.18 193.13,-372.45 191.15,-365.93"/>
<polygon fill="black" stroke="black" points="194.42,-364.62 188.31,-355.97 187.68,-366.54 194.42,-364.62"/>
<text text-anchor="middle" x="210.49" y="-377.33" font-family="Arial" font-size="10.00">0.866</text>
</g>
<!-- 7 -->
<g id="node7" class="node">
<title>7</title>
<ellipse fill="none" stroke="black" cx="104.99" cy="-47.04" rx="27" ry="24.08"/>
<text text-anchor="middle" x="104.99" y="-50.44" font-family="Arial" font-size="12.00">Y</text>
<text text-anchor="middle" x="104.99" y="-37.44" font-family="Arial" font-size="12.00">(X)</text>
</g>
<!-- 8 -->
<g id="node8" class="node">
<title>8</title>
<ellipse fill="none" stroke="black" cx="55.99" cy="-237.21" rx="27" ry="24.08"/>
<text text-anchor="middle" x="55.99" y="-240.61" font-family="Arial" font-size="12.00">Y</text>
<text text-anchor="middle" x="55.99" y="-227.61" font-family="Arial" font-size="12.00">(H)</text>
</g>
<!-- 14 -->
<g id="node14" class="node">
<title>14</title>
<ellipse fill="none" stroke="black" cx="28.99" cy="-142.12" rx="28.98" ry="24.08"/>
<text text-anchor="middle" x="28.99" y="-145.52" font-family="Arial" font-size="12.00">Y</text>
<text text-anchor="middle" x="28.99" y="-132.52" font-family="Arial" font-size="12.00">(RX)</text>
</g>
<!-- 8&#45;&gt;14 -->
<g id="edge10" class="edge">
<title>8&#45;&gt;14</title>
<path fill="none" stroke="black" d="M49.46,-213.68C46.13,-202.21 42.03,-188.07 38.37,-175.47"/>
<polygon fill="black" stroke="black" points="41.71,-174.4 35.56,-165.77 34.99,-176.35 41.71,-174.4"/>
<text text-anchor="middle" x="56.49" y="-187.17" font-family="Arial" font-size="10.00">0.707</text>
</g>
<!-- 21 -->
<g id="node21" class="node">
<title>21</title>
<ellipse fill="none" stroke="black" cx="104.99" cy="-142.12" rx="28.98" ry="24.08"/>
<text text-anchor="middle" x="104.99" y="-145.52" font-family="Arial" font-size="12.00">Z</text>
<text text-anchor="middle" x="104.99" y="-132.52" font-family="Arial" font-size="12.00">(RX)</text>
</g>
<!-- 8&#45;&gt;21 -->
<g id="edge4" class="edge">
<title>8&#45;&gt;21</title>
<path fill="none" stroke="black" d="M67.11,-215.09C73.58,-202.8 81.85,-187.09 89,-173.5"/>
<polygon fill="black" stroke="black" points="92.19,-174.96 93.75,-164.49 85.99,-171.7 92.19,-174.96"/>
<text text-anchor="middle" x="95.99" y="-187.17" font-family="Arial" font-size="10.00">&#45;0.707</text>
</g>
<!-- 9 -->
<g id="node9" class="node">
<title>9</title>
<ellipse fill="none" stroke="black" cx="220.99" cy="-516.42" rx="27" ry="18"/>
<text text-anchor="middle" x="220.99" y="-513.32" font-family="Arial" font-size="12.00">Y</text>
</g>
<!-- 9&#45;&gt;6 -->
<g id="edge13" class="edge">
<title>9&#45;&gt;6</title>
<path fill="none" stroke="black" d="M220.99,-498.22C220.99,-487.77 220.99,-474.07 220.99,-461.58"/>
<polygon fill="black" stroke="black" points="224.49,-461.47 220.99,-451.47 217.49,-461.47 224.49,-461.47"/>
<text text-anchor="middle" x="229.49" y="-472.42" font-family="Arial" font-size="10.00">&#45;1.0</text>
</g>
<!-- 18 -->
<g id="node18" class="node">
<title>18</title>
<ellipse fill="none" stroke="black" cx="345.99" cy="-237.21" rx="27" ry="24.08"/>
<text text-anchor="middle" x="345.99" y="-240.61" font-family="Arial" font-size="12.00">X</text>
<text text-anchor="middle" x="345.99" y="-227.61" font-family="Arial" font-size="12.00">(H)</text>
</g>
<!-- 10&#45;&gt;18 -->
<g id="edge17" class="edge">
<title>10&#45;&gt;18</title>
<path fill="none" stroke="black" d="M345.99,-307.8C345.99,-296.81 345.99,-283.51 345.99,-271.5"/>
<polygon fill="black" stroke="black" points="349.49,-271.37 345.99,-261.37 342.49,-271.37 349.49,-271.37"/>
<text text-anchor="middle" x="352.99" y="-282.25" font-family="Arial" font-size="10.00">1.0</text>
</g>
<!-- 19 -->
<g id="node19" class="node">
<title>19</title>
<ellipse fill="none" stroke="black" cx="180.99" cy="-142.12" rx="28.98" ry="24.08"/>
<text text-anchor="middle" x="180.99" y="-145.52" font-family="Arial" font-size="12.00">Y</text>
<text text-anchor="middle" x="180.99" y="-132.52" font-family="Arial" font-size="12.00">(RX)</text>
</g>
<!-- 11&#45;&gt;19 -->
<g id="edge12" class="edge">
<title>11&#45;&gt;19</title>
<path fill="none" stroke="black" d="M203.92,-214.7C201.17,-208.47 198.32,-201.61 195.99,-195.17 193.75,-188.96 191.6,-182.24 189.68,-175.76"/>
<polygon fill="black" stroke="black" points="192.96,-174.52 186.84,-165.88 186.24,-176.45 192.96,-174.52"/>
<text text-anchor="middle" x="208.49" y="-187.17" font-family="Arial" font-size="10.00">0.707</text>
</g>
<!-- 22 -->
<g id="node22" class="node">
<title>22</title>
<ellipse fill="none" stroke="black" cx="256.99" cy="-142.12" rx="28.98" ry="24.08"/>
<text text-anchor="middle" x="256.99" y="-145.52" font-family="Arial" font-size="12.00">Z</text>
<text text-anchor="middle" x="256.99" y="-132.52" font-family="Arial" font-size="12.00">(RX)</text>
</g>
<!-- 11&#45;&gt;22 -->
<g id="edge6" class="edge">
<title>11&#45;&gt;22</title>
<path fill="none" stroke="black" d="M223.96,-214.62C229.51,-202.6 236.52,-187.44 242.65,-174.17"/>
<polygon fill="black" stroke="black" points="245.91,-175.47 246.92,-164.92 239.55,-172.53 245.91,-175.47"/>
<text text-anchor="middle" x="249.49" y="-187.17" font-family="Arial" font-size="10.00">0.707</text>
</g>
<!-- 12 -->
<g id="node12" class="node">
<title>12</title>
<ellipse fill="none" stroke="black" cx="59.99" cy="-516.42" rx="27" ry="18"/>
<text text-anchor="middle" x="59.99" y="-513.32" font-family="Arial" font-size="12.00">X</text>
</g>
<!-- 12&#45;&gt;1 -->
<g id="edge21" class="edge">
<title>12&#45;&gt;1</title>
<path fill="none" stroke="black" d="M59.99,-498.22C59.99,-487.77 59.99,-474.07 59.99,-461.58"/>
<polygon fill="black" stroke="black" points="63.49,-461.47 59.99,-451.47 56.49,-461.47 63.49,-461.47"/>
<text text-anchor="middle" x="68.49" y="-472.42" font-family="Arial" font-size="10.00">&#45;1.0</text>
</g>
<!-- 13 -->
<g id="node13" class="node">
<title>13</title>
<ellipse fill="none" stroke="black" cx="244.99" cy="-47.04" rx="27" ry="24.08"/>
<text text-anchor="middle" x="244.99" y="-50.44" font-family="Arial" font-size="12.00">Z</text>
<text text-anchor="middle" x="244.99" y="-37.44" font-family="Arial" font-size="12.00">(X)</text>
</g>
<!-- 14&#45;&gt;7 -->
<g id="edge9" class="edge">
<title>14&#45;&gt;7</title>
<path fill="none" stroke="black" d="M44.74,-121.84C55.82,-108.27 70.79,-89.93 83.04,-74.93"/>
<polygon fill="black" stroke="black" points="85.91,-76.94 89.52,-66.99 80.49,-72.52 85.91,-76.94"/>
<text text-anchor="middle" x="78.49" y="-92.08" font-family="Arial" font-size="10.00">&#45;1.0</text>
</g>
<!-- 15&#45;&gt;8 -->
<g id="edge20" class="edge">
<title>15&#45;&gt;8</title>
<path fill="none" stroke="black" d="M37.04,-308.76C40.12,-297.3 43.92,-283.16 47.3,-270.55"/>
<polygon fill="black" stroke="black" points="50.69,-271.42 49.91,-260.86 43.93,-269.61 50.69,-271.42"/>
<text text-anchor="middle" x="53.49" y="-282.25" font-family="Arial" font-size="10.00">&#45;1.0</text>
</g>
<!-- 16&#45;&gt;8 -->
<g id="edge3" class="edge">
<title>16&#45;&gt;8</title>
<path fill="none" stroke="black" d="M170.06,-310.64C162.78,-300.24 152.95,-288.01 141.99,-279.25 126.65,-266.99 107.05,-257.27 90.43,-250.38"/>
<polygon fill="black" stroke="black" points="91.63,-247.09 81.05,-246.65 89.05,-253.6 91.63,-247.09"/>
<text text-anchor="middle" x="161.49" y="-282.25" font-family="Arial" font-size="10.00">&#45;1.0</text>
</g>
<!-- 17 -->
<g id="node17" class="node">
<title>17</title>
<ellipse fill="none" stroke="black" cx="345.99" cy="-142.12" rx="28.98" ry="24.08"/>
<text text-anchor="middle" x="345.99" y="-145.52" font-family="Arial" font-size="12.00">X</text>
<text text-anchor="middle" x="345.99" y="-132.52" font-family="Arial" font-size="12.00">(RX)</text>
</g>
<!-- 17&#45;&gt;5 -->
<g id="edge18" class="edge">
<title>17&#45;&gt;5</title>
<path fill="none" stroke="black" d="M345.99,-117.64C345.99,-106.64 345.99,-93.34 345.99,-81.33"/>
<polygon fill="black" stroke="black" points="349.49,-81.2 345.99,-71.2 342.49,-81.2 349.49,-81.2"/>
<text text-anchor="middle" x="352.99" y="-92.08" font-family="Arial" font-size="10.00">1.0</text>
</g>
<!-- 18&#45;&gt;17 -->
<g id="edge11" class="edge">
<title>18&#45;&gt;17</title>
<path fill="none" stroke="black" d="M345.99,-212.72C345.99,-201.72 345.99,-188.43 345.99,-176.42"/>
<polygon fill="black" stroke="black" points="349.49,-176.28 345.99,-166.28 342.49,-176.28 349.49,-176.28"/>
<text text-anchor="middle" x="348.99" y="-187.17" font-family="Arial" font-size="10.00">1</text>
</g>
<!-- 19&#45;&gt;7 -->
<g id="edge1" class="edge">
<title>19&#45;&gt;7</title>
<path fill="none" stroke="black" d="M165.24,-121.84C154.17,-108.27 139.19,-89.93 126.94,-74.93"/>
<polygon fill="black" stroke="black" points="129.49,-72.52 120.46,-66.99 124.07,-76.94 129.49,-72.52"/>
<text text-anchor="middle" x="154.49" y="-92.08" font-family="Arial" font-size="10.00">&#45;1.0</text>
</g>
<!-- 20&#45;&gt;11 -->
<g id="edge19" class="edge">
<title>20&#45;&gt;11</title>
<path fill="none" stroke="black" d="M112.19,-308.49C115.39,-298.55 120.38,-287.34 127.99,-279.25 141.63,-264.74 161.46,-254.8 178.64,-248.34"/>
<polygon fill="black" stroke="black" points="180.1,-251.54 188.38,-244.93 177.79,-244.93 180.1,-251.54"/>
<text text-anchor="middle" x="134.99" y="-282.25" font-family="Arial" font-size="10.00">1.0</text>
</g>
<!-- 21&#45;&gt;13 -->
<g id="edge5" class="edge">
<title>21&#45;&gt;13</title>
<path fill="none" stroke="black" d="M106.85,-117.98C108.76,-107.96 112.55,-96.8 119.99,-89.08 142.97,-65.24 180.02,-55.24 207.82,-51.05"/>
<polygon fill="black" stroke="black" points="208.52,-54.49 217.98,-49.71 207.61,-47.55 208.52,-54.49"/>
<text text-anchor="middle" x="128.49" y="-92.08" font-family="Arial" font-size="10.00">&#45;1.0</text>
</g>
<!-- 22&#45;&gt;13 -->
<g id="edge14" class="edge">
<title>22&#45;&gt;13</title>
<path fill="none" stroke="black" d="M254.03,-118.12C252.6,-107.04 250.86,-93.55 249.29,-81.38"/>
<polygon fill="black" stroke="black" points="252.72,-80.58 247.97,-71.11 245.77,-81.47 252.72,-80.58"/>
<text text-anchor="middle" x="260.49" y="-92.08" font-family="Arial" font-size="10.00">&#45;1.0</text>
</g>
</g>
</svg>
