<?xml version="1.0" encoding="UTF-8" standalone="no"?>
<!DOCTYPE svg PUBLIC "-//W3C//DTD SVG 1.1//EN"
 "http://www.w3.org/Graphics/SVG/1.1/DTD/svg11.dtd">
<!-- Generated by graphviz version 2.43.0 (0)
 -->
<!-- Title: G Pages: 1 -->
<svg width="206pt" height="352pt"
 viewBox="0.00 0.00 206.00 352.25" xmlns="http://www.w3.org/2000/svg" xmlns:xlink="http://www.w3.org/1999/xlink">
<g id="graph0" class="graph" transform="scale(1 1) rotate(0) translate(4 348.25)">
<title>G</title>
<polygon fill="white" stroke="transparent" points="-4,4 -4,-348.25 202,-348.25 202,4 -4,4"/>
<text text-anchor="middle" x="99" y="-7.8" font-family="Times,serif" font-size="14.00">Pauli Propagation Graph</text>
<!-- 1 -->
<g id="node1" class="node">
<title>1</title>
<ellipse fill="none" stroke="black" cx="27" cy="-326.25" rx="27" ry="18"/>
<text text-anchor="middle" x="27" y="-323.15" font-family="Arial" font-size="12.00">X</text>
</g>
<!-- 9 -->
<g id="node9" class="node">
<title>9</title>
<ellipse fill="none" stroke="black" cx="27" cy="-237.21" rx="27" ry="24.08"/>
<text text-anchor="middle" x="27" y="-240.61" font-family="Arial" font-size="12.00">X</text>
<text text-anchor="middle" x="27" y="-227.61" font-family="Arial" font-size="12.00">(Z)</text>
</g>
<!-- 1&#45;&gt;9 -->
<g id="edge2" class="edge">
<title>1&#45;&gt;9</title>
<path fill="none" stroke="black" d="M27,-308.05C27,-297.6 27,-283.91 27,-271.42"/>
<polygon fill="black" stroke="black" points="30.5,-271.3 27,-261.3 23.5,-271.3 30.5,-271.3"/>
<text text-anchor="middle" x="35.5" y="-282.25" font-family="Arial" font-size="10.00">&#45;1.0</text>
</g>
<!-- 2 -->
<g id="node2" class="node">
<title>2</title>
<ellipse fill="none" stroke="black" cx="99" cy="-47.04" rx="27" ry="24.08"/>
<text text-anchor="middle" x="99" y="-50.44" font-family="Arial" font-size="12.00">X</text>
<text text-anchor="middle" x="99" y="-37.44" font-family="Arial" font-size="12.00">(X)</text>
</g>
<!-- 3 -->
<g id="node3" class="node">
<title>3</title>
<ellipse fill="none" stroke="black" cx="171" cy="-237.21" rx="27" ry="24.08"/>
<text text-anchor="middle" x="171" y="-240.61" font-family="Arial" font-size="12.00">Y</text>
<text text-anchor="middle" x="171" y="-227.61" font-family="Arial" font-size="12.00">(Z)</text>
</g>
<!-- 11 -->
<g id="node11" class="node">
<title>11</title>
<ellipse fill="none" stroke="black" cx="171" cy="-142.12" rx="27" ry="24.08"/>
<text text-anchor="middle" x="171" y="-145.52" font-family="Arial" font-size="12.00">Y</text>
<text text-anchor="middle" x="171" y="-132.52" font-family="Arial" font-size="12.00">(H)</text>
</g>
<!-- 3&#45;&gt;11 -->
<g id="edge5" class="edge">
<title>3&#45;&gt;11</title>
<path fill="none" stroke="black" d="M171,-212.72C171,-201.72 171,-188.43 171,-176.42"/>
<polygon fill="black" stroke="black" points="174.5,-176.28 171,-166.28 167.5,-176.28 174.5,-176.28"/>
<text text-anchor="middle" x="179.5" y="-187.17" font-family="Arial" font-size="10.00">&#45;1.0</text>
</g>
<!-- 4 -->
<g id="node4" class="node">
<title>4</title>
<ellipse fill="none" stroke="black" cx="171" cy="-326.25" rx="27" ry="18"/>
<text text-anchor="middle" x="171" y="-323.15" font-family="Arial" font-size="12.00">Y</text>
</g>
<!-- 4&#45;&gt;3 -->
<g id="edge7" class="edge">
<title>4&#45;&gt;3</title>
<path fill="none" stroke="black" d="M171,-308.05C171,-297.6 171,-283.91 171,-271.42"/>
<polygon fill="black" stroke="black" points="174.5,-271.3 171,-261.3 167.5,-271.3 174.5,-271.3"/>
<text text-anchor="middle" x="179.5" y="-282.25" font-family="Arial" font-size="10.00">&#45;1.0</text>
</g>
<!-- 5 -->
<g id="node5" class="node">
<title>5</title>
<ellipse fill="none" stroke="black" cx="99" cy="-142.12" rx="27" ry="24.08"/>
<text text-anchor="middle" x="99" y="-145.52" font-family="Arial" font-size="12.00">X</text>
<text text-anchor="middle" x="99" y="-132.52" font-family="Arial" font-size="12.00">(H)</text>
</g>
<!-- 5&#45;&gt;2 -->
<g id="edge9" class="edge">
<title>5&#45;&gt;2</title>
<path fill="none" stroke="black" d="M99,-117.64C99,-106.64 99,-93.34 99,-81.33"/>
<polygon fill="black" stroke="black" points="102.5,-81.2 99,-71.2 95.5,-81.2 102.5,-81.2"/>
<text text-anchor="middle" x="106" y="-92.08" font-family="Arial" font-size="10.00">1.0</text>
</g>
<!-- 6 -->
<g id="node6" class="node">
<title>6</title>
<ellipse fill="none" stroke="black" cx="99" cy="-237.21" rx="27" ry="24.08"/>
<text text-anchor="middle" x="99" y="-240.61" font-family="Arial" font-size="12.00">Z</text>
<text text-anchor="middle" x="99" y="-227.61" font-family="Arial" font-size="12.00">(Z)</text>
</g>
<!-- 6&#45;&gt;5 -->
<g id="edge8" class="edge">
<title>6&#45;&gt;5</title>
<path fill="none" stroke="black" d="M99,-212.72C99,-201.72 99,-188.43 99,-176.42"/>
<polygon fill="black" stroke="black" points="102.5,-176.28 99,-166.28 95.5,-176.28 102.5,-176.28"/>
<text text-anchor="middle" x="106" y="-187.17" font-family="Arial" font-size="10.00">1.0</text>
</g>
<!-- 7 -->
<g id="node7" class="node">
<title>7</title>
<ellipse fill="none" stroke="black" cx="27" cy="-142.12" rx="27" ry="24.08"/>
<text text-anchor="middle" x="27" y="-145.52" font-family="Arial" font-size="12.00">Z</text>
<text text-anchor="middle" x="27" y="-132.52" font-family="Arial" font-size="12.00">(H)</text>
</g>
<!-- 12 -->
<g id="node12" class="node">
<title>12</title>
<ellipse fill="none" stroke="black" cx="27" cy="-47.04" rx="27" ry="24.08"/>
<text text-anchor="middle" x="27" y="-50.44" font-family="Arial" font-size="12.00">Z</text>
<text text-anchor="middle" x="27" y="-37.44" font-family="Arial" font-size="12.00">(X)</text>
</g>
<!-- 7&#45;&gt;12 -->
<g id="edge6" class="edge">
<title>7&#45;&gt;12</title>
<path fill="none" stroke="black" d="M27,-117.64C27,-106.64 27,-93.34 27,-81.33"/>
<polygon fill="black" stroke="black" points="30.5,-81.2 27,-71.2 23.5,-81.2 30.5,-81.2"/>
<text text-anchor="middle" x="35.5" y="-92.08" font-family="Arial" font-size="10.00">&#45;1.0</text>
</g>
<!-- 8 -->
<g id="node8" class="node">
<title>8</title>
<ellipse fill="none" stroke="black" cx="99" cy="-326.25" rx="27" ry="18"/>
<text text-anchor="middle" x="99" y="-323.15" font-family="Arial" font-size="12.00">Z</text>
</g>
<!-- 8&#45;&gt;6 -->
<g id="edge1" class="edge">
<title>8&#45;&gt;6</title>
<path fill="none" stroke="black" d="M99,-308.05C99,-297.6 99,-283.91 99,-271.42"/>
<polygon fill="black" stroke="black" points="102.5,-271.3 99,-261.3 95.5,-271.3 102.5,-271.3"/>
<text text-anchor="middle" x="106" y="-282.25" font-family="Arial" font-size="10.00">1.0</text>
</g>
<!-- 9&#45;&gt;7 -->
<g id="edge3" class="edge">
<title>9&#45;&gt;7</title>
<path fill="none" stroke="black" d="M27,-212.72C27,-201.72 27,-188.43 27,-176.42"/>
<polygon fill="black" stroke="black" points="30.5,-176.28 27,-166.28 23.5,-176.28 30.5,-176.28"/>
<text text-anchor="middle" x="34" y="-187.17" font-family="Arial" font-size="10.00">1.0</text>
</g>
<!-- 10 -->
<g id="node10" class="node">
<title>10</title>
<ellipse fill="none" stroke="black" cx="171" cy="-47.04" rx="27" ry="24.08"/>
<text text-anchor="middle" x="171" y="-50.44" font-family="Arial" font-size="12.00">Y</text>
<text text-anchor="middle" x="171" y="-37.44" font-family="Arial" font-size="12.00">(X)</text>
</g>
<!-- 11&#45;&gt;10 -->
<g id="edge4" class="edge">
<title>11&#45;&gt;10</title>
<path fill="none" stroke="black" d="M171,-117.64C171,-106.64 171,-93.34 171,-81.33"/>
<polygon fill="black" stroke="black" points="174.5,-81.2 171,-71.2 167.5,-81.2 174.5,-81.2"/>
<text text-anchor="middle" x="179.5" y="-92.08" font-family="Arial" font-size="10.00">&#45;1.0</text>
</g>
</g>
</svg>
