<?xml version="1.0" encoding="UTF-8" standalone="no"?>
<!DOCTYPE svg PUBLIC "-//W3C//DTD SVG 1.1//EN"
 "http://www.w3.org/Graphics/SVG/1.1/DTD/svg11.dtd">
<!-- Generated by graphviz version 2.43.0 (0)
 -->
<!-- Title: G Pages: 1 -->
<svg width="216pt" height="352pt"
 viewBox="0.00 0.00 216.00 352.25" xmlns="http://www.w3.org/2000/svg" xmlns:xlink="http://www.w3.org/1999/xlink">
<g id="graph0" class="graph" transform="scale(1 1) rotate(0) translate(4 348.25)">
<title>G</title>
<polygon fill="white" stroke="transparent" points="-4,4 -4,-348.25 212,-348.25 212,4 -4,4"/>
<text text-anchor="middle" x="104" y="-7.8" font-family="Times,serif" font-size="14.00">Pauli Propagation example</text>
<!-- 1 -->
<g id="node1" class="node">
<title>1</title>
<ellipse fill="none" stroke="black" cx="32" cy="-237.21" rx="27" ry="24.08"/>
<text text-anchor="middle" x="32" y="-240.61" font-family="Arial" font-size="12.00">Z</text>
<text text-anchor="middle" x="32" y="-227.61" font-family="Arial" font-size="12.00">(Z)</text>
</g>
<!-- 4 -->
<g id="node4" class="node">
<title>4</title>
<ellipse fill="none" stroke="black" cx="32" cy="-142.12" rx="27" ry="24.08"/>
<text text-anchor="middle" x="32" y="-145.52" font-family="Arial" font-size="12.00">X</text>
<text text-anchor="middle" x="32" y="-132.52" font-family="Arial" font-size="12.00">(H)</text>
</g>
<!-- 1&#45;&gt;4 -->
<g id="edge9" class="edge">
<title>1&#45;&gt;4</title>
<path fill="none" stroke="black" d="M32,-212.72C32,-201.72 32,-188.43 32,-176.42"/>
<polygon fill="black" stroke="black" points="35.5,-176.28 32,-166.28 28.5,-176.28 35.5,-176.28"/>
<text text-anchor="middle" x="39" y="-187.17" font-family="Arial" font-size="10.00">1.0</text>
</g>
<!-- 2 -->
<g id="node2" class="node">
<title>2</title>
<ellipse fill="none" stroke="black" cx="104" cy="-47.04" rx="27" ry="24.08"/>
<text text-anchor="middle" x="104" y="-50.44" font-family="Arial" font-size="12.00">Y</text>
<text text-anchor="middle" x="104" y="-37.44" font-family="Arial" font-size="12.00">(X)</text>
</g>
<!-- 3 -->
<g id="node3" class="node">
<title>3</title>
<ellipse fill="none" stroke="black" cx="104" cy="-237.21" rx="27" ry="24.08"/>
<text text-anchor="middle" x="104" y="-240.61" font-family="Arial" font-size="12.00">Y</text>
<text text-anchor="middle" x="104" y="-227.61" font-family="Arial" font-size="12.00">(Z)</text>
</g>
<!-- 7 -->
<g id="node7" class="node">
<title>7</title>
<ellipse fill="none" stroke="black" cx="104" cy="-142.12" rx="27" ry="24.08"/>
<text text-anchor="middle" x="104" y="-145.52" font-family="Arial" font-size="12.00">Y</text>
<text text-anchor="middle" x="104" y="-132.52" font-family="Arial" font-size="12.00">(H)</text>
</g>
<!-- 3&#45;&gt;7 -->
<g id="edge8" class="edge">
<title>3&#45;&gt;7</title>
<path fill="none" stroke="black" d="M104,-212.72C104,-201.72 104,-188.43 104,-176.42"/>
<polygon fill="black" stroke="black" points="107.5,-176.28 104,-166.28 100.5,-176.28 107.5,-176.28"/>
<text text-anchor="middle" x="112.5" y="-187.17" font-family="Arial" font-size="10.00">&#45;1.0</text>
</g>
<!-- 8 -->
<g id="node8" class="node">
<title>8</title>
<ellipse fill="none" stroke="black" cx="32" cy="-47.04" rx="27" ry="24.08"/>
<text text-anchor="middle" x="32" y="-50.44" font-family="Arial" font-size="12.00">X</text>
<text text-anchor="middle" x="32" y="-37.44" font-family="Arial" font-size="12.00">(X)</text>
</g>
<!-- 4&#45;&gt;8 -->
<g id="edge4" class="edge">
<title>4&#45;&gt;8</title>
<path fill="none" stroke="black" d="M32,-117.64C32,-106.64 32,-93.34 32,-81.33"/>
<polygon fill="black" stroke="black" points="35.5,-81.2 32,-71.2 28.5,-81.2 35.5,-81.2"/>
<text text-anchor="middle" x="39" y="-92.08" font-family="Arial" font-size="10.00">1.0</text>
</g>
<!-- 5 -->
<g id="node5" class="node">
<title>5</title>
<ellipse fill="none" stroke="black" cx="176" cy="-326.25" rx="27" ry="18"/>
<text text-anchor="middle" x="176" y="-323.15" font-family="Arial" font-size="12.00">X</text>
</g>
<!-- 10 -->
<g id="node10" class="node">
<title>10</title>
<ellipse fill="none" stroke="black" cx="176" cy="-237.21" rx="27" ry="24.08"/>
<text text-anchor="middle" x="176" y="-240.61" font-family="Arial" font-size="12.00">X</text>
<text text-anchor="middle" x="176" y="-227.61" font-family="Arial" font-size="12.00">(Z)</text>
</g>
<!-- 5&#45;&gt;10 -->
<g id="edge5" class="edge">
<title>5&#45;&gt;10</title>
<path fill="none" stroke="black" d="M176,-308.05C176,-297.6 176,-283.91 176,-271.42"/>
<polygon fill="black" stroke="black" points="179.5,-271.3 176,-261.3 172.5,-271.3 179.5,-271.3"/>
<text text-anchor="middle" x="184.5" y="-282.25" font-family="Arial" font-size="10.00">&#45;1.0</text>
</g>
<!-- 6 -->
<g id="node6" class="node">
<title>6</title>
<ellipse fill="none" stroke="black" cx="176" cy="-142.12" rx="27" ry="24.08"/>
<text text-anchor="middle" x="176" y="-145.52" font-family="Arial" font-size="12.00">Z</text>
<text text-anchor="middle" x="176" y="-132.52" font-family="Arial" font-size="12.00">(H)</text>
</g>
<!-- 12 -->
<g id="node12" class="node">
<title>12</title>
<ellipse fill="none" stroke="black" cx="176" cy="-47.04" rx="27" ry="24.08"/>
<text text-anchor="middle" x="176" y="-50.44" font-family="Arial" font-size="12.00">Z</text>
<text text-anchor="middle" x="176" y="-37.44" font-family="Arial" font-size="12.00">(X)</text>
</g>
<!-- 6&#45;&gt;12 -->
<g id="edge1" class="edge">
<title>6&#45;&gt;12</title>
<path fill="none" stroke="black" d="M176,-117.64C176,-106.64 176,-93.34 176,-81.33"/>
<polygon fill="black" stroke="black" points="179.5,-81.2 176,-71.2 172.5,-81.2 179.5,-81.2"/>
<text text-anchor="middle" x="184.5" y="-92.08" font-family="Arial" font-size="10.00">&#45;1.0</text>
</g>
<!-- 7&#45;&gt;2 -->
<g id="edge3" class="edge">
<title>7&#45;&gt;2</title>
<path fill="none" stroke="black" d="M104,-117.64C104,-106.64 104,-93.34 104,-81.33"/>
<polygon fill="black" stroke="black" points="107.5,-81.2 104,-71.2 100.5,-81.2 107.5,-81.2"/>
<text text-anchor="middle" x="112.5" y="-92.08" font-family="Arial" font-size="10.00">&#45;1.0</text>
</g>
<!-- 9 -->
<g id="node9" class="node">
<title>9</title>
<ellipse fill="none" stroke="black" cx="32" cy="-326.25" rx="27" ry="18"/>
<text text-anchor="middle" x="32" y="-323.15" font-family="Arial" font-size="12.00">Z</text>
</g>
<!-- 9&#45;&gt;1 -->
<g id="edge7" class="edge">
<title>9&#45;&gt;1</title>
<path fill="none" stroke="black" d="M32,-308.05C32,-297.6 32,-283.91 32,-271.42"/>
<polygon fill="black" stroke="black" points="35.5,-271.3 32,-261.3 28.5,-271.3 35.5,-271.3"/>
<text text-anchor="middle" x="39" y="-282.25" font-family="Arial" font-size="10.00">1.0</text>
</g>
<!-- 10&#45;&gt;6 -->
<g id="edge2" class="edge">
<title>10&#45;&gt;6</title>
<path fill="none" stroke="black" d="M176,-212.72C176,-201.72 176,-188.43 176,-176.42"/>
<polygon fill="black" stroke="black" points="179.5,-176.28 176,-166.28 172.5,-176.28 179.5,-176.28"/>
<text text-anchor="middle" x="183" y="-187.17" font-family="Arial" font-size="10.00">1.0</text>
</g>
<!-- 11 -->
<g id="node11" class="node">
<title>11</title>
<ellipse fill="none" stroke="black" cx="104" cy="-326.25" rx="27" ry="18"/>
<text text-anchor="middle" x="104" y="-323.15" font-family="Arial" font-size="12.00">Y</text>
</g>
<!-- 11&#45;&gt;3 -->
<g id="edge6" class="edge">
<title>11&#45;&gt;3</title>
<path fill="none" stroke="black" d="M104,-308.05C104,-297.6 104,-283.91 104,-271.42"/>
<polygon fill="black" stroke="black" points="107.5,-271.3 104,-261.3 100.5,-271.3 107.5,-271.3"/>
<text text-anchor="middle" x="112.5" y="-282.25" font-family="Arial" font-size="10.00">&#45;1.0</text>
</g>
</g>
</svg>
