<?xml version="1.0" encoding="utf-8"?>
<svg xmlns="http://www.w3.org/2000/svg" xmlns:xlink="http://www.w3.org/1999/xlink" width="800" height="600" viewBox="0 0 3200 2400">
<defs>
  <clipPath id="clip070">
    <rect x="0" y="0" width="3200" height="2400"/>
  </clipPath>
</defs>
<path clip-path="url(#clip070)" d="M0 2400 L3200 2400 L3200 0 L0 0  Z" fill="#ffffff" fill-rule="evenodd" fill-opacity="1"/>
<defs>
  <clipPath id="clip071">
    <rect x="427" y="431" width="2710" height="1682"/>
  </clipPath>
</defs>
<path clip-path="url(#clip070)" d="M342.256 1520.48 L3152.76 1520.48 L3152.76 47.2441 L342.256 47.2441  Z" fill="#ffffff" fill-rule="evenodd" fill-opacity="1"/>
<defs>
  <clipPath id="clip072">
    <rect x="342" y="47" width="2812" height="1474"/>
  </clipPath>
</defs>
<polyline clip-path="url(#clip072)" style="stroke:#000000; stroke-linecap:round; stroke-linejoin:round; stroke-width:2; stroke-opacity:0.1; fill:none" points="716.4,1520.48 716.4,47.2441 "/>
<polyline clip-path="url(#clip072)" style="stroke:#000000; stroke-linecap:round; stroke-linejoin:round; stroke-width:2; stroke-opacity:0.1; fill:none" points="1452.9,1520.48 1452.9,47.2441 "/>
<polyline clip-path="url(#clip072)" style="stroke:#000000; stroke-linecap:round; stroke-linejoin:round; stroke-width:2; stroke-opacity:0.1; fill:none" points="2189.41,1520.48 2189.41,47.2441 "/>
<polyline clip-path="url(#clip072)" style="stroke:#000000; stroke-linecap:round; stroke-linejoin:round; stroke-width:2; stroke-opacity:0.1; fill:none" points="2925.91,1520.48 2925.91,47.2441 "/>
<polyline clip-path="url(#clip072)" style="stroke:#000000; stroke-linecap:round; stroke-linejoin:round; stroke-width:2; stroke-opacity:0.1; fill:none" points="342.256,267.146 3152.76,267.146 "/>
<polyline clip-path="url(#clip072)" style="stroke:#000000; stroke-linecap:round; stroke-linejoin:round; stroke-width:2; stroke-opacity:0.1; fill:none" points="342.256,502.647 3152.76,502.647 "/>
<polyline clip-path="url(#clip072)" style="stroke:#000000; stroke-linecap:round; stroke-linejoin:round; stroke-width:2; stroke-opacity:0.1; fill:none" points="342.256,738.149 3152.76,738.149 "/>
<polyline clip-path="url(#clip072)" style="stroke:#000000; stroke-linecap:round; stroke-linejoin:round; stroke-width:2; stroke-opacity:0.1; fill:none" points="342.256,973.651 3152.76,973.651 "/>
<polyline clip-path="url(#clip072)" style="stroke:#000000; stroke-linecap:round; stroke-linejoin:round; stroke-width:2; stroke-opacity:0.1; fill:none" points="342.256,1209.15 3152.76,1209.15 "/>
<polyline clip-path="url(#clip072)" style="stroke:#000000; stroke-linecap:round; stroke-linejoin:round; stroke-width:2; stroke-opacity:0.1; fill:none" points="342.256,1444.66 3152.76,1444.66 "/>
<polyline clip-path="url(#clip070)" style="stroke:#000000; stroke-linecap:round; stroke-linejoin:round; stroke-width:4; stroke-opacity:1; fill:none" points="342.256,1520.48 3152.76,1520.48 "/>
<polyline clip-path="url(#clip070)" style="stroke:#000000; stroke-linecap:round; stroke-linejoin:round; stroke-width:4; stroke-opacity:1; fill:none" points="716.4,1520.48 716.4,1507.31 "/>
<polyline clip-path="url(#clip070)" style="stroke:#000000; stroke-linecap:round; stroke-linejoin:round; stroke-width:4; stroke-opacity:1; fill:none" points="1452.9,1520.48 1452.9,1507.31 "/>
<polyline clip-path="url(#clip070)" style="stroke:#000000; stroke-linecap:round; stroke-linejoin:round; stroke-width:4; stroke-opacity:1; fill:none" points="2189.41,1520.48 2189.41,1507.31 "/>
<polyline clip-path="url(#clip070)" style="stroke:#000000; stroke-linecap:round; stroke-linejoin:round; stroke-width:4; stroke-opacity:1; fill:none" points="2925.91,1520.48 2925.91,1507.31 "/>
<path clip-path="url(#clip070)" d="M701.817 1559.04 L729.351 1559.04 L729.351 1564.94 L708.24 1564.94 L708.24 1577.65 Q709.768 1577.13 711.296 1576.88 Q712.824 1576.6 714.351 1576.6 Q723.032 1576.6 728.101 1581.36 Q733.171 1586.12 733.171 1594.24 Q733.171 1602.61 727.962 1607.26 Q722.754 1611.88 713.275 1611.88 Q710.011 1611.88 706.608 1611.33 Q703.24 1610.77 699.629 1609.66 L699.629 1602.61 Q702.754 1604.31 706.088 1605.15 Q709.421 1605.98 713.136 1605.98 Q719.143 1605.98 722.65 1602.82 Q726.157 1599.66 726.157 1594.24 Q726.157 1588.83 722.65 1585.67 Q719.143 1582.51 713.136 1582.51 Q710.324 1582.51 707.511 1583.13 Q704.733 1583.76 701.817 1585.08 L701.817 1559.04 Z" fill="#000000" fill-rule="nonzero" fill-opacity="1" /><path clip-path="url(#clip070)" d="M1414.94 1604.97 L1426.39 1604.97 L1426.39 1565.42 L1413.93 1567.92 L1413.93 1561.54 L1426.32 1559.04 L1433.34 1559.04 L1433.34 1604.97 L1444.8 1604.97 L1444.8 1610.88 L1414.94 1610.88 L1414.94 1604.97 Z" fill="#000000" fill-rule="nonzero" fill-opacity="1" /><path clip-path="url(#clip070)" d="M1473.96 1563.65 Q1468.55 1563.65 1465.8 1569 Q1463.1 1574.31 1463.1 1585.01 Q1463.1 1595.67 1465.8 1601.01 Q1468.55 1606.33 1473.96 1606.33 Q1479.41 1606.33 1482.12 1601.01 Q1484.87 1595.67 1484.87 1585.01 Q1484.87 1574.31 1482.12 1569 Q1479.41 1563.65 1473.96 1563.65 M1473.96 1558.1 Q1482.68 1558.1 1487.26 1565.01 Q1491.88 1571.88 1491.88 1585.01 Q1491.88 1598.1 1487.26 1605.01 Q1482.68 1611.88 1473.96 1611.88 Q1465.25 1611.88 1460.63 1605.01 Q1456.05 1598.1 1456.05 1585.01 Q1456.05 1571.88 1460.63 1565.01 Q1465.25 1558.1 1473.96 1558.1 Z" fill="#000000" fill-rule="nonzero" fill-opacity="1" /><path clip-path="url(#clip070)" d="M2152.19 1604.97 L2163.64 1604.97 L2163.64 1565.42 L2151.18 1567.92 L2151.18 1561.54 L2163.58 1559.04 L2170.59 1559.04 L2170.59 1604.97 L2182.05 1604.97 L2182.05 1610.88 L2152.19 1610.88 L2152.19 1604.97 Z" fill="#000000" fill-rule="nonzero" fill-opacity="1" /><path clip-path="url(#clip070)" d="M2196.28 1559.04 L2223.82 1559.04 L2223.82 1564.94 L2202.71 1564.94 L2202.71 1577.65 Q2204.23 1577.13 2205.76 1576.88 Q2207.29 1576.6 2208.82 1576.6 Q2217.5 1576.6 2222.57 1581.36 Q2227.64 1586.12 2227.64 1594.24 Q2227.64 1602.61 2222.43 1607.26 Q2217.22 1611.88 2207.74 1611.88 Q2204.48 1611.88 2201.08 1611.33 Q2197.71 1610.77 2194.1 1609.66 L2194.1 1602.61 Q2197.22 1604.31 2200.55 1605.15 Q2203.89 1605.98 2207.6 1605.98 Q2213.61 1605.98 2217.12 1602.82 Q2220.62 1599.66 2220.62 1594.24 Q2220.62 1588.83 2217.12 1585.67 Q2213.61 1582.51 2207.6 1582.51 Q2204.79 1582.51 2201.98 1583.13 Q2199.2 1583.76 2196.28 1585.08 L2196.28 1559.04 Z" fill="#000000" fill-rule="nonzero" fill-opacity="1" /><path clip-path="url(#clip070)" d="M2894.07 1604.97 L2918.55 1604.97 L2918.55 1610.88 L2885.64 1610.88 L2885.64 1604.97 Q2889.63 1600.84 2896.5 1593.9 Q2903.41 1586.92 2905.18 1584.9 Q2908.55 1581.12 2909.87 1578.51 Q2911.23 1575.88 2911.23 1573.34 Q2911.23 1569.21 2908.31 1566.6 Q2905.43 1564 2900.77 1564 Q2897.48 1564 2893.79 1565.15 Q2890.15 1566.29 2885.98 1568.62 L2885.98 1561.54 Q2890.22 1559.83 2893.9 1558.97 Q2897.58 1558.1 2900.63 1558.1 Q2908.69 1558.1 2913.48 1562.13 Q2918.27 1566.15 2918.27 1572.89 Q2918.27 1576.08 2917.06 1578.97 Q2915.88 1581.81 2912.72 1585.7 Q2911.85 1586.71 2907.2 1591.54 Q2902.54 1596.33 2894.07 1604.97 Z" fill="#000000" fill-rule="nonzero" fill-opacity="1" /><path clip-path="url(#clip070)" d="M2948.27 1563.65 Q2942.86 1563.65 2940.11 1569 Q2937.41 1574.31 2937.41 1585.01 Q2937.41 1595.67 2940.11 1601.01 Q2942.86 1606.33 2948.27 1606.33 Q2953.72 1606.33 2956.43 1601.01 Q2959.18 1595.67 2959.18 1585.01 Q2959.18 1574.31 2956.43 1569 Q2953.72 1563.65 2948.27 1563.65 M2948.27 1558.1 Q2956.99 1558.1 2961.57 1565.01 Q2966.19 1571.88 2966.19 1585.01 Q2966.19 1598.1 2961.57 1605.01 Q2956.99 1611.88 2948.27 1611.88 Q2939.56 1611.88 2934.94 1605.01 Q2930.36 1598.1 2930.36 1585.01 Q2930.36 1571.88 2934.94 1565.01 Q2939.56 1558.1 2948.27 1558.1 Z" fill="#000000" fill-rule="nonzero" fill-opacity="1" /><path clip-path="url(#clip070)" d="M1664.8 1662.33 L1664.8 1671.45 Q1659.47 1668.9 1654.75 1667.65 Q1650.03 1666.4 1645.63 1666.4 Q1637.99 1666.4 1633.83 1669.36 Q1629.71 1672.33 1629.71 1677.79 Q1629.71 1682.37 1632.44 1684.74 Q1635.21 1687.05 1642.9 1688.49 L1648.55 1689.64 Q1659.01 1691.63 1663.96 1696.68 Q1668.96 1701.68 1668.96 1710.11 Q1668.96 1720.15 1662.21 1725.34 Q1655.49 1730.52 1642.48 1730.52 Q1637.58 1730.52 1632.02 1729.41 Q1626.51 1728.3 1620.59 1726.12 L1620.59 1716.49 Q1626.28 1719.69 1631.74 1721.31 Q1637.21 1722.93 1642.48 1722.93 Q1650.49 1722.93 1654.84 1719.78 Q1659.2 1716.63 1659.2 1710.8 Q1659.2 1705.71 1656.05 1702.84 Q1652.95 1699.97 1645.82 1698.53 L1640.12 1697.42 Q1629.66 1695.34 1624.98 1690.89 Q1620.31 1686.45 1620.31 1678.53 Q1620.31 1669.36 1626.74 1664.09 Q1633.22 1658.81 1644.57 1658.81 Q1649.43 1658.81 1654.47 1659.69 Q1659.52 1660.57 1664.8 1662.33 Z" fill="#000000" fill-rule="nonzero" fill-opacity="1" /><path clip-path="url(#clip070)" d="M1691.6 1662.61 L1691.6 1677.33 L1709.15 1677.33 L1709.15 1683.95 L1691.6 1683.95 L1691.6 1712.1 Q1691.6 1718.44 1693.32 1720.24 Q1695.08 1722.05 1700.4 1722.05 L1709.15 1722.05 L1709.15 1729.18 L1700.4 1729.18 Q1690.54 1729.18 1686.79 1725.52 Q1683.04 1721.82 1683.04 1712.1 L1683.04 1683.95 L1676.79 1683.95 L1676.79 1677.33 L1683.04 1677.33 L1683.04 1662.61 L1691.6 1662.61 Z" fill="#000000" fill-rule="nonzero" fill-opacity="1" /><path clip-path="url(#clip070)" d="M1764.7 1701.12 L1764.7 1705.29 L1725.54 1705.29 Q1726.09 1714.09 1730.82 1718.72 Q1735.58 1723.3 1744.06 1723.3 Q1748.96 1723.3 1753.55 1722.1 Q1758.18 1720.89 1762.71 1718.48 L1762.71 1726.54 Q1758.13 1728.48 1753.32 1729.5 Q1748.5 1730.52 1743.55 1730.52 Q1731.14 1730.52 1723.87 1723.3 Q1716.65 1716.08 1716.65 1703.76 Q1716.65 1691.03 1723.5 1683.58 Q1730.4 1676.08 1742.07 1676.08 Q1752.53 1676.08 1758.59 1682.84 Q1764.7 1689.55 1764.7 1701.12 M1756.19 1698.62 Q1756.09 1691.63 1752.25 1687.47 Q1748.45 1683.3 1742.16 1683.3 Q1735.03 1683.3 1730.72 1687.33 Q1726.46 1691.36 1725.82 1698.67 L1756.19 1698.62 Z" fill="#000000" fill-rule="nonzero" fill-opacity="1" /><path clip-path="url(#clip070)" d="M1786.93 1721.4 L1786.93 1748.9 L1778.36 1748.9 L1778.36 1677.33 L1786.93 1677.33 L1786.93 1685.2 Q1789.61 1680.57 1793.69 1678.35 Q1797.81 1676.08 1803.5 1676.08 Q1812.95 1676.08 1818.82 1683.58 Q1824.75 1691.08 1824.75 1703.3 Q1824.75 1715.52 1818.82 1723.02 Q1812.95 1730.52 1803.5 1730.52 Q1797.81 1730.52 1793.69 1728.3 Q1789.61 1726.03 1786.93 1721.4 M1815.91 1703.3 Q1815.91 1693.9 1812.02 1688.58 Q1808.18 1683.21 1801.42 1683.21 Q1794.66 1683.21 1790.77 1688.58 Q1786.93 1693.9 1786.93 1703.3 Q1786.93 1712.7 1790.77 1718.07 Q1794.66 1723.39 1801.42 1723.39 Q1808.18 1723.39 1812.02 1718.07 Q1815.91 1712.7 1815.91 1703.3 Z" fill="#000000" fill-rule="nonzero" fill-opacity="1" /><path clip-path="url(#clip070)" d="M1871.93 1678.86 L1871.93 1686.91 Q1868.32 1685.06 1864.43 1684.13 Q1860.54 1683.21 1856.37 1683.21 Q1850.03 1683.21 1846.83 1685.15 Q1843.69 1687.1 1843.69 1690.99 Q1843.69 1693.95 1845.95 1695.66 Q1848.22 1697.33 1855.07 1698.86 L1857.99 1699.5 Q1867.07 1701.45 1870.86 1705.01 Q1874.7 1708.53 1874.7 1714.87 Q1874.7 1722.1 1868.96 1726.31 Q1863.27 1730.52 1853.27 1730.52 Q1849.1 1730.52 1844.57 1729.69 Q1840.07 1728.9 1835.07 1727.28 L1835.07 1718.48 Q1839.8 1720.94 1844.38 1722.19 Q1848.96 1723.39 1853.45 1723.39 Q1859.47 1723.39 1862.71 1721.36 Q1865.95 1719.27 1865.95 1715.52 Q1865.95 1712.05 1863.59 1710.2 Q1861.28 1708.35 1853.36 1706.63 L1850.4 1705.94 Q1842.48 1704.27 1838.96 1700.85 Q1835.45 1697.37 1835.45 1691.36 Q1835.45 1684.04 1840.63 1680.06 Q1845.82 1676.08 1855.35 1676.08 Q1860.07 1676.08 1864.24 1676.77 Q1868.41 1677.47 1871.93 1678.86 Z" fill="#000000" fill-rule="nonzero" fill-opacity="1" /><polyline clip-path="url(#clip070)" style="stroke:#000000; stroke-linecap:round; stroke-linejoin:round; stroke-width:4; stroke-opacity:1; fill:none" points="342.256,1520.48 342.256,47.2441 "/>
<polyline clip-path="url(#clip070)" style="stroke:#000000; stroke-linecap:round; stroke-linejoin:round; stroke-width:4; stroke-opacity:1; fill:none" points="342.256,267.146 361.153,267.146 "/>
<polyline clip-path="url(#clip070)" style="stroke:#000000; stroke-linecap:round; stroke-linejoin:round; stroke-width:4; stroke-opacity:1; fill:none" points="342.256,502.647 361.153,502.647 "/>
<polyline clip-path="url(#clip070)" style="stroke:#000000; stroke-linecap:round; stroke-linejoin:round; stroke-width:4; stroke-opacity:1; fill:none" points="342.256,738.149 361.153,738.149 "/>
<polyline clip-path="url(#clip070)" style="stroke:#000000; stroke-linecap:round; stroke-linejoin:round; stroke-width:4; stroke-opacity:1; fill:none" points="342.256,973.651 361.153,973.651 "/>
<polyline clip-path="url(#clip070)" style="stroke:#000000; stroke-linecap:round; stroke-linejoin:round; stroke-width:4; stroke-opacity:1; fill:none" points="342.256,1209.15 361.153,1209.15 "/>
<polyline clip-path="url(#clip070)" style="stroke:#000000; stroke-linecap:round; stroke-linejoin:round; stroke-width:4; stroke-opacity:1; fill:none" points="342.256,1444.66 361.153,1444.66 "/>
<path clip-path="url(#clip070)" d="M143.595 296.834 L155.053 296.834 L155.053 257.286 L142.588 259.786 L142.588 253.397 L154.984 250.897 L161.997 250.897 L161.997 296.834 L173.456 296.834 L173.456 302.737 L143.595 302.737 L143.595 296.834 Z" fill="#000000" fill-rule="nonzero" fill-opacity="1" /><path clip-path="url(#clip070)" d="M202.622 255.515 Q197.206 255.515 194.463 260.862 Q191.754 266.175 191.754 276.869 Q191.754 287.529 194.463 292.876 Q197.206 298.188 202.622 298.188 Q208.074 298.188 210.782 292.876 Q213.525 287.529 213.525 276.869 Q213.525 266.175 210.782 260.862 Q208.074 255.515 202.622 255.515 M202.622 249.96 Q211.337 249.96 215.921 256.869 Q220.539 263.744 220.539 276.869 Q220.539 289.959 215.921 296.869 Q211.337 303.744 202.622 303.744 Q193.907 303.744 189.289 296.869 Q184.706 289.959 184.706 276.869 Q184.706 263.744 189.289 256.869 Q193.907 249.96 202.622 249.96 Z" fill="#000000" fill-rule="nonzero" fill-opacity="1" /><path clip-path="url(#clip070)" d="M220.539 241.112 L256.706 241.112 L256.706 245.908 L220.539 245.908 L220.539 241.112 Z" fill="#000000" fill-rule="nonzero" fill-opacity="1" /><path clip-path="url(#clip070)" d="M269.994 256.825 L279.304 256.825 L279.304 224.692 L269.176 226.724 L269.176 221.533 L279.247 219.501 L284.946 219.501 L284.946 256.825 L294.256 256.825 L294.256 261.621 L269.994 261.621 L269.994 256.825 Z" fill="#000000" fill-rule="nonzero" fill-opacity="1" /><path clip-path="url(#clip070)" d="M144.046 532.336 L155.504 532.336 L155.504 492.788 L143.039 495.288 L143.039 488.899 L155.435 486.399 L162.449 486.399 L162.449 532.336 L173.907 532.336 L173.907 538.239 L144.046 538.239 L144.046 532.336 Z" fill="#000000" fill-rule="nonzero" fill-opacity="1" /><path clip-path="url(#clip070)" d="M203.074 491.017 Q197.657 491.017 194.914 496.364 Q192.206 501.677 192.206 512.371 Q192.206 523.031 194.914 528.378 Q197.657 533.69 203.074 533.69 Q208.525 533.69 211.233 528.378 Q213.976 523.031 213.976 512.371 Q213.976 501.677 211.233 496.364 Q208.525 491.017 203.074 491.017 M203.074 485.461 Q211.789 485.461 216.372 492.371 Q220.99 499.246 220.99 512.371 Q220.99 525.461 216.372 532.371 Q211.789 539.246 203.074 539.246 Q194.358 539.246 189.74 532.371 Q185.157 525.461 185.157 512.371 Q185.157 499.246 189.74 492.371 Q194.358 485.461 203.074 485.461 Z" fill="#000000" fill-rule="nonzero" fill-opacity="1" /><path clip-path="url(#clip070)" d="M220.99 476.613 L257.158 476.613 L257.158 481.409 L220.99 481.409 L220.99 476.613 Z" fill="#000000" fill-rule="nonzero" fill-opacity="1" /><path clip-path="url(#clip070)" d="M274.367 492.327 L294.256 492.327 L294.256 497.123 L267.511 497.123 L267.511 492.327 Q270.756 488.97 276.341 483.328 Q281.956 477.657 283.394 476.021 Q286.131 472.946 287.203 470.83 Q288.303 468.686 288.303 466.626 Q288.303 463.269 285.933 461.153 Q283.592 459.038 279.811 459.038 Q277.131 459.038 274.141 459.969 Q271.179 460.9 267.793 462.79 L267.793 457.035 Q271.235 455.652 274.226 454.947 Q277.216 454.242 279.699 454.242 Q286.244 454.242 290.137 457.514 Q294.03 460.787 294.03 466.26 Q294.03 468.855 293.043 471.197 Q292.084 473.51 289.516 476.67 Q288.811 477.488 285.031 481.409 Q281.25 485.303 274.367 492.327 Z" fill="#000000" fill-rule="nonzero" fill-opacity="1" /><path clip-path="url(#clip070)" d="M142.889 767.838 L154.348 767.838 L154.348 728.29 L141.883 730.79 L141.883 724.401 L154.278 721.901 L161.292 721.901 L161.292 767.838 L172.75 767.838 L172.75 773.741 L142.889 773.741 L142.889 767.838 Z" fill="#000000" fill-rule="nonzero" fill-opacity="1" /><path clip-path="url(#clip070)" d="M201.917 726.519 Q196.5 726.519 193.757 731.866 Q191.049 737.178 191.049 747.873 Q191.049 758.533 193.757 763.88 Q196.5 769.192 201.917 769.192 Q207.368 769.192 210.077 763.88 Q212.82 758.533 212.82 747.873 Q212.82 737.178 210.077 731.866 Q207.368 726.519 201.917 726.519 M201.917 720.963 Q210.632 720.963 215.215 727.873 Q219.833 734.748 219.833 747.873 Q219.833 760.963 215.215 767.873 Q210.632 774.748 201.917 774.748 Q193.202 774.748 188.584 767.873 Q184 760.963 184 747.873 Q184 734.748 188.584 727.873 Q193.202 720.963 201.917 720.963 Z" fill="#000000" fill-rule="nonzero" fill-opacity="1" /><path clip-path="url(#clip070)" d="M219.833 712.115 L256.001 712.115 L256.001 716.911 L219.833 716.911 L219.833 712.115 Z" fill="#000000" fill-rule="nonzero" fill-opacity="1" /><path clip-path="url(#clip070)" d="M285.567 709.915 Q289.657 710.789 291.942 713.554 Q294.256 716.319 294.256 720.381 Q294.256 726.616 289.968 730.03 Q285.68 733.443 277.78 733.443 Q275.128 733.443 272.307 732.907 Q269.514 732.399 266.524 731.356 L266.524 725.854 Q268.894 727.237 271.715 727.942 Q274.536 728.647 277.611 728.647 Q282.971 728.647 285.764 726.531 Q288.585 724.416 288.585 720.381 Q288.585 716.657 285.962 714.57 Q283.366 712.454 278.711 712.454 L273.802 712.454 L273.802 707.771 L278.937 707.771 Q283.14 707.771 285.369 706.106 Q287.598 704.414 287.598 701.254 Q287.598 698.009 285.285 696.289 Q282.999 694.539 278.711 694.539 Q276.37 694.539 273.69 695.047 Q271.009 695.555 267.793 696.627 L267.793 691.549 Q271.038 690.646 273.859 690.195 Q276.708 689.743 279.219 689.743 Q285.708 689.743 289.488 692.706 Q293.268 695.64 293.268 700.661 Q293.268 704.16 291.265 706.586 Q289.262 708.984 285.567 709.915 Z" fill="#000000" fill-rule="nonzero" fill-opacity="1" /><path clip-path="url(#clip070)" d="M141.507 1003.34 L152.965 1003.34 L152.965 963.792 L140.5 966.292 L140.5 959.903 L152.896 957.403 L159.91 957.403 L159.91 1003.34 L171.368 1003.34 L171.368 1009.24 L141.507 1009.24 L141.507 1003.34 Z" fill="#000000" fill-rule="nonzero" fill-opacity="1" /><path clip-path="url(#clip070)" d="M200.535 962.021 Q195.118 962.021 192.375 967.368 Q189.667 972.68 189.667 983.375 Q189.667 994.034 192.375 999.382 Q195.118 1004.69 200.535 1004.69 Q205.986 1004.69 208.694 999.382 Q211.437 994.034 211.437 983.375 Q211.437 972.68 208.694 967.368 Q205.986 962.021 200.535 962.021 M200.535 956.465 Q209.25 956.465 213.833 963.375 Q218.451 970.25 218.451 983.375 Q218.451 996.465 213.833 1003.37 Q209.25 1010.25 200.535 1010.25 Q191.819 1010.25 187.201 1003.37 Q182.618 996.465 182.618 983.375 Q182.618 970.25 187.201 963.375 Q191.819 956.465 200.535 956.465 Z" fill="#000000" fill-rule="nonzero" fill-opacity="1" /><path clip-path="url(#clip070)" d="M218.451 947.617 L254.618 947.617 L254.618 952.413 L218.451 952.413 L218.451 947.617 Z" fill="#000000" fill-rule="nonzero" fill-opacity="1" /><path clip-path="url(#clip070)" d="M282.576 930.972 L268.188 953.457 L282.576 953.457 L282.576 930.972 M281.081 926.007 L288.247 926.007 L288.247 953.457 L294.256 953.457 L294.256 958.197 L288.247 958.197 L288.247 968.127 L282.576 968.127 L282.576 958.197 L263.562 958.197 L263.562 952.695 L281.081 926.007 Z" fill="#000000" fill-rule="nonzero" fill-opacity="1" /><path clip-path="url(#clip070)" d="M143.313 1238.84 L154.771 1238.84 L154.771 1199.29 L142.306 1201.79 L142.306 1195.4 L154.701 1192.9 L161.715 1192.9 L161.715 1238.84 L173.174 1238.84 L173.174 1244.74 L143.313 1244.74 L143.313 1238.84 Z" fill="#000000" fill-rule="nonzero" fill-opacity="1" /><path clip-path="url(#clip070)" d="M202.34 1197.52 Q196.923 1197.52 194.18 1202.87 Q191.472 1208.18 191.472 1218.88 Q191.472 1229.54 194.18 1234.88 Q196.923 1240.2 202.34 1240.2 Q207.791 1240.2 210.5 1234.88 Q213.243 1229.54 213.243 1218.88 Q213.243 1208.18 210.5 1202.87 Q207.791 1197.52 202.34 1197.52 M202.34 1191.97 Q211.055 1191.97 215.639 1198.88 Q220.257 1205.75 220.257 1218.88 Q220.257 1231.97 215.639 1238.88 Q211.055 1245.75 202.34 1245.75 Q193.625 1245.75 189.007 1238.88 Q184.424 1231.97 184.424 1218.88 Q184.424 1205.75 189.007 1198.88 Q193.625 1191.97 202.34 1191.97 Z" fill="#000000" fill-rule="nonzero" fill-opacity="1" /><path clip-path="url(#clip070)" d="M220.257 1183.12 L256.424 1183.12 L256.424 1187.92 L220.257 1187.92 L220.257 1183.12 Z" fill="#000000" fill-rule="nonzero" fill-opacity="1" /><path clip-path="url(#clip070)" d="M268.781 1161.51 L291.153 1161.51 L291.153 1166.3 L274 1166.3 L274 1176.63 Q275.241 1176.21 276.483 1176.01 Q277.724 1175.78 278.965 1175.78 Q286.018 1175.78 290.137 1179.65 Q294.256 1183.51 294.256 1190.12 Q294.256 1196.91 290.024 1200.69 Q285.792 1204.45 278.091 1204.45 Q275.439 1204.45 272.674 1204 Q269.937 1203.54 267.003 1202.64 L267.003 1196.91 Q269.542 1198.3 272.251 1198.97 Q274.959 1199.65 277.978 1199.65 Q282.858 1199.65 285.708 1197.08 Q288.557 1194.52 288.557 1190.12 Q288.557 1185.71 285.708 1183.15 Q282.858 1180.58 277.978 1180.58 Q275.693 1180.58 273.407 1181.09 Q271.15 1181.6 268.781 1182.67 L268.781 1161.51 Z" fill="#000000" fill-rule="nonzero" fill-opacity="1" /><path clip-path="url(#clip070)" d="M141.902 1474.34 L153.36 1474.34 L153.36 1434.8 L140.895 1437.3 L140.895 1430.91 L153.291 1428.41 L160.305 1428.41 L160.305 1474.34 L171.763 1474.34 L171.763 1480.25 L141.902 1480.25 L141.902 1474.34 Z" fill="#000000" fill-rule="nonzero" fill-opacity="1" /><path clip-path="url(#clip070)" d="M200.93 1433.02 Q195.513 1433.02 192.77 1438.37 Q190.062 1443.68 190.062 1454.38 Q190.062 1465.04 192.77 1470.39 Q195.513 1475.7 200.93 1475.7 Q206.381 1475.7 209.089 1470.39 Q211.832 1465.04 211.832 1454.38 Q211.832 1443.68 209.089 1438.37 Q206.381 1433.02 200.93 1433.02 M200.93 1427.47 Q209.645 1427.47 214.228 1434.38 Q218.846 1441.25 218.846 1454.38 Q218.846 1467.47 214.228 1474.38 Q209.645 1481.25 200.93 1481.25 Q192.214 1481.25 187.596 1474.38 Q183.013 1467.47 183.013 1454.38 Q183.013 1441.25 187.596 1434.38 Q192.214 1427.47 200.93 1427.47 Z" fill="#000000" fill-rule="nonzero" fill-opacity="1" /><path clip-path="url(#clip070)" d="M218.846 1418.62 L255.013 1418.62 L255.013 1423.42 L218.846 1423.42 L218.846 1418.62 Z" fill="#000000" fill-rule="nonzero" fill-opacity="1" /><path clip-path="url(#clip070)" d="M280.206 1415.8 Q276.37 1415.8 274.113 1418.42 Q271.884 1421.05 271.884 1425.62 Q271.884 1430.16 274.113 1432.81 Q276.37 1435.44 280.206 1435.44 Q284.043 1435.44 286.272 1432.81 Q288.529 1430.16 288.529 1425.62 Q288.529 1421.05 286.272 1418.42 Q284.043 1415.8 280.206 1415.8 M291.519 1397.94 L291.519 1403.13 Q289.375 1402.12 287.175 1401.58 Q285.002 1401.05 282.858 1401.05 Q277.216 1401.05 274.226 1404.85 Q271.263 1408.66 270.84 1416.36 Q272.505 1413.91 275.015 1412.61 Q277.526 1411.29 280.545 1411.29 Q286.893 1411.29 290.56 1415.15 Q294.256 1418.99 294.256 1425.62 Q294.256 1432.11 290.419 1436.03 Q286.582 1439.95 280.206 1439.95 Q272.9 1439.95 269.035 1434.36 Q265.17 1428.75 265.17 1418.11 Q265.17 1408.13 269.909 1402.2 Q274.649 1396.25 282.633 1396.25 Q284.777 1396.25 286.949 1396.67 Q289.15 1397.1 291.519 1397.94 Z" fill="#000000" fill-rule="nonzero" fill-opacity="1" /><path clip-path="url(#clip070)" d="M11.8571 1088.86 L46.255 1101.54 L46.255 1076.13 L11.8571 1088.86 M2.64416 1094.14 L2.64416 1083.53 L71.7642 1057.19 L71.7642 1066.91 L54.0328 1073.21 L54.0328 1104.37 L71.7642 1110.66 L71.7642 1120.52 L2.64416 1094.14 Z" fill="#000000" fill-rule="nonzero" fill-opacity="1" /><path clip-path="url(#clip070)" d="M45.8847 1010.25 Q36.4866 1010.25 31.1625 1014.14 Q25.7922 1017.98 25.7922 1024.74 Q25.7922 1031.5 31.1625 1035.39 Q36.4866 1039.23 45.8847 1039.23 Q55.2828 1039.23 60.6531 1035.39 Q65.9772 1031.5 65.9772 1024.74 Q65.9772 1017.98 60.6531 1014.14 Q55.2828 1010.25 45.8847 1010.25 M27.7829 1039.23 Q23.1533 1036.54 20.9311 1032.47 Q18.6626 1028.35 18.6626 1022.65 Q18.6626 1013.21 26.1625 1007.33 Q33.6625 1001.4 45.8847 1001.4 Q58.1068 1001.4 65.6068 1007.33 Q73.1067 1013.21 73.1067 1022.65 Q73.1067 1028.35 70.8845 1032.47 Q68.616 1036.54 63.9864 1039.23 L71.7642 1039.23 L71.7642 1047.79 L-0.272494 1047.79 L-0.272494 1039.23 L27.7829 1039.23 Z" fill="#000000" fill-rule="nonzero" fill-opacity="1" /><path clip-path="url(#clip070)" d="M21.4404 954.229 L29.4959 954.229 Q27.644 957.84 26.7181 961.729 Q25.7922 965.618 25.7922 969.785 Q25.7922 976.127 27.7366 979.322 Q29.681 982.47 33.5699 982.47 Q36.5329 982.47 38.2458 980.201 Q39.9125 977.933 41.4402 971.081 L42.0884 968.164 Q44.0328 959.09 47.5976 955.294 Q51.1161 951.451 57.4587 951.451 Q64.6809 951.451 68.8938 957.192 Q73.1067 962.887 73.1067 972.886 Q73.1067 977.053 72.2734 981.59 Q71.4864 986.081 69.866 991.081 L61.0698 991.081 Q63.5235 986.359 64.7735 981.775 Q65.9772 977.192 65.9772 972.701 Q65.9772 966.683 63.9401 963.442 Q61.8568 960.201 58.1068 960.201 Q54.6346 960.201 52.7828 962.562 Q50.9309 964.877 49.218 972.794 L48.5235 975.757 Q46.8569 983.673 43.431 987.192 Q39.9588 990.71 33.9403 990.71 Q26.6255 990.71 22.6441 985.525 Q18.6626 980.34 18.6626 970.803 Q18.6626 966.081 19.357 961.914 Q20.0515 957.748 21.4404 954.229 Z" fill="#000000" fill-rule="nonzero" fill-opacity="1" /><path clip-path="url(#clip070)" d="M25.8848 917.794 Q25.8848 924.646 31.2551 928.627 Q36.5792 932.609 45.8847 932.609 Q55.1902 932.609 60.5605 928.674 Q65.8846 924.692 65.8846 917.794 Q65.8846 910.989 60.5142 907.007 Q55.1439 903.026 45.8847 903.026 Q36.6718 903.026 31.3014 907.007 Q25.8848 910.989 25.8848 917.794 M18.6626 917.794 Q18.6626 906.683 25.8848 900.341 Q33.107 893.998 45.8847 893.998 Q58.6161 893.998 65.8846 900.341 Q73.1067 906.683 73.1067 917.794 Q73.1067 928.952 65.8846 935.294 Q58.6161 941.59 45.8847 941.59 Q33.107 941.59 25.8848 935.294 Q18.6626 928.952 18.6626 917.794 Z" fill="#000000" fill-rule="nonzero" fill-opacity="1" /><path clip-path="url(#clip070)" d="M-0.272494 879.878 L-0.272494 871.359 L71.7642 871.359 L71.7642 879.878 L-0.272494 879.878 Z" fill="#000000" fill-rule="nonzero" fill-opacity="1" /><path clip-path="url(#clip070)" d="M51.3013 854.415 L19.9126 854.415 L19.9126 845.896 L50.9772 845.896 Q58.3383 845.896 62.042 843.026 Q65.6994 840.156 65.6994 834.415 Q65.6994 827.517 61.3013 823.535 Q56.9031 819.508 49.3106 819.508 L19.9126 819.508 L19.9126 810.989 L71.7642 810.989 L71.7642 819.508 L63.8012 819.508 Q68.5234 822.609 70.8382 826.73 Q73.1067 830.804 73.1067 836.221 Q73.1067 845.156 67.5512 849.785 Q61.9957 854.415 51.3013 854.415 M18.6626 832.98 L18.6626 832.98 Z" fill="#000000" fill-rule="nonzero" fill-opacity="1" /><path clip-path="url(#clip070)" d="M5.19044 785.017 L19.9126 785.017 L19.9126 767.471 L26.5329 767.471 L26.5329 785.017 L54.6809 785.017 Q61.0235 785.017 62.829 783.304 Q64.6346 781.545 64.6346 776.221 L64.6346 767.471 L71.7642 767.471 L71.7642 776.221 Q71.7642 786.082 68.1068 789.832 Q64.4031 793.582 54.6809 793.582 L26.5329 793.582 L26.5329 799.832 L19.9126 799.832 L19.9126 793.582 L5.19044 793.582 L5.19044 785.017 Z" fill="#000000" fill-rule="nonzero" fill-opacity="1" /><path clip-path="url(#clip070)" d="M43.7088 711.916 L47.8754 711.916 L47.8754 751.082 Q56.6716 750.527 61.3013 745.804 Q65.8846 741.036 65.8846 732.564 Q65.8846 727.656 64.6809 723.073 Q63.4772 718.443 61.0698 713.906 L69.1253 713.906 Q71.0697 718.49 72.0882 723.304 Q73.1067 728.119 73.1067 733.073 Q73.1067 745.48 65.8846 752.749 Q58.6624 759.971 46.3476 759.971 Q33.6162 759.971 26.1625 753.119 Q18.6626 746.221 18.6626 734.554 Q18.6626 724.092 25.4218 718.027 Q32.1347 711.916 43.7088 711.916 M41.2088 720.434 Q34.2181 720.527 30.0514 724.369 Q25.8848 728.166 25.8848 734.462 Q25.8848 741.591 29.9125 745.897 Q33.9403 750.156 41.2551 750.804 L41.2088 720.434 Z" fill="#000000" fill-rule="nonzero" fill-opacity="1" /><path clip-path="url(#clip070)" d="M43.7088 623.444 L47.8754 623.444 L47.8754 662.61 Q56.6716 662.055 61.3013 657.333 Q65.8846 652.564 65.8846 644.092 Q65.8846 639.185 64.6809 634.601 Q63.4772 629.972 61.0698 625.435 L69.1253 625.435 Q71.0697 630.018 72.0882 634.833 Q73.1067 639.648 73.1067 644.601 Q73.1067 657.009 65.8846 664.277 Q58.6624 671.499 46.3476 671.499 Q33.6162 671.499 26.1625 664.647 Q18.6626 657.749 18.6626 646.083 Q18.6626 635.62 25.4218 629.555 Q32.1347 623.444 43.7088 623.444 M41.2088 631.962 Q34.2181 632.055 30.0514 635.898 Q25.8848 639.694 25.8848 645.99 Q25.8848 653.12 29.9125 657.425 Q33.9403 661.684 41.2551 662.333 L41.2088 631.962 Z" fill="#000000" fill-rule="nonzero" fill-opacity="1" /><path clip-path="url(#clip070)" d="M27.8755 579.416 Q27.0422 580.852 26.6718 582.564 Q26.2551 584.231 26.2551 586.268 Q26.2551 593.49 30.9773 597.379 Q35.6532 601.222 44.4495 601.222 L71.7642 601.222 L71.7642 609.787 L19.9126 609.787 L19.9126 601.222 L27.9681 601.222 Q23.2459 598.537 20.9774 594.231 Q18.6626 589.926 18.6626 583.768 Q18.6626 582.889 18.8015 581.824 Q18.8941 580.759 19.1256 579.463 L27.8755 579.416 Z" fill="#000000" fill-rule="nonzero" fill-opacity="1" /><path clip-path="url(#clip070)" d="M27.8755 542.102 Q27.0422 543.537 26.6718 545.25 Q26.2551 546.917 26.2551 548.954 Q26.2551 556.176 30.9773 560.065 Q35.6532 563.907 44.4495 563.907 L71.7642 563.907 L71.7642 572.472 L19.9126 572.472 L19.9126 563.907 L27.9681 563.907 Q23.2459 561.222 20.9774 556.916 Q18.6626 552.611 18.6626 546.454 Q18.6626 545.574 18.8015 544.509 Q18.8941 543.444 19.1256 542.148 L27.8755 542.102 Z" fill="#000000" fill-rule="nonzero" fill-opacity="1" /><path clip-path="url(#clip070)" d="M25.8848 515.157 Q25.8848 522.009 31.2551 525.991 Q36.5792 529.972 45.8847 529.972 Q55.1902 529.972 60.5605 526.037 Q65.8846 522.056 65.8846 515.157 Q65.8846 508.352 60.5142 504.37 Q55.1439 500.389 45.8847 500.389 Q36.6718 500.389 31.3014 504.37 Q25.8848 508.352 25.8848 515.157 M18.6626 515.157 Q18.6626 504.046 25.8848 497.704 Q33.107 491.361 45.8847 491.361 Q58.6161 491.361 65.8846 497.704 Q73.1067 504.046 73.1067 515.157 Q73.1067 526.315 65.8846 532.657 Q58.6161 538.954 45.8847 538.954 Q33.107 538.954 25.8848 532.657 Q18.6626 526.315 18.6626 515.157 Z" fill="#000000" fill-rule="nonzero" fill-opacity="1" /><path clip-path="url(#clip070)" d="M27.8755 447.195 Q27.0422 448.63 26.6718 450.343 Q26.2551 452.01 26.2551 454.047 Q26.2551 461.269 30.9773 465.158 Q35.6532 469 44.4495 469 L71.7642 469 L71.7642 477.565 L19.9126 477.565 L19.9126 469 L27.9681 469 Q23.2459 466.315 20.9774 462.01 Q18.6626 457.704 18.6626 451.547 Q18.6626 450.667 18.8015 449.602 Q18.8941 448.537 19.1256 447.241 L27.8755 447.195 Z" fill="#000000" fill-rule="nonzero" fill-opacity="1" /><polyline clip-path="url(#clip072)" style="stroke:#009af9; stroke-linecap:round; stroke-linejoin:round; stroke-width:4; stroke-opacity:1; fill:none" points="421.798,279.345 569.099,244.996 716.4,222.996 863.701,206.765 1011,193.029 1158.3,180.169 1305.6,167.676 1452.9,155.662 1600.21,144.458 1747.51,134.347 1894.81,125.443 2042.11,117.741 2189.41,111.154 2336.71,105.58 2484.01,100.926 2631.31,97.0951 2778.61,93.9428 2925.91,91.2848 3073.21,88.9393 "/>
<path clip-path="url(#clip072)" d="M421.798 303.345 L404.83 296.313 L397.798 279.345 L404.83 262.377 L421.798 255.345 L438.766 262.377 L445.798 279.345 L438.766 296.313 Z" fill="#009af9" fill-rule="evenodd" fill-opacity="1" stroke="#000000" stroke-opacity="1" stroke-width="4.8"/>
<path clip-path="url(#clip072)" d="M569.099 268.996 L552.131 261.964 L545.099 244.996 L552.131 228.028 L569.099 220.996 L586.067 228.028 L593.099 244.996 L586.067 261.964 Z" fill="#009af9" fill-rule="evenodd" fill-opacity="1" stroke="#000000" stroke-opacity="1" stroke-width="4.8"/>
<path clip-path="url(#clip072)" d="M716.4 246.996 L699.432 239.964 L692.4 222.996 L699.432 206.028 L716.4 198.996 L733.368 206.028 L740.4 222.996 L733.368 239.964 Z" fill="#009af9" fill-rule="evenodd" fill-opacity="1" stroke="#000000" stroke-opacity="1" stroke-width="4.8"/>
<path clip-path="url(#clip072)" d="M863.701 230.765 L846.733 223.733 L839.701 206.765 L846.733 189.797 L863.701 182.765 L880.669 189.797 L887.701 206.765 L880.669 223.733 Z" fill="#009af9" fill-rule="evenodd" fill-opacity="1" stroke="#000000" stroke-opacity="1" stroke-width="4.8"/>
<path clip-path="url(#clip072)" d="M1011 217.029 L994.034 209.997 L987.002 193.029 L994.034 176.061 L1011 169.029 L1027.97 176.061 L1035 193.029 L1027.97 209.997 Z" fill="#009af9" fill-rule="evenodd" fill-opacity="1" stroke="#000000" stroke-opacity="1" stroke-width="4.8"/>
<path clip-path="url(#clip072)" d="M1158.3 204.169 L1141.33 197.137 L1134.3 180.169 L1141.33 163.201 L1158.3 156.169 L1175.27 163.201 L1182.3 180.169 L1175.27 197.137 Z" fill="#009af9" fill-rule="evenodd" fill-opacity="1" stroke="#000000" stroke-opacity="1" stroke-width="4.8"/>
<path clip-path="url(#clip072)" d="M1305.6 191.676 L1288.64 184.644 L1281.6 167.676 L1288.64 150.708 L1305.6 143.676 L1322.57 150.708 L1329.6 167.676 L1322.57 184.644 Z" fill="#009af9" fill-rule="evenodd" fill-opacity="1" stroke="#000000" stroke-opacity="1" stroke-width="4.8"/>
<path clip-path="url(#clip072)" d="M1452.9 179.662 L1435.94 172.63 L1428.9 155.662 L1435.94 138.694 L1452.9 131.662 L1469.87 138.694 L1476.9 155.662 L1469.87 172.63 Z" fill="#009af9" fill-rule="evenodd" fill-opacity="1" stroke="#000000" stroke-opacity="1" stroke-width="4.8"/>
<path clip-path="url(#clip072)" d="M1600.21 168.458 L1583.24 161.426 L1576.21 144.458 L1583.24 127.49 L1600.21 120.458 L1617.17 127.49 L1624.21 144.458 L1617.17 161.426 Z" fill="#009af9" fill-rule="evenodd" fill-opacity="1" stroke="#000000" stroke-opacity="1" stroke-width="4.8"/>
<path clip-path="url(#clip072)" d="M1747.51 158.347 L1730.54 151.315 L1723.51 134.347 L1730.54 117.379 L1747.51 110.347 L1764.47 117.379 L1771.51 134.347 L1764.47 151.315 Z" fill="#009af9" fill-rule="evenodd" fill-opacity="1" stroke="#000000" stroke-opacity="1" stroke-width="4.8"/>
<path clip-path="url(#clip072)" d="M1894.81 149.443 L1877.84 142.411 L1870.81 125.443 L1877.84 108.475 L1894.81 101.443 L1911.77 108.475 L1918.81 125.443 L1911.77 142.411 Z" fill="#009af9" fill-rule="evenodd" fill-opacity="1" stroke="#000000" stroke-opacity="1" stroke-width="4.8"/>
<path clip-path="url(#clip072)" d="M2042.11 141.741 L2025.14 134.709 L2018.11 117.741 L2025.14 100.773 L2042.11 93.7406 L2059.08 100.773 L2066.11 117.741 L2059.08 134.709 Z" fill="#009af9" fill-rule="evenodd" fill-opacity="1" stroke="#000000" stroke-opacity="1" stroke-width="4.8"/>
<path clip-path="url(#clip072)" d="M2189.41 135.154 L2172.44 128.122 L2165.41 111.154 L2172.44 94.1865 L2189.41 87.1545 L2206.38 94.1865 L2213.41 111.154 L2206.38 128.122 Z" fill="#009af9" fill-rule="evenodd" fill-opacity="1" stroke="#000000" stroke-opacity="1" stroke-width="4.8"/>
<path clip-path="url(#clip072)" d="M2336.71 129.58 L2319.74 122.548 L2312.71 105.58 L2319.74 88.612 L2336.71 81.58 L2353.68 88.612 L2360.71 105.58 L2353.68 122.548 Z" fill="#009af9" fill-rule="evenodd" fill-opacity="1" stroke="#000000" stroke-opacity="1" stroke-width="4.8"/>
<path clip-path="url(#clip072)" d="M2484.01 124.926 L2467.04 117.894 L2460.01 100.926 L2467.04 83.9576 L2484.01 76.9256 L2500.98 83.9576 L2508.01 100.926 L2500.98 117.894 Z" fill="#009af9" fill-rule="evenodd" fill-opacity="1" stroke="#000000" stroke-opacity="1" stroke-width="4.8"/>
<path clip-path="url(#clip072)" d="M2631.31 121.095 L2614.34 114.063 L2607.31 97.0951 L2614.34 80.1271 L2631.31 73.0951 L2648.28 80.1271 L2655.31 97.0951 L2648.28 114.063 Z" fill="#009af9" fill-rule="evenodd" fill-opacity="1" stroke="#000000" stroke-opacity="1" stroke-width="4.8"/>
<path clip-path="url(#clip072)" d="M2778.61 117.943 L2761.64 110.911 L2754.61 93.9428 L2761.64 76.9748 L2778.61 69.9428 L2795.58 76.9748 L2802.61 93.9428 L2795.58 110.911 Z" fill="#009af9" fill-rule="evenodd" fill-opacity="1" stroke="#000000" stroke-opacity="1" stroke-width="4.8"/>
<path clip-path="url(#clip072)" d="M2925.91 115.285 L2908.94 108.253 L2901.91 91.2848 L2908.94 74.3168 L2925.91 67.2848 L2942.88 74.3168 L2949.91 91.2848 L2942.88 108.253 Z" fill="#009af9" fill-rule="evenodd" fill-opacity="1" stroke="#000000" stroke-opacity="1" stroke-width="4.8"/>
<path clip-path="url(#clip072)" d="M3073.21 112.939 L3056.25 105.907 L3049.21 88.9393 L3056.25 71.9713 L3073.21 64.9393 L3090.18 71.9713 L3097.21 88.9393 L3090.18 105.907 Z" fill="#009af9" fill-rule="evenodd" fill-opacity="1" stroke="#000000" stroke-opacity="1" stroke-width="4.8"/>
<polyline clip-path="url(#clip072)" style="stroke:#e26f46; stroke-linecap:round; stroke-linejoin:round; stroke-width:4; stroke-opacity:1; fill:none" points="421.798,1478.78 569.099,1293.97 716.4,1082.45 863.701,944.233 1011,816.928 1158.3,729.05 1305.6,662.375 1452.9,613.373 1600.21,579.743 1747.51,560.849 1894.81,561.303 2042.11,592.005 2189.41,733.965 2336.71,603.87 2484.01,505.502 2631.31,451.558 2778.61,414.373 2925.91,385.439 3073.21,360.972 "/>
<path clip-path="url(#clip072)" d="M421.798 1502.78 L404.83 1495.75 L397.798 1478.78 L404.83 1461.81 L421.798 1454.78 L438.766 1461.81 L445.798 1478.78 L438.766 1495.75 Z" fill="#e26f46" fill-rule="evenodd" fill-opacity="1" stroke="#000000" stroke-opacity="1" stroke-width="4.8"/>
<path clip-path="url(#clip072)" d="M569.099 1317.97 L552.131 1310.94 L545.099 1293.97 L552.131 1277 L569.099 1269.97 L586.067 1277 L593.099 1293.97 L586.067 1310.94 Z" fill="#e26f46" fill-rule="evenodd" fill-opacity="1" stroke="#000000" stroke-opacity="1" stroke-width="4.8"/>
<path clip-path="url(#clip072)" d="M716.4 1106.45 L699.432 1099.42 L692.4 1082.45 L699.432 1065.49 L716.4 1058.45 L733.368 1065.49 L740.4 1082.45 L733.368 1099.42 Z" fill="#e26f46" fill-rule="evenodd" fill-opacity="1" stroke="#000000" stroke-opacity="1" stroke-width="4.8"/>
<path clip-path="url(#clip072)" d="M863.701 968.233 L846.733 961.201 L839.701 944.233 L846.733 927.265 L863.701 920.233 L880.669 927.265 L887.701 944.233 L880.669 961.201 Z" fill="#e26f46" fill-rule="evenodd" fill-opacity="1" stroke="#000000" stroke-opacity="1" stroke-width="4.8"/>
<path clip-path="url(#clip072)" d="M1011 840.928 L994.034 833.896 L987.002 816.928 L994.034 799.96 L1011 792.928 L1027.97 799.96 L1035 816.928 L1027.97 833.896 Z" fill="#e26f46" fill-rule="evenodd" fill-opacity="1" stroke="#000000" stroke-opacity="1" stroke-width="4.8"/>
<path clip-path="url(#clip072)" d="M1158.3 753.05 L1141.33 746.018 L1134.3 729.05 L1141.33 712.082 L1158.3 705.05 L1175.27 712.082 L1182.3 729.05 L1175.27 746.018 Z" fill="#e26f46" fill-rule="evenodd" fill-opacity="1" stroke="#000000" stroke-opacity="1" stroke-width="4.8"/>
<path clip-path="url(#clip072)" d="M1305.6 686.375 L1288.64 679.343 L1281.6 662.375 L1288.64 645.407 L1305.6 638.375 L1322.57 645.407 L1329.6 662.375 L1322.57 679.343 Z" fill="#e26f46" fill-rule="evenodd" fill-opacity="1" stroke="#000000" stroke-opacity="1" stroke-width="4.8"/>
<path clip-path="url(#clip072)" d="M1452.9 637.373 L1435.94 630.341 L1428.9 613.373 L1435.94 596.405 L1452.9 589.373 L1469.87 596.405 L1476.9 613.373 L1469.87 630.341 Z" fill="#e26f46" fill-rule="evenodd" fill-opacity="1" stroke="#000000" stroke-opacity="1" stroke-width="4.8"/>
<path clip-path="url(#clip072)" d="M1600.21 603.743 L1583.24 596.711 L1576.21 579.743 L1583.24 562.775 L1600.21 555.743 L1617.17 562.775 L1624.21 579.743 L1617.17 596.711 Z" fill="#e26f46" fill-rule="evenodd" fill-opacity="1" stroke="#000000" stroke-opacity="1" stroke-width="4.8"/>
<path clip-path="url(#clip072)" d="M1747.51 584.849 L1730.54 577.817 L1723.51 560.849 L1730.54 543.881 L1747.51 536.849 L1764.47 543.881 L1771.51 560.849 L1764.47 577.817 Z" fill="#e26f46" fill-rule="evenodd" fill-opacity="1" stroke="#000000" stroke-opacity="1" stroke-width="4.8"/>
<path clip-path="url(#clip072)" d="M1894.81 585.303 L1877.84 578.271 L1870.81 561.303 L1877.84 544.335 L1894.81 537.303 L1911.77 544.335 L1918.81 561.303 L1911.77 578.271 Z" fill="#e26f46" fill-rule="evenodd" fill-opacity="1" stroke="#000000" stroke-opacity="1" stroke-width="4.8"/>
<path clip-path="url(#clip072)" d="M2042.11 616.005 L2025.14 608.973 L2018.11 592.005 L2025.14 575.037 L2042.11 568.005 L2059.08 575.037 L2066.11 592.005 L2059.08 608.973 Z" fill="#e26f46" fill-rule="evenodd" fill-opacity="1" stroke="#000000" stroke-opacity="1" stroke-width="4.8"/>
<path clip-path="url(#clip072)" d="M2189.41 757.965 L2172.44 750.933 L2165.41 733.965 L2172.44 716.997 L2189.41 709.965 L2206.38 716.997 L2213.41 733.965 L2206.38 750.933 Z" fill="#e26f46" fill-rule="evenodd" fill-opacity="1" stroke="#000000" stroke-opacity="1" stroke-width="4.8"/>
<path clip-path="url(#clip072)" d="M2336.71 627.87 L2319.74 620.838 L2312.71 603.87 L2319.74 586.902 L2336.71 579.87 L2353.68 586.902 L2360.71 603.87 L2353.68 620.838 Z" fill="#e26f46" fill-rule="evenodd" fill-opacity="1" stroke="#000000" stroke-opacity="1" stroke-width="4.8"/>
<path clip-path="url(#clip072)" d="M2484.01 529.502 L2467.04 522.47 L2460.01 505.502 L2467.04 488.534 L2484.01 481.502 L2500.98 488.534 L2508.01 505.502 L2500.98 522.47 Z" fill="#e26f46" fill-rule="evenodd" fill-opacity="1" stroke="#000000" stroke-opacity="1" stroke-width="4.8"/>
<path clip-path="url(#clip072)" d="M2631.31 475.558 L2614.34 468.526 L2607.31 451.558 L2614.34 434.59 L2631.31 427.558 L2648.28 434.59 L2655.31 451.558 L2648.28 468.526 Z" fill="#e26f46" fill-rule="evenodd" fill-opacity="1" stroke="#000000" stroke-opacity="1" stroke-width="4.8"/>
<path clip-path="url(#clip072)" d="M2778.61 438.373 L2761.64 431.341 L2754.61 414.373 L2761.64 397.405 L2778.61 390.373 L2795.58 397.405 L2802.61 414.373 L2795.58 431.341 Z" fill="#e26f46" fill-rule="evenodd" fill-opacity="1" stroke="#000000" stroke-opacity="1" stroke-width="4.8"/>
<path clip-path="url(#clip072)" d="M2925.91 409.439 L2908.94 402.407 L2901.91 385.439 L2908.94 368.471 L2925.91 361.439 L2942.88 368.471 L2949.91 385.439 L2942.88 402.407 Z" fill="#e26f46" fill-rule="evenodd" fill-opacity="1" stroke="#000000" stroke-opacity="1" stroke-width="4.8"/>
<path clip-path="url(#clip072)" d="M3073.21 384.972 L3056.25 377.94 L3049.21 360.972 L3056.25 344.004 L3073.21 336.972 L3090.18 344.004 L3097.21 360.972 L3090.18 377.94 Z" fill="#e26f46" fill-rule="evenodd" fill-opacity="1" stroke="#000000" stroke-opacity="1" stroke-width="4.8"/>
<polyline clip-path="url(#clip072)" style="stroke:#3da44d; stroke-linecap:round; stroke-linejoin:round; stroke-width:4; stroke-opacity:1; fill:none" points="421.798,976.88 569.099,890.718 716.4,836.815 863.701,805.526 1011,782.751 1158.3,769.343 1305.6,762.093 1452.9,762.765 1600.21,765.41 1747.51,771.897 1894.81,866.747 2042.11,807.986 2189.41,677.46 2336.71,606.43 2484.01,556.963 2631.31,523.377 2778.61,498.094 2925.91,477.394 3073.21,461.771 "/>
<path clip-path="url(#clip072)" d="M421.798 1000.88 L404.83 993.848 L397.798 976.88 L404.83 959.912 L421.798 952.88 L438.766 959.912 L445.798 976.88 L438.766 993.848 Z" fill="#3da44d" fill-rule="evenodd" fill-opacity="1" stroke="#000000" stroke-opacity="1" stroke-width="4.8"/>
<path clip-path="url(#clip072)" d="M569.099 914.718 L552.131 907.686 L545.099 890.718 L552.131 873.75 L569.099 866.718 L586.067 873.75 L593.099 890.718 L586.067 907.686 Z" fill="#3da44d" fill-rule="evenodd" fill-opacity="1" stroke="#000000" stroke-opacity="1" stroke-width="4.8"/>
<path clip-path="url(#clip072)" d="M716.4 860.815 L699.432 853.783 L692.4 836.815 L699.432 819.847 L716.4 812.815 L733.368 819.847 L740.4 836.815 L733.368 853.783 Z" fill="#3da44d" fill-rule="evenodd" fill-opacity="1" stroke="#000000" stroke-opacity="1" stroke-width="4.8"/>
<path clip-path="url(#clip072)" d="M863.701 829.526 L846.733 822.494 L839.701 805.526 L846.733 788.558 L863.701 781.526 L880.669 788.558 L887.701 805.526 L880.669 822.494 Z" fill="#3da44d" fill-rule="evenodd" fill-opacity="1" stroke="#000000" stroke-opacity="1" stroke-width="4.8"/>
<path clip-path="url(#clip072)" d="M1011 806.751 L994.034 799.719 L987.002 782.751 L994.034 765.783 L1011 758.751 L1027.97 765.783 L1035 782.751 L1027.97 799.719 Z" fill="#3da44d" fill-rule="evenodd" fill-opacity="1" stroke="#000000" stroke-opacity="1" stroke-width="4.8"/>
<path clip-path="url(#clip072)" d="M1158.3 793.343 L1141.33 786.311 L1134.3 769.343 L1141.33 752.375 L1158.3 745.343 L1175.27 752.375 L1182.3 769.343 L1175.27 786.311 Z" fill="#3da44d" fill-rule="evenodd" fill-opacity="1" stroke="#000000" stroke-opacity="1" stroke-width="4.8"/>
<path clip-path="url(#clip072)" d="M1305.6 786.093 L1288.64 779.061 L1281.6 762.093 L1288.64 745.125 L1305.6 738.093 L1322.57 745.125 L1329.6 762.093 L1322.57 779.061 Z" fill="#3da44d" fill-rule="evenodd" fill-opacity="1" stroke="#000000" stroke-opacity="1" stroke-width="4.8"/>
<path clip-path="url(#clip072)" d="M1452.9 786.765 L1435.94 779.733 L1428.9 762.765 L1435.94 745.797 L1452.9 738.765 L1469.87 745.797 L1476.9 762.765 L1469.87 779.733 Z" fill="#3da44d" fill-rule="evenodd" fill-opacity="1" stroke="#000000" stroke-opacity="1" stroke-width="4.8"/>
<path clip-path="url(#clip072)" d="M1600.21 789.41 L1583.24 782.378 L1576.21 765.41 L1583.24 748.442 L1600.21 741.41 L1617.17 748.442 L1624.21 765.41 L1617.17 782.378 Z" fill="#3da44d" fill-rule="evenodd" fill-opacity="1" stroke="#000000" stroke-opacity="1" stroke-width="4.8"/>
<path clip-path="url(#clip072)" d="M1747.51 795.897 L1730.54 788.865 L1723.51 771.897 L1730.54 754.929 L1747.51 747.897 L1764.47 754.929 L1771.51 771.897 L1764.47 788.865 Z" fill="#3da44d" fill-rule="evenodd" fill-opacity="1" stroke="#000000" stroke-opacity="1" stroke-width="4.8"/>
<path clip-path="url(#clip072)" d="M1894.81 890.747 L1877.84 883.715 L1870.81 866.747 L1877.84 849.779 L1894.81 842.747 L1911.77 849.779 L1918.81 866.747 L1911.77 883.715 Z" fill="#3da44d" fill-rule="evenodd" fill-opacity="1" stroke="#000000" stroke-opacity="1" stroke-width="4.8"/>
<path clip-path="url(#clip072)" d="M2042.11 831.986 L2025.14 824.954 L2018.11 807.986 L2025.14 791.018 L2042.11 783.986 L2059.08 791.018 L2066.11 807.986 L2059.08 824.954 Z" fill="#3da44d" fill-rule="evenodd" fill-opacity="1" stroke="#000000" stroke-opacity="1" stroke-width="4.8"/>
<path clip-path="url(#clip072)" d="M2189.41 701.46 L2172.44 694.428 L2165.41 677.46 L2172.44 660.492 L2189.41 653.46 L2206.38 660.492 L2213.41 677.46 L2206.38 694.428 Z" fill="#3da44d" fill-rule="evenodd" fill-opacity="1" stroke="#000000" stroke-opacity="1" stroke-width="4.8"/>
<path clip-path="url(#clip072)" d="M2336.71 630.43 L2319.74 623.398 L2312.71 606.43 L2319.74 589.462 L2336.71 582.43 L2353.68 589.462 L2360.71 606.43 L2353.68 623.398 Z" fill="#3da44d" fill-rule="evenodd" fill-opacity="1" stroke="#000000" stroke-opacity="1" stroke-width="4.8"/>
<path clip-path="url(#clip072)" d="M2484.01 580.963 L2467.04 573.931 L2460.01 556.963 L2467.04 539.995 L2484.01 532.963 L2500.98 539.995 L2508.01 556.963 L2500.98 573.931 Z" fill="#3da44d" fill-rule="evenodd" fill-opacity="1" stroke="#000000" stroke-opacity="1" stroke-width="4.8"/>
<path clip-path="url(#clip072)" d="M2631.31 547.377 L2614.34 540.345 L2607.31 523.377 L2614.34 506.409 L2631.31 499.377 L2648.28 506.409 L2655.31 523.377 L2648.28 540.345 Z" fill="#3da44d" fill-rule="evenodd" fill-opacity="1" stroke="#000000" stroke-opacity="1" stroke-width="4.8"/>
<path clip-path="url(#clip072)" d="M2778.61 522.094 L2761.64 515.062 L2754.61 498.094 L2761.64 481.126 L2778.61 474.094 L2795.58 481.126 L2802.61 498.094 L2795.58 515.062 Z" fill="#3da44d" fill-rule="evenodd" fill-opacity="1" stroke="#000000" stroke-opacity="1" stroke-width="4.8"/>
<path clip-path="url(#clip072)" d="M2925.91 501.394 L2908.94 494.362 L2901.91 477.394 L2908.94 460.426 L2925.91 453.394 L2942.88 460.426 L2949.91 477.394 L2942.88 494.362 Z" fill="#3da44d" fill-rule="evenodd" fill-opacity="1" stroke="#000000" stroke-opacity="1" stroke-width="4.8"/>
<path clip-path="url(#clip072)" d="M3073.21 485.771 L3056.25 478.739 L3049.21 461.771 L3056.25 444.803 L3073.21 437.771 L3090.18 444.803 L3097.21 461.771 L3090.18 478.739 Z" fill="#3da44d" fill-rule="evenodd" fill-opacity="1" stroke="#000000" stroke-opacity="1" stroke-width="4.8"/>
<polyline clip-path="url(#clip072)" style="stroke:#c271d2; stroke-linecap:round; stroke-linejoin:round; stroke-width:4; stroke-opacity:1; fill:none" points="421.798,1330.65 569.099,399.909 716.4,1281.28 863.701,1230.99 1011,974.834 1158.3,956.191 1305.6,915.735 1452.9,944.118 1600.21,994.954 1747.51,1082.71 1894.81,775.831 2042.11,762.347 2189.41,624.915 2336.71,805.454 2484.01,736.687 2631.31,679.917 2778.61,599.593 2925.91,548.243 3073.21,438.154 "/>
<path clip-path="url(#clip072)" d="M421.798 1354.65 L404.83 1347.62 L397.798 1330.65 L404.83 1313.68 L421.798 1306.65 L438.766 1313.68 L445.798 1330.65 L438.766 1347.62 Z" fill="#c271d2" fill-rule="evenodd" fill-opacity="1" stroke="#000000" stroke-opacity="1" stroke-width="4.8"/>
<path clip-path="url(#clip072)" d="M569.099 423.909 L552.131 416.877 L545.099 399.909 L552.131 382.941 L569.099 375.909 L586.067 382.941 L593.099 399.909 L586.067 416.877 Z" fill="#c271d2" fill-rule="evenodd" fill-opacity="1" stroke="#000000" stroke-opacity="1" stroke-width="4.8"/>
<path clip-path="url(#clip072)" d="M716.4 1305.28 L699.432 1298.25 L692.4 1281.28 L699.432 1264.31 L716.4 1257.28 L733.368 1264.31 L740.4 1281.28 L733.368 1298.25 Z" fill="#c271d2" fill-rule="evenodd" fill-opacity="1" stroke="#000000" stroke-opacity="1" stroke-width="4.8"/>
<path clip-path="url(#clip072)" d="M863.701 1254.99 L846.733 1247.96 L839.701 1230.99 L846.733 1214.02 L863.701 1206.99 L880.669 1214.02 L887.701 1230.99 L880.669 1247.96 Z" fill="#c271d2" fill-rule="evenodd" fill-opacity="1" stroke="#000000" stroke-opacity="1" stroke-width="4.8"/>
<path clip-path="url(#clip072)" d="M1011 998.834 L994.034 991.802 L987.002 974.834 L994.034 957.866 L1011 950.834 L1027.97 957.866 L1035 974.834 L1027.97 991.802 Z" fill="#c271d2" fill-rule="evenodd" fill-opacity="1" stroke="#000000" stroke-opacity="1" stroke-width="4.8"/>
<path clip-path="url(#clip072)" d="M1158.3 980.191 L1141.33 973.159 L1134.3 956.191 L1141.33 939.223 L1158.3 932.191 L1175.27 939.223 L1182.3 956.191 L1175.27 973.159 Z" fill="#c271d2" fill-rule="evenodd" fill-opacity="1" stroke="#000000" stroke-opacity="1" stroke-width="4.8"/>
<path clip-path="url(#clip072)" d="M1305.6 939.735 L1288.64 932.703 L1281.6 915.735 L1288.64 898.767 L1305.6 891.735 L1322.57 898.767 L1329.6 915.735 L1322.57 932.703 Z" fill="#c271d2" fill-rule="evenodd" fill-opacity="1" stroke="#000000" stroke-opacity="1" stroke-width="4.8"/>
<path clip-path="url(#clip072)" d="M1452.9 968.118 L1435.94 961.086 L1428.9 944.118 L1435.94 927.15 L1452.9 920.118 L1469.87 927.15 L1476.9 944.118 L1469.87 961.086 Z" fill="#c271d2" fill-rule="evenodd" fill-opacity="1" stroke="#000000" stroke-opacity="1" stroke-width="4.8"/>
<path clip-path="url(#clip072)" d="M1600.21 1018.95 L1583.24 1011.92 L1576.21 994.954 L1583.24 977.986 L1600.21 970.954 L1617.17 977.986 L1624.21 994.954 L1617.17 1011.92 Z" fill="#c271d2" fill-rule="evenodd" fill-opacity="1" stroke="#000000" stroke-opacity="1" stroke-width="4.8"/>
<path clip-path="url(#clip072)" d="M1747.51 1106.71 L1730.54 1099.68 L1723.51 1082.71 L1730.54 1065.74 L1747.51 1058.71 L1764.47 1065.74 L1771.51 1082.71 L1764.47 1099.68 Z" fill="#c271d2" fill-rule="evenodd" fill-opacity="1" stroke="#000000" stroke-opacity="1" stroke-width="4.8"/>
<path clip-path="url(#clip072)" d="M1894.81 799.831 L1877.84 792.799 L1870.81 775.831 L1877.84 758.863 L1894.81 751.831 L1911.77 758.863 L1918.81 775.831 L1911.77 792.799 Z" fill="#c271d2" fill-rule="evenodd" fill-opacity="1" stroke="#000000" stroke-opacity="1" stroke-width="4.8"/>
<path clip-path="url(#clip072)" d="M2042.11 786.347 L2025.14 779.315 L2018.11 762.347 L2025.14 745.379 L2042.11 738.347 L2059.08 745.379 L2066.11 762.347 L2059.08 779.315 Z" fill="#c271d2" fill-rule="evenodd" fill-opacity="1" stroke="#000000" stroke-opacity="1" stroke-width="4.8"/>
<path clip-path="url(#clip072)" d="M2189.41 648.915 L2172.44 641.883 L2165.41 624.915 L2172.44 607.947 L2189.41 600.915 L2206.38 607.947 L2213.41 624.915 L2206.38 641.883 Z" fill="#c271d2" fill-rule="evenodd" fill-opacity="1" stroke="#000000" stroke-opacity="1" stroke-width="4.8"/>
<path clip-path="url(#clip072)" d="M2336.71 829.454 L2319.74 822.422 L2312.71 805.454 L2319.74 788.486 L2336.71 781.454 L2353.68 788.486 L2360.71 805.454 L2353.68 822.422 Z" fill="#c271d2" fill-rule="evenodd" fill-opacity="1" stroke="#000000" stroke-opacity="1" stroke-width="4.8"/>
<path clip-path="url(#clip072)" d="M2484.01 760.687 L2467.04 753.655 L2460.01 736.687 L2467.04 719.719 L2484.01 712.687 L2500.98 719.719 L2508.01 736.687 L2500.98 753.655 Z" fill="#c271d2" fill-rule="evenodd" fill-opacity="1" stroke="#000000" stroke-opacity="1" stroke-width="4.8"/>
<path clip-path="url(#clip072)" d="M2631.31 703.917 L2614.34 696.885 L2607.31 679.917 L2614.34 662.949 L2631.31 655.917 L2648.28 662.949 L2655.31 679.917 L2648.28 696.885 Z" fill="#c271d2" fill-rule="evenodd" fill-opacity="1" stroke="#000000" stroke-opacity="1" stroke-width="4.8"/>
<path clip-path="url(#clip072)" d="M2778.61 623.593 L2761.64 616.561 L2754.61 599.593 L2761.64 582.625 L2778.61 575.593 L2795.58 582.625 L2802.61 599.593 L2795.58 616.561 Z" fill="#c271d2" fill-rule="evenodd" fill-opacity="1" stroke="#000000" stroke-opacity="1" stroke-width="4.8"/>
<path clip-path="url(#clip072)" d="M2925.91 572.243 L2908.94 565.211 L2901.91 548.243 L2908.94 531.275 L2925.91 524.243 L2942.88 531.275 L2949.91 548.243 L2942.88 565.211 Z" fill="#c271d2" fill-rule="evenodd" fill-opacity="1" stroke="#000000" stroke-opacity="1" stroke-width="4.8"/>
<path clip-path="url(#clip072)" d="M3073.21 462.154 L3056.25 455.122 L3049.21 438.154 L3056.25 421.186 L3073.21 414.154 L3090.18 421.186 L3097.21 438.154 L3090.18 455.122 Z" fill="#c271d2" fill-rule="evenodd" fill-opacity="1" stroke="#000000" stroke-opacity="1" stroke-width="4.8"/>
<path clip-path="url(#clip070)" d="M1124.88 2161.18 L2370.13 2161.18 L2370.13 1772.38 L1124.88 1772.38  Z" fill="#ffffff" fill-rule="evenodd" fill-opacity="1"/>
<polyline clip-path="url(#clip070)" style="stroke:#000000; stroke-linecap:round; stroke-linejoin:round; stroke-width:4; stroke-opacity:1; fill:none" points="1124.88,2161.18 2370.13,2161.18 2370.13,1772.38 1124.88,1772.38 1124.88,2161.18 "/>
<polyline clip-path="url(#clip070)" style="stroke:#009af9; stroke-linecap:round; stroke-linejoin:round; stroke-width:6; stroke-opacity:1; fill:none" points="1156.11,1850.14 1343.48,1850.14 "/>
<path clip-path="url(#clip070)" d="M1249.79 1869.42 L1236.17 1863.77 L1230.52 1850.14 L1236.17 1836.51 L1249.79 1830.86 L1263.42 1836.51 L1269.07 1850.14 L1263.42 1863.77 Z" fill="#009af9" fill-rule="evenodd" fill-opacity="1" stroke="#000000" stroke-opacity="1" stroke-width="7.08923"/>
<path clip-path="url(#clip070)" d="M1394.81 1856.51 Q1387.07 1856.51 1384.08 1858.28 Q1381.09 1860.05 1381.09 1864.32 Q1381.09 1867.73 1383.32 1869.74 Q1385.57 1871.72 1389.43 1871.72 Q1394.74 1871.72 1397.93 1867.97 Q1401.16 1864.18 1401.16 1857.93 L1401.16 1856.51 L1394.81 1856.51 M1407.55 1853.87 L1407.55 1876.06 L1401.16 1876.06 L1401.16 1870.16 Q1398.98 1873.7 1395.71 1875.4 Q1392.45 1877.07 1387.73 1877.07 Q1381.75 1877.07 1378.21 1873.73 Q1374.7 1870.37 1374.7 1864.74 Q1374.7 1858.18 1379.08 1854.84 Q1383.49 1851.51 1392.2 1851.51 L1401.16 1851.51 L1401.16 1850.89 Q1401.16 1846.48 1398.25 1844.08 Q1395.36 1841.65 1390.12 1841.65 Q1386.79 1841.65 1383.63 1842.45 Q1380.47 1843.25 1377.55 1844.84 L1377.55 1838.94 Q1381.06 1837.59 1384.36 1836.93 Q1387.66 1836.23 1390.78 1836.23 Q1399.22 1836.23 1403.39 1840.61 Q1407.55 1844.98 1407.55 1853.87 Z" fill="#000000" fill-rule="nonzero" fill-opacity="1" /><path clip-path="url(#clip070)" d="M1448.63 1856.65 Q1448.63 1849.6 1445.71 1845.61 Q1442.83 1841.58 1437.76 1841.58 Q1432.69 1841.58 1429.77 1845.61 Q1426.89 1849.6 1426.89 1856.65 Q1426.89 1863.7 1429.77 1867.73 Q1432.69 1871.72 1437.76 1871.72 Q1442.83 1871.72 1445.71 1867.73 Q1448.63 1863.7 1448.63 1856.65 M1426.89 1843.07 Q1428.91 1839.6 1431.96 1837.94 Q1435.05 1836.23 1439.32 1836.23 Q1446.41 1836.23 1450.82 1841.86 Q1455.26 1847.48 1455.26 1856.65 Q1455.26 1865.82 1450.82 1871.44 Q1446.41 1877.07 1439.32 1877.07 Q1435.05 1877.07 1431.96 1875.4 Q1428.91 1873.7 1426.89 1870.23 L1426.89 1876.06 L1420.47 1876.06 L1420.47 1822.03 L1426.89 1822.03 L1426.89 1843.07 Z" fill="#000000" fill-rule="nonzero" fill-opacity="1" /><path clip-path="url(#clip070)" d="M1490.64 1838.32 L1490.64 1844.36 Q1487.93 1842.97 1485.02 1842.28 Q1482.1 1841.58 1478.98 1841.58 Q1474.22 1841.58 1471.82 1843.04 Q1469.46 1844.5 1469.46 1847.41 Q1469.46 1849.64 1471.16 1850.92 Q1472.86 1852.17 1478 1853.32 L1480.19 1853.8 Q1487 1855.26 1489.84 1857.93 Q1492.73 1860.57 1492.73 1865.33 Q1492.73 1870.75 1488.42 1873.91 Q1484.15 1877.07 1476.65 1877.07 Q1473.52 1877.07 1470.12 1876.44 Q1466.75 1875.85 1463 1874.64 L1463 1868.04 Q1466.54 1869.88 1469.98 1870.82 Q1473.42 1871.72 1476.79 1871.72 Q1481.3 1871.72 1483.73 1870.19 Q1486.16 1868.63 1486.16 1865.82 Q1486.16 1863.21 1484.39 1861.82 Q1482.66 1860.43 1476.72 1859.15 L1474.5 1858.63 Q1468.56 1857.38 1465.92 1854.81 Q1463.28 1852.21 1463.28 1847.69 Q1463.28 1842.21 1467.17 1839.22 Q1471.06 1836.23 1478.21 1836.23 Q1481.75 1836.23 1484.88 1836.75 Q1488 1837.28 1490.64 1838.32 Z" fill="#000000" fill-rule="nonzero" fill-opacity="1" /><path clip-path="url(#clip070)" d="M1503.8 1867.24 L1511.13 1867.24 L1511.13 1876.06 L1503.8 1876.06 L1503.8 1867.24 Z" fill="#000000" fill-rule="nonzero" fill-opacity="1" /><path clip-path="url(#clip070)" d="M1581.37 1855.02 L1581.37 1858.14 L1552 1858.14 Q1552.41 1864.74 1555.95 1868.21 Q1559.53 1871.65 1565.88 1871.65 Q1569.57 1871.65 1573 1870.75 Q1576.47 1869.84 1579.88 1868.04 L1579.88 1874.08 Q1576.44 1875.54 1572.83 1876.3 Q1569.22 1877.07 1565.5 1877.07 Q1556.2 1877.07 1550.75 1871.65 Q1545.33 1866.23 1545.33 1857 Q1545.33 1847.45 1550.47 1841.86 Q1555.64 1836.23 1564.39 1836.23 Q1572.24 1836.23 1576.79 1841.3 Q1581.37 1846.34 1581.37 1855.02 M1574.98 1853.14 Q1574.91 1847.9 1572.03 1844.78 Q1569.18 1841.65 1564.46 1841.65 Q1559.11 1841.65 1555.88 1844.67 Q1552.69 1847.69 1552.2 1853.18 L1574.98 1853.14 Z" fill="#000000" fill-rule="nonzero" fill-opacity="1" /><path clip-path="url(#clip070)" d="M1614.39 1843.14 Q1613.31 1842.52 1612.03 1842.24 Q1610.78 1841.93 1609.25 1841.93 Q1603.84 1841.93 1600.92 1845.47 Q1598.04 1848.98 1598.04 1855.57 L1598.04 1876.06 L1591.61 1876.06 L1591.61 1837.17 L1598.04 1837.17 L1598.04 1843.21 Q1600.05 1839.67 1603.28 1837.97 Q1606.51 1836.23 1611.13 1836.23 Q1611.79 1836.23 1612.59 1836.34 Q1613.38 1836.41 1614.36 1836.58 L1614.39 1843.14 Z" fill="#000000" fill-rule="nonzero" fill-opacity="1" /><path clip-path="url(#clip070)" d="M1642.38 1843.14 Q1641.3 1842.52 1640.02 1842.24 Q1638.77 1841.93 1637.24 1841.93 Q1631.82 1841.93 1628.91 1845.47 Q1626.02 1848.98 1626.02 1855.57 L1626.02 1876.06 L1619.6 1876.06 L1619.6 1837.17 L1626.02 1837.17 L1626.02 1843.21 Q1628.04 1839.67 1631.27 1837.97 Q1634.5 1836.23 1639.11 1836.23 Q1639.77 1836.23 1640.57 1836.34 Q1641.37 1836.41 1642.34 1836.58 L1642.38 1843.14 Z" fill="#000000" fill-rule="nonzero" fill-opacity="1" /><path clip-path="url(#clip070)" d="M1662.59 1841.65 Q1657.45 1841.65 1654.46 1845.68 Q1651.47 1849.67 1651.47 1856.65 Q1651.47 1863.63 1654.43 1867.66 Q1657.41 1871.65 1662.59 1871.65 Q1667.69 1871.65 1670.68 1867.62 Q1673.66 1863.59 1673.66 1856.65 Q1673.66 1849.74 1670.68 1845.71 Q1667.69 1841.65 1662.59 1841.65 M1662.59 1836.23 Q1670.92 1836.23 1675.68 1841.65 Q1680.43 1847.07 1680.43 1856.65 Q1680.43 1866.2 1675.68 1871.65 Q1670.92 1877.07 1662.59 1877.07 Q1654.22 1877.07 1649.46 1871.65 Q1644.74 1866.2 1644.74 1856.65 Q1644.74 1847.07 1649.46 1841.65 Q1654.22 1836.23 1662.59 1836.23 Z" fill="#000000" fill-rule="nonzero" fill-opacity="1" /><path clip-path="url(#clip070)" d="M1713.56 1843.14 Q1712.48 1842.52 1711.2 1842.24 Q1709.95 1841.93 1708.42 1841.93 Q1703 1841.93 1700.09 1845.47 Q1697.2 1848.98 1697.2 1855.57 L1697.2 1876.06 L1690.78 1876.06 L1690.78 1837.17 L1697.2 1837.17 L1697.2 1843.21 Q1699.22 1839.67 1702.45 1837.97 Q1705.68 1836.23 1710.29 1836.23 Q1710.95 1836.23 1711.75 1836.34 Q1712.55 1836.41 1713.52 1836.58 L1713.56 1843.14 Z" fill="#000000" fill-rule="nonzero" fill-opacity="1" /><path clip-path="url(#clip070)" d="M1770.78 1856.65 Q1770.78 1849.6 1767.86 1845.61 Q1764.98 1841.58 1759.91 1841.58 Q1754.84 1841.58 1751.93 1845.61 Q1749.04 1849.6 1749.04 1856.65 Q1749.04 1863.7 1751.93 1867.73 Q1754.84 1871.72 1759.91 1871.72 Q1764.98 1871.72 1767.86 1867.73 Q1770.78 1863.7 1770.78 1856.65 M1749.04 1843.07 Q1751.06 1839.6 1754.11 1837.94 Q1757.2 1836.23 1761.47 1836.23 Q1768.56 1836.23 1772.97 1841.86 Q1777.41 1847.48 1777.41 1856.65 Q1777.41 1865.82 1772.97 1871.44 Q1768.56 1877.07 1761.47 1877.07 Q1757.2 1877.07 1754.11 1875.4 Q1751.06 1873.7 1749.04 1870.23 L1749.04 1876.06 L1742.62 1876.06 L1742.62 1822.03 L1749.04 1822.03 L1749.04 1843.07 Z" fill="#000000" fill-rule="nonzero" fill-opacity="1" /><path clip-path="url(#clip070)" d="M1821.27 1855.02 L1821.27 1858.14 L1791.89 1858.14 Q1792.31 1864.74 1795.85 1868.21 Q1799.42 1871.65 1805.78 1871.65 Q1809.46 1871.65 1812.9 1870.75 Q1816.37 1869.84 1819.77 1868.04 L1819.77 1874.08 Q1816.33 1875.54 1812.72 1876.3 Q1809.11 1877.07 1805.4 1877.07 Q1796.09 1877.07 1790.64 1871.65 Q1785.22 1866.23 1785.22 1857 Q1785.22 1847.45 1790.36 1841.86 Q1795.54 1836.23 1804.29 1836.23 Q1812.13 1836.23 1816.68 1841.3 Q1821.27 1846.34 1821.27 1855.02 M1814.88 1853.14 Q1814.81 1847.9 1811.92 1844.78 Q1809.08 1841.65 1804.36 1841.65 Q1799.01 1841.65 1795.78 1844.67 Q1792.58 1847.69 1792.1 1853.18 L1814.88 1853.14 Z" fill="#000000" fill-rule="nonzero" fill-opacity="1" /><path clip-path="url(#clip070)" d="M1851.44 1822.03 L1851.44 1827.34 L1845.33 1827.34 Q1841.89 1827.34 1840.54 1828.73 Q1839.22 1830.12 1839.22 1833.73 L1839.22 1837.17 L1849.74 1837.17 L1849.74 1842.14 L1839.22 1842.14 L1839.22 1876.06 L1832.79 1876.06 L1832.79 1842.14 L1826.68 1842.14 L1826.68 1837.17 L1832.79 1837.17 L1832.79 1834.46 Q1832.79 1827.97 1835.81 1825.02 Q1838.83 1822.03 1845.4 1822.03 L1851.44 1822.03 Z" fill="#000000" fill-rule="nonzero" fill-opacity="1" /><path clip-path="url(#clip070)" d="M1871.86 1841.65 Q1866.72 1841.65 1863.73 1845.68 Q1860.74 1849.67 1860.74 1856.65 Q1860.74 1863.63 1863.7 1867.66 Q1866.68 1871.65 1871.86 1871.65 Q1876.96 1871.65 1879.95 1867.62 Q1882.93 1863.59 1882.93 1856.65 Q1882.93 1849.74 1879.95 1845.71 Q1876.96 1841.65 1871.86 1841.65 M1871.86 1836.23 Q1880.19 1836.23 1884.95 1841.65 Q1889.7 1847.07 1889.7 1856.65 Q1889.7 1866.2 1884.95 1871.65 Q1880.19 1877.07 1871.86 1877.07 Q1863.49 1877.07 1858.73 1871.65 Q1854.01 1866.2 1854.01 1856.65 Q1854.01 1847.07 1858.73 1841.65 Q1863.49 1836.23 1871.86 1836.23 Z" fill="#000000" fill-rule="nonzero" fill-opacity="1" /><path clip-path="url(#clip070)" d="M1922.83 1843.14 Q1921.75 1842.52 1920.47 1842.24 Q1919.22 1841.93 1917.69 1841.93 Q1912.27 1841.93 1909.35 1845.47 Q1906.47 1848.98 1906.47 1855.57 L1906.47 1876.06 L1900.05 1876.06 L1900.05 1837.17 L1906.47 1837.17 L1906.47 1843.21 Q1908.49 1839.67 1911.72 1837.97 Q1914.95 1836.23 1919.56 1836.23 Q1920.22 1836.23 1921.02 1836.34 Q1921.82 1836.41 1922.79 1836.58 L1922.83 1843.14 Z" fill="#000000" fill-rule="nonzero" fill-opacity="1" /><path clip-path="url(#clip070)" d="M1961.23 1855.02 L1961.23 1858.14 L1931.85 1858.14 Q1932.27 1864.74 1935.81 1868.21 Q1939.39 1871.65 1945.74 1871.65 Q1949.42 1871.65 1952.86 1870.75 Q1956.33 1869.84 1959.74 1868.04 L1959.74 1874.08 Q1956.3 1875.54 1952.69 1876.3 Q1949.08 1877.07 1945.36 1877.07 Q1936.06 1877.07 1930.6 1871.65 Q1925.19 1866.23 1925.19 1857 Q1925.19 1847.45 1930.33 1841.86 Q1935.5 1836.23 1944.25 1836.23 Q1952.1 1836.23 1956.65 1841.3 Q1961.23 1846.34 1961.23 1855.02 M1954.84 1853.14 Q1954.77 1847.9 1951.89 1844.78 Q1949.04 1841.65 1944.32 1841.65 Q1938.97 1841.65 1935.74 1844.67 Q1932.55 1847.69 1932.06 1853.18 L1954.84 1853.14 Z" fill="#000000" fill-rule="nonzero" fill-opacity="1" /><path clip-path="url(#clip070)" d="M2022.31 1838.66 L2022.31 1844.64 Q2019.6 1843.14 2016.85 1842.41 Q2014.15 1841.65 2011.37 1841.65 Q2005.15 1841.65 2001.72 1845.61 Q1998.28 1849.53 1998.28 1856.65 Q1998.28 1863.77 2001.72 1867.73 Q2005.15 1871.65 2011.37 1871.65 Q2014.15 1871.65 2016.85 1870.92 Q2019.6 1870.16 2022.31 1868.66 L2022.31 1874.57 Q2019.63 1875.82 2016.75 1876.44 Q2013.9 1877.07 2010.67 1877.07 Q2001.89 1877.07 1996.72 1871.55 Q1991.54 1866.03 1991.54 1856.65 Q1991.54 1847.14 1996.75 1841.69 Q2001.99 1836.23 2011.09 1836.23 Q2014.04 1836.23 2016.85 1836.86 Q2019.67 1837.45 2022.31 1838.66 Z" fill="#000000" fill-rule="nonzero" fill-opacity="1" /><path clip-path="url(#clip070)" d="M2048.49 1841.65 Q2043.35 1841.65 2040.36 1845.68 Q2037.38 1849.67 2037.38 1856.65 Q2037.38 1863.63 2040.33 1867.66 Q2043.31 1871.65 2048.49 1871.65 Q2053.59 1871.65 2056.58 1867.62 Q2059.56 1863.59 2059.56 1856.65 Q2059.56 1849.74 2056.58 1845.71 Q2053.59 1841.65 2048.49 1841.65 M2048.49 1836.23 Q2056.82 1836.23 2061.58 1841.65 Q2066.33 1847.07 2066.33 1856.65 Q2066.33 1866.2 2061.58 1871.65 Q2056.82 1877.07 2048.49 1877.07 Q2040.12 1877.07 2035.36 1871.65 Q2030.64 1866.2 2030.64 1856.65 Q2030.64 1847.07 2035.36 1841.65 Q2040.12 1836.23 2048.49 1836.23 Z" fill="#000000" fill-rule="nonzero" fill-opacity="1" /><path clip-path="url(#clip070)" d="M2099.46 1843.14 Q2098.38 1842.52 2097.1 1842.24 Q2095.85 1841.93 2094.32 1841.93 Q2088.9 1841.93 2085.99 1845.47 Q2083.1 1848.98 2083.1 1855.57 L2083.1 1876.06 L2076.68 1876.06 L2076.68 1837.17 L2083.1 1837.17 L2083.1 1843.21 Q2085.12 1839.67 2088.35 1837.97 Q2091.58 1836.23 2096.19 1836.23 Q2096.85 1836.23 2097.65 1836.34 Q2098.45 1836.41 2099.42 1836.58 L2099.46 1843.14 Z" fill="#000000" fill-rule="nonzero" fill-opacity="1" /><path clip-path="url(#clip070)" d="M2127.44 1843.14 Q2126.37 1842.52 2125.08 1842.24 Q2123.83 1841.93 2122.31 1841.93 Q2116.89 1841.93 2113.97 1845.47 Q2111.09 1848.98 2111.09 1855.57 L2111.09 1876.06 L2104.67 1876.06 L2104.67 1837.17 L2111.09 1837.17 L2111.09 1843.21 Q2113.1 1839.67 2116.33 1837.97 Q2119.56 1836.23 2124.18 1836.23 Q2124.84 1836.23 2125.64 1836.34 Q2126.44 1836.41 2127.41 1836.58 L2127.44 1843.14 Z" fill="#000000" fill-rule="nonzero" fill-opacity="1" /><path clip-path="url(#clip070)" d="M2165.85 1855.02 L2165.85 1858.14 L2136.47 1858.14 Q2136.89 1864.74 2140.43 1868.21 Q2144.01 1871.65 2150.36 1871.65 Q2154.04 1871.65 2157.48 1870.75 Q2160.95 1869.84 2164.35 1868.04 L2164.35 1874.08 Q2160.92 1875.54 2157.3 1876.3 Q2153.69 1877.07 2149.98 1877.07 Q2140.67 1877.07 2135.22 1871.65 Q2129.81 1866.23 2129.81 1857 Q2129.81 1847.45 2134.94 1841.86 Q2140.12 1836.23 2148.87 1836.23 Q2156.71 1836.23 2161.26 1841.3 Q2165.85 1846.34 2165.85 1855.02 M2159.46 1853.14 Q2159.39 1847.9 2156.51 1844.78 Q2153.66 1841.65 2148.94 1841.65 Q2143.59 1841.65 2140.36 1844.67 Q2137.17 1847.69 2136.68 1853.18 L2159.46 1853.14 Z" fill="#000000" fill-rule="nonzero" fill-opacity="1" /><path clip-path="url(#clip070)" d="M2204.32 1838.66 L2204.32 1844.64 Q2201.61 1843.14 2198.87 1842.41 Q2196.16 1841.65 2193.38 1841.65 Q2187.17 1841.65 2183.73 1845.61 Q2180.29 1849.53 2180.29 1856.65 Q2180.29 1863.77 2183.73 1867.73 Q2187.17 1871.65 2193.38 1871.65 Q2196.16 1871.65 2198.87 1870.92 Q2201.61 1870.16 2204.32 1868.66 L2204.32 1874.57 Q2201.65 1875.82 2198.76 1876.44 Q2195.92 1877.07 2192.69 1877.07 Q2183.9 1877.07 2178.73 1871.55 Q2173.55 1866.03 2173.55 1856.65 Q2173.55 1847.14 2178.76 1841.69 Q2184.01 1836.23 2193.1 1836.23 Q2196.05 1836.23 2198.87 1836.86 Q2201.68 1837.45 2204.32 1838.66 Z" fill="#000000" fill-rule="nonzero" fill-opacity="1" /><path clip-path="url(#clip070)" d="M2221.75 1826.13 L2221.75 1837.17 L2234.91 1837.17 L2234.91 1842.14 L2221.75 1842.14 L2221.75 1863.25 Q2221.75 1868 2223.03 1869.36 Q2224.35 1870.71 2228.35 1870.71 L2234.91 1870.71 L2234.91 1876.06 L2228.35 1876.06 Q2220.95 1876.06 2218.14 1873.32 Q2215.33 1870.54 2215.33 1863.25 L2215.33 1842.14 L2210.64 1842.14 L2210.64 1837.17 L2215.33 1837.17 L2215.33 1826.13 L2221.75 1826.13 Z" fill="#000000" fill-rule="nonzero" fill-opacity="1" /><path clip-path="url(#clip070)" d="M2243.31 1837.17 L2249.7 1837.17 L2249.7 1876.06 L2243.31 1876.06 L2243.31 1837.17 M2243.31 1822.03 L2249.7 1822.03 L2249.7 1830.12 L2243.31 1830.12 L2243.31 1822.03 Z" fill="#000000" fill-rule="nonzero" fill-opacity="1" /><path clip-path="url(#clip070)" d="M2278.14 1841.65 Q2273 1841.65 2270.01 1845.68 Q2267.03 1849.67 2267.03 1856.65 Q2267.03 1863.63 2269.98 1867.66 Q2272.96 1871.65 2278.14 1871.65 Q2283.24 1871.65 2286.23 1867.62 Q2289.21 1863.59 2289.21 1856.65 Q2289.21 1849.74 2286.23 1845.71 Q2283.24 1841.65 2278.14 1841.65 M2278.14 1836.23 Q2286.47 1836.23 2291.23 1841.65 Q2295.98 1847.07 2295.98 1856.65 Q2295.98 1866.2 2291.23 1871.65 Q2286.47 1877.07 2278.14 1877.07 Q2269.77 1877.07 2265.01 1871.65 Q2260.29 1866.2 2260.29 1856.65 Q2260.29 1847.07 2265.01 1841.65 Q2269.77 1836.23 2278.14 1836.23 Z" fill="#000000" fill-rule="nonzero" fill-opacity="1" /><path clip-path="url(#clip070)" d="M2338.9 1852.59 L2338.9 1876.06 L2332.51 1876.06 L2332.51 1852.8 Q2332.51 1847.28 2330.36 1844.53 Q2328.21 1841.79 2323.9 1841.79 Q2318.73 1841.79 2315.74 1845.09 Q2312.76 1848.39 2312.76 1854.08 L2312.76 1876.06 L2306.33 1876.06 L2306.33 1837.17 L2312.76 1837.17 L2312.76 1843.21 Q2315.05 1839.71 2318.14 1837.97 Q2321.26 1836.23 2325.32 1836.23 Q2332.03 1836.23 2335.46 1840.4 Q2338.9 1844.53 2338.9 1852.59 Z" fill="#000000" fill-rule="nonzero" fill-opacity="1" /><polyline clip-path="url(#clip070)" style="stroke:#e26f46; stroke-linecap:round; stroke-linejoin:round; stroke-width:6; stroke-opacity:1; fill:none" points="1156.11,1927.9 1343.48,1927.9 "/>
<path clip-path="url(#clip070)" d="M1249.79 1947.18 L1236.17 1941.53 L1230.52 1927.9 L1236.17 1914.27 L1249.79 1908.62 L1263.42 1914.27 L1269.07 1927.9 L1263.42 1941.53 Z" fill="#e26f46" fill-rule="evenodd" fill-opacity="1" stroke="#000000" stroke-opacity="1" stroke-width="7.08923"/>
<path clip-path="url(#clip070)" d="M1416.51 1905.97 L1416.51 1913.37 Q1412.97 1910.07 1408.94 1908.44 Q1404.95 1906.81 1400.43 1906.81 Q1391.55 1906.81 1386.82 1912.26 Q1382.1 1917.67 1382.1 1927.95 Q1382.1 1938.19 1386.82 1943.65 Q1391.55 1949.06 1400.43 1949.06 Q1404.95 1949.06 1408.94 1947.43 Q1412.97 1945.8 1416.51 1942.5 L1416.51 1949.83 Q1412.83 1952.33 1408.7 1953.58 Q1404.6 1954.83 1400.02 1954.83 Q1388.25 1954.83 1381.48 1947.64 Q1374.7 1940.42 1374.7 1927.95 Q1374.7 1915.45 1381.48 1908.26 Q1388.25 1901.04 1400.02 1901.04 Q1404.67 1901.04 1408.77 1902.29 Q1412.9 1903.51 1416.51 1905.97 Z" fill="#000000" fill-rule="nonzero" fill-opacity="1" /><path clip-path="url(#clip070)" d="M1434.36 1907.74 L1434.36 1948.06 L1442.83 1948.06 Q1453.56 1948.06 1458.52 1943.19 Q1463.52 1938.33 1463.52 1927.85 Q1463.52 1917.43 1458.52 1912.6 Q1453.56 1907.74 1442.83 1907.74 L1434.36 1907.74 M1427.34 1901.98 L1441.75 1901.98 Q1456.82 1901.98 1463.87 1908.26 Q1470.92 1914.51 1470.92 1927.85 Q1470.92 1941.25 1463.84 1947.54 Q1456.75 1953.82 1441.75 1953.82 L1427.34 1953.82 L1427.34 1901.98 Z" fill="#000000" fill-rule="nonzero" fill-opacity="1" /><path clip-path="url(#clip070)" d="M1506.68 1929.51 Q1508.94 1930.28 1511.06 1932.78 Q1513.21 1935.28 1515.36 1939.65 L1522.48 1953.82 L1514.95 1953.82 L1508.32 1940.52 Q1505.75 1935.31 1503.32 1933.61 Q1500.92 1931.91 1496.75 1931.91 L1489.11 1931.91 L1489.11 1953.82 L1482.1 1953.82 L1482.1 1901.98 L1497.93 1901.98 Q1506.82 1901.98 1511.2 1905.7 Q1515.57 1909.41 1515.57 1916.91 Q1515.57 1921.81 1513.28 1925.04 Q1511.02 1928.26 1506.68 1929.51 M1489.11 1907.74 L1489.11 1926.15 L1497.93 1926.15 Q1503 1926.15 1505.57 1923.82 Q1508.18 1921.46 1508.18 1916.91 Q1508.18 1912.36 1505.57 1910.07 Q1503 1907.74 1497.93 1907.74 L1489.11 1907.74 Z" fill="#000000" fill-rule="nonzero" fill-opacity="1" /><polyline clip-path="url(#clip070)" style="stroke:#3da44d; stroke-linecap:round; stroke-linejoin:round; stroke-width:6; stroke-opacity:1; fill:none" points="1156.11,2005.66 1343.48,2005.66 "/>
<path clip-path="url(#clip070)" d="M1249.79 2024.94 L1236.17 2019.29 L1230.52 2005.66 L1236.17 1992.03 L1249.79 1986.38 L1263.42 1992.03 L1269.07 2005.66 L1263.42 2019.29 Z" fill="#3da44d" fill-rule="evenodd" fill-opacity="1" stroke="#000000" stroke-opacity="1" stroke-width="7.08923"/>
<path clip-path="url(#clip070)" d="M1375.5 1979.74 L1416.23 1979.74 L1416.23 1985.09 L1383.45 2025.68 L1417.03 2025.68 L1417.03 2031.58 L1374.7 2031.58 L1374.7 2026.23 L1407.48 1985.64 L1375.5 1985.64 L1375.5 1979.74 Z" fill="#000000" fill-rule="nonzero" fill-opacity="1" /><path clip-path="url(#clip070)" d="M1427.2 1979.74 L1436.65 1979.74 L1459.64 2023.11 L1459.64 1979.74 L1466.44 1979.74 L1466.44 2031.58 L1457 2031.58 L1434.01 1988.21 L1434.01 2031.58 L1427.2 2031.58 L1427.2 1979.74 Z" fill="#000000" fill-rule="nonzero" fill-opacity="1" /><path clip-path="url(#clip070)" d="M1480.4 1979.74 L1513.18 1979.74 L1513.18 1985.64 L1487.41 1985.64 L1487.41 2000.99 L1512.1 2000.99 L1512.1 2006.89 L1487.41 2006.89 L1487.41 2025.68 L1513.8 2025.68 L1513.8 2031.58 L1480.4 2031.58 L1480.4 1979.74 Z" fill="#000000" fill-rule="nonzero" fill-opacity="1" /><path clip-path="url(#clip070)" d="M1575.64 1994.18 L1575.64 2000.16 Q1572.93 1998.66 1570.19 1997.93 Q1567.48 1997.17 1564.7 1997.17 Q1558.49 1997.17 1555.05 2001.13 Q1551.61 2005.05 1551.61 2012.17 Q1551.61 2019.29 1555.05 2023.25 Q1558.49 2027.17 1564.7 2027.17 Q1567.48 2027.17 1570.19 2026.44 Q1572.93 2025.68 1575.64 2024.18 L1575.64 2030.09 Q1572.97 2031.34 1570.09 2031.96 Q1567.24 2032.59 1564.01 2032.59 Q1555.22 2032.59 1550.05 2027.07 Q1544.88 2021.55 1544.88 2012.17 Q1544.88 2002.66 1550.09 1997.21 Q1555.33 1991.75 1564.43 1991.75 Q1567.38 1991.75 1570.19 1992.38 Q1573 1992.97 1575.64 1994.18 Z" fill="#000000" fill-rule="nonzero" fill-opacity="1" /><path clip-path="url(#clip070)" d="M1601.82 1997.17 Q1596.68 1997.17 1593.7 2001.2 Q1590.71 2005.19 1590.71 2012.17 Q1590.71 2019.15 1593.66 2023.18 Q1596.65 2027.17 1601.82 2027.17 Q1606.93 2027.17 1609.91 2023.14 Q1612.9 2019.11 1612.9 2012.17 Q1612.9 2005.26 1609.91 2001.23 Q1606.93 1997.17 1601.82 1997.17 M1601.82 1991.75 Q1610.16 1991.75 1614.91 1997.17 Q1619.67 2002.59 1619.67 2012.17 Q1619.67 2021.72 1614.91 2027.17 Q1610.16 2032.59 1601.82 2032.59 Q1593.45 2032.59 1588.7 2027.17 Q1583.97 2021.72 1583.97 2012.17 Q1583.97 2002.59 1588.7 1997.17 Q1593.45 1991.75 1601.82 1991.75 Z" fill="#000000" fill-rule="nonzero" fill-opacity="1" /><path clip-path="url(#clip070)" d="M1652.79 1998.66 Q1651.72 1998.04 1650.43 1997.76 Q1649.18 1997.45 1647.65 1997.45 Q1642.24 1997.45 1639.32 2000.99 Q1636.44 2004.5 1636.44 2011.09 L1636.44 2031.58 L1630.02 2031.58 L1630.02 1992.69 L1636.44 1992.69 L1636.44 1998.73 Q1638.45 1995.19 1641.68 1993.49 Q1644.91 1991.75 1649.53 1991.75 Q1650.19 1991.75 1650.99 1991.86 Q1651.79 1991.93 1652.76 1992.1 L1652.79 1998.66 Z" fill="#000000" fill-rule="nonzero" fill-opacity="1" /><path clip-path="url(#clip070)" d="M1680.78 1998.66 Q1679.7 1998.04 1678.42 1997.76 Q1677.17 1997.45 1675.64 1997.45 Q1670.22 1997.45 1667.31 2000.99 Q1664.43 2004.5 1664.43 2011.09 L1664.43 2031.58 L1658 2031.58 L1658 1992.69 L1664.43 1992.69 L1664.43 1998.73 Q1666.44 1995.19 1669.67 1993.49 Q1672.9 1991.75 1677.52 1991.75 Q1678.18 1991.75 1678.97 1991.86 Q1679.77 1991.93 1680.75 1992.1 L1680.78 1998.66 Z" fill="#000000" fill-rule="nonzero" fill-opacity="1" /><path clip-path="url(#clip070)" d="M1719.18 2010.54 L1719.18 2013.66 L1689.81 2013.66 Q1690.22 2020.26 1693.77 2023.73 Q1697.34 2027.17 1703.7 2027.17 Q1707.38 2027.17 1710.81 2026.27 Q1714.29 2025.36 1717.69 2023.56 L1717.69 2029.6 Q1714.25 2031.06 1710.64 2031.82 Q1707.03 2032.59 1703.31 2032.59 Q1694.01 2032.59 1688.56 2027.17 Q1683.14 2021.75 1683.14 2012.52 Q1683.14 2002.97 1688.28 1997.38 Q1693.45 1991.75 1702.2 1991.75 Q1710.05 1991.75 1714.6 1996.82 Q1719.18 2001.86 1719.18 2010.54 M1712.79 2008.66 Q1712.72 2003.42 1709.84 2000.3 Q1706.99 1997.17 1702.27 1997.17 Q1696.93 1997.17 1693.7 2000.19 Q1690.5 2003.21 1690.02 2008.7 L1712.79 2008.66 Z" fill="#000000" fill-rule="nonzero" fill-opacity="1" /><path clip-path="url(#clip070)" d="M1757.65 1994.18 L1757.65 2000.16 Q1754.95 1998.66 1752.2 1997.93 Q1749.49 1997.17 1746.72 1997.17 Q1740.5 1997.17 1737.06 2001.13 Q1733.63 2005.05 1733.63 2012.17 Q1733.63 2019.29 1737.06 2023.25 Q1740.5 2027.17 1746.72 2027.17 Q1749.49 2027.17 1752.2 2026.44 Q1754.95 2025.68 1757.65 2024.18 L1757.65 2030.09 Q1754.98 2031.34 1752.1 2031.96 Q1749.25 2032.59 1746.02 2032.59 Q1737.24 2032.59 1732.06 2027.07 Q1726.89 2021.55 1726.89 2012.17 Q1726.89 2002.66 1732.1 1997.21 Q1737.34 1991.75 1746.44 1991.75 Q1749.39 1991.75 1752.2 1992.38 Q1755.02 1992.97 1757.65 1994.18 Z" fill="#000000" fill-rule="nonzero" fill-opacity="1" /><path clip-path="url(#clip070)" d="M1775.08 1981.65 L1775.08 1992.69 L1788.24 1992.69 L1788.24 1997.66 L1775.08 1997.66 L1775.08 2018.77 Q1775.08 2023.52 1776.37 2024.88 Q1777.69 2026.23 1781.68 2026.23 L1788.24 2026.23 L1788.24 2031.58 L1781.68 2031.58 Q1774.29 2031.58 1771.47 2028.84 Q1768.66 2026.06 1768.66 2018.77 L1768.66 1997.66 L1763.97 1997.66 L1763.97 1992.69 L1768.66 1992.69 L1768.66 1981.65 L1775.08 1981.65 Z" fill="#000000" fill-rule="nonzero" fill-opacity="1" /><path clip-path="url(#clip070)" d="M1796.65 1992.69 L1803.04 1992.69 L1803.04 2031.58 L1796.65 2031.58 L1796.65 1992.69 M1796.65 1977.55 L1803.04 1977.55 L1803.04 1985.64 L1796.65 1985.64 L1796.65 1977.55 Z" fill="#000000" fill-rule="nonzero" fill-opacity="1" /><path clip-path="url(#clip070)" d="M1831.47 1997.17 Q1826.33 1997.17 1823.35 2001.2 Q1820.36 2005.19 1820.36 2012.17 Q1820.36 2019.15 1823.31 2023.18 Q1826.3 2027.17 1831.47 2027.17 Q1836.58 2027.17 1839.56 2023.14 Q1842.55 2019.11 1842.55 2012.17 Q1842.55 2005.26 1839.56 2001.23 Q1836.58 1997.17 1831.47 1997.17 M1831.47 1991.75 Q1839.81 1991.75 1844.56 1997.17 Q1849.32 2002.59 1849.32 2012.17 Q1849.32 2021.72 1844.56 2027.17 Q1839.81 2032.59 1831.47 2032.59 Q1823.11 2032.59 1818.35 2027.17 Q1813.63 2021.72 1813.63 2012.17 Q1813.63 2002.59 1818.35 1997.17 Q1823.11 1991.75 1831.47 1991.75 Z" fill="#000000" fill-rule="nonzero" fill-opacity="1" /><path clip-path="url(#clip070)" d="M1892.24 2008.11 L1892.24 2031.58 L1885.85 2031.58 L1885.85 2008.32 Q1885.85 2002.8 1883.7 2000.05 Q1881.54 1997.31 1877.24 1997.31 Q1872.06 1997.31 1869.08 2000.61 Q1866.09 2003.91 1866.09 2009.6 L1866.09 2031.58 L1859.67 2031.58 L1859.67 1992.69 L1866.09 1992.69 L1866.09 1998.73 Q1868.38 1995.23 1871.47 1993.49 Q1874.6 1991.75 1878.66 1991.75 Q1885.36 1991.75 1888.8 1995.92 Q1892.24 2000.05 1892.24 2008.11 Z" fill="#000000" fill-rule="nonzero" fill-opacity="1" /><polyline clip-path="url(#clip070)" style="stroke:#c271d2; stroke-linecap:round; stroke-linejoin:round; stroke-width:6; stroke-opacity:1; fill:none" points="1156.11,2083.42 1343.48,2083.42 "/>
<path clip-path="url(#clip070)" d="M1249.79 2102.7 L1236.17 2097.05 L1230.52 2083.42 L1236.17 2069.79 L1249.79 2064.14 L1263.42 2069.79 L1269.07 2083.42 L1263.42 2097.05 Z" fill="#c271d2" fill-rule="evenodd" fill-opacity="1" stroke="#000000" stroke-opacity="1" stroke-width="7.08923"/>
<path clip-path="url(#clip070)" d="M1374.7 2070.45 L1381.48 2070.45 L1393.63 2103.09 L1405.78 2070.45 L1412.55 2070.45 L1397.97 2109.34 L1389.29 2109.34 L1374.7 2070.45 Z" fill="#000000" fill-rule="nonzero" fill-opacity="1" /><path clip-path="url(#clip070)" d="M1453.7 2085.87 L1453.7 2109.34 L1447.31 2109.34 L1447.31 2086.08 Q1447.31 2080.56 1445.16 2077.81 Q1443 2075.07 1438.7 2075.07 Q1433.52 2075.07 1430.54 2078.37 Q1427.55 2081.67 1427.55 2087.36 L1427.55 2109.34 L1421.13 2109.34 L1421.13 2070.45 L1427.55 2070.45 L1427.55 2076.49 Q1429.84 2072.99 1432.93 2071.25 Q1436.06 2069.51 1440.12 2069.51 Q1446.82 2069.51 1450.26 2073.68 Q1453.7 2077.81 1453.7 2085.87 Z" fill="#000000" fill-rule="nonzero" fill-opacity="1" /><path clip-path="url(#clip070)" d="M1505.54 2061.49 L1505.54 2068.89 Q1502 2065.59 1497.97 2063.96 Q1493.98 2062.33 1489.46 2062.33 Q1480.57 2062.33 1475.85 2067.78 Q1471.13 2073.19 1471.13 2083.47 Q1471.13 2093.71 1475.85 2099.17 Q1480.57 2104.58 1489.46 2104.58 Q1493.98 2104.58 1497.97 2102.95 Q1502 2101.32 1505.54 2098.02 L1505.54 2105.35 Q1501.86 2107.85 1497.73 2109.1 Q1493.63 2110.35 1489.04 2110.35 Q1477.27 2110.35 1470.5 2103.16 Q1463.73 2095.94 1463.73 2083.47 Q1463.73 2070.97 1470.5 2063.78 Q1477.27 2056.56 1489.04 2056.56 Q1493.7 2056.56 1497.79 2057.81 Q1501.93 2059.03 1505.54 2061.49 Z" fill="#000000" fill-rule="nonzero" fill-opacity="1" /><path clip-path="url(#clip070)" d="M1523.38 2063.26 L1523.38 2103.58 L1531.86 2103.58 Q1542.59 2103.58 1547.55 2098.71 Q1552.55 2093.85 1552.55 2083.37 Q1552.55 2072.95 1547.55 2068.12 Q1542.59 2063.26 1531.86 2063.26 L1523.38 2063.26 M1516.37 2057.5 L1530.78 2057.5 Q1545.85 2057.5 1552.9 2063.78 Q1559.95 2070.03 1559.95 2083.37 Q1559.95 2096.77 1552.86 2103.06 Q1545.78 2109.34 1530.78 2109.34 L1516.37 2109.34 L1516.37 2057.5 Z" fill="#000000" fill-rule="nonzero" fill-opacity="1" /><path clip-path="url(#clip070)" d="M1595.71 2085.03 Q1597.97 2085.8 1600.09 2088.3 Q1602.24 2090.8 1604.39 2095.17 L1611.51 2109.34 L1603.97 2109.34 L1597.34 2096.04 Q1594.77 2090.83 1592.34 2089.13 Q1589.95 2087.43 1585.78 2087.43 L1578.14 2087.43 L1578.14 2109.34 L1571.13 2109.34 L1571.13 2057.5 L1586.96 2057.5 Q1595.85 2057.5 1600.22 2061.22 Q1604.6 2064.93 1604.6 2072.43 Q1604.6 2077.33 1602.31 2080.56 Q1600.05 2083.78 1595.71 2085.03 M1578.14 2063.26 L1578.14 2081.67 L1586.96 2081.67 Q1592.03 2081.67 1594.6 2079.34 Q1597.2 2076.98 1597.2 2072.43 Q1597.2 2067.88 1594.6 2065.59 Q1592.03 2063.26 1586.96 2063.26 L1578.14 2063.26 Z" fill="#000000" fill-rule="nonzero" fill-opacity="1" /><path clip-path="url(#clip070)" d="M1670.85 2071.94 L1670.85 2077.92 Q1668.14 2076.42 1665.4 2075.69 Q1662.69 2074.93 1659.91 2074.93 Q1653.7 2074.93 1650.26 2078.89 Q1646.82 2082.81 1646.82 2089.93 Q1646.82 2097.05 1650.26 2101.01 Q1653.7 2104.93 1659.91 2104.93 Q1662.69 2104.93 1665.4 2104.2 Q1668.14 2103.44 1670.85 2101.94 L1670.85 2107.85 Q1668.18 2109.1 1665.29 2109.72 Q1662.45 2110.35 1659.22 2110.35 Q1650.43 2110.35 1645.26 2104.83 Q1640.09 2099.31 1640.09 2089.93 Q1640.09 2080.42 1645.29 2074.97 Q1650.54 2069.51 1659.63 2069.51 Q1662.59 2069.51 1665.4 2070.14 Q1668.21 2070.73 1670.85 2071.94 Z" fill="#000000" fill-rule="nonzero" fill-opacity="1" /><path clip-path="url(#clip070)" d="M1697.03 2074.93 Q1691.89 2074.93 1688.9 2078.96 Q1685.92 2082.95 1685.92 2089.93 Q1685.92 2096.91 1688.87 2100.94 Q1691.86 2104.93 1697.03 2104.93 Q1702.13 2104.93 1705.12 2100.9 Q1708.11 2096.87 1708.11 2089.93 Q1708.11 2083.02 1705.12 2078.99 Q1702.13 2074.93 1697.03 2074.93 M1697.03 2069.51 Q1705.36 2069.51 1710.12 2074.93 Q1714.88 2080.35 1714.88 2089.93 Q1714.88 2099.48 1710.12 2104.93 Q1705.36 2110.35 1697.03 2110.35 Q1688.66 2110.35 1683.9 2104.93 Q1679.18 2099.48 1679.18 2089.93 Q1679.18 2080.35 1683.9 2074.93 Q1688.66 2069.51 1697.03 2069.51 Z" fill="#000000" fill-rule="nonzero" fill-opacity="1" /><path clip-path="url(#clip070)" d="M1748 2076.42 Q1746.93 2075.8 1745.64 2075.52 Q1744.39 2075.21 1742.86 2075.21 Q1737.45 2075.21 1734.53 2078.75 Q1731.65 2082.26 1731.65 2088.85 L1731.65 2109.34 L1725.22 2109.34 L1725.22 2070.45 L1731.65 2070.45 L1731.65 2076.49 Q1733.66 2072.95 1736.89 2071.25 Q1740.12 2069.51 1744.74 2069.51 Q1745.4 2069.51 1746.2 2069.62 Q1746.99 2069.69 1747.97 2069.86 L1748 2076.42 Z" fill="#000000" fill-rule="nonzero" fill-opacity="1" /><path clip-path="url(#clip070)" d="M1775.99 2076.42 Q1774.91 2075.8 1773.63 2075.52 Q1772.38 2075.21 1770.85 2075.21 Q1765.43 2075.21 1762.52 2078.75 Q1759.63 2082.26 1759.63 2088.85 L1759.63 2109.34 L1753.21 2109.34 L1753.21 2070.45 L1759.63 2070.45 L1759.63 2076.49 Q1761.65 2072.95 1764.88 2071.25 Q1768.11 2069.51 1772.72 2069.51 Q1773.38 2069.51 1774.18 2069.62 Q1774.98 2069.69 1775.95 2069.86 L1775.99 2076.42 Z" fill="#000000" fill-rule="nonzero" fill-opacity="1" /><path clip-path="url(#clip070)" d="M1814.39 2088.3 L1814.39 2091.42 L1785.02 2091.42 Q1785.43 2098.02 1788.97 2101.49 Q1792.55 2104.93 1798.9 2104.93 Q1802.58 2104.93 1806.02 2104.03 Q1809.49 2103.12 1812.9 2101.32 L1812.9 2107.36 Q1809.46 2108.82 1805.85 2109.58 Q1802.24 2110.35 1798.52 2110.35 Q1789.22 2110.35 1783.77 2104.93 Q1778.35 2099.51 1778.35 2090.28 Q1778.35 2080.73 1783.49 2075.14 Q1788.66 2069.51 1797.41 2069.51 Q1805.26 2069.51 1809.81 2074.58 Q1814.39 2079.62 1814.39 2088.3 M1808 2086.42 Q1807.93 2081.18 1805.05 2078.06 Q1802.2 2074.93 1797.48 2074.93 Q1792.13 2074.93 1788.9 2077.95 Q1785.71 2080.97 1785.22 2086.46 L1808 2086.42 Z" fill="#000000" fill-rule="nonzero" fill-opacity="1" /><path clip-path="url(#clip070)" d="M1852.86 2071.94 L1852.86 2077.92 Q1850.15 2076.42 1847.41 2075.69 Q1844.7 2074.93 1841.92 2074.93 Q1835.71 2074.93 1832.27 2078.89 Q1828.83 2082.81 1828.83 2089.93 Q1828.83 2097.05 1832.27 2101.01 Q1835.71 2104.93 1841.92 2104.93 Q1844.7 2104.93 1847.41 2104.2 Q1850.15 2103.44 1852.86 2101.94 L1852.86 2107.85 Q1850.19 2109.1 1847.31 2109.72 Q1844.46 2110.35 1841.23 2110.35 Q1832.45 2110.35 1827.27 2104.83 Q1822.1 2099.31 1822.1 2089.93 Q1822.1 2080.42 1827.31 2074.97 Q1832.55 2069.51 1841.65 2069.51 Q1844.6 2069.51 1847.41 2070.14 Q1850.22 2070.73 1852.86 2071.94 Z" fill="#000000" fill-rule="nonzero" fill-opacity="1" /><path clip-path="url(#clip070)" d="M1870.29 2059.41 L1870.29 2070.45 L1883.45 2070.45 L1883.45 2075.42 L1870.29 2075.42 L1870.29 2096.53 Q1870.29 2101.28 1871.58 2102.64 Q1872.9 2103.99 1876.89 2103.99 L1883.45 2103.99 L1883.45 2109.34 L1876.89 2109.34 Q1869.49 2109.34 1866.68 2106.6 Q1863.87 2103.82 1863.87 2096.53 L1863.87 2075.42 L1859.18 2075.42 L1859.18 2070.45 L1863.87 2070.45 L1863.87 2059.41 L1870.29 2059.41 Z" fill="#000000" fill-rule="nonzero" fill-opacity="1" /><path clip-path="url(#clip070)" d="M1891.85 2070.45 L1898.24 2070.45 L1898.24 2109.34 L1891.85 2109.34 L1891.85 2070.45 M1891.85 2055.31 L1898.24 2055.31 L1898.24 2063.4 L1891.85 2063.4 L1891.85 2055.31 Z" fill="#000000" fill-rule="nonzero" fill-opacity="1" /><path clip-path="url(#clip070)" d="M1926.68 2074.93 Q1921.54 2074.93 1918.56 2078.96 Q1915.57 2082.95 1915.57 2089.93 Q1915.57 2096.91 1918.52 2100.94 Q1921.51 2104.93 1926.68 2104.93 Q1931.79 2104.93 1934.77 2100.9 Q1937.76 2096.87 1937.76 2089.93 Q1937.76 2083.02 1934.77 2078.99 Q1931.79 2074.93 1926.68 2074.93 M1926.68 2069.51 Q1935.01 2069.51 1939.77 2074.93 Q1944.53 2080.35 1944.53 2089.93 Q1944.53 2099.48 1939.77 2104.93 Q1935.01 2110.35 1926.68 2110.35 Q1918.31 2110.35 1913.56 2104.93 Q1908.83 2099.48 1908.83 2089.93 Q1908.83 2080.35 1913.56 2074.93 Q1918.31 2069.51 1926.68 2069.51 Z" fill="#000000" fill-rule="nonzero" fill-opacity="1" /><path clip-path="url(#clip070)" d="M1987.44 2085.87 L1987.44 2109.34 L1981.06 2109.34 L1981.06 2086.08 Q1981.06 2080.56 1978.9 2077.81 Q1976.75 2075.07 1972.44 2075.07 Q1967.27 2075.07 1964.29 2078.37 Q1961.3 2081.67 1961.3 2087.36 L1961.3 2109.34 L1954.88 2109.34 L1954.88 2070.45 L1961.3 2070.45 L1961.3 2076.49 Q1963.59 2072.99 1966.68 2071.25 Q1969.81 2069.51 1973.87 2069.51 Q1980.57 2069.51 1984.01 2073.68 Q1987.44 2077.81 1987.44 2085.87 Z" fill="#000000" fill-rule="nonzero" fill-opacity="1" /></svg>
