<?xml version="1.0" encoding="utf-8"?>
<svg xmlns="http://www.w3.org/2000/svg" xmlns:xlink="http://www.w3.org/1999/xlink" width="600" height="400" viewBox="0 0 2400 1600">
<defs>
  <clipPath id="clip410">
    <rect x="0" y="0" width="2400" height="1600"/>
  </clipPath>
</defs>
<path clip-path="url(#clip410)" d="M0 1600 L2400 1600 L2400 0 L0 0  Z" fill="#ffffff" fill-rule="evenodd" fill-opacity="1"/>
<defs>
  <clipPath id="clip411">
    <rect x="480" y="0" width="1681" height="1600"/>
  </clipPath>
</defs>
<path clip-path="url(#clip410)" d="M257.366 1423.18 L2352.76 1423.18 L2352.76 47.2441 L257.366 47.2441  Z" fill="#ffffff" fill-rule="evenodd" fill-opacity="1"/>
<defs>
  <clipPath id="clip412">
    <rect x="257" y="47" width="2096" height="1377"/>
  </clipPath>
</defs>
<polyline clip-path="url(#clip412)" style="stroke:#000000; stroke-linecap:round; stroke-linejoin:round; stroke-width:2; stroke-opacity:0.1; fill:none" points="316.67,1423.18 316.67,47.2441 "/>
<polyline clip-path="url(#clip412)" style="stroke:#000000; stroke-linecap:round; stroke-linejoin:round; stroke-width:2; stroke-opacity:0.1; fill:none" points="646.133,1423.18 646.133,47.2441 "/>
<polyline clip-path="url(#clip412)" style="stroke:#000000; stroke-linecap:round; stroke-linejoin:round; stroke-width:2; stroke-opacity:0.1; fill:none" points="975.597,1423.18 975.597,47.2441 "/>
<polyline clip-path="url(#clip412)" style="stroke:#000000; stroke-linecap:round; stroke-linejoin:round; stroke-width:2; stroke-opacity:0.1; fill:none" points="1305.06,1423.18 1305.06,47.2441 "/>
<polyline clip-path="url(#clip412)" style="stroke:#000000; stroke-linecap:round; stroke-linejoin:round; stroke-width:2; stroke-opacity:0.1; fill:none" points="1634.52,1423.18 1634.52,47.2441 "/>
<polyline clip-path="url(#clip412)" style="stroke:#000000; stroke-linecap:round; stroke-linejoin:round; stroke-width:2; stroke-opacity:0.1; fill:none" points="1963.99,1423.18 1963.99,47.2441 "/>
<polyline clip-path="url(#clip412)" style="stroke:#000000; stroke-linecap:round; stroke-linejoin:round; stroke-width:2; stroke-opacity:0.1; fill:none" points="2293.45,1423.18 2293.45,47.2441 "/>
<polyline clip-path="url(#clip412)" style="stroke:#000000; stroke-linecap:round; stroke-linejoin:round; stroke-width:2; stroke-opacity:0.1; fill:none" points="257.366,1384.24 2352.76,1384.24 "/>
<polyline clip-path="url(#clip412)" style="stroke:#000000; stroke-linecap:round; stroke-linejoin:round; stroke-width:2; stroke-opacity:0.1; fill:none" points="257.366,1157.21 2352.76,1157.21 "/>
<polyline clip-path="url(#clip412)" style="stroke:#000000; stroke-linecap:round; stroke-linejoin:round; stroke-width:2; stroke-opacity:0.1; fill:none" points="257.366,930.182 2352.76,930.182 "/>
<polyline clip-path="url(#clip412)" style="stroke:#000000; stroke-linecap:round; stroke-linejoin:round; stroke-width:2; stroke-opacity:0.1; fill:none" points="257.366,703.154 2352.76,703.154 "/>
<polyline clip-path="url(#clip412)" style="stroke:#000000; stroke-linecap:round; stroke-linejoin:round; stroke-width:2; stroke-opacity:0.1; fill:none" points="257.366,476.126 2352.76,476.126 "/>
<polyline clip-path="url(#clip412)" style="stroke:#000000; stroke-linecap:round; stroke-linejoin:round; stroke-width:2; stroke-opacity:0.1; fill:none" points="257.366,249.098 2352.76,249.098 "/>
<polyline clip-path="url(#clip410)" style="stroke:#000000; stroke-linecap:round; stroke-linejoin:round; stroke-width:4; stroke-opacity:1; fill:none" points="257.366,1423.18 2352.76,1423.18 "/>
<polyline clip-path="url(#clip410)" style="stroke:#000000; stroke-linecap:round; stroke-linejoin:round; stroke-width:4; stroke-opacity:1; fill:none" points="316.67,1423.18 316.67,1404.28 "/>
<polyline clip-path="url(#clip410)" style="stroke:#000000; stroke-linecap:round; stroke-linejoin:round; stroke-width:4; stroke-opacity:1; fill:none" points="646.133,1423.18 646.133,1404.28 "/>
<polyline clip-path="url(#clip410)" style="stroke:#000000; stroke-linecap:round; stroke-linejoin:round; stroke-width:4; stroke-opacity:1; fill:none" points="975.597,1423.18 975.597,1404.28 "/>
<polyline clip-path="url(#clip410)" style="stroke:#000000; stroke-linecap:round; stroke-linejoin:round; stroke-width:4; stroke-opacity:1; fill:none" points="1305.06,1423.18 1305.06,1404.28 "/>
<polyline clip-path="url(#clip410)" style="stroke:#000000; stroke-linecap:round; stroke-linejoin:round; stroke-width:4; stroke-opacity:1; fill:none" points="1634.52,1423.18 1634.52,1404.28 "/>
<polyline clip-path="url(#clip410)" style="stroke:#000000; stroke-linecap:round; stroke-linejoin:round; stroke-width:4; stroke-opacity:1; fill:none" points="1963.99,1423.18 1963.99,1404.28 "/>
<polyline clip-path="url(#clip410)" style="stroke:#000000; stroke-linecap:round; stroke-linejoin:round; stroke-width:4; stroke-opacity:1; fill:none" points="2293.45,1423.18 2293.45,1404.28 "/>
<path clip-path="url(#clip410)" d="M316.67 1454.1 Q313.058 1454.1 311.23 1457.66 Q309.424 1461.2 309.424 1468.33 Q309.424 1475.44 311.23 1479.01 Q313.058 1482.55 316.67 1482.55 Q320.304 1482.55 322.109 1479.01 Q323.938 1475.44 323.938 1468.33 Q323.938 1461.2 322.109 1457.66 Q320.304 1454.1 316.67 1454.1 M316.67 1450.39 Q322.48 1450.39 325.535 1455 Q328.614 1459.58 328.614 1468.33 Q328.614 1477.06 325.535 1481.67 Q322.48 1486.25 316.67 1486.25 Q310.859 1486.25 307.781 1481.67 Q304.725 1477.06 304.725 1468.33 Q304.725 1459.58 307.781 1455 Q310.859 1450.39 316.67 1450.39 Z" fill="#000000" fill-rule="nonzero" fill-opacity="1" /><path clip-path="url(#clip410)" d="M636.515 1481.64 L644.154 1481.64 L644.154 1455.28 L635.844 1456.95 L635.844 1452.69 L644.108 1451.02 L648.784 1451.02 L648.784 1481.64 L656.423 1481.64 L656.423 1485.58 L636.515 1485.58 L636.515 1481.64 Z" fill="#000000" fill-rule="nonzero" fill-opacity="1" /><path clip-path="url(#clip410)" d="M970.25 1481.64 L986.569 1481.64 L986.569 1485.58 L964.625 1485.58 L964.625 1481.64 Q967.287 1478.89 971.87 1474.26 Q976.477 1469.61 977.657 1468.27 Q979.903 1465.74 980.782 1464.01 Q981.685 1462.25 981.685 1460.56 Q981.685 1457.8 979.741 1456.07 Q977.819 1454.33 974.718 1454.33 Q972.518 1454.33 970.065 1455.09 Q967.634 1455.86 964.856 1457.41 L964.856 1452.69 Q967.681 1451.55 970.134 1450.97 Q972.588 1450.39 974.625 1450.39 Q979.995 1450.39 983.19 1453.08 Q986.384 1455.77 986.384 1460.26 Q986.384 1462.39 985.574 1464.31 Q984.787 1466.2 982.68 1468.8 Q982.102 1469.47 979 1472.69 Q975.898 1475.88 970.25 1481.64 Z" fill="#000000" fill-rule="nonzero" fill-opacity="1" /><path clip-path="url(#clip410)" d="M1309.31 1466.95 Q1312.67 1467.66 1314.54 1469.93 Q1316.44 1472.2 1316.44 1475.53 Q1316.44 1480.65 1312.92 1483.45 Q1309.4 1486.25 1302.92 1486.25 Q1300.74 1486.25 1298.43 1485.81 Q1296.14 1485.39 1293.68 1484.54 L1293.68 1480.02 Q1295.63 1481.16 1297.94 1481.74 Q1300.26 1482.32 1302.78 1482.32 Q1307.18 1482.32 1309.47 1480.58 Q1311.79 1478.84 1311.79 1475.53 Q1311.79 1472.48 1309.63 1470.77 Q1307.5 1469.03 1303.68 1469.03 L1299.66 1469.03 L1299.66 1465.19 L1303.87 1465.19 Q1307.32 1465.19 1309.15 1463.82 Q1310.98 1462.43 1310.98 1459.84 Q1310.98 1457.18 1309.08 1455.77 Q1307.2 1454.33 1303.68 1454.33 Q1301.76 1454.33 1299.56 1454.75 Q1297.36 1455.16 1294.73 1456.04 L1294.73 1451.88 Q1297.39 1451.14 1299.7 1450.77 Q1302.04 1450.39 1304.1 1450.39 Q1309.42 1450.39 1312.53 1452.83 Q1315.63 1455.23 1315.63 1459.35 Q1315.63 1462.22 1313.98 1464.21 Q1312.34 1466.18 1309.31 1466.95 Z" fill="#000000" fill-rule="nonzero" fill-opacity="1" /><path clip-path="url(#clip410)" d="M1637.53 1455.09 L1625.73 1473.54 L1637.53 1473.54 L1637.53 1455.09 M1636.31 1451.02 L1642.19 1451.02 L1642.19 1473.54 L1647.12 1473.54 L1647.12 1477.43 L1642.19 1477.43 L1642.19 1485.58 L1637.53 1485.58 L1637.53 1477.43 L1621.93 1477.43 L1621.93 1472.92 L1636.31 1451.02 Z" fill="#000000" fill-rule="nonzero" fill-opacity="1" /><path clip-path="url(#clip410)" d="M1954.27 1451.02 L1972.62 1451.02 L1972.62 1454.96 L1958.55 1454.96 L1958.55 1463.43 Q1959.57 1463.08 1960.59 1462.92 Q1961.6 1462.73 1962.62 1462.73 Q1968.41 1462.73 1971.79 1465.9 Q1975.17 1469.08 1975.17 1474.49 Q1975.17 1480.07 1971.7 1483.17 Q1968.22 1486.25 1961.91 1486.25 Q1959.73 1486.25 1957.46 1485.88 Q1955.22 1485.51 1952.81 1484.77 L1952.81 1480.07 Q1954.89 1481.2 1957.11 1481.76 Q1959.34 1482.32 1961.81 1482.32 Q1965.82 1482.32 1968.16 1480.21 Q1970.49 1478.1 1970.49 1474.49 Q1970.49 1470.88 1968.16 1468.77 Q1965.82 1466.67 1961.81 1466.67 Q1959.94 1466.67 1958.06 1467.08 Q1956.21 1467.5 1954.27 1468.38 L1954.27 1451.02 Z" fill="#000000" fill-rule="nonzero" fill-opacity="1" /><path clip-path="url(#clip410)" d="M2293.86 1466.44 Q2290.71 1466.44 2288.86 1468.59 Q2287.03 1470.74 2287.03 1474.49 Q2287.03 1478.22 2288.86 1480.39 Q2290.71 1482.55 2293.86 1482.55 Q2297.01 1482.55 2298.83 1480.39 Q2300.69 1478.22 2300.69 1474.49 Q2300.69 1470.74 2298.83 1468.59 Q2297.01 1466.44 2293.86 1466.44 M2303.14 1451.78 L2303.14 1456.04 Q2301.38 1455.21 2299.58 1454.77 Q2297.79 1454.33 2296.03 1454.33 Q2291.4 1454.33 2288.95 1457.45 Q2286.52 1460.58 2286.17 1466.9 Q2287.54 1464.89 2289.6 1463.82 Q2291.66 1462.73 2294.14 1462.73 Q2299.34 1462.73 2302.35 1465.9 Q2305.39 1469.05 2305.39 1474.49 Q2305.39 1479.82 2302.24 1483.03 Q2299.09 1486.25 2293.86 1486.25 Q2287.86 1486.25 2284.69 1481.67 Q2281.52 1477.06 2281.52 1468.33 Q2281.52 1460.14 2285.41 1455.28 Q2289.3 1450.39 2295.85 1450.39 Q2297.61 1450.39 2299.39 1450.74 Q2301.2 1451.09 2303.14 1451.78 Z" fill="#000000" fill-rule="nonzero" fill-opacity="1" /><path clip-path="url(#clip410)" d="M1244.22 1522.27 L1244.22 1532.4 L1256.28 1532.4 L1256.28 1536.95 L1244.22 1536.95 L1244.22 1556.3 Q1244.22 1560.66 1245.4 1561.9 Q1246.61 1563.14 1250.27 1563.14 L1256.28 1563.14 L1256.28 1568.04 L1250.27 1568.04 Q1243.49 1568.04 1240.91 1565.53 Q1238.33 1562.98 1238.33 1556.3 L1238.33 1536.95 L1234.04 1536.95 L1234.04 1532.4 L1238.33 1532.4 L1238.33 1522.27 L1244.22 1522.27 Z" fill="#000000" fill-rule="nonzero" fill-opacity="1" /><path clip-path="url(#clip410)" d="M1263.99 1532.4 L1269.84 1532.4 L1269.84 1568.04 L1263.99 1568.04 L1263.99 1532.4 M1263.99 1518.52 L1269.84 1518.52 L1269.84 1525.93 L1263.99 1525.93 L1263.99 1518.52 Z" fill="#000000" fill-rule="nonzero" fill-opacity="1" /><path clip-path="url(#clip410)" d="M1309.85 1539.24 Q1312.05 1535.29 1315.1 1533.41 Q1318.16 1531.54 1322.3 1531.54 Q1327.87 1531.54 1330.89 1535.45 Q1333.91 1539.33 1333.91 1546.53 L1333.91 1568.04 L1328.03 1568.04 L1328.03 1546.72 Q1328.03 1541.59 1326.21 1539.11 Q1324.4 1536.63 1320.67 1536.63 Q1316.12 1536.63 1313.48 1539.65 Q1310.84 1542.68 1310.84 1547.9 L1310.84 1568.04 L1304.95 1568.04 L1304.95 1546.72 Q1304.95 1541.56 1303.14 1539.11 Q1301.32 1536.63 1297.53 1536.63 Q1293.05 1536.63 1290.4 1539.68 Q1287.76 1542.71 1287.76 1547.9 L1287.76 1568.04 L1281.87 1568.04 L1281.87 1532.4 L1287.76 1532.4 L1287.76 1537.93 Q1289.77 1534.66 1292.57 1533.1 Q1295.37 1531.54 1299.22 1531.54 Q1303.1 1531.54 1305.81 1533.51 Q1308.55 1535.48 1309.85 1539.24 Z" fill="#000000" fill-rule="nonzero" fill-opacity="1" /><path clip-path="url(#clip410)" d="M1376.09 1548.76 L1376.09 1551.62 L1349.16 1551.62 Q1349.54 1557.67 1352.79 1560.85 Q1356.07 1564 1361.89 1564 Q1365.26 1564 1368.42 1563.17 Q1371.6 1562.35 1374.72 1560.69 L1374.72 1566.23 Q1371.57 1567.57 1368.26 1568.27 Q1364.95 1568.97 1361.54 1568.97 Q1353.01 1568.97 1348.01 1564 Q1343.05 1559.04 1343.05 1550.57 Q1343.05 1541.82 1347.76 1536.69 Q1352.5 1531.54 1360.52 1531.54 Q1367.72 1531.54 1371.88 1536.18 Q1376.09 1540.8 1376.09 1548.76 M1370.23 1547.04 Q1370.17 1542.23 1367.52 1539.37 Q1364.91 1536.5 1360.59 1536.5 Q1355.68 1536.5 1352.72 1539.27 Q1349.8 1542.04 1349.35 1547.07 L1370.23 1547.04 Z" fill="#000000" fill-rule="nonzero" fill-opacity="1" /><polyline clip-path="url(#clip410)" style="stroke:#000000; stroke-linecap:round; stroke-linejoin:round; stroke-width:4; stroke-opacity:1; fill:none" points="257.366,1423.18 257.366,47.2441 "/>
<polyline clip-path="url(#clip410)" style="stroke:#000000; stroke-linecap:round; stroke-linejoin:round; stroke-width:4; stroke-opacity:1; fill:none" points="257.366,1384.24 276.264,1384.24 "/>
<polyline clip-path="url(#clip410)" style="stroke:#000000; stroke-linecap:round; stroke-linejoin:round; stroke-width:4; stroke-opacity:1; fill:none" points="257.366,1157.21 276.264,1157.21 "/>
<polyline clip-path="url(#clip410)" style="stroke:#000000; stroke-linecap:round; stroke-linejoin:round; stroke-width:4; stroke-opacity:1; fill:none" points="257.366,930.182 276.264,930.182 "/>
<polyline clip-path="url(#clip410)" style="stroke:#000000; stroke-linecap:round; stroke-linejoin:round; stroke-width:4; stroke-opacity:1; fill:none" points="257.366,703.154 276.264,703.154 "/>
<polyline clip-path="url(#clip410)" style="stroke:#000000; stroke-linecap:round; stroke-linejoin:round; stroke-width:4; stroke-opacity:1; fill:none" points="257.366,476.126 276.264,476.126 "/>
<polyline clip-path="url(#clip410)" style="stroke:#000000; stroke-linecap:round; stroke-linejoin:round; stroke-width:4; stroke-opacity:1; fill:none" points="257.366,249.098 276.264,249.098 "/>
<path clip-path="url(#clip410)" d="M114.422 1384.69 L144.098 1384.69 L144.098 1388.62 L114.422 1388.62 L114.422 1384.69 Z" fill="#000000" fill-rule="nonzero" fill-opacity="1" /><path clip-path="url(#clip410)" d="M155.001 1397.58 L162.64 1397.58 L162.64 1371.22 L154.329 1372.88 L154.329 1368.62 L162.593 1366.96 L167.269 1366.96 L167.269 1397.58 L174.908 1397.58 L174.908 1401.52 L155.001 1401.52 L155.001 1397.58 Z" fill="#000000" fill-rule="nonzero" fill-opacity="1" /><path clip-path="url(#clip410)" d="M184.352 1395.64 L189.237 1395.64 L189.237 1401.52 L184.352 1401.52 L184.352 1395.64 Z" fill="#000000" fill-rule="nonzero" fill-opacity="1" /><path clip-path="url(#clip410)" d="M209.422 1370.04 Q205.811 1370.04 203.982 1373.6 Q202.176 1377.14 202.176 1384.27 Q202.176 1391.38 203.982 1394.94 Q205.811 1398.49 209.422 1398.49 Q213.056 1398.49 214.861 1394.94 Q216.69 1391.38 216.69 1384.27 Q216.69 1377.14 214.861 1373.6 Q213.056 1370.04 209.422 1370.04 M209.422 1366.33 Q215.232 1366.33 218.287 1370.94 Q221.366 1375.52 221.366 1384.27 Q221.366 1393 218.287 1397.61 Q215.232 1402.19 209.422 1402.19 Q203.612 1402.19 200.533 1397.61 Q197.477 1393 197.477 1384.27 Q197.477 1375.52 200.533 1370.94 Q203.612 1366.33 209.422 1366.33 Z" fill="#000000" fill-rule="nonzero" fill-opacity="1" /><path clip-path="url(#clip410)" d="M114.607 1157.66 L144.283 1157.66 L144.283 1161.6 L114.607 1161.6 L114.607 1157.66 Z" fill="#000000" fill-rule="nonzero" fill-opacity="1" /><path clip-path="url(#clip410)" d="M164.376 1143.01 Q160.765 1143.01 158.936 1146.57 Q157.13 1150.12 157.13 1157.24 Q157.13 1164.35 158.936 1167.92 Q160.765 1171.46 164.376 1171.46 Q168.01 1171.46 169.815 1167.92 Q171.644 1164.35 171.644 1157.24 Q171.644 1150.12 169.815 1146.57 Q168.01 1143.01 164.376 1143.01 M164.376 1139.31 Q170.186 1139.31 173.241 1143.91 Q176.32 1148.49 176.32 1157.24 Q176.32 1165.97 173.241 1170.58 Q170.186 1175.16 164.376 1175.16 Q158.565 1175.16 155.487 1170.58 Q152.431 1165.97 152.431 1157.24 Q152.431 1148.49 155.487 1143.91 Q158.565 1139.31 164.376 1139.31 Z" fill="#000000" fill-rule="nonzero" fill-opacity="1" /><path clip-path="url(#clip410)" d="M184.538 1168.61 L189.422 1168.61 L189.422 1174.49 L184.538 1174.49 L184.538 1168.61 Z" fill="#000000" fill-rule="nonzero" fill-opacity="1" /><path clip-path="url(#clip410)" d="M199.746 1173.77 L199.746 1169.51 Q201.505 1170.35 203.311 1170.79 Q205.116 1171.23 206.852 1171.23 Q211.482 1171.23 213.912 1168.12 Q216.366 1165 216.713 1158.66 Q215.371 1160.65 213.311 1161.71 Q211.25 1162.78 208.75 1162.78 Q203.565 1162.78 200.533 1159.65 Q197.524 1156.5 197.524 1151.06 Q197.524 1145.74 200.672 1142.52 Q203.82 1139.31 209.051 1139.31 Q215.047 1139.31 218.195 1143.91 Q221.366 1148.49 221.366 1157.24 Q221.366 1165.42 217.477 1170.3 Q213.611 1175.16 207.061 1175.16 Q205.301 1175.16 203.496 1174.81 Q201.69 1174.47 199.746 1173.77 M209.051 1159.12 Q212.199 1159.12 214.028 1156.97 Q215.88 1154.81 215.88 1151.06 Q215.88 1147.34 214.028 1145.18 Q212.199 1143.01 209.051 1143.01 Q205.903 1143.01 204.051 1145.18 Q202.223 1147.34 202.223 1151.06 Q202.223 1154.81 204.051 1156.97 Q205.903 1159.12 209.051 1159.12 Z" fill="#000000" fill-rule="nonzero" fill-opacity="1" /><path clip-path="url(#clip410)" d="M114.515 930.633 L144.191 930.633 L144.191 934.569 L114.515 934.569 L114.515 930.633 Z" fill="#000000" fill-rule="nonzero" fill-opacity="1" /><path clip-path="url(#clip410)" d="M164.283 915.981 Q160.672 915.981 158.843 919.546 Q157.038 923.087 157.038 930.217 Q157.038 937.323 158.843 940.888 Q160.672 944.43 164.283 944.43 Q167.917 944.43 169.723 940.888 Q171.552 937.323 171.552 930.217 Q171.552 923.087 169.723 919.546 Q167.917 915.981 164.283 915.981 M164.283 912.277 Q170.093 912.277 173.149 916.883 Q176.227 921.467 176.227 930.217 Q176.227 938.944 173.149 943.55 Q170.093 948.133 164.283 948.133 Q158.473 948.133 155.394 943.55 Q152.339 938.944 152.339 930.217 Q152.339 921.467 155.394 916.883 Q158.473 912.277 164.283 912.277 Z" fill="#000000" fill-rule="nonzero" fill-opacity="1" /><path clip-path="url(#clip410)" d="M184.445 941.582 L189.329 941.582 L189.329 947.462 L184.445 947.462 L184.445 941.582 Z" fill="#000000" fill-rule="nonzero" fill-opacity="1" /><path clip-path="url(#clip410)" d="M209.514 931.05 Q206.181 931.05 204.26 932.832 Q202.362 934.615 202.362 937.74 Q202.362 940.865 204.26 942.647 Q206.181 944.43 209.514 944.43 Q212.848 944.43 214.769 942.647 Q216.69 940.842 216.69 937.74 Q216.69 934.615 214.769 932.832 Q212.871 931.05 209.514 931.05 M204.838 929.059 Q201.829 928.319 200.139 926.258 Q198.473 924.198 198.473 921.235 Q198.473 917.092 201.412 914.684 Q204.375 912.277 209.514 912.277 Q214.676 912.277 217.616 914.684 Q220.556 917.092 220.556 921.235 Q220.556 924.198 218.866 926.258 Q217.199 928.319 214.213 929.059 Q217.593 929.846 219.468 932.138 Q221.366 934.43 221.366 937.74 Q221.366 942.763 218.287 945.448 Q215.232 948.133 209.514 948.133 Q203.797 948.133 200.718 945.448 Q197.662 942.763 197.662 937.74 Q197.662 934.43 199.561 932.138 Q201.459 929.846 204.838 929.059 M203.125 921.675 Q203.125 924.36 204.792 925.865 Q206.482 927.37 209.514 927.37 Q212.524 927.37 214.213 925.865 Q215.926 924.36 215.926 921.675 Q215.926 918.99 214.213 917.485 Q212.524 915.981 209.514 915.981 Q206.482 915.981 204.792 917.485 Q203.125 918.99 203.125 921.675 Z" fill="#000000" fill-rule="nonzero" fill-opacity="1" /><path clip-path="url(#clip410)" d="M115.325 703.605 L145.001 703.605 L145.001 707.54 L115.325 707.54 L115.325 703.605 Z" fill="#000000" fill-rule="nonzero" fill-opacity="1" /><path clip-path="url(#clip410)" d="M165.093 688.953 Q161.482 688.953 159.653 692.517 Q157.848 696.059 157.848 703.189 Q157.848 710.295 159.653 713.86 Q161.482 717.402 165.093 717.402 Q168.727 717.402 170.533 713.86 Q172.362 710.295 172.362 703.189 Q172.362 696.059 170.533 692.517 Q168.727 688.953 165.093 688.953 M165.093 685.249 Q170.903 685.249 173.959 689.855 Q177.038 694.439 177.038 703.189 Q177.038 711.915 173.959 716.522 Q170.903 721.105 165.093 721.105 Q159.283 721.105 156.204 716.522 Q153.149 711.915 153.149 703.189 Q153.149 694.439 156.204 689.855 Q159.283 685.249 165.093 685.249 Z" fill="#000000" fill-rule="nonzero" fill-opacity="1" /><path clip-path="url(#clip410)" d="M185.255 714.554 L190.139 714.554 L190.139 720.434 L185.255 720.434 L185.255 714.554 Z" fill="#000000" fill-rule="nonzero" fill-opacity="1" /><path clip-path="url(#clip410)" d="M199.144 685.874 L221.366 685.874 L221.366 687.865 L208.82 720.434 L203.936 720.434 L215.741 689.809 L199.144 689.809 L199.144 685.874 Z" fill="#000000" fill-rule="nonzero" fill-opacity="1" /><path clip-path="url(#clip410)" d="M114.26 476.577 L143.936 476.577 L143.936 480.512 L114.26 480.512 L114.26 476.577 Z" fill="#000000" fill-rule="nonzero" fill-opacity="1" /><path clip-path="url(#clip410)" d="M164.028 461.924 Q160.417 461.924 158.589 465.489 Q156.783 469.031 156.783 476.161 Q156.783 483.267 158.589 486.832 Q160.417 490.373 164.028 490.373 Q167.663 490.373 169.468 486.832 Q171.297 483.267 171.297 476.161 Q171.297 469.031 169.468 465.489 Q167.663 461.924 164.028 461.924 M164.028 458.221 Q169.839 458.221 172.894 462.827 Q175.973 467.411 175.973 476.161 Q175.973 484.887 172.894 489.494 Q169.839 494.077 164.028 494.077 Q158.218 494.077 155.14 489.494 Q152.084 484.887 152.084 476.161 Q152.084 467.411 155.14 462.827 Q158.218 458.221 164.028 458.221 Z" fill="#000000" fill-rule="nonzero" fill-opacity="1" /><path clip-path="url(#clip410)" d="M184.19 487.526 L189.075 487.526 L189.075 493.406 L184.19 493.406 L184.19 487.526 Z" fill="#000000" fill-rule="nonzero" fill-opacity="1" /><path clip-path="url(#clip410)" d="M209.838 474.262 Q206.69 474.262 204.838 476.415 Q203.01 478.568 203.01 482.318 Q203.01 486.045 204.838 488.221 Q206.69 490.373 209.838 490.373 Q212.986 490.373 214.815 488.221 Q216.667 486.045 216.667 482.318 Q216.667 478.568 214.815 476.415 Q212.986 474.262 209.838 474.262 M219.121 459.61 L219.121 463.869 Q217.361 463.036 215.556 462.596 Q213.774 462.156 212.014 462.156 Q207.385 462.156 204.931 465.281 Q202.5 468.406 202.153 474.725 Q203.519 472.711 205.579 471.647 Q207.639 470.559 210.116 470.559 Q215.324 470.559 218.334 473.73 Q221.366 476.878 221.366 482.318 Q221.366 487.642 218.218 490.86 Q215.07 494.077 209.838 494.077 Q203.843 494.077 200.672 489.494 Q197.5 484.887 197.5 476.161 Q197.5 467.966 201.389 463.105 Q205.278 458.221 211.829 458.221 Q213.588 458.221 215.371 458.568 Q217.176 458.915 219.121 459.61 Z" fill="#000000" fill-rule="nonzero" fill-opacity="1" /><path clip-path="url(#clip410)" d="M115.418 249.549 L145.093 249.549 L145.093 253.484 L115.418 253.484 L115.418 249.549 Z" fill="#000000" fill-rule="nonzero" fill-opacity="1" /><path clip-path="url(#clip410)" d="M165.186 234.896 Q161.575 234.896 159.746 238.461 Q157.94 242.003 157.94 249.132 Q157.94 256.239 159.746 259.804 Q161.575 263.345 165.186 263.345 Q168.82 263.345 170.626 259.804 Q172.454 256.239 172.454 249.132 Q172.454 242.003 170.626 238.461 Q168.82 234.896 165.186 234.896 M165.186 231.193 Q170.996 231.193 174.052 235.799 Q177.13 240.382 177.13 249.132 Q177.13 257.859 174.052 262.466 Q170.996 267.049 165.186 267.049 Q159.376 267.049 156.297 262.466 Q153.241 257.859 153.241 249.132 Q153.241 240.382 156.297 235.799 Q159.376 231.193 165.186 231.193 Z" fill="#000000" fill-rule="nonzero" fill-opacity="1" /><path clip-path="url(#clip410)" d="M185.348 260.498 L190.232 260.498 L190.232 266.378 L185.348 266.378 L185.348 260.498 Z" fill="#000000" fill-rule="nonzero" fill-opacity="1" /><path clip-path="url(#clip410)" d="M200.463 231.818 L218.82 231.818 L218.82 235.753 L204.746 235.753 L204.746 244.225 Q205.764 243.878 206.783 243.716 Q207.801 243.531 208.82 243.531 Q214.607 243.531 217.986 246.702 Q221.366 249.873 221.366 255.29 Q221.366 260.868 217.894 263.97 Q214.422 267.049 208.102 267.049 Q205.926 267.049 203.658 266.679 Q201.412 266.308 199.005 265.568 L199.005 260.868 Q201.088 262.003 203.311 262.558 Q205.533 263.114 208.01 263.114 Q212.014 263.114 214.352 261.007 Q216.69 258.901 216.69 255.29 Q216.69 251.679 214.352 249.572 Q212.014 247.466 208.01 247.466 Q206.135 247.466 204.26 247.882 Q202.408 248.299 200.463 249.179 L200.463 231.818 Z" fill="#000000" fill-rule="nonzero" fill-opacity="1" /><path clip-path="url(#clip410)" d="M43.5702 782.843 L14.5426 773.868 L14.5426 768.457 L43.5702 777.433 L72.5979 768.457 L72.5979 773.868 L43.5702 782.843 Z" fill="#000000" fill-rule="nonzero" fill-opacity="1" /><path clip-path="url(#clip410)" d="M16.4842 759.577 L16.4842 722.242 L21.3858 722.242 L58.5933 752.288 L58.5933 721.51 L64.0042 721.51 L64.0042 760.309 L59.1026 760.309 L21.895 730.263 L21.895 759.577 L16.4842 759.577 Z" fill="#000000" fill-rule="nonzero" fill-opacity="1" /><path clip-path="url(#clip410)" d="M44.0477 714.698 L44.0477 711.006 L64.3543 711.006 Q68.1737 711.006 69.8924 712.661 Q71.6112 714.285 71.6112 717.913 L71.6112 719.314 L68.8103 719.314 L68.8103 718.327 Q68.8103 716.226 67.9509 715.462 Q67.0915 714.698 64.3543 714.698 L44.0477 714.698 M36.2815 714.698 L36.2815 711.006 L40.4192 711.006 L40.4192 714.698 L36.2815 714.698 Z" fill="#000000" fill-rule="nonzero" fill-opacity="1" /><path clip-path="url(#clip410)" d="M43.5702 687.581 L72.5979 696.556 L72.5979 701.967 L43.5702 692.991 L14.5426 701.967 L14.5426 696.556 L43.5702 687.581 Z" fill="#000000" fill-rule="nonzero" fill-opacity="1" /><polyline clip-path="url(#clip412)" style="stroke:#009af9; stroke-linecap:round; stroke-linejoin:round; stroke-width:4; stroke-opacity:1; fill:none" points="316.67,1384.24 326.553,1381.3 336.437,1372.54 346.321,1358.13 356.205,1338.33 366.089,1313.51 375.973,1284.12 385.857,1250.71 395.741,1213.85 405.625,1174.19 415.509,1132.42 425.393,1089.23 435.277,1045.3 445.16,1001.33 455.044,957.968 464.928,915.832 474.812,875.486 484.696,837.433 494.58,802.11 504.464,769.878 514.348,741.019 524.232,715.737 534.116,694.154 544,676.313 553.883,662.18 563.767,651.646 573.651,644.537 583.535,640.614 593.419,639.583 603.303,641.103 613.187,644.793 623.071,650.239 632.955,657.004 642.839,664.638 652.723,672.688 662.607,680.7 672.49,688.239 682.374,694.888 692.258,700.259 702.142,704.003 712.026,705.813 721.91,705.43 731.794,702.648 741.678,697.32 751.562,689.354 761.446,678.719 771.33,665.44 781.214,649.6 791.097,631.334 800.981,610.823 810.865,588.295 820.749,564.01 830.633,538.261 840.517,511.359 850.401,483.632 860.285,455.415 870.169,427.04 880.053,398.833 889.937,371.105 899.82,344.149 909.704,318.23 919.588,293.587 929.472,270.425 939.356,248.918 949.24,229.204 959.124,211.383 969.008,195.525 978.892,181.664 988.776,169.805 998.66,159.921 1008.54,151.962 1018.43,145.857 1028.31,141.512 1038.2,138.82 1048.08,137.663 1057.96,137.913 1067.85,139.438 1077.73,142.102 1087.61,145.773 1097.5,150.318 1107.38,155.615 1117.27,161.543 1127.15,167.995 1137.03,174.871 1146.92,182.082 1156.8,189.55 1166.69,197.208 1176.57,205.001 1186.45,212.882 1196.34,220.816 1206.22,228.776 1216.11,236.744 1225.99,244.706 1235.87,252.655 1245.76,260.589 1255.64,268.509 1265.53,276.414 1275.41,284.307 1285.29,292.19 1295.18,300.06 1305.06,307.914 1314.94,315.745 1324.83,323.54 1334.71,331.283 1344.6,338.952 1354.48,346.52 1364.36,353.955 1374.25,361.221 1384.13,368.276 1394.02,375.074 1403.9,381.567 1413.78,387.704 1423.67,393.433 1433.55,398.701 1443.44,403.454 1453.32,407.642 1463.2,411.219 1473.09,414.139 1482.97,416.367 1492.86,417.87 1502.74,418.625 1512.62,418.619 1522.51,417.846 1532.39,416.316 1542.27,414.044 1552.16,411.064 1562.04,407.418 1571.93,403.162 1581.81,398.365 1591.69,393.108 1601.58,387.483 1611.46,381.593 1621.35,375.549 1631.23,369.471 1641.11,363.486 1651,357.721 1660.88,352.308 1670.77,347.378 1680.65,343.057 1690.53,339.469 1700.42,336.725 1710.3,334.929 1720.19,334.169 1730.07,334.521 1739.95,336.041 1749.84,338.765 1759.72,342.708 1769.6,347.865 1779.49,354.205 1789.37,361.673 1799.26,370.19 1809.14,379.655 1819.02,389.94 1828.91,400.899 1838.79,412.361 1848.68,424.139 1858.56,436.031 1868.44,447.819 1878.33,459.278 1888.21,470.175 1898.1,480.277 1907.98,489.352 1917.86,497.176 1927.75,503.536 1937.63,508.236 1947.52,511.1 1957.4,511.978 1967.28,510.748 1977.17,507.322 1987.05,501.647 1996.93,493.708 2006.82,483.53 2016.7,471.177 2026.59,456.754 2036.47,440.404 2046.35,422.306 2056.24,402.675 2066.12,381.753 2076.01,359.806 2085.89,337.123 2095.77,314.002 2105.66,290.751 2115.54,267.675 2125.43,245.076 2135.31,223.24 2145.19,202.437 2155.08,182.908 2164.96,164.868 2174.85,148.496 2184.73,133.934 2194.61,121.284 2204.5,110.609 2214.38,101.928 2224.27,95.2215 2234.15,90.431 2244.03,87.4616 2253.92,86.1857 2263.8,86.4466 2273.68,88.0633 2283.57,90.8353 2293.45,94.5472 "/>
<polyline clip-path="url(#clip412)" style="stroke:#e26f46; stroke-linecap:round; stroke-linejoin:round; stroke-width:4; stroke-opacity:1; fill:none" stroke-dasharray="2, 4" points="316.67,1384.24 415.509,1147.03 514.348,774.287 613.187,675.233 712.026,725.473 810.865,610.589 909.704,348.794 1008.54,182.5 1107.38,182.091 1206.22,253.463 1305.06,332.359 1403.9,405.019 1502.74,442.995 1601.58,415.349 1700.42,364.857 1799.26,392.117 1898.1,497.186 1996.93,517.555 2095.77,350.339 2194.61,157.348 2293.45,119.923 "/>
<circle clip-path="url(#clip412)" cx="316.67" cy="1384.24" r="14.4" fill="#e26f46" fill-rule="evenodd" fill-opacity="1" stroke="#000000" stroke-opacity="1" stroke-width="3.2"/>
<circle clip-path="url(#clip412)" cx="415.509" cy="1147.03" r="14.4" fill="#e26f46" fill-rule="evenodd" fill-opacity="1" stroke="#000000" stroke-opacity="1" stroke-width="3.2"/>
<circle clip-path="url(#clip412)" cx="514.348" cy="774.287" r="14.4" fill="#e26f46" fill-rule="evenodd" fill-opacity="1" stroke="#000000" stroke-opacity="1" stroke-width="3.2"/>
<circle clip-path="url(#clip412)" cx="613.187" cy="675.233" r="14.4" fill="#e26f46" fill-rule="evenodd" fill-opacity="1" stroke="#000000" stroke-opacity="1" stroke-width="3.2"/>
<circle clip-path="url(#clip412)" cx="712.026" cy="725.473" r="14.4" fill="#e26f46" fill-rule="evenodd" fill-opacity="1" stroke="#000000" stroke-opacity="1" stroke-width="3.2"/>
<circle clip-path="url(#clip412)" cx="810.865" cy="610.589" r="14.4" fill="#e26f46" fill-rule="evenodd" fill-opacity="1" stroke="#000000" stroke-opacity="1" stroke-width="3.2"/>
<circle clip-path="url(#clip412)" cx="909.704" cy="348.794" r="14.4" fill="#e26f46" fill-rule="evenodd" fill-opacity="1" stroke="#000000" stroke-opacity="1" stroke-width="3.2"/>
<circle clip-path="url(#clip412)" cx="1008.54" cy="182.5" r="14.4" fill="#e26f46" fill-rule="evenodd" fill-opacity="1" stroke="#000000" stroke-opacity="1" stroke-width="3.2"/>
<circle clip-path="url(#clip412)" cx="1107.38" cy="182.091" r="14.4" fill="#e26f46" fill-rule="evenodd" fill-opacity="1" stroke="#000000" stroke-opacity="1" stroke-width="3.2"/>
<circle clip-path="url(#clip412)" cx="1206.22" cy="253.463" r="14.4" fill="#e26f46" fill-rule="evenodd" fill-opacity="1" stroke="#000000" stroke-opacity="1" stroke-width="3.2"/>
<circle clip-path="url(#clip412)" cx="1305.06" cy="332.359" r="14.4" fill="#e26f46" fill-rule="evenodd" fill-opacity="1" stroke="#000000" stroke-opacity="1" stroke-width="3.2"/>
<circle clip-path="url(#clip412)" cx="1403.9" cy="405.019" r="14.4" fill="#e26f46" fill-rule="evenodd" fill-opacity="1" stroke="#000000" stroke-opacity="1" stroke-width="3.2"/>
<circle clip-path="url(#clip412)" cx="1502.74" cy="442.995" r="14.4" fill="#e26f46" fill-rule="evenodd" fill-opacity="1" stroke="#000000" stroke-opacity="1" stroke-width="3.2"/>
<circle clip-path="url(#clip412)" cx="1601.58" cy="415.349" r="14.4" fill="#e26f46" fill-rule="evenodd" fill-opacity="1" stroke="#000000" stroke-opacity="1" stroke-width="3.2"/>
<circle clip-path="url(#clip412)" cx="1700.42" cy="364.857" r="14.4" fill="#e26f46" fill-rule="evenodd" fill-opacity="1" stroke="#000000" stroke-opacity="1" stroke-width="3.2"/>
<circle clip-path="url(#clip412)" cx="1799.26" cy="392.117" r="14.4" fill="#e26f46" fill-rule="evenodd" fill-opacity="1" stroke="#000000" stroke-opacity="1" stroke-width="3.2"/>
<circle clip-path="url(#clip412)" cx="1898.1" cy="497.186" r="14.4" fill="#e26f46" fill-rule="evenodd" fill-opacity="1" stroke="#000000" stroke-opacity="1" stroke-width="3.2"/>
<circle clip-path="url(#clip412)" cx="1996.93" cy="517.555" r="14.4" fill="#e26f46" fill-rule="evenodd" fill-opacity="1" stroke="#000000" stroke-opacity="1" stroke-width="3.2"/>
<circle clip-path="url(#clip412)" cx="2095.77" cy="350.339" r="14.4" fill="#e26f46" fill-rule="evenodd" fill-opacity="1" stroke="#000000" stroke-opacity="1" stroke-width="3.2"/>
<circle clip-path="url(#clip412)" cx="2194.61" cy="157.348" r="14.4" fill="#e26f46" fill-rule="evenodd" fill-opacity="1" stroke="#000000" stroke-opacity="1" stroke-width="3.2"/>
<circle clip-path="url(#clip412)" cx="2293.45" cy="119.923" r="14.4" fill="#e26f46" fill-rule="evenodd" fill-opacity="1" stroke="#000000" stroke-opacity="1" stroke-width="3.2"/>
<polyline clip-path="url(#clip412)" style="stroke:#3da44d; stroke-linecap:round; stroke-linejoin:round; stroke-width:4; stroke-opacity:1; fill:none" stroke-dasharray="2, 4" points="316.67,1384.24 415.509,1136.11 514.348,749.591 613.187,652.874 712.026,710.939 810.865,593.874 909.704,325.685 1008.54,159.49 1107.38,162.466 1206.22,235.151 1305.06,314.126 1403.9,387.473 1502.74,424.812 1601.58,394.56 1700.42,343.768 1799.26,375.712 1898.1,484.622 1996.93,499.858 2095.77,323.279 2194.61,130.542 2293.45,101.281 "/>
<circle clip-path="url(#clip412)" cx="316.67" cy="1384.24" r="14.4" fill="#3da44d" fill-rule="evenodd" fill-opacity="1" stroke="#000000" stroke-opacity="1" stroke-width="3.2"/>
<circle clip-path="url(#clip412)" cx="415.509" cy="1136.11" r="14.4" fill="#3da44d" fill-rule="evenodd" fill-opacity="1" stroke="#000000" stroke-opacity="1" stroke-width="3.2"/>
<circle clip-path="url(#clip412)" cx="514.348" cy="749.591" r="14.4" fill="#3da44d" fill-rule="evenodd" fill-opacity="1" stroke="#000000" stroke-opacity="1" stroke-width="3.2"/>
<circle clip-path="url(#clip412)" cx="613.187" cy="652.874" r="14.4" fill="#3da44d" fill-rule="evenodd" fill-opacity="1" stroke="#000000" stroke-opacity="1" stroke-width="3.2"/>
<circle clip-path="url(#clip412)" cx="712.026" cy="710.939" r="14.4" fill="#3da44d" fill-rule="evenodd" fill-opacity="1" stroke="#000000" stroke-opacity="1" stroke-width="3.2"/>
<circle clip-path="url(#clip412)" cx="810.865" cy="593.874" r="14.4" fill="#3da44d" fill-rule="evenodd" fill-opacity="1" stroke="#000000" stroke-opacity="1" stroke-width="3.2"/>
<circle clip-path="url(#clip412)" cx="909.704" cy="325.685" r="14.4" fill="#3da44d" fill-rule="evenodd" fill-opacity="1" stroke="#000000" stroke-opacity="1" stroke-width="3.2"/>
<circle clip-path="url(#clip412)" cx="1008.54" cy="159.49" r="14.4" fill="#3da44d" fill-rule="evenodd" fill-opacity="1" stroke="#000000" stroke-opacity="1" stroke-width="3.2"/>
<circle clip-path="url(#clip412)" cx="1107.38" cy="162.466" r="14.4" fill="#3da44d" fill-rule="evenodd" fill-opacity="1" stroke="#000000" stroke-opacity="1" stroke-width="3.2"/>
<circle clip-path="url(#clip412)" cx="1206.22" cy="235.151" r="14.4" fill="#3da44d" fill-rule="evenodd" fill-opacity="1" stroke="#000000" stroke-opacity="1" stroke-width="3.2"/>
<circle clip-path="url(#clip412)" cx="1305.06" cy="314.126" r="14.4" fill="#3da44d" fill-rule="evenodd" fill-opacity="1" stroke="#000000" stroke-opacity="1" stroke-width="3.2"/>
<circle clip-path="url(#clip412)" cx="1403.9" cy="387.473" r="14.4" fill="#3da44d" fill-rule="evenodd" fill-opacity="1" stroke="#000000" stroke-opacity="1" stroke-width="3.2"/>
<circle clip-path="url(#clip412)" cx="1502.74" cy="424.812" r="14.4" fill="#3da44d" fill-rule="evenodd" fill-opacity="1" stroke="#000000" stroke-opacity="1" stroke-width="3.2"/>
<circle clip-path="url(#clip412)" cx="1601.58" cy="394.56" r="14.4" fill="#3da44d" fill-rule="evenodd" fill-opacity="1" stroke="#000000" stroke-opacity="1" stroke-width="3.2"/>
<circle clip-path="url(#clip412)" cx="1700.42" cy="343.768" r="14.4" fill="#3da44d" fill-rule="evenodd" fill-opacity="1" stroke="#000000" stroke-opacity="1" stroke-width="3.2"/>
<circle clip-path="url(#clip412)" cx="1799.26" cy="375.712" r="14.4" fill="#3da44d" fill-rule="evenodd" fill-opacity="1" stroke="#000000" stroke-opacity="1" stroke-width="3.2"/>
<circle clip-path="url(#clip412)" cx="1898.1" cy="484.622" r="14.4" fill="#3da44d" fill-rule="evenodd" fill-opacity="1" stroke="#000000" stroke-opacity="1" stroke-width="3.2"/>
<circle clip-path="url(#clip412)" cx="1996.93" cy="499.858" r="14.4" fill="#3da44d" fill-rule="evenodd" fill-opacity="1" stroke="#000000" stroke-opacity="1" stroke-width="3.2"/>
<circle clip-path="url(#clip412)" cx="2095.77" cy="323.279" r="14.4" fill="#3da44d" fill-rule="evenodd" fill-opacity="1" stroke="#000000" stroke-opacity="1" stroke-width="3.2"/>
<circle clip-path="url(#clip412)" cx="2194.61" cy="130.542" r="14.4" fill="#3da44d" fill-rule="evenodd" fill-opacity="1" stroke="#000000" stroke-opacity="1" stroke-width="3.2"/>
<circle clip-path="url(#clip412)" cx="2293.45" cy="101.281" r="14.4" fill="#3da44d" fill-rule="evenodd" fill-opacity="1" stroke="#000000" stroke-opacity="1" stroke-width="3.2"/>
<polyline clip-path="url(#clip412)" style="stroke:#c271d2; stroke-linecap:round; stroke-linejoin:round; stroke-width:4; stroke-opacity:1; fill:none" stroke-dasharray="2, 4" points="316.67,1384.24 415.509,1136.35 514.348,749.957 613.187,652.785 712.026,709.047 810.865,590.402 909.704,322.234 1008.54,156.868 1107.38,160.225 1206.22,232.579 1305.06,311.399 1403.9,384.703 1502.74,422.515 1601.58,392.717 1700.42,341.18 1799.26,372.727 1898.1,483.611 1996.93,501.633 2095.77,324.95 2194.61,129.803 2293.45,99.5345 "/>
<circle clip-path="url(#clip412)" cx="316.67" cy="1384.24" r="14.4" fill="#c271d2" fill-rule="evenodd" fill-opacity="1" stroke="#000000" stroke-opacity="1" stroke-width="3.2"/>
<circle clip-path="url(#clip412)" cx="415.509" cy="1136.35" r="14.4" fill="#c271d2" fill-rule="evenodd" fill-opacity="1" stroke="#000000" stroke-opacity="1" stroke-width="3.2"/>
<circle clip-path="url(#clip412)" cx="514.348" cy="749.957" r="14.4" fill="#c271d2" fill-rule="evenodd" fill-opacity="1" stroke="#000000" stroke-opacity="1" stroke-width="3.2"/>
<circle clip-path="url(#clip412)" cx="613.187" cy="652.785" r="14.4" fill="#c271d2" fill-rule="evenodd" fill-opacity="1" stroke="#000000" stroke-opacity="1" stroke-width="3.2"/>
<circle clip-path="url(#clip412)" cx="712.026" cy="709.047" r="14.4" fill="#c271d2" fill-rule="evenodd" fill-opacity="1" stroke="#000000" stroke-opacity="1" stroke-width="3.2"/>
<circle clip-path="url(#clip412)" cx="810.865" cy="590.402" r="14.4" fill="#c271d2" fill-rule="evenodd" fill-opacity="1" stroke="#000000" stroke-opacity="1" stroke-width="3.2"/>
<circle clip-path="url(#clip412)" cx="909.704" cy="322.234" r="14.4" fill="#c271d2" fill-rule="evenodd" fill-opacity="1" stroke="#000000" stroke-opacity="1" stroke-width="3.2"/>
<circle clip-path="url(#clip412)" cx="1008.54" cy="156.868" r="14.4" fill="#c271d2" fill-rule="evenodd" fill-opacity="1" stroke="#000000" stroke-opacity="1" stroke-width="3.2"/>
<circle clip-path="url(#clip412)" cx="1107.38" cy="160.225" r="14.4" fill="#c271d2" fill-rule="evenodd" fill-opacity="1" stroke="#000000" stroke-opacity="1" stroke-width="3.2"/>
<circle clip-path="url(#clip412)" cx="1206.22" cy="232.579" r="14.4" fill="#c271d2" fill-rule="evenodd" fill-opacity="1" stroke="#000000" stroke-opacity="1" stroke-width="3.2"/>
<circle clip-path="url(#clip412)" cx="1305.06" cy="311.399" r="14.4" fill="#c271d2" fill-rule="evenodd" fill-opacity="1" stroke="#000000" stroke-opacity="1" stroke-width="3.2"/>
<circle clip-path="url(#clip412)" cx="1403.9" cy="384.703" r="14.4" fill="#c271d2" fill-rule="evenodd" fill-opacity="1" stroke="#000000" stroke-opacity="1" stroke-width="3.2"/>
<circle clip-path="url(#clip412)" cx="1502.74" cy="422.515" r="14.4" fill="#c271d2" fill-rule="evenodd" fill-opacity="1" stroke="#000000" stroke-opacity="1" stroke-width="3.2"/>
<circle clip-path="url(#clip412)" cx="1601.58" cy="392.717" r="14.4" fill="#c271d2" fill-rule="evenodd" fill-opacity="1" stroke="#000000" stroke-opacity="1" stroke-width="3.2"/>
<circle clip-path="url(#clip412)" cx="1700.42" cy="341.18" r="14.4" fill="#c271d2" fill-rule="evenodd" fill-opacity="1" stroke="#000000" stroke-opacity="1" stroke-width="3.2"/>
<circle clip-path="url(#clip412)" cx="1799.26" cy="372.727" r="14.4" fill="#c271d2" fill-rule="evenodd" fill-opacity="1" stroke="#000000" stroke-opacity="1" stroke-width="3.2"/>
<circle clip-path="url(#clip412)" cx="1898.1" cy="483.611" r="14.4" fill="#c271d2" fill-rule="evenodd" fill-opacity="1" stroke="#000000" stroke-opacity="1" stroke-width="3.2"/>
<circle clip-path="url(#clip412)" cx="1996.93" cy="501.633" r="14.4" fill="#c271d2" fill-rule="evenodd" fill-opacity="1" stroke="#000000" stroke-opacity="1" stroke-width="3.2"/>
<circle clip-path="url(#clip412)" cx="2095.77" cy="324.95" r="14.4" fill="#c271d2" fill-rule="evenodd" fill-opacity="1" stroke="#000000" stroke-opacity="1" stroke-width="3.2"/>
<circle clip-path="url(#clip412)" cx="2194.61" cy="129.803" r="14.4" fill="#c271d2" fill-rule="evenodd" fill-opacity="1" stroke="#000000" stroke-opacity="1" stroke-width="3.2"/>
<circle clip-path="url(#clip412)" cx="2293.45" cy="99.5345" r="14.4" fill="#c271d2" fill-rule="evenodd" fill-opacity="1" stroke="#000000" stroke-opacity="1" stroke-width="3.2"/>
<path clip-path="url(#clip410)" d="M1555.53 1377.32 L2282.91 1377.32 L2282.91 1118.12 L1555.53 1118.12  Z" fill="#ffffff" fill-rule="evenodd" fill-opacity="1"/>
<polyline clip-path="url(#clip410)" style="stroke:#000000; stroke-linecap:round; stroke-linejoin:round; stroke-width:4; stroke-opacity:1; fill:none" points="1555.53,1377.32 2282.91,1377.32 2282.91,1118.12 1555.53,1118.12 1555.53,1377.32 "/>
<polyline clip-path="url(#clip410)" style="stroke:#009af9; stroke-linecap:round; stroke-linejoin:round; stroke-width:4; stroke-opacity:1; fill:none" points="1578.81,1169.96 1718.5,1169.96 "/>
<path clip-path="url(#clip410)" d="M1765.81 1173.21 L1765.81 1175.29 L1746.23 1175.29 Q1746.51 1179.69 1748.87 1182 Q1751.25 1184.3 1755.49 1184.3 Q1757.94 1184.3 1760.23 1183.69 Q1762.55 1183.09 1764.82 1181.89 L1764.82 1185.92 Q1762.52 1186.89 1760.12 1187.4 Q1757.71 1187.91 1755.23 1187.91 Q1749.03 1187.91 1745.39 1184.3 Q1741.78 1180.68 1741.78 1174.53 Q1741.78 1168.16 1745.21 1164.43 Q1748.66 1160.68 1754.49 1160.68 Q1759.72 1160.68 1762.76 1164.06 Q1765.81 1167.42 1765.81 1173.21 M1761.55 1171.96 Q1761.51 1168.46 1759.58 1166.38 Q1757.69 1164.3 1754.54 1164.3 Q1750.97 1164.3 1748.82 1166.31 Q1746.69 1168.32 1746.37 1171.98 L1761.55 1171.96 Z" fill="#000000" fill-rule="nonzero" fill-opacity="1" /><path clip-path="url(#clip410)" d="M1793.52 1161.31 L1784.14 1173.93 L1794 1187.24 L1788.98 1187.24 L1781.44 1177.05 L1773.89 1187.24 L1768.87 1187.24 L1778.94 1173.67 L1769.72 1161.31 L1774.75 1161.31 L1781.62 1170.55 L1788.5 1161.31 L1793.52 1161.31 Z" fill="#000000" fill-rule="nonzero" fill-opacity="1" /><path clip-path="url(#clip410)" d="M1811.81 1174.2 Q1806.64 1174.2 1804.65 1175.38 Q1802.66 1176.56 1802.66 1179.41 Q1802.66 1181.68 1804.14 1183.02 Q1805.65 1184.34 1808.22 1184.34 Q1811.76 1184.34 1813.89 1181.84 Q1816.04 1179.32 1816.04 1175.15 L1816.04 1174.2 L1811.81 1174.2 M1820.3 1172.44 L1820.3 1187.24 L1816.04 1187.24 L1816.04 1183.3 Q1814.58 1185.66 1812.41 1186.8 Q1810.23 1187.91 1807.08 1187.91 Q1803.1 1187.91 1800.74 1185.68 Q1798.4 1183.44 1798.4 1179.69 Q1798.4 1175.31 1801.32 1173.09 Q1804.26 1170.87 1810.07 1170.87 L1816.04 1170.87 L1816.04 1170.45 Q1816.04 1167.51 1814.1 1165.92 Q1812.18 1164.3 1808.68 1164.3 Q1806.46 1164.3 1804.35 1164.83 Q1802.25 1165.36 1800.3 1166.43 L1800.3 1162.49 Q1802.64 1161.59 1804.84 1161.15 Q1807.04 1160.68 1809.12 1160.68 Q1814.75 1160.68 1817.52 1163.6 Q1820.3 1166.52 1820.3 1172.44 Z" fill="#000000" fill-rule="nonzero" fill-opacity="1" /><path clip-path="url(#clip410)" d="M1847.73 1162.3 L1847.73 1166.29 Q1845.93 1165.29 1844.1 1164.8 Q1842.29 1164.3 1840.44 1164.3 Q1836.3 1164.3 1834 1166.93 Q1831.71 1169.55 1831.71 1174.3 Q1831.71 1179.04 1834 1181.68 Q1836.3 1184.3 1840.44 1184.3 Q1842.29 1184.3 1844.1 1183.81 Q1845.93 1183.3 1847.73 1182.3 L1847.73 1186.24 Q1845.95 1187.07 1844.03 1187.49 Q1842.13 1187.91 1839.98 1187.91 Q1834.12 1187.91 1830.67 1184.23 Q1827.22 1180.55 1827.22 1174.3 Q1827.22 1167.95 1830.69 1164.32 Q1834.19 1160.68 1840.25 1160.68 Q1842.22 1160.68 1844.1 1161.1 Q1845.97 1161.49 1847.73 1162.3 Z" fill="#000000" fill-rule="nonzero" fill-opacity="1" /><path clip-path="url(#clip410)" d="M1859.35 1153.95 L1859.35 1161.31 L1868.12 1161.31 L1868.12 1164.62 L1859.35 1164.62 L1859.35 1178.69 Q1859.35 1181.86 1860.21 1182.77 Q1861.09 1183.67 1863.75 1183.67 L1868.12 1183.67 L1868.12 1187.24 L1863.75 1187.24 Q1858.82 1187.24 1856.94 1185.41 Q1855.07 1183.55 1855.07 1178.69 L1855.07 1164.62 L1851.94 1164.62 L1851.94 1161.31 L1855.07 1161.31 L1855.07 1153.95 L1859.35 1153.95 Z" fill="#000000" fill-rule="nonzero" fill-opacity="1" /><path clip-path="url(#clip410)" d="M1886.99 1152.68 L1914.14 1152.68 L1914.14 1156.24 L1892.29 1183.3 L1914.68 1183.3 L1914.68 1187.24 L1886.46 1187.24 L1886.46 1183.67 L1908.31 1156.61 L1886.99 1156.61 L1886.99 1152.68 Z" fill="#000000" fill-rule="nonzero" fill-opacity="1" /><path clip-path="url(#clip410)" d="M1936.04 1168.6 Q1939.4 1169.32 1941.27 1171.59 Q1943.17 1173.86 1943.17 1177.19 Q1943.17 1182.3 1939.65 1185.11 Q1936.13 1187.91 1929.65 1187.91 Q1927.48 1187.91 1925.16 1187.47 Q1922.87 1187.05 1920.42 1186.19 L1920.42 1181.68 Q1922.36 1182.81 1924.68 1183.39 Q1926.99 1183.97 1929.51 1183.97 Q1933.91 1183.97 1936.2 1182.24 Q1938.52 1180.5 1938.52 1177.19 Q1938.52 1174.13 1936.37 1172.42 Q1934.24 1170.68 1930.42 1170.68 L1926.39 1170.68 L1926.39 1166.84 L1930.6 1166.84 Q1934.05 1166.84 1935.88 1165.48 Q1937.71 1164.09 1937.71 1161.49 Q1937.71 1158.83 1935.81 1157.42 Q1933.93 1155.99 1930.42 1155.99 Q1928.49 1155.99 1926.3 1156.4 Q1924.1 1156.82 1921.46 1157.7 L1921.46 1153.53 Q1924.12 1152.79 1926.43 1152.42 Q1928.77 1152.05 1930.83 1152.05 Q1936.16 1152.05 1939.26 1154.48 Q1942.36 1156.89 1942.36 1161.01 Q1942.36 1163.88 1940.72 1165.87 Q1939.07 1167.84 1936.04 1168.6 Z" fill="#000000" fill-rule="nonzero" fill-opacity="1" /><polyline clip-path="url(#clip410)" style="stroke:#e26f46; stroke-linecap:round; stroke-linejoin:round; stroke-width:4; stroke-opacity:1; fill:none" stroke-dasharray="2, 4" points="1578.81,1221.8 1718.5,1221.8 "/>
<circle clip-path="url(#clip410)" cx="1648.65" cy="1221.8" r="19.4018" fill="#e26f46" fill-rule="evenodd" fill-opacity="1" stroke="#000000" stroke-opacity="1" stroke-width="4.55111"/>
<path clip-path="url(#clip410)" d="M1741.78 1204.52 L1771.02 1204.52 L1771.02 1208.45 L1758.75 1208.45 L1758.75 1239.08 L1754.05 1239.08 L1754.05 1208.45 L1741.78 1208.45 L1741.78 1204.52 Z" fill="#000000" fill-rule="nonzero" fill-opacity="1" /><path clip-path="url(#clip410)" d="M1783.4 1217.13 Q1782.69 1216.71 1781.83 1216.53 Q1781 1216.32 1779.98 1216.32 Q1776.37 1216.32 1774.42 1218.68 Q1772.5 1221.02 1772.5 1225.42 L1772.5 1239.08 L1768.22 1239.08 L1768.22 1213.15 L1772.5 1213.15 L1772.5 1217.18 Q1773.84 1214.82 1776 1213.68 Q1778.15 1212.52 1781.23 1212.52 Q1781.67 1212.52 1782.2 1212.59 Q1782.73 1212.64 1783.38 1212.76 L1783.4 1217.13 Z" fill="#000000" fill-rule="nonzero" fill-opacity="1" /><path clip-path="url(#clip410)" d="M1796.88 1216.14 Q1793.45 1216.14 1791.46 1218.82 Q1789.47 1221.48 1789.47 1226.14 Q1789.47 1230.79 1791.44 1233.47 Q1793.43 1236.14 1796.88 1236.14 Q1800.28 1236.14 1802.27 1233.45 Q1804.26 1230.77 1804.26 1226.14 Q1804.26 1221.53 1802.27 1218.84 Q1800.28 1216.14 1796.88 1216.14 M1796.88 1212.52 Q1802.43 1212.52 1805.6 1216.14 Q1808.77 1219.75 1808.77 1226.14 Q1808.77 1232.5 1805.6 1236.14 Q1802.43 1239.75 1796.88 1239.75 Q1791.3 1239.75 1788.13 1236.14 Q1784.98 1232.5 1784.98 1226.14 Q1784.98 1219.75 1788.13 1216.14 Q1791.3 1212.52 1796.88 1212.52 Z" fill="#000000" fill-rule="nonzero" fill-opacity="1" /><path clip-path="url(#clip410)" d="M1820.05 1205.79 L1820.05 1213.15 L1828.82 1213.15 L1828.82 1216.46 L1820.05 1216.46 L1820.05 1230.53 Q1820.05 1233.7 1820.9 1234.61 Q1821.78 1235.51 1824.44 1235.51 L1828.82 1235.51 L1828.82 1239.08 L1824.44 1239.08 Q1819.51 1239.08 1817.64 1237.25 Q1815.76 1235.39 1815.76 1230.53 L1815.76 1216.46 L1812.64 1216.46 L1812.64 1213.15 L1815.76 1213.15 L1815.76 1205.79 L1820.05 1205.79 Z" fill="#000000" fill-rule="nonzero" fill-opacity="1" /><path clip-path="url(#clip410)" d="M1838.63 1205.79 L1838.63 1213.15 L1847.41 1213.15 L1847.41 1216.46 L1838.63 1216.46 L1838.63 1230.53 Q1838.63 1233.7 1839.49 1234.61 Q1840.37 1235.51 1843.03 1235.51 L1847.41 1235.51 L1847.41 1239.08 L1843.03 1239.08 Q1838.1 1239.08 1836.23 1237.25 Q1834.35 1235.39 1834.35 1230.53 L1834.35 1216.46 L1831.23 1216.46 L1831.23 1213.15 L1834.35 1213.15 L1834.35 1205.79 L1838.63 1205.79 Z" fill="#000000" fill-rule="nonzero" fill-opacity="1" /><path clip-path="url(#clip410)" d="M1875.19 1225.05 L1875.19 1227.13 L1855.6 1227.13 Q1855.88 1231.53 1858.24 1233.84 Q1860.62 1236.14 1864.86 1236.14 Q1867.31 1236.14 1869.61 1235.53 Q1871.92 1234.93 1874.19 1233.73 L1874.19 1237.76 Q1871.9 1238.73 1869.49 1239.24 Q1867.08 1239.75 1864.61 1239.75 Q1858.4 1239.75 1854.77 1236.14 Q1851.16 1232.52 1851.16 1226.37 Q1851.16 1220 1854.58 1216.27 Q1858.03 1212.52 1863.87 1212.52 Q1869.1 1212.52 1872.13 1215.9 Q1875.19 1219.26 1875.19 1225.05 M1870.93 1223.8 Q1870.88 1220.3 1868.96 1218.22 Q1867.06 1216.14 1863.91 1216.14 Q1860.35 1216.14 1858.19 1218.15 Q1856.06 1220.16 1855.74 1223.82 L1870.93 1223.8 Z" fill="#000000" fill-rule="nonzero" fill-opacity="1" /><path clip-path="url(#clip410)" d="M1897.2 1217.13 Q1896.48 1216.71 1895.62 1216.53 Q1894.79 1216.32 1893.77 1216.32 Q1890.16 1216.32 1888.22 1218.68 Q1886.3 1221.02 1886.3 1225.42 L1886.3 1239.08 L1882.01 1239.08 L1882.01 1213.15 L1886.3 1213.15 L1886.3 1217.18 Q1887.64 1214.82 1889.79 1213.68 Q1891.94 1212.52 1895.02 1212.52 Q1895.46 1212.52 1896 1212.59 Q1896.53 1212.64 1897.18 1212.76 L1897.2 1217.13 Z" fill="#000000" fill-rule="nonzero" fill-opacity="1" /><path clip-path="url(#clip410)" d="M1921.37 1235.14 L1937.68 1235.14 L1937.68 1239.08 L1915.74 1239.08 L1915.74 1235.14 Q1918.4 1232.39 1922.99 1227.76 Q1927.59 1223.1 1928.77 1221.76 Q1931.02 1219.24 1931.9 1217.5 Q1932.8 1215.74 1932.8 1214.05 Q1932.8 1211.3 1930.86 1209.56 Q1928.93 1207.83 1925.83 1207.83 Q1923.63 1207.83 1921.18 1208.59 Q1918.75 1209.35 1915.97 1210.9 L1915.97 1206.18 Q1918.8 1205.05 1921.25 1204.47 Q1923.7 1203.89 1925.74 1203.89 Q1931.11 1203.89 1934.31 1206.58 Q1937.5 1209.26 1937.5 1213.75 Q1937.5 1215.88 1936.69 1217.8 Q1935.9 1219.7 1933.8 1222.29 Q1933.22 1222.96 1930.12 1226.18 Q1927.01 1229.38 1921.37 1235.14 Z" fill="#000000" fill-rule="nonzero" fill-opacity="1" /><path clip-path="url(#clip410)" d="M1961.97 1203.06 L1966.23 1203.06 L1966.23 1239.08 L1961.97 1239.08 L1961.97 1203.06 Z" fill="#000000" fill-rule="nonzero" fill-opacity="1" /><path clip-path="url(#clip410)" d="M1986.92 1226.04 Q1981.76 1226.04 1979.77 1227.22 Q1977.78 1228.4 1977.78 1231.25 Q1977.78 1233.52 1979.26 1234.86 Q1980.76 1236.18 1983.33 1236.18 Q1986.87 1236.18 1989 1233.68 Q1991.16 1231.16 1991.16 1226.99 L1991.16 1226.04 L1986.92 1226.04 M1995.42 1224.28 L1995.42 1239.08 L1991.16 1239.08 L1991.16 1235.14 Q1989.7 1237.5 1987.52 1238.64 Q1985.35 1239.75 1982.2 1239.75 Q1978.22 1239.75 1975.86 1237.52 Q1973.52 1235.28 1973.52 1231.53 Q1973.52 1227.15 1976.43 1224.93 Q1979.37 1222.71 1985.18 1222.71 L1991.16 1222.71 L1991.16 1222.29 Q1991.16 1219.35 1989.21 1217.76 Q1987.29 1216.14 1983.8 1216.14 Q1981.57 1216.14 1979.47 1216.67 Q1977.36 1217.2 1975.42 1218.27 L1975.42 1214.33 Q1977.75 1213.43 1979.95 1212.99 Q1982.15 1212.52 1984.24 1212.52 Q1989.86 1212.52 1992.64 1215.44 Q1995.42 1218.36 1995.42 1224.28 Z" fill="#000000" fill-rule="nonzero" fill-opacity="1" /><path clip-path="url(#clip410)" d="M2014.98 1241.48 Q2013.17 1246.11 2011.46 1247.52 Q2009.74 1248.94 2006.87 1248.94 L2003.47 1248.94 L2003.47 1245.37 L2005.97 1245.37 Q2007.73 1245.37 2008.7 1244.54 Q2009.68 1243.7 2010.86 1240.6 L2011.62 1238.66 L2001.13 1213.15 L2005.65 1213.15 L2013.75 1233.43 L2021.85 1213.15 L2026.36 1213.15 L2014.98 1241.48 Z" fill="#000000" fill-rule="nonzero" fill-opacity="1" /><path clip-path="url(#clip410)" d="M2054.42 1225.05 L2054.42 1227.13 L2034.84 1227.13 Q2035.11 1231.53 2037.48 1233.84 Q2039.86 1236.14 2044.1 1236.14 Q2046.55 1236.14 2048.84 1235.53 Q2051.16 1234.93 2053.42 1233.73 L2053.42 1237.76 Q2051.13 1238.73 2048.73 1239.24 Q2046.32 1239.75 2043.84 1239.75 Q2037.64 1239.75 2034 1236.14 Q2030.39 1232.52 2030.39 1226.37 Q2030.39 1220 2033.82 1216.27 Q2037.27 1212.52 2043.1 1212.52 Q2048.33 1212.52 2051.36 1215.9 Q2054.42 1219.26 2054.42 1225.05 M2050.16 1223.8 Q2050.11 1220.3 2048.19 1218.22 Q2046.3 1216.14 2043.15 1216.14 Q2039.58 1216.14 2037.43 1218.15 Q2035.3 1220.16 2034.98 1223.82 L2050.16 1223.8 Z" fill="#000000" fill-rule="nonzero" fill-opacity="1" /><path clip-path="url(#clip410)" d="M2076.43 1217.13 Q2075.72 1216.71 2074.86 1216.53 Q2074.03 1216.32 2073.01 1216.32 Q2069.4 1216.32 2067.45 1218.68 Q2065.53 1221.02 2065.53 1225.42 L2065.53 1239.08 L2061.25 1239.08 L2061.25 1213.15 L2065.53 1213.15 L2065.53 1217.18 Q2066.87 1214.82 2069.03 1213.68 Q2071.18 1212.52 2074.26 1212.52 Q2074.7 1212.52 2075.23 1212.59 Q2075.76 1212.64 2076.41 1212.76 L2076.43 1217.13 Z" fill="#000000" fill-rule="nonzero" fill-opacity="1" /><path clip-path="url(#clip410)" d="M2097.43 1213.91 L2097.43 1217.94 Q2095.62 1217.02 2093.68 1216.55 Q2091.73 1216.09 2089.65 1216.09 Q2086.48 1216.09 2084.88 1217.06 Q2083.31 1218.03 2083.31 1219.98 Q2083.31 1221.46 2084.44 1222.32 Q2085.58 1223.15 2089 1223.91 L2090.46 1224.24 Q2095 1225.21 2096.9 1226.99 Q2098.82 1228.75 2098.82 1231.92 Q2098.82 1235.53 2095.95 1237.64 Q2093.1 1239.75 2088.1 1239.75 Q2086.02 1239.75 2083.75 1239.33 Q2081.5 1238.94 2079 1238.13 L2079 1233.73 Q2081.36 1234.95 2083.66 1235.58 Q2085.95 1236.18 2088.19 1236.18 Q2091.2 1236.18 2092.82 1235.16 Q2094.44 1234.12 2094.44 1232.25 Q2094.44 1230.51 2093.26 1229.58 Q2092.11 1228.66 2088.15 1227.8 L2086.67 1227.46 Q2082.71 1226.62 2080.95 1224.91 Q2079.19 1223.17 2079.19 1220.16 Q2079.19 1216.51 2081.78 1214.52 Q2084.37 1212.52 2089.14 1212.52 Q2091.5 1212.52 2093.59 1212.87 Q2095.67 1213.22 2097.43 1213.91 Z" fill="#000000" fill-rule="nonzero" fill-opacity="1" /><path clip-path="url(#clip410)" d="M2118.86 1204.52 L2146.02 1204.52 L2146.02 1208.08 L2124.17 1235.14 L2146.55 1235.14 L2146.55 1239.08 L2118.33 1239.08 L2118.33 1235.51 L2140.18 1208.45 L2118.86 1208.45 L2118.86 1204.52 Z" fill="#000000" fill-rule="nonzero" fill-opacity="1" /><path clip-path="url(#clip410)" d="M2167.91 1220.44 Q2171.27 1221.16 2173.15 1223.43 Q2175.04 1225.7 2175.04 1229.03 Q2175.04 1234.14 2171.53 1236.95 Q2168.01 1239.75 2161.53 1239.75 Q2159.35 1239.75 2157.04 1239.31 Q2154.74 1238.89 2152.29 1238.03 L2152.29 1233.52 Q2154.23 1234.65 2156.55 1235.23 Q2158.86 1235.81 2161.39 1235.81 Q2165.79 1235.81 2168.08 1234.08 Q2170.39 1232.34 2170.39 1229.03 Q2170.39 1225.97 2168.24 1224.26 Q2166.11 1222.52 2162.29 1222.52 L2158.26 1222.52 L2158.26 1218.68 L2162.48 1218.68 Q2165.92 1218.68 2167.75 1217.32 Q2169.58 1215.93 2169.58 1213.33 Q2169.58 1210.67 2167.68 1209.26 Q2165.81 1207.83 2162.29 1207.83 Q2160.37 1207.83 2158.17 1208.24 Q2155.97 1208.66 2153.33 1209.54 L2153.33 1205.37 Q2155.99 1204.63 2158.31 1204.26 Q2160.65 1203.89 2162.71 1203.89 Q2168.03 1203.89 2171.13 1206.32 Q2174.23 1208.73 2174.23 1212.85 Q2174.23 1215.72 2172.59 1217.71 Q2170.95 1219.68 2167.91 1220.44 Z" fill="#000000" fill-rule="nonzero" fill-opacity="1" /><polyline clip-path="url(#clip410)" style="stroke:#3da44d; stroke-linecap:round; stroke-linejoin:round; stroke-width:4; stroke-opacity:1; fill:none" stroke-dasharray="2, 4" points="1578.81,1273.64 1718.5,1273.64 "/>
<circle clip-path="url(#clip410)" cx="1648.65" cy="1273.64" r="19.4018" fill="#3da44d" fill-rule="evenodd" fill-opacity="1" stroke="#000000" stroke-opacity="1" stroke-width="4.55111"/>
<path clip-path="url(#clip410)" d="M1741.78 1256.36 L1771.02 1256.36 L1771.02 1260.29 L1758.75 1260.29 L1758.75 1290.92 L1754.05 1290.92 L1754.05 1260.29 L1741.78 1260.29 L1741.78 1256.36 Z" fill="#000000" fill-rule="nonzero" fill-opacity="1" /><path clip-path="url(#clip410)" d="M1783.4 1268.97 Q1782.69 1268.55 1781.83 1268.37 Q1781 1268.16 1779.98 1268.16 Q1776.37 1268.16 1774.42 1270.52 Q1772.5 1272.86 1772.5 1277.26 L1772.5 1290.92 L1768.22 1290.92 L1768.22 1264.99 L1772.5 1264.99 L1772.5 1269.02 Q1773.84 1266.66 1776 1265.52 Q1778.15 1264.36 1781.23 1264.36 Q1781.67 1264.36 1782.2 1264.43 Q1782.73 1264.48 1783.38 1264.6 L1783.4 1268.97 Z" fill="#000000" fill-rule="nonzero" fill-opacity="1" /><path clip-path="url(#clip410)" d="M1796.88 1267.98 Q1793.45 1267.98 1791.46 1270.66 Q1789.47 1273.32 1789.47 1277.98 Q1789.47 1282.63 1791.44 1285.31 Q1793.43 1287.98 1796.88 1287.98 Q1800.28 1287.98 1802.27 1285.29 Q1804.26 1282.61 1804.26 1277.98 Q1804.26 1273.37 1802.27 1270.68 Q1800.28 1267.98 1796.88 1267.98 M1796.88 1264.36 Q1802.43 1264.36 1805.6 1267.98 Q1808.77 1271.59 1808.77 1277.98 Q1808.77 1284.34 1805.6 1287.98 Q1802.43 1291.59 1796.88 1291.59 Q1791.3 1291.59 1788.13 1287.98 Q1784.98 1284.34 1784.98 1277.98 Q1784.98 1271.59 1788.13 1267.98 Q1791.3 1264.36 1796.88 1264.36 Z" fill="#000000" fill-rule="nonzero" fill-opacity="1" /><path clip-path="url(#clip410)" d="M1820.05 1257.63 L1820.05 1264.99 L1828.82 1264.99 L1828.82 1268.3 L1820.05 1268.3 L1820.05 1282.37 Q1820.05 1285.54 1820.9 1286.45 Q1821.78 1287.35 1824.44 1287.35 L1828.82 1287.35 L1828.82 1290.92 L1824.44 1290.92 Q1819.51 1290.92 1817.64 1289.09 Q1815.76 1287.23 1815.76 1282.37 L1815.76 1268.3 L1812.64 1268.3 L1812.64 1264.99 L1815.76 1264.99 L1815.76 1257.63 L1820.05 1257.63 Z" fill="#000000" fill-rule="nonzero" fill-opacity="1" /><path clip-path="url(#clip410)" d="M1838.63 1257.63 L1838.63 1264.99 L1847.41 1264.99 L1847.41 1268.3 L1838.63 1268.3 L1838.63 1282.37 Q1838.63 1285.54 1839.49 1286.45 Q1840.37 1287.35 1843.03 1287.35 L1847.41 1287.35 L1847.41 1290.92 L1843.03 1290.92 Q1838.1 1290.92 1836.23 1289.09 Q1834.35 1287.23 1834.35 1282.37 L1834.35 1268.3 L1831.23 1268.3 L1831.23 1264.99 L1834.35 1264.99 L1834.35 1257.63 L1838.63 1257.63 Z" fill="#000000" fill-rule="nonzero" fill-opacity="1" /><path clip-path="url(#clip410)" d="M1875.19 1276.89 L1875.19 1278.97 L1855.6 1278.97 Q1855.88 1283.37 1858.24 1285.68 Q1860.62 1287.98 1864.86 1287.98 Q1867.31 1287.98 1869.61 1287.37 Q1871.92 1286.77 1874.19 1285.57 L1874.19 1289.6 Q1871.9 1290.57 1869.49 1291.08 Q1867.08 1291.59 1864.61 1291.59 Q1858.4 1291.59 1854.77 1287.98 Q1851.16 1284.36 1851.16 1278.21 Q1851.16 1271.84 1854.58 1268.11 Q1858.03 1264.36 1863.87 1264.36 Q1869.1 1264.36 1872.13 1267.74 Q1875.19 1271.1 1875.19 1276.89 M1870.93 1275.64 Q1870.88 1272.14 1868.96 1270.06 Q1867.06 1267.98 1863.91 1267.98 Q1860.35 1267.98 1858.19 1269.99 Q1856.06 1272 1855.74 1275.66 L1870.93 1275.64 Z" fill="#000000" fill-rule="nonzero" fill-opacity="1" /><path clip-path="url(#clip410)" d="M1897.2 1268.97 Q1896.48 1268.55 1895.62 1268.37 Q1894.79 1268.16 1893.77 1268.16 Q1890.16 1268.16 1888.22 1270.52 Q1886.3 1272.86 1886.3 1277.26 L1886.3 1290.92 L1882.01 1290.92 L1882.01 1264.99 L1886.3 1264.99 L1886.3 1269.02 Q1887.64 1266.66 1889.79 1265.52 Q1891.94 1264.36 1895.02 1264.36 Q1895.46 1264.36 1896 1264.43 Q1896.53 1264.48 1897.18 1264.6 L1897.2 1268.97 Z" fill="#000000" fill-rule="nonzero" fill-opacity="1" /><path clip-path="url(#clip410)" d="M1930.18 1260.43 L1918.38 1278.88 L1930.18 1278.88 L1930.18 1260.43 M1928.96 1256.36 L1934.84 1256.36 L1934.84 1278.88 L1939.77 1278.88 L1939.77 1282.77 L1934.84 1282.77 L1934.84 1290.92 L1930.18 1290.92 L1930.18 1282.77 L1914.58 1282.77 L1914.58 1278.25 L1928.96 1256.36 Z" fill="#000000" fill-rule="nonzero" fill-opacity="1" /><path clip-path="url(#clip410)" d="M1961.97 1254.9 L1966.23 1254.9 L1966.23 1290.92 L1961.97 1290.92 L1961.97 1254.9 Z" fill="#000000" fill-rule="nonzero" fill-opacity="1" /><path clip-path="url(#clip410)" d="M1986.92 1277.88 Q1981.76 1277.88 1979.77 1279.06 Q1977.78 1280.24 1977.78 1283.09 Q1977.78 1285.36 1979.26 1286.7 Q1980.76 1288.02 1983.33 1288.02 Q1986.87 1288.02 1989 1285.52 Q1991.16 1283 1991.16 1278.83 L1991.16 1277.88 L1986.92 1277.88 M1995.42 1276.12 L1995.42 1290.92 L1991.16 1290.92 L1991.16 1286.98 Q1989.7 1289.34 1987.52 1290.48 Q1985.35 1291.59 1982.2 1291.59 Q1978.22 1291.59 1975.86 1289.36 Q1973.52 1287.12 1973.52 1283.37 Q1973.52 1278.99 1976.43 1276.77 Q1979.37 1274.55 1985.18 1274.55 L1991.16 1274.55 L1991.16 1274.13 Q1991.16 1271.19 1989.21 1269.6 Q1987.29 1267.98 1983.8 1267.98 Q1981.57 1267.98 1979.47 1268.51 Q1977.36 1269.04 1975.42 1270.11 L1975.42 1266.17 Q1977.75 1265.27 1979.95 1264.83 Q1982.15 1264.36 1984.24 1264.36 Q1989.86 1264.36 1992.64 1267.28 Q1995.42 1270.2 1995.42 1276.12 Z" fill="#000000" fill-rule="nonzero" fill-opacity="1" /><path clip-path="url(#clip410)" d="M2014.98 1293.32 Q2013.17 1297.95 2011.46 1299.36 Q2009.74 1300.78 2006.87 1300.78 L2003.47 1300.78 L2003.47 1297.21 L2005.97 1297.21 Q2007.73 1297.21 2008.7 1296.38 Q2009.68 1295.54 2010.86 1292.44 L2011.62 1290.5 L2001.13 1264.99 L2005.65 1264.99 L2013.75 1285.27 L2021.85 1264.99 L2026.36 1264.99 L2014.98 1293.32 Z" fill="#000000" fill-rule="nonzero" fill-opacity="1" /><path clip-path="url(#clip410)" d="M2054.42 1276.89 L2054.42 1278.97 L2034.84 1278.97 Q2035.11 1283.37 2037.48 1285.68 Q2039.86 1287.98 2044.1 1287.98 Q2046.55 1287.98 2048.84 1287.37 Q2051.16 1286.77 2053.42 1285.57 L2053.42 1289.6 Q2051.13 1290.57 2048.73 1291.08 Q2046.32 1291.59 2043.84 1291.59 Q2037.64 1291.59 2034 1287.98 Q2030.39 1284.36 2030.39 1278.21 Q2030.39 1271.84 2033.82 1268.11 Q2037.27 1264.36 2043.1 1264.36 Q2048.33 1264.36 2051.36 1267.74 Q2054.42 1271.1 2054.42 1276.89 M2050.16 1275.64 Q2050.11 1272.14 2048.19 1270.06 Q2046.3 1267.98 2043.15 1267.98 Q2039.58 1267.98 2037.43 1269.99 Q2035.3 1272 2034.98 1275.66 L2050.16 1275.64 Z" fill="#000000" fill-rule="nonzero" fill-opacity="1" /><path clip-path="url(#clip410)" d="M2076.43 1268.97 Q2075.72 1268.55 2074.86 1268.37 Q2074.03 1268.16 2073.01 1268.16 Q2069.4 1268.16 2067.45 1270.52 Q2065.53 1272.86 2065.53 1277.26 L2065.53 1290.92 L2061.25 1290.92 L2061.25 1264.99 L2065.53 1264.99 L2065.53 1269.02 Q2066.87 1266.66 2069.03 1265.52 Q2071.18 1264.36 2074.26 1264.36 Q2074.7 1264.36 2075.23 1264.43 Q2075.76 1264.48 2076.41 1264.6 L2076.43 1268.97 Z" fill="#000000" fill-rule="nonzero" fill-opacity="1" /><path clip-path="url(#clip410)" d="M2097.43 1265.75 L2097.43 1269.78 Q2095.62 1268.86 2093.68 1268.39 Q2091.73 1267.93 2089.65 1267.93 Q2086.48 1267.93 2084.88 1268.9 Q2083.31 1269.87 2083.31 1271.82 Q2083.31 1273.3 2084.44 1274.16 Q2085.58 1274.99 2089 1275.75 L2090.46 1276.08 Q2095 1277.05 2096.9 1278.83 Q2098.82 1280.59 2098.82 1283.76 Q2098.82 1287.37 2095.95 1289.48 Q2093.1 1291.59 2088.1 1291.59 Q2086.02 1291.59 2083.75 1291.17 Q2081.5 1290.78 2079 1289.97 L2079 1285.57 Q2081.36 1286.79 2083.66 1287.42 Q2085.95 1288.02 2088.19 1288.02 Q2091.2 1288.02 2092.82 1287 Q2094.44 1285.96 2094.44 1284.09 Q2094.44 1282.35 2093.26 1281.42 Q2092.11 1280.5 2088.15 1279.64 L2086.67 1279.3 Q2082.71 1278.46 2080.95 1276.75 Q2079.19 1275.01 2079.19 1272 Q2079.19 1268.35 2081.78 1266.36 Q2084.37 1264.36 2089.14 1264.36 Q2091.5 1264.36 2093.59 1264.71 Q2095.67 1265.06 2097.43 1265.75 Z" fill="#000000" fill-rule="nonzero" fill-opacity="1" /><path clip-path="url(#clip410)" d="M2118.86 1256.36 L2146.02 1256.36 L2146.02 1259.92 L2124.17 1286.98 L2146.55 1286.98 L2146.55 1290.92 L2118.33 1290.92 L2118.33 1287.35 L2140.18 1260.29 L2118.86 1260.29 L2118.86 1256.36 Z" fill="#000000" fill-rule="nonzero" fill-opacity="1" /><path clip-path="url(#clip410)" d="M2167.91 1272.28 Q2171.27 1273 2173.15 1275.27 Q2175.04 1277.54 2175.04 1280.87 Q2175.04 1285.98 2171.53 1288.79 Q2168.01 1291.59 2161.53 1291.59 Q2159.35 1291.59 2157.04 1291.15 Q2154.74 1290.73 2152.29 1289.87 L2152.29 1285.36 Q2154.23 1286.49 2156.55 1287.07 Q2158.86 1287.65 2161.39 1287.65 Q2165.79 1287.65 2168.08 1285.92 Q2170.39 1284.18 2170.39 1280.87 Q2170.39 1277.81 2168.24 1276.1 Q2166.11 1274.36 2162.29 1274.36 L2158.26 1274.36 L2158.26 1270.52 L2162.48 1270.52 Q2165.92 1270.52 2167.75 1269.16 Q2169.58 1267.77 2169.58 1265.17 Q2169.58 1262.51 2167.68 1261.1 Q2165.81 1259.67 2162.29 1259.67 Q2160.37 1259.67 2158.17 1260.08 Q2155.97 1260.5 2153.33 1261.38 L2153.33 1257.21 Q2155.99 1256.47 2158.31 1256.1 Q2160.65 1255.73 2162.71 1255.73 Q2168.03 1255.73 2171.13 1258.16 Q2174.23 1260.57 2174.23 1264.69 Q2174.23 1267.56 2172.59 1269.55 Q2170.95 1271.52 2167.91 1272.28 Z" fill="#000000" fill-rule="nonzero" fill-opacity="1" /><polyline clip-path="url(#clip410)" style="stroke:#c271d2; stroke-linecap:round; stroke-linejoin:round; stroke-width:4; stroke-opacity:1; fill:none" stroke-dasharray="2, 4" points="1578.81,1325.48 1718.5,1325.48 "/>
<circle clip-path="url(#clip410)" cx="1648.65" cy="1325.48" r="19.4018" fill="#c271d2" fill-rule="evenodd" fill-opacity="1" stroke="#000000" stroke-opacity="1" stroke-width="4.55111"/>
<path clip-path="url(#clip410)" d="M1757.8 1311.37 Q1752.71 1311.37 1749.7 1315.16 Q1746.71 1318.96 1746.71 1325.51 Q1746.71 1332.04 1749.7 1335.83 Q1752.71 1339.63 1757.8 1339.63 Q1762.89 1339.63 1765.86 1335.83 Q1768.84 1332.04 1768.84 1325.51 Q1768.84 1318.96 1765.86 1315.16 Q1762.89 1311.37 1757.8 1311.37 M1757.8 1307.57 Q1765.07 1307.57 1769.42 1312.45 Q1773.77 1317.32 1773.77 1325.51 Q1773.77 1333.68 1769.42 1338.57 Q1765.07 1343.43 1757.8 1343.43 Q1750.51 1343.43 1746.13 1338.57 Q1741.78 1333.7 1741.78 1325.51 Q1741.78 1317.32 1746.13 1312.45 Q1750.51 1307.57 1757.8 1307.57 Z" fill="#000000" fill-rule="nonzero" fill-opacity="1" /><path clip-path="url(#clip410)" d="M1785.02 1338.87 L1785.02 1352.62 L1780.74 1352.62 L1780.74 1316.83 L1785.02 1316.83 L1785.02 1320.76 Q1786.37 1318.45 1788.4 1317.34 Q1790.46 1316.2 1793.31 1316.2 Q1798.03 1316.2 1800.97 1319.95 Q1803.94 1323.7 1803.94 1329.82 Q1803.94 1335.93 1800.97 1339.68 Q1798.03 1343.43 1793.31 1343.43 Q1790.46 1343.43 1788.4 1342.32 Q1786.37 1341.18 1785.02 1338.87 M1799.51 1329.82 Q1799.51 1325.12 1797.57 1322.45 Q1795.65 1319.77 1792.27 1319.77 Q1788.89 1319.77 1786.94 1322.45 Q1785.02 1325.12 1785.02 1329.82 Q1785.02 1334.51 1786.94 1337.2 Q1788.89 1339.86 1792.27 1339.86 Q1795.65 1339.86 1797.57 1337.2 Q1799.51 1334.51 1799.51 1329.82 Z" fill="#000000" fill-rule="nonzero" fill-opacity="1" /><path clip-path="url(#clip410)" d="M1815.21 1309.47 L1815.21 1316.83 L1823.98 1316.83 L1823.98 1320.14 L1815.21 1320.14 L1815.21 1334.21 Q1815.21 1337.38 1816.07 1338.29 Q1816.94 1339.19 1819.61 1339.19 L1823.98 1339.19 L1823.98 1342.76 L1819.61 1342.76 Q1814.68 1342.76 1812.8 1340.93 Q1810.93 1339.07 1810.93 1334.21 L1810.93 1320.14 L1807.8 1320.14 L1807.8 1316.83 L1810.93 1316.83 L1810.93 1309.47 L1815.21 1309.47 Z" fill="#000000" fill-rule="nonzero" fill-opacity="1" /><path clip-path="url(#clip410)" d="M1829.58 1316.83 L1833.84 1316.83 L1833.84 1342.76 L1829.58 1342.76 L1829.58 1316.83 M1829.58 1306.74 L1833.84 1306.74 L1833.84 1312.13 L1829.58 1312.13 L1829.58 1306.74 Z" fill="#000000" fill-rule="nonzero" fill-opacity="1" /><path clip-path="url(#clip410)" d="M1862.94 1321.81 Q1864.54 1318.94 1866.76 1317.57 Q1868.98 1316.2 1871.99 1316.2 Q1876.04 1316.2 1878.24 1319.05 Q1880.44 1321.88 1880.44 1327.11 L1880.44 1342.76 L1876.16 1342.76 L1876.16 1327.25 Q1876.16 1323.52 1874.84 1321.71 Q1873.52 1319.91 1870.81 1319.91 Q1867.5 1319.91 1865.58 1322.11 Q1863.66 1324.31 1863.66 1328.1 L1863.66 1342.76 L1859.37 1342.76 L1859.37 1327.25 Q1859.37 1323.5 1858.06 1321.71 Q1856.74 1319.91 1853.98 1319.91 Q1850.72 1319.91 1848.8 1322.13 Q1846.88 1324.33 1846.88 1328.1 L1846.88 1342.76 L1842.59 1342.76 L1842.59 1316.83 L1846.88 1316.83 L1846.88 1320.86 Q1848.33 1318.47 1850.37 1317.34 Q1852.41 1316.2 1855.21 1316.2 Q1858.03 1316.2 1860 1317.64 Q1861.99 1319.07 1862.94 1321.81 Z" fill="#000000" fill-rule="nonzero" fill-opacity="1" /><path clip-path="url(#clip410)" d="M1888.94 1316.83 L1893.19 1316.83 L1893.19 1342.76 L1888.94 1342.76 L1888.94 1316.83 M1888.94 1306.74 L1893.19 1306.74 L1893.19 1312.13 L1888.94 1312.13 L1888.94 1306.74 Z" fill="#000000" fill-rule="nonzero" fill-opacity="1" /><path clip-path="url(#clip410)" d="M1900.25 1316.83 L1920.49 1316.83 L1920.49 1320.72 L1904.47 1339.35 L1920.49 1339.35 L1920.49 1342.76 L1899.68 1342.76 L1899.68 1338.87 L1915.69 1320.23 L1900.25 1320.23 L1900.25 1316.83 Z" fill="#000000" fill-rule="nonzero" fill-opacity="1" /><path clip-path="url(#clip410)" d="M1949.17 1328.73 L1949.17 1330.81 L1929.58 1330.81 Q1929.86 1335.21 1932.22 1337.52 Q1934.61 1339.82 1938.84 1339.82 Q1941.3 1339.82 1943.59 1339.21 Q1945.9 1338.61 1948.17 1337.41 L1948.17 1341.44 Q1945.88 1342.41 1943.47 1342.92 Q1941.06 1343.43 1938.59 1343.43 Q1932.38 1343.43 1928.75 1339.82 Q1925.14 1336.2 1925.14 1330.05 Q1925.14 1323.68 1928.56 1319.95 Q1932.01 1316.2 1937.85 1316.2 Q1943.08 1316.2 1946.11 1319.58 Q1949.17 1322.94 1949.17 1328.73 M1944.91 1327.48 Q1944.86 1323.98 1942.94 1321.9 Q1941.04 1319.82 1937.89 1319.82 Q1934.33 1319.82 1932.18 1321.83 Q1930.05 1323.84 1929.72 1327.5 L1944.91 1327.48 Z" fill="#000000" fill-rule="nonzero" fill-opacity="1" /><path clip-path="url(#clip410)" d="M1973.22 1320.76 L1973.22 1306.74 L1977.48 1306.74 L1977.48 1342.76 L1973.22 1342.76 L1973.22 1338.87 Q1971.87 1341.18 1969.81 1342.32 Q1967.78 1343.43 1964.91 1343.43 Q1960.21 1343.43 1957.24 1339.68 Q1954.31 1335.93 1954.31 1329.82 Q1954.31 1323.7 1957.24 1319.95 Q1960.21 1316.2 1964.91 1316.2 Q1967.78 1316.2 1969.81 1317.34 Q1971.87 1318.45 1973.22 1320.76 M1958.7 1329.82 Q1958.7 1334.51 1960.62 1337.2 Q1962.57 1339.86 1965.95 1339.86 Q1969.33 1339.86 1971.27 1337.2 Q1973.22 1334.51 1973.22 1329.82 Q1973.22 1325.12 1971.27 1322.45 Q1969.33 1319.77 1965.95 1319.77 Q1962.57 1319.77 1960.62 1322.45 Q1958.7 1325.12 1958.7 1329.82 Z" fill="#000000" fill-rule="nonzero" fill-opacity="1" /><path clip-path="url(#clip410)" d="M2005.95 1338.82 L2022.27 1338.82 L2022.27 1342.76 L2000.32 1342.76 L2000.32 1338.82 Q2002.99 1336.07 2007.57 1331.44 Q2012.18 1326.78 2013.36 1325.44 Q2015.6 1322.92 2016.48 1321.18 Q2017.38 1319.42 2017.38 1317.73 Q2017.38 1314.98 2015.44 1313.24 Q2013.52 1311.51 2010.42 1311.51 Q2008.22 1311.51 2005.76 1312.27 Q2003.33 1313.03 2000.55 1314.58 L2000.55 1309.86 Q2003.38 1308.73 2005.83 1308.15 Q2008.29 1307.57 2010.32 1307.57 Q2015.69 1307.57 2018.89 1310.26 Q2022.08 1312.94 2022.08 1317.43 Q2022.08 1319.56 2021.27 1321.48 Q2020.49 1323.38 2018.38 1325.97 Q2017.8 1326.64 2014.7 1329.86 Q2011.6 1333.06 2005.95 1338.82 Z" fill="#000000" fill-rule="nonzero" fill-opacity="1" /><path clip-path="url(#clip410)" d="M2046.55 1306.74 L2050.81 1306.74 L2050.81 1342.76 L2046.55 1342.76 L2046.55 1306.74 Z" fill="#000000" fill-rule="nonzero" fill-opacity="1" /><path clip-path="url(#clip410)" d="M2071.5 1329.72 Q2066.34 1329.72 2064.35 1330.9 Q2062.36 1332.08 2062.36 1334.93 Q2062.36 1337.2 2063.84 1338.54 Q2065.35 1339.86 2067.92 1339.86 Q2071.46 1339.86 2073.59 1337.36 Q2075.74 1334.84 2075.74 1330.67 L2075.74 1329.72 L2071.5 1329.72 M2080 1327.96 L2080 1342.76 L2075.74 1342.76 L2075.74 1338.82 Q2074.28 1341.18 2072.11 1342.32 Q2069.93 1343.43 2066.78 1343.43 Q2062.8 1343.43 2060.44 1341.2 Q2058.1 1338.96 2058.1 1335.21 Q2058.1 1330.83 2061.02 1328.61 Q2063.96 1326.39 2069.77 1326.39 L2075.74 1326.39 L2075.74 1325.97 Q2075.74 1323.03 2073.8 1321.44 Q2071.87 1319.82 2068.38 1319.82 Q2066.16 1319.82 2064.05 1320.35 Q2061.94 1320.88 2060 1321.95 L2060 1318.01 Q2062.34 1317.11 2064.54 1316.67 Q2066.73 1316.2 2068.82 1316.2 Q2074.44 1316.2 2077.22 1319.12 Q2080 1322.04 2080 1327.96 Z" fill="#000000" fill-rule="nonzero" fill-opacity="1" /><path clip-path="url(#clip410)" d="M2099.56 1345.16 Q2097.75 1349.79 2096.04 1351.2 Q2094.33 1352.62 2091.46 1352.62 L2088.05 1352.62 L2088.05 1349.05 L2090.55 1349.05 Q2092.31 1349.05 2093.29 1348.22 Q2094.26 1347.38 2095.44 1344.28 L2096.2 1342.34 L2085.72 1316.83 L2090.23 1316.83 L2098.33 1337.11 L2106.43 1316.83 L2110.95 1316.83 L2099.56 1345.16 Z" fill="#000000" fill-rule="nonzero" fill-opacity="1" /><path clip-path="url(#clip410)" d="M2139 1328.73 L2139 1330.81 L2119.42 1330.81 Q2119.7 1335.21 2122.06 1337.52 Q2124.44 1339.82 2128.68 1339.82 Q2131.13 1339.82 2133.42 1339.21 Q2135.74 1338.61 2138.01 1337.41 L2138.01 1341.44 Q2135.72 1342.41 2133.31 1342.92 Q2130.9 1343.43 2128.42 1343.43 Q2122.22 1343.43 2118.59 1339.82 Q2114.98 1336.2 2114.98 1330.05 Q2114.98 1323.68 2118.4 1319.95 Q2121.85 1316.2 2127.68 1316.2 Q2132.92 1316.2 2135.95 1319.58 Q2139 1322.94 2139 1328.73 M2134.74 1327.48 Q2134.7 1323.98 2132.78 1321.9 Q2130.88 1319.82 2127.73 1319.82 Q2124.17 1319.82 2122.01 1321.83 Q2119.88 1323.84 2119.56 1327.5 L2134.74 1327.48 Z" fill="#000000" fill-rule="nonzero" fill-opacity="1" /><path clip-path="url(#clip410)" d="M2161.02 1320.81 Q2160.3 1320.39 2159.44 1320.21 Q2158.61 1320 2157.59 1320 Q2153.98 1320 2152.04 1322.36 Q2150.11 1324.7 2150.11 1329.1 L2150.11 1342.76 L2145.83 1342.76 L2145.83 1316.83 L2150.11 1316.83 L2150.11 1320.86 Q2151.46 1318.5 2153.61 1317.36 Q2155.76 1316.2 2158.84 1316.2 Q2159.28 1316.2 2159.81 1316.27 Q2160.35 1316.32 2160.99 1316.44 L2161.02 1320.81 Z" fill="#000000" fill-rule="nonzero" fill-opacity="1" /><path clip-path="url(#clip410)" d="M2182.01 1317.59 L2182.01 1321.62 Q2180.21 1320.7 2178.26 1320.23 Q2176.32 1319.77 2174.23 1319.77 Q2171.06 1319.77 2169.47 1320.74 Q2167.89 1321.71 2167.89 1323.66 Q2167.89 1325.14 2169.03 1326 Q2170.16 1326.83 2173.59 1327.59 L2175.04 1327.92 Q2179.58 1328.89 2181.48 1330.67 Q2183.4 1332.43 2183.4 1335.6 Q2183.4 1339.21 2180.53 1341.32 Q2177.68 1343.43 2172.68 1343.43 Q2170.6 1343.43 2168.33 1343.01 Q2166.09 1342.62 2163.59 1341.81 L2163.59 1337.41 Q2165.95 1338.63 2168.24 1339.26 Q2170.53 1339.86 2172.78 1339.86 Q2175.79 1339.86 2177.41 1338.84 Q2179.03 1337.8 2179.03 1335.93 Q2179.03 1334.19 2177.85 1333.26 Q2176.69 1332.34 2172.73 1331.48 L2171.25 1331.14 Q2167.29 1330.3 2165.53 1328.59 Q2163.77 1326.85 2163.77 1323.84 Q2163.77 1320.19 2166.36 1318.2 Q2168.96 1316.2 2173.73 1316.2 Q2176.09 1316.2 2178.17 1316.55 Q2180.25 1316.9 2182.01 1317.59 Z" fill="#000000" fill-rule="nonzero" fill-opacity="1" /><path clip-path="url(#clip410)" d="M2203.45 1308.2 L2230.6 1308.2 L2230.6 1311.76 L2208.75 1338.82 L2231.13 1338.82 L2231.13 1342.76 L2202.91 1342.76 L2202.91 1339.19 L2224.77 1312.13 L2203.45 1312.13 L2203.45 1308.2 Z" fill="#000000" fill-rule="nonzero" fill-opacity="1" /><path clip-path="url(#clip410)" d="M2252.5 1324.12 Q2255.85 1324.84 2257.73 1327.11 Q2259.63 1329.38 2259.63 1332.71 Q2259.63 1337.82 2256.11 1340.63 Q2252.59 1343.43 2246.11 1343.43 Q2243.93 1343.43 2241.62 1342.99 Q2239.33 1342.57 2236.87 1341.71 L2236.87 1337.2 Q2238.82 1338.33 2241.13 1338.91 Q2243.45 1339.49 2245.97 1339.49 Q2250.37 1339.49 2252.66 1337.76 Q2254.97 1336.02 2254.97 1332.71 Q2254.97 1329.65 2252.82 1327.94 Q2250.69 1326.2 2246.87 1326.2 L2242.85 1326.2 L2242.85 1322.36 L2247.06 1322.36 Q2250.51 1322.36 2252.34 1321 Q2254.16 1319.61 2254.16 1317.01 Q2254.16 1314.35 2252.27 1312.94 Q2250.39 1311.51 2246.87 1311.51 Q2244.95 1311.51 2242.75 1311.92 Q2240.55 1312.34 2237.91 1313.22 L2237.91 1309.05 Q2240.58 1308.31 2242.89 1307.94 Q2245.23 1307.57 2247.29 1307.57 Q2252.61 1307.57 2255.72 1310 Q2258.82 1312.41 2258.82 1316.53 Q2258.82 1319.4 2257.17 1321.39 Q2255.53 1323.36 2252.5 1324.12 Z" fill="#000000" fill-rule="nonzero" fill-opacity="1" /></svg>
